<svg xmlns="http://www.w3.org/2000/svg" width="320" height="52" viewBox="0 0 320 52" fill="none"><path d="M51.1453 26.1847C51.1453 27.5684 51.0388 28.9522 50.8791 30.2295C50.7195 31.5068 50.4534 32.784 50.0808 34.0081C49.7615 35.2322 49.2825 36.4031 48.7503 37.5207C48.2181 38.6383 47.5795 39.756 46.8876 40.7672C45.6635 42.4702 44.2798 44.0137 42.7364 45.3974C41.1929 46.7811 39.4899 47.952 37.6271 48.91C35.7644 49.8679 33.8485 50.613 31.8261 51.092C29.8037 51.571 27.7281 51.8371 25.5992 51.8371C23.7897 51.8371 21.9802 51.6775 20.2771 51.3581C18.5741 51.0388 16.9775 50.5598 15.3808 49.8679C13.8374 49.1761 12.3472 48.3778 11.0167 47.3666C9.63298 46.4086 8.35568 45.2377 7.07837 43.9072C5.90752 42.7363 4.8431 41.4058 3.99156 40.0221C3.14003 38.6383 2.39494 37.1482 1.75629 35.6047C1.17086 34.0613 0.691871 32.4115 0.425766 30.7617C0.159662 29.0586 0 27.3023 0 25.3864C0 23.6833 0.159662 22.0334 0.478988 20.3836C0.798313 18.7338 1.2773 17.1903 1.91595 15.6469C2.5546 14.1035 3.35291 12.6666 4.31089 11.2828C5.26886 9.84586 6.3865 8.56855 7.61058 7.3977C8.78144 6.22684 10.112 5.16242 11.4957 4.25767C12.8794 3.35291 14.3164 2.5546 15.8598 1.91595C17.4032 1.2773 18.9998 0.79831 20.5965 0.478984C22.2995 0.159659 24.0026 0 25.7057 0C28.3667 0 30.9213 0.425777 33.3695 1.22409C35.8176 2.0224 38.1061 3.19326 40.1818 4.63022C42.2574 6.1204 44.1201 7.9299 45.7699 10.0587C47.4198 12.1876 48.7503 14.5825 49.7083 17.2968H35.8709C35.0725 16.4452 34.3275 15.7534 33.4759 15.1147C32.6776 14.5293 31.8793 14.0503 30.9745 13.5713C30.1762 13.1456 29.2715 12.8795 28.4199 12.6666C27.5152 12.5069 26.5572 12.4005 25.6525 12.4005C23.8429 12.4005 22.1399 12.7198 20.5433 13.4117C18.9998 14.0503 17.5629 15.0083 16.392 16.1791C15.2212 17.35 14.2632 18.787 13.6245 20.3836C12.9859 21.9802 12.6133 23.6833 12.6133 25.4396C12.6133 27.4088 12.9859 29.2715 13.6778 30.9745C14.3696 32.6776 15.3276 34.1678 16.5517 35.4451C17.7758 36.7224 19.1595 37.6804 20.7029 38.3722C22.2463 39.0641 23.8962 39.4367 25.6525 39.4367C26.7701 39.4367 27.8877 39.277 28.9521 39.0109C30.0166 38.7448 31.081 38.319 32.039 37.7336C33.0502 37.1482 33.9549 36.4563 34.7 35.6047C35.4983 34.7532 36.1902 33.7952 36.7756 32.6776H22.6189V22.7785H51.0388C51.0388 23.0446 51.0388 23.364 51.092 23.6301C51.1452 23.8962 51.1453 24.2155 51.1453 24.4816V26.1847ZM54.3385 50.9324V1.11764H70.8902C72.1675 1.11764 73.3916 1.11764 74.5624 1.17087C75.7333 1.22409 76.8509 1.33052 77.8621 1.5434C78.8733 1.75629 79.8845 2.02239 80.7893 2.39494C81.7472 2.76748 82.652 3.24648 83.4503 3.88513C84.4615 4.63022 85.4195 5.48175 86.271 6.43973C87.1226 7.3977 87.8144 8.46212 88.3999 9.63298C88.9853 10.8571 89.4111 12.1344 89.7304 13.4117C90.0497 14.7422 90.2094 16.1791 90.2094 17.7226C90.2094 19.7449 89.9433 21.6609 89.411 23.364C88.8788 25.067 88.1337 26.6637 87.1225 28.0474C86.1646 29.4311 84.9405 30.6552 83.61 31.6132C82.2262 32.5712 80.6296 33.3163 78.8201 33.8485L91.0609 50.9324H75.9994L66.4196 34.9129V50.9324H54.3385ZM68.8678 24.0558C70.4112 24.0558 71.7417 23.9494 72.8594 23.7365C73.977 23.5236 74.935 23.2043 75.6268 22.7253C76.3719 22.2463 76.9041 21.6609 77.2767 20.8626C77.6492 20.0643 77.8089 19.1595 77.8089 18.0419C77.8089 16.9774 77.6492 16.0727 77.3299 15.3808C77.0106 14.6357 76.5316 14.0503 75.8397 13.5713C75.1479 13.0923 74.3495 12.773 73.3916 12.5601C72.4336 12.3472 71.2095 12.2408 69.8258 12.2408H66.4729V24.0558H68.8678ZM99.6295 7.3977C100.854 6.22684 102.184 5.16242 103.568 4.25767C104.952 3.35291 106.389 2.60783 107.932 1.96918C109.475 1.38375 111.072 0.904758 112.722 0.585433C114.425 0.266108 116.128 0.106448 117.831 0.106448C119.534 0.106448 121.184 0.266108 122.781 0.585433C124.377 0.904758 125.974 1.38375 127.464 2.0224C128.954 2.66105 130.444 3.40614 131.775 4.36412C133.159 5.26887 134.436 6.33329 135.607 7.50414C136.831 8.72822 137.948 10.0587 138.96 11.4957C139.918 12.8795 140.716 14.3696 141.408 15.913C142.046 17.4564 142.525 19.0531 142.845 20.6497C143.164 22.2463 143.324 23.8962 143.324 25.5992C143.324 27.4087 143.164 29.165 142.898 30.8681C142.632 32.5179 142.153 34.1678 141.514 35.7112C140.876 37.2546 140.131 38.7448 139.226 40.1285C138.321 41.5655 137.31 42.8428 136.139 44.0137C134.968 45.291 133.638 46.4086 132.201 47.3666C130.817 48.3245 129.273 49.1229 127.73 49.8147C126.187 50.4534 124.537 50.9324 122.887 51.3049C121.184 51.6774 119.481 51.8371 117.725 51.8371C115.915 51.8371 114.106 51.6774 112.402 51.3049C110.753 50.9856 109.103 50.4534 107.506 49.8147C105.963 49.1761 104.473 48.3778 103.089 47.3666C101.705 46.4086 100.375 45.2377 99.2037 43.9072C98.0328 42.7363 96.9684 41.4058 96.1169 40.0221C95.2653 38.6383 94.5203 37.1482 93.8816 35.6047C93.2962 34.0613 92.8172 32.4115 92.5511 30.7617C92.285 29.0586 92.1253 27.3023 92.1253 25.3864C92.1253 23.6833 92.285 22.0334 92.6043 20.3836C92.9236 18.7338 93.4026 17.1903 94.0413 15.6469C94.6799 14.1035 95.4782 12.6666 96.4362 11.2828C97.341 9.89909 98.4054 8.62178 99.6295 7.3977ZM117.725 39.5431C119.534 39.5431 121.237 39.1706 122.834 38.4787C124.43 37.7868 125.761 36.8288 126.932 35.6047C128.103 34.3807 129.007 32.9437 129.699 31.2406C130.391 29.5376 130.764 27.6749 130.764 25.6525C130.764 23.843 130.391 22.0867 129.699 20.49C129.007 18.8934 128.049 17.5097 126.932 16.3388C125.761 15.168 124.43 14.2632 122.887 13.5713C121.344 12.8794 119.694 12.5069 117.937 12.5069C116.021 12.5069 114.265 12.8794 112.669 13.5713C111.072 14.2632 109.635 15.2212 108.464 16.3388C107.293 17.5097 106.335 18.8934 105.697 20.49C105.005 22.0867 104.685 23.843 104.685 25.6525C104.685 27.6216 105.058 29.4311 105.75 31.1342C106.442 32.8373 107.4 34.2742 108.624 35.4983C109.848 36.7224 111.285 37.7336 112.828 38.4255C114.425 39.1706 116.021 39.5431 117.725 39.5431ZM158.811 1.11764V31.7729C158.811 33.1566 158.917 34.4339 159.13 35.4983C159.343 36.5627 159.716 37.4675 160.195 38.1594C160.674 38.8512 161.312 39.3834 162.058 39.756C162.803 40.1285 163.707 40.2882 164.719 40.2882C165.783 40.2882 166.688 40.1285 167.486 39.756C168.284 39.4367 168.976 38.8512 169.508 38.1594C170.041 37.4675 170.413 36.5627 170.679 35.5515C170.945 34.4871 171.052 33.2098 171.052 31.7729V1.11764H183.293V32.3051C183.293 35.3387 182.814 38.0529 181.909 40.4479C181.004 42.896 179.727 44.9184 178.13 46.5682C176.534 48.2181 174.564 49.4954 172.276 50.4002C169.987 51.3049 167.433 51.7839 164.665 51.7839C161.845 51.7839 159.343 51.3581 157.108 50.4534C154.873 49.5486 152.957 48.3245 151.413 46.6747C149.87 45.0249 148.699 43.0025 147.848 40.6075C146.996 38.2126 146.57 35.4451 146.57 32.3051V1.11764H158.811ZM186.699 50.9324V1.11764H203.25C204.581 1.11764 205.805 1.11764 206.976 1.17087C208.094 1.22409 209.211 1.33052 210.276 1.5434C211.34 1.75629 212.298 2.02239 213.203 2.39494C214.108 2.76748 215.012 3.24648 215.811 3.88513C216.928 4.68345 217.939 5.53497 218.738 6.43973C219.589 7.3977 220.281 8.46212 220.867 9.63298C221.452 10.8038 221.825 12.1344 222.144 13.4649C222.41 14.8486 222.57 16.2856 222.57 17.829C222.57 19.4256 222.41 20.969 222.037 22.406C221.718 23.7897 221.186 25.1735 220.494 26.4508C219.802 27.7281 219.004 28.8989 217.993 29.9101C217.035 30.9745 215.864 31.8261 214.64 32.5179C213.841 32.9969 212.99 33.4227 212.085 33.6888C211.127 33.9549 210.169 34.221 209.211 34.3807C208.2 34.5403 207.136 34.7 206.018 34.7532C204.9 34.8064 203.676 34.8597 202.346 34.8597H198.886V50.8791H186.699V50.9324ZM201.335 24.0558C202.825 24.0558 204.102 23.9494 205.22 23.7365C206.337 23.5236 207.295 23.2043 207.987 22.7253C208.732 22.2995 209.318 21.6609 209.69 20.8626C210.063 20.0643 210.276 19.1595 210.276 18.0419C210.276 16.9774 210.116 16.0727 209.797 15.3808C209.477 14.6357 208.998 14.0503 208.306 13.5713C207.615 13.0923 206.816 12.773 205.752 12.5601C204.741 12.3472 203.57 12.2408 202.239 12.2408H198.993V24.0558H201.335ZM231.777 7.3977C233.001 6.22684 234.331 5.16242 235.715 4.25767C237.099 3.35291 238.536 2.60783 240.079 1.96918C241.623 1.38375 243.219 0.904758 244.869 0.585433C246.572 0.266108 248.275 0.106448 249.978 0.106448C251.681 0.106448 253.278 0.266108 254.875 0.585433C256.471 0.904758 258.015 1.38375 259.505 2.0224C261.048 2.66105 262.485 3.45936 263.869 4.36412C265.253 5.26887 266.583 6.33329 267.754 7.50414C268.978 8.72822 270.096 10.0587 271.054 11.4957C272.012 12.8795 272.81 14.3696 273.502 15.913C274.141 17.4564 274.673 18.9999 274.992 20.6497C275.312 22.2463 275.471 23.8962 275.471 25.5992C275.471 27.4087 275.312 29.165 274.992 30.8681C274.673 32.5179 274.247 34.1678 273.608 35.7112C273.023 37.2546 272.225 38.7448 271.32 40.1285C270.415 41.5123 269.404 42.8428 268.286 44.0137C267.062 45.2377 265.732 46.3554 264.295 47.3666C262.911 48.3245 261.421 49.1229 259.877 49.8147C258.334 50.4534 256.684 50.9324 255.034 51.3049C253.331 51.6774 251.628 51.8371 249.872 51.8371C248.062 51.8371 246.253 51.6774 244.55 51.3049C242.9 50.9856 241.25 50.4534 239.654 49.8147C238.11 49.1761 236.62 48.3778 235.236 47.3666C233.852 46.4086 232.522 45.2377 231.351 43.9072C230.18 42.7363 229.116 41.4058 228.264 40.0221C227.413 38.6383 226.668 37.1482 226.029 35.6047C225.444 34.0613 224.965 32.4115 224.645 30.7617C224.326 29.0586 224.166 27.3023 224.166 25.3864C224.166 23.6833 224.326 22.0334 224.698 20.3836C225.018 18.787 225.55 17.1903 226.189 15.6469C226.827 14.1035 227.626 12.6666 228.584 11.2828C229.488 9.89909 230.606 8.62178 231.777 7.3977ZM249.872 39.5431C251.681 39.5431 253.385 39.1706 254.981 38.4787C256.578 37.7868 257.908 36.8288 259.079 35.6047C260.25 34.3807 261.155 32.9437 261.793 31.2406C262.485 29.5376 262.805 27.6749 262.805 25.6525C262.805 23.843 262.485 22.0867 261.793 20.49C261.102 18.8934 260.197 17.5097 259.079 16.3388C257.908 15.168 256.578 14.2632 254.981 13.5713C253.385 12.8794 251.735 12.5069 249.978 12.5069C248.169 12.5069 246.413 12.8794 244.816 13.5713C243.219 14.2632 241.782 15.2212 240.612 16.3388C239.441 17.5097 238.483 18.8934 237.844 20.49C237.152 22.0867 236.833 23.843 236.833 25.6525C236.833 27.6216 237.205 29.4311 237.897 31.1342C238.589 32.8373 239.547 34.2742 240.771 35.4983C241.995 36.7224 243.432 37.7336 244.976 38.4255C246.572 39.1706 248.222 39.5431 249.872 39.5431ZM277.919 50.9324V1.11764H288.883L307.191 28.7925V1.11764H319.432V50.9324H308.681L290.16 23.1511V50.9324H277.919Z" fill="#53A318"></path></svg>