<svg xmlns="http://www.w3.org/2000/svg" width="422" height="374" viewBox="0 0 422 374" fill="none"><g opacity="0.1"><circle cx="215" cy="187" r="152.685" transform="rotate(75 215 187)" fill="url(#paint0_linear_17_2373)"></circle><g style="mix-blend-mode:lighten"><path fill-rule="evenodd" clip-rule="evenodd" d="M363.803 161.115C358.631 161.438 353.576 159.307 349.271 156.415C346.685 154.659 344.099 152.542 341.178 151.509C338.256 150.476 334.481 150.579 332.309 152.877C328.637 156.751 332.309 163.736 337.48 165.26C339.988 165.996 342.651 165.905 345.173 166.706C347.694 167.506 350.06 169.688 349.762 172.271C349.418 173.886 348.499 175.321 347.176 176.312C342.367 180.508 335.024 182.832 329.555 179.514C321.875 174.866 321.694 161.851 313.2 158.933C310.873 158.132 307.731 158.662 306.813 160.947C306.477 161.992 306.437 163.109 306.697 164.175C309.024 178.055 322.599 189.146 336.691 188.707C337.986 188.575 339.293 188.636 340.57 188.888C344.061 189.843 345.612 194.233 344.772 197.758C343.931 201.283 341.436 204.111 339.096 206.874C329.054 218.773 320.733 232.02 314.377 246.229C310.795 254.247 307.395 263.104 299.948 267.778C298.102 269.055 295.91 269.74 293.665 269.741C288.636 269.534 285.197 264.692 282.947 260.186C277.923 250.213 274.735 239.42 273.535 228.32C272.514 218.688 272.242 207.39 264.33 201.774C258.615 197.72 250.962 198.301 244.071 196.971C231.142 194.492 219.506 182.768 220.799 169.65C221.859 158.985 231.039 150.45 241.265 147.183C251.492 143.917 262.584 144.937 273.173 146.718C283.762 148.5 294.363 151.018 305.094 150.592C308.235 150.463 312.192 149.301 312.45 146.176C312.838 141.373 303.814 138.92 305.559 134.439C306.955 130.863 312.98 132.606 315.682 129.869C317.441 128.087 316.975 124.924 315.256 123.09C313.395 121.383 311.023 120.335 308.507 120.108C305.725 119.584 302.86 119.699 300.129 120.443C292.372 122.819 288.248 131.754 280.581 134.297C273.949 136.505 266.489 133.277 259.766 135.175C253.496 136.931 247.729 142.922 241.666 140.766C240.288 140.272 239.088 139.382 238.216 138.207C237.345 137.033 236.842 135.627 236.77 134.166C236.698 132.706 237.061 131.258 237.812 130.003C238.564 128.749 239.671 127.745 240.994 127.119C244.73 125.337 249.32 126.873 253.211 125.479C253.457 125.424 253.687 125.314 253.884 125.157C254.081 125.001 254.24 124.802 254.349 124.575C254.543 123.968 254.077 123.374 253.728 122.845C251.686 119.694 253.392 115.24 256.314 112.954C259.236 110.669 263.166 109.972 266.851 109.236C275.03 107.589 283.086 105.385 290.963 102.638C293.639 101.708 296.897 99.5651 295.927 96.9053C295.359 95.3171 293.458 94.607 291.764 94.5553C287.278 94.4004 283.322 97.241 279.288 99.2164C275.255 101.192 269.786 102.109 266.722 98.8291C263.903 95.8207 264.834 90.6818 267.601 87.6218C270.367 84.5617 274.414 83.0898 278.293 81.7082C282.348 80.0452 286.625 78.9839 290.989 78.5578C295.346 78.3383 300.039 79.5649 302.961 82.7799C304.628 84.5875 305.986 87.1311 308.429 87.5185C309.566 87.5942 310.705 87.436 311.778 87.0536C317.646 85.5722 323.729 85.1351 329.749 85.7625C315.547 69.7087 298.128 56.8116 278.62 47.9057C259.112 38.9997 237.949 34.2834 216.5 34.0619C195.051 33.8404 173.795 38.1187 154.106 46.6198C134.418 55.1209 116.736 67.6555 102.205 83.4126C108.76 84.0969 115.276 86.124 121.882 85.8787C126.95 85.6979 131.992 84.1873 136.996 84.9103C139.09 85.2073 141.65 86.9245 140.745 88.7838C140.403 89.3999 139.867 89.8857 139.219 90.1654C137.384 91.1467 135.276 91.6244 133.57 92.8123C131.863 94.0001 130.622 96.3242 131.592 98.1577C132.561 99.9911 134.966 100.288 136.983 100.082C141.728 99.5909 146.033 97.3184 150.454 95.4591C154.876 93.5999 159.711 92.1279 164.327 93.3029C168.942 94.4779 172.924 99.2552 171.606 103.839C170.701 107.002 167.624 109.133 164.443 110.024C161.263 110.914 157.901 110.811 154.604 111.082C153.312 111.186 151.579 111.612 151.269 112.942C151.211 113.244 151.214 113.556 151.279 113.857C151.343 114.159 151.467 114.445 151.644 114.698C153.557 117.706 159.039 116.996 160.448 120.262C161.612 122.974 158.845 125.737 156.182 127.015C151.967 129.029 147.287 129.83 142.814 131.199C138.34 132.567 133.764 134.672 131.178 138.507C127.894 143.206 127.7 150.024 123.11 153.445C119.814 155.912 115.237 155.757 111.216 154.853C107.195 153.949 103.252 152.374 99.1148 152.387C94.9776 152.4 90.4526 154.556 89.4183 158.533C88.6555 161.502 90.0389 164.653 92.0816 166.925C94.2758 169.064 96.6699 170.988 99.2312 172.671C105.825 177.668 116.556 190.257 114.823 193.265C113.091 196.273 102.567 188.978 96.4515 186.809C93.9833 186.089 91.6028 185.097 89.3537 183.852C84.8675 181.038 81.9456 176.364 78.5066 172.348C74.0979 167.183 68.642 162.897 64.5695 157.551C60.2578 179.571 60.8493 202.268 66.302 224.034C71.7548 245.8 81.9352 266.101 96.1217 283.499C110.308 300.896 128.153 314.964 148.392 324.705C168.63 334.446 190.766 339.621 213.231 339.864C235.696 340.106 257.939 335.411 278.384 326.109C298.829 316.808 316.974 303.129 331.534 286.042C346.094 268.954 356.712 248.878 362.635 227.235C368.558 205.592 369.64 182.913 365.807 160.805C365.15 160.969 364.479 161.073 363.803 161.115ZM248.88 99.3585C249.677 99.0827 250.523 98.9781 251.363 99.0515C252.203 99.1249 253.018 99.3747 253.754 99.7846C254.512 100.088 255.208 100.525 255.81 101.076C256.578 101.884 257.095 102.898 257.297 103.994C257.778 105.937 257.568 107.986 256.702 109.791C256.26 110.682 255.619 111.459 254.827 112.061C254.035 112.664 253.115 113.075 252.138 113.264C251.324 113.433 250.477 113.295 249.759 112.877C249.406 112.659 249.135 112.331 248.988 111.943C248.841 111.556 248.826 111.131 248.945 110.734C249.203 110.036 249.94 109.636 250.354 109.003C250.613 108.468 250.724 107.874 250.676 107.282C250.628 106.689 250.423 106.121 250.082 105.634C249.392 104.667 248.77 103.653 248.221 102.599C247.781 101.476 246.385 99.9266 248.88 99.3585ZM240.774 108.397C240.905 107.543 241.272 106.743 241.834 106.085C242.122 105.763 242.515 105.553 242.943 105.491C243.371 105.43 243.807 105.521 244.174 105.75C244.617 106.428 244.921 107.187 245.066 107.983C245.129 109.044 244.93 110.104 244.484 111.069C244.242 111.542 243.842 111.916 243.354 112.128C242.866 112.34 242.32 112.377 241.808 112.231C240.476 111.676 240.451 109.804 240.774 108.397ZM158.16 71.4435C158.445 70.6538 158.952 69.9633 159.621 69.4551C161.029 68.2599 162.713 67.4345 164.521 67.0535L164.004 66.1109C162.323 65.2588 162.426 62.6119 163.758 61.282C165.225 60.0997 167.045 59.4408 168.929 59.4098C172.719 58.885 176.568 58.9635 180.332 59.6422C182.181 60.0425 184.34 61.1141 184.34 63.0121C184.265 63.6595 184.008 64.2724 183.599 64.7797C183.189 65.2871 182.644 65.668 182.026 65.8785C180.824 66.3821 179.44 66.4983 178.251 66.8985C175.807 67.6732 173.855 69.4809 171.67 70.8495C168.215 73.0106 164.185 74.0732 160.112 73.8967C159.667 73.9078 159.226 73.8196 158.819 73.6384C158.493 73.3877 158.254 73.0409 158.135 72.647C158.017 72.2532 158.026 71.8322 158.16 71.4435ZM171.619 87.8671C170.758 88.4301 169.734 88.6892 168.71 88.6031C166.99 88.6031 165.077 88.4739 163.9 87.2086C163.406 86.539 162.973 85.8259 162.607 85.0782C161.314 82.9865 157.436 86.0595 154.204 82.612C150.972 79.1646 151.489 77.1375 152.807 76.7114C157.294 75.2395 159.75 76.479 163.15 77.2666C166.571 77.9431 169.609 79.8846 171.657 82.7024C172.692 84.2776 173.092 86.6663 171.619 87.8671ZM195.175 238.572C190.003 248.901 180.707 256.584 172.252 264.537C163.797 272.491 155.548 281.774 153.57 293.201C152.665 298.482 152.963 304.434 149.446 308.476C148.921 309.175 148.14 309.639 147.274 309.767C145.748 309.87 144.688 308.321 144.055 306.965C138.198 294.854 136.298 281.142 136.078 267.752C136.135 264.559 135.918 261.367 135.431 258.211C134.932 255.967 134.271 253.762 133.453 251.613C131.978 248.242 130.074 245.074 127.791 242.187C123.059 235.951 118.921 229.056 117.228 221.425C115.534 213.795 116.543 205.286 121.262 199.037C124.129 195.4 128.054 192.741 132.497 191.423C136.939 190.105 141.682 190.194 146.072 191.677C151.243 193.549 155.497 197.268 159.685 200.818C166.796 206.835 174.54 212.775 183.707 214.466C186.37 214.97 189.176 215.112 191.606 216.299C193.443 217.321 194.991 218.789 196.108 220.568C197.224 222.346 197.873 224.378 197.993 226.474C198.184 230.689 197.209 234.874 195.175 238.572ZM205.517 92.8639C203.397 93.5353 201.173 94.0518 199.053 94.9039C196.439 96.0704 194.009 97.61 191.839 99.4747C189.732 100.985 186.668 98.5063 186.577 95.9111C186.487 93.3158 188.258 91.0563 189.848 89.0033C191.438 86.9503 193.054 84.5488 192.679 81.9665C192.304 79.3841 189.757 77.3053 187.198 76.2208C186.144 75.9364 185.207 75.3263 184.521 74.4777C183.72 73.1865 184.405 71.4435 185.349 70.2427C188.322 66.3692 193.365 64.8843 198.083 63.7868C202.117 62.8185 206.164 61.9663 210.223 61.2045C217.864 59.7584 226.113 58.6222 233.107 62.0567C234.441 62.6023 235.574 63.5444 236.352 64.7552C236.86 65.7605 237.08 66.8867 236.986 68.0089C236.753 73.8708 232.021 78.519 227.25 81.9535C220.604 86.6959 213.259 90.3767 205.479 92.8639H205.517Z" fill="#EBF1F7"></path></g></g><circle opacity="0.5" cx="214.97" cy="186.97" r="152.66" transform="rotate(75 214.97 186.97)" fill="url(#paint1_linear_17_2373)"></circle><path d="M234.9 2H133.4C108.9 2 89 21.9 89 46.4V297.3C89 321.8 108.9 341.7 133.4 341.7H363C387.5 341.7 407.4 321.8 407.4 297.3V257.4" stroke="#040237" stroke-miterlimit="10" stroke-linecap="round" stroke-linejoin="round"></path><path d="M149.601 341.699C149.601 348.899 155.401 354.699 162.601 354.699C169.801 354.699 175.601 348.899 175.601 341.699C175.601 334.499 169.801 328.699 162.601 328.699C155.401 328.699 149.601 334.499 149.601 341.699Z" fill="#3843D0"></path><path d="M408.4 234.8L421.3 256.7C421.4 256.9 421.5 257.1 421.5 257.3C421.5 257.5 421.4 257.7 421.3 257.9C421.2 258.1 421.1 258.2 420.9 258.3C420.7 258.4 420.5 258.4 420.3 258.4H394.6C394.4 258.4 394.2 258.4 394 258.3C393.8 258.2 393.7 258.1 393.6 257.9C393.5 257.7 393.4 257.5 393.4 257.3C393.4 257.1 393.5 256.9 393.6 256.7L406.5 234.8C406.6 234.6 406.7 234.5 406.9 234.4C407.1 234.3 407.3 234.3 407.4 234.3C407.6 234.3 407.8 234.3 407.9 234.4C408.2 234.5 408.3 234.6 408.4 234.8Z" fill="#6AC7B7"></path><path d="M81 72.5C81 76.6538 84.3462 80 88.5 80C92.6539 80 96 76.6538 96 72.5C96 68.3462 92.6539 65 88.5 65C84.4038 65 81 68.3462 81 72.5Z" fill="#F5768F"></path><path d="M81 107.5C81 111.654 84.3462 115 88.5 115C92.6539 115 96 111.654 96 107.5C96 103.346 92.6539 100 88.5 100C84.4038 100 81 103.346 81 107.5Z" fill="#6069D9"></path><path d="M81 141.5C81 145.654 84.3462 149 88.5 149C92.6539 149 96 145.654 96 141.5C96 137.346 92.6539 134 88.5 134C84.4038 134 81 137.346 81 141.5Z" fill="#BF5878"></path><path d="M81 177.5C81 181.654 84.3462 185 88.5 185C92.6539 185 96 181.654 96 177.5C96 173.346 92.6539 170 88.5 170C84.4038 170 81 173.346 81 177.5Z" fill="#FF8B35"></path><path d="M81 212.5C81 216.654 84.3462 220 88.5 220C92.6539 220 96 216.654 96 212.5C96 208.346 92.6539 205 88.5 205C84.4038 205 81 208.346 81 212.5Z" fill="#3843D0"></path><rect width="0.01" height="0.01" transform="translate(323 308)" fill="white"></rect><path d="M60.1741 292H42.3341V263.68H49.2141V286.04H60.1741V292ZM68.4288 292.48C65.2688 292.48 61.1888 290.92 61.1888 286.24C61.1888 280.52 68.1088 279.52 73.8688 279.52H73.9888V279.2C73.9888 277.24 72.4288 276.32 70.3888 276.32C68.5088 276.32 66.6688 277.24 65.4688 278.36L62.1488 274.8C64.4688 272.6 67.7888 271.44 71.0288 271.44C77.7088 271.44 80.1888 274.72 80.1888 281.96V288.84V292H74.1888V289.88H74.0688C73.0688 291.52 70.7888 292.48 68.4288 292.48ZM70.0688 288.08C72.7088 288.08 74.1888 286.48 74.1888 284V283.32H73.3488C70.4688 283.32 67.2288 283.68 67.2288 286.04C67.2288 287.56 68.7488 288.08 70.0688 288.08ZM91.085 292H84.485V276.56V271.96H90.845V274.72H90.925C91.845 272.96 94.125 271.4 96.885 271.4C102.245 271.4 104.165 275.56 104.165 279.56V292H97.565V281C97.565 278.8 96.965 276.8 94.605 276.8C92.285 276.8 91.085 278.8 91.085 281.08V292ZM117.933 301.6C114.453 301.6 110.373 300.48 107.693 298.48L110.973 293.8C112.893 295.48 115.333 296.32 117.573 296.32C121.413 296.32 123.213 294.08 123.213 290.76V289.56H123.093C121.853 291.16 119.693 292.2 117.053 292.2C111.013 292.2 107.533 287.44 107.533 281.88C107.533 276.32 111.013 271.4 117.013 271.4C119.493 271.4 121.973 272.4 123.373 274.52H123.453V271.96H129.653V290.12C129.653 297.92 125.013 301.6 117.933 301.6ZM118.573 287C121.573 287 123.413 284.6 123.413 281.84C123.413 279.08 121.533 276.76 118.573 276.76C115.613 276.76 113.893 279.04 113.893 281.84C113.893 284.52 115.613 287 118.573 287ZM148.702 292.76C139.862 292.76 133.302 286.68 133.302 277.72C133.302 268.64 139.862 262.92 148.702 262.92C157.582 262.92 164.142 268.64 164.142 277.72C164.142 286.68 157.582 292.76 148.702 292.76ZM148.702 286.52C153.462 286.52 156.822 282.84 156.822 277.72C156.822 272.76 153.502 269.08 148.702 269.08C143.902 269.08 140.622 272.76 140.622 277.72C140.622 282.84 143.942 286.52 148.702 286.52ZM174.245 301.6H167.685V271.96H173.925V274.4H174.045C175.245 272.8 177.485 271.4 180.405 271.4C186.205 271.4 189.845 276.28 189.845 281.88C189.845 287.48 186.365 292.56 180.365 292.56C177.925 292.56 175.565 291.52 174.325 289.8H174.245V301.6ZM178.805 287.12C181.925 287.12 183.485 284.52 183.485 281.88C183.485 279.28 181.925 276.76 178.805 276.76C175.845 276.76 174.005 279.4 174.005 281.92C174.005 284.56 175.845 287.12 178.805 287.12ZM199.934 292.64C196.694 292.64 193.334 291.56 191.254 289.56L194.934 285.68C196.094 286.96 197.894 287.92 199.814 287.92C200.894 287.92 202.174 287.48 202.174 286.2C202.174 284.96 200.934 284.56 198.214 283.92C195.454 283.28 192.414 281.88 192.414 278.12C192.414 273.36 196.894 271.44 200.694 271.44C203.654 271.44 206.734 272.4 208.694 274.24L205.094 277.96C204.054 276.96 202.534 276.16 200.934 276.16C199.694 276.16 198.454 276.6 198.454 277.76C198.454 278.88 199.534 279.2 202.094 279.76C205.134 280.44 208.454 281.96 208.454 285.84C208.454 290.88 204.014 292.64 199.934 292.64ZM228.241 292H221.401V263.68H231.801C238.001 263.68 242.881 265.92 242.881 272.4C242.881 278.96 237.561 281.32 231.641 281.32H228.241V292ZM228.241 269.2V275.88H231.121C233.681 275.88 236.041 275.12 236.041 272.44C236.041 269.72 233.681 269.2 231.241 269.2H228.241ZM252.747 292H246.107V261.76H252.747V292ZM263.341 292.48C260.181 292.48 256.101 290.92 256.101 286.24C256.101 280.52 263.021 279.52 268.781 279.52H268.901V279.2C268.901 277.24 267.341 276.32 265.301 276.32C263.421 276.32 261.581 277.24 260.381 278.36L257.061 274.8C259.381 272.6 262.701 271.44 265.941 271.44C272.621 271.44 275.101 274.72 275.101 281.96V288.84V292H269.101V289.88H268.981C267.981 291.52 265.701 292.48 263.341 292.48ZM264.981 288.08C267.621 288.08 269.101 286.48 269.101 284V283.32H268.261C265.381 283.32 262.141 283.68 262.141 286.04C262.141 287.56 263.661 288.08 264.981 288.08ZM286.807 292.48C281.487 292.48 279.727 289.64 279.727 285.4V276.88H276.527V271.96H279.687V266.76H286.127V271.96H290.807V276.88H286.127V284.6C286.127 286.44 286.727 287.4 288.607 287.4C289.247 287.4 290.047 287.28 290.527 287.08L290.607 291.88C289.727 292.2 288.207 292.48 286.807 292.48ZM300.93 292H294.37V276.88H290.73V271.96H294.37V270.16C294.37 265.28 296.29 261 302.93 261C304.05 261 305.21 261.12 306.09 261.4L305.65 266.6C305.17 266.44 304.49 266.32 303.85 266.32C301.45 266.32 300.93 268.24 300.93 270.08V271.96H305.37V276.88H300.93V292ZM317.3 292.64C311.3 292.64 306.26 288.48 306.26 281.96C306.26 275.44 311.3 271.44 317.3 271.44C323.34 271.44 328.38 275.44 328.38 281.96C328.38 288.48 323.34 292.64 317.3 292.64ZM317.34 287.12C320.42 287.12 322.06 284.52 322.06 281.96C322.06 279.4 320.38 276.88 317.3 276.88C314.22 276.88 312.62 279.4 312.62 281.96C312.62 284.52 314.26 287.12 317.34 287.12ZM338.493 292H331.933V277.04V271.96H338.253V274.84H338.333C339.333 272.84 341.293 271.4 343.733 271.4C344.253 271.4 344.813 271.44 345.133 271.56L344.853 277.32C344.253 277.16 343.693 277.12 343.173 277.12C339.653 277.12 338.493 280 338.493 281.64V292ZM371.953 271.4C377.353 271.4 379.193 275.8 379.193 279.56V292H372.633V281C372.633 278.72 372.113 276.8 369.793 276.8C367.553 276.8 366.473 278.88 366.473 281.12V292H359.913V280.52C359.913 278.24 359.033 276.8 357.073 276.8C354.993 276.8 353.793 278.68 353.793 281.08V292H347.193V276.36V271.96H353.553V274.72H353.633C354.553 273.04 356.593 271.4 359.593 271.4C362.473 271.4 364.473 272.64 365.593 274.8C366.913 272.72 368.953 271.4 371.953 271.4Z" fill="white"></path><rect x="110" y="202" width="97.6606" height="21.2308" rx="10.6154" fill="#3843D0"></rect><path d="M133.691 215.255C132.211 215.255 131.111 214.305 131.111 212.745C131.111 211.195 132.201 210.175 133.651 210.175C134.991 210.175 135.971 211.045 135.971 212.775C135.971 212.885 135.971 212.985 135.961 213.095H132.311C132.361 213.775 132.981 214.275 133.681 214.275C134.281 214.275 134.681 214.035 134.951 213.655L135.751 214.295C135.281 214.935 134.601 215.255 133.691 215.255ZM132.311 212.235H134.771C134.771 211.615 134.421 211.075 133.641 211.075C132.931 211.075 132.361 211.565 132.311 212.235ZM140.633 215.295C138.423 215.295 136.853 213.765 136.853 211.555C136.853 209.285 138.513 207.855 140.693 207.855C141.613 207.855 142.703 208.195 143.263 208.935L142.303 209.695C141.933 209.185 141.263 208.965 140.693 208.965C139.233 208.965 138.243 210.095 138.243 211.555C138.243 213.095 139.183 214.165 140.643 214.165C141.403 214.165 142.003 213.835 142.363 213.345L143.373 214.055C142.753 214.835 141.833 215.295 140.633 215.295ZM146.309 215.255C144.859 215.255 143.699 214.205 143.699 212.695C143.699 211.185 144.859 210.175 146.309 210.175C147.759 210.175 148.919 211.185 148.919 212.695C148.919 214.205 147.759 215.255 146.309 215.255ZM146.309 214.255C147.259 214.255 147.699 213.445 147.699 212.695C147.699 211.945 147.259 211.155 146.309 211.155C145.359 211.155 144.919 211.945 144.919 212.695C144.919 213.445 145.359 214.255 146.309 214.255ZM155.813 210.135C157.063 210.135 157.583 211.095 157.583 212.075V215.115H156.383V212.415C156.383 211.845 156.253 211.135 155.483 211.135C154.733 211.135 154.423 211.835 154.423 212.455V215.115H153.223V212.175C153.223 211.585 152.943 211.135 152.333 211.135C151.613 211.135 151.283 211.795 151.283 212.435V215.115H150.083V211.315V210.275H151.223V211.045H151.243C151.453 210.575 151.963 210.135 152.733 210.135C153.483 210.135 153.973 210.505 154.233 211.045C154.553 210.455 155.093 210.135 155.813 210.135ZM164.709 210.135C165.959 210.135 166.479 211.095 166.479 212.075V215.115H165.279V212.415C165.279 211.845 165.149 211.135 164.379 211.135C163.629 211.135 163.319 211.835 163.319 212.455V215.115H162.119V212.175C162.119 211.585 161.839 211.135 161.229 211.135C160.509 211.135 160.179 211.795 160.179 212.435V215.115H158.979V211.315V210.275H160.119V211.045H160.139C160.349 210.575 160.859 210.135 161.629 210.135C162.379 210.135 162.869 210.505 163.129 211.045C163.449 210.455 163.989 210.135 164.709 210.135ZM170.175 215.255C168.695 215.255 167.595 214.305 167.595 212.745C167.595 211.195 168.685 210.175 170.135 210.175C171.475 210.175 172.455 211.045 172.455 212.775C172.455 212.885 172.455 212.985 172.445 213.095H168.795C168.845 213.775 169.465 214.275 170.165 214.275C170.765 214.275 171.165 214.035 171.435 213.655L172.235 214.295C171.765 214.935 171.085 215.255 170.175 215.255ZM168.795 212.235H171.255C171.255 211.615 170.905 211.075 170.125 211.075C169.415 211.075 168.845 211.565 168.795 212.235ZM174.818 215.115H173.618V211.215V210.275H174.768V211.075H174.788C175.048 210.525 175.558 210.135 176.188 210.135C176.278 210.135 176.398 210.145 176.478 210.165V211.265C176.318 211.225 176.218 211.215 176.108 211.215C175.028 211.215 174.818 212.155 174.818 212.505V215.115ZM179.404 215.255C177.984 215.255 176.804 214.315 176.804 212.715C176.804 211.155 177.964 210.175 179.374 210.175C180.074 210.175 180.804 210.455 181.184 210.925L180.364 211.645C180.174 211.375 179.764 211.175 179.374 211.175C178.494 211.175 178.054 211.965 178.054 212.715C178.054 213.465 178.504 214.255 179.414 214.255C179.784 214.255 180.194 214.105 180.424 213.825L181.174 214.585C180.774 215.015 180.114 215.255 179.404 215.255ZM184.267 215.255C182.787 215.255 181.687 214.305 181.687 212.745C181.687 211.195 182.777 210.175 184.227 210.175C185.567 210.175 186.547 211.045 186.547 212.775C186.547 212.885 186.547 212.985 186.537 213.095H182.887C182.937 213.775 183.557 214.275 184.257 214.275C184.857 214.275 185.257 214.035 185.527 213.655L186.327 214.295C185.857 214.935 185.177 215.255 184.267 215.255ZM182.887 212.235H185.347C185.347 211.615 184.997 211.075 184.217 211.075C183.507 211.075 182.937 211.565 182.887 212.235Z" fill="white"></path><rect x="110" y="167" width="85.9838" height="21.2308" rx="10.6154" fill="#FF8B35"></rect><path d="M131.197 180.115H129.997V173.035H131.967L133.807 178.065H133.837L135.657 173.035H137.637V180.115H136.387V174.425H136.367L134.217 180.115H133.337L131.217 174.425H131.197V180.115ZM140.597 180.235C139.827 180.235 138.797 179.865 138.797 178.745C138.797 177.325 140.577 177.115 142.067 177.115H142.097V176.995C142.097 176.405 141.597 176.115 140.997 176.115C140.487 176.115 139.997 176.355 139.687 176.665L139.067 175.935C139.607 175.435 140.367 175.175 141.097 175.175C142.817 175.175 143.237 176.235 143.237 177.195V179.325V180.115H142.117V179.505H142.087C141.847 179.925 141.277 180.235 140.597 180.235ZM140.837 179.325C141.657 179.325 142.097 178.855 142.097 178.095V177.925H141.827C141.067 177.925 139.997 178.015 139.997 178.725C139.997 179.185 140.427 179.325 140.837 179.325ZM145.835 180.115H144.635V176.215V175.275H145.785V176.075H145.805C146.065 175.525 146.575 175.135 147.205 175.135C147.295 175.135 147.415 175.145 147.495 175.165V176.265C147.335 176.225 147.235 176.215 147.125 176.215C146.045 176.215 145.835 177.155 145.835 177.505V180.115ZM149.497 180.115H148.297V172.555H149.497V177.315H149.527L151.347 175.275H152.887L150.807 177.465L153.017 180.115H151.427L149.527 177.635H149.497V180.115ZM155.831 180.255C154.351 180.255 153.251 179.305 153.251 177.745C153.251 176.195 154.341 175.175 155.791 175.175C157.131 175.175 158.111 176.045 158.111 177.775C158.111 177.885 158.111 177.985 158.101 178.095H154.451C154.501 178.775 155.121 179.275 155.821 179.275C156.421 179.275 156.821 179.035 157.091 178.655L157.891 179.295C157.421 179.935 156.741 180.255 155.831 180.255ZM154.451 177.235H156.911C156.911 176.615 156.561 176.075 155.781 176.075C155.071 176.075 154.501 176.565 154.451 177.235ZM160.983 180.215C159.713 180.215 159.423 179.435 159.423 178.515V176.235H158.583V175.275H159.423V173.905H160.603V175.275H161.803V176.235H160.603V178.505C160.603 178.935 160.703 179.245 161.233 179.245C161.393 179.245 161.603 179.215 161.743 179.145L161.783 180.085C161.573 180.165 161.253 180.215 160.983 180.215ZM163.282 174.405C162.842 174.405 162.522 174.065 162.522 173.685C162.522 173.305 162.842 172.965 163.282 172.965C163.722 172.965 164.062 173.275 164.062 173.685C164.062 174.095 163.722 174.405 163.282 174.405ZM163.892 180.115H162.692V175.275H163.892V180.115ZM166.548 180.115H165.348V176.325V175.275H166.488V176.045H166.508C166.718 175.565 167.288 175.135 167.998 175.135C169.248 175.135 169.768 176.095 169.768 177.075V180.115H168.568V177.415C168.568 176.845 168.438 176.135 167.668 176.135C166.908 176.135 166.548 176.795 166.548 177.435V180.115ZM173.338 182.515C172.558 182.515 171.578 182.235 170.958 181.725L171.648 180.795C172.108 181.235 172.728 181.475 173.328 181.475C174.488 181.475 174.848 180.775 174.848 179.825V179.475H174.828C174.478 179.945 173.918 180.195 173.258 180.195C171.818 180.195 170.888 179.045 170.888 177.675C170.888 176.275 171.788 175.135 173.238 175.135C173.908 175.135 174.538 175.415 174.888 175.995H174.908V175.275H176.048V179.685C176.048 181.415 175.208 182.515 173.338 182.515ZM173.478 179.205C174.368 179.205 174.908 178.475 174.908 177.665C174.908 176.825 174.358 176.115 173.488 176.115C172.618 176.115 172.108 176.805 172.108 177.665C172.108 178.435 172.618 179.205 173.478 179.205Z" fill="white"></path><rect x="110" y="132" width="76.43" height="21.2308" rx="10.6154" fill="#BF5878"></rect><path d="M133.871 145.295C131.661 145.295 130.091 143.765 130.091 141.555C130.091 139.285 131.751 137.855 133.931 137.855C134.851 137.855 135.941 138.195 136.501 138.935L135.541 139.695C135.171 139.185 134.501 138.965 133.931 138.965C132.471 138.965 131.481 140.095 131.481 141.555C131.481 143.095 132.421 144.165 133.881 144.165C134.641 144.165 135.241 143.835 135.601 143.345L136.611 144.055C135.991 144.835 135.071 145.295 133.871 145.295ZM139.546 145.255C138.096 145.255 136.936 144.205 136.936 142.695C136.936 141.185 138.096 140.175 139.546 140.175C140.996 140.175 142.156 141.185 142.156 142.695C142.156 144.205 140.996 145.255 139.546 145.255ZM139.546 144.255C140.496 144.255 140.936 143.445 140.936 142.695C140.936 141.945 140.496 141.155 139.546 141.155C138.596 141.155 138.156 141.945 138.156 142.695C138.156 143.445 138.596 144.255 139.546 144.255ZM144.52 145.115H143.32V141.325V140.275H144.46V141.045H144.48C144.69 140.565 145.26 140.135 145.97 140.135C147.22 140.135 147.74 141.095 147.74 142.075V145.115H146.54V142.415C146.54 141.845 146.41 141.135 145.64 141.135C144.88 141.135 144.52 141.795 144.52 142.435V145.115ZM150.85 145.215C149.58 145.215 149.29 144.435 149.29 143.515V141.235H148.45V140.275H149.29V138.905H150.47V140.275H151.67V141.235H150.47V143.505C150.47 143.935 150.57 144.245 151.1 144.245C151.26 144.245 151.47 144.215 151.61 144.145L151.65 145.085C151.44 145.165 151.12 145.215 150.85 145.215ZM154.839 145.255C153.359 145.255 152.259 144.305 152.259 142.745C152.259 141.195 153.349 140.175 154.799 140.175C156.139 140.175 157.119 141.045 157.119 142.775C157.119 142.885 157.119 142.985 157.109 143.095H153.459C153.509 143.775 154.129 144.275 154.829 144.275C155.429 144.275 155.829 144.035 156.099 143.655L156.899 144.295C156.429 144.935 155.749 145.255 154.839 145.255ZM153.459 142.235H155.919C155.919 141.615 155.569 141.075 154.789 141.075C154.079 141.075 153.509 141.565 153.459 142.235ZM159.481 145.115H158.281V141.325V140.275H159.421V141.045H159.441C159.651 140.565 160.221 140.135 160.931 140.135C162.181 140.135 162.701 141.095 162.701 142.075V145.115H161.501V142.415C161.501 141.845 161.371 141.135 160.601 141.135C159.841 141.135 159.481 141.795 159.481 142.435V145.115ZM165.811 145.215C164.541 145.215 164.251 144.435 164.251 143.515V141.235H163.411V140.275H164.251V138.905H165.431V140.275H166.631V141.235H165.431V143.505C165.431 143.935 165.531 144.245 166.061 144.245C166.221 144.245 166.431 144.215 166.571 144.145L166.611 145.085C166.401 145.165 166.081 145.215 165.811 145.215Z" fill="white"></path><rect x="110" y="97" width="54.1379" height="21.2308" rx="10.6154" fill="#6069D9"></rect><path d="M134.517 110.295C132.307 110.295 130.737 108.765 130.737 106.555C130.737 104.285 132.397 102.855 134.577 102.855C135.497 102.855 136.587 103.195 137.147 103.935L136.187 104.695C135.817 104.185 135.147 103.965 134.577 103.965C133.117 103.965 132.127 105.095 132.127 106.555C132.127 108.095 133.067 109.165 134.527 109.165C135.287 109.165 135.887 108.835 136.247 108.345L137.257 109.055C136.637 109.835 135.717 110.295 134.517 110.295ZM138.819 110.115H137.299L139.749 106.335L137.549 103.035H139.069L140.529 105.455L141.969 103.035H143.419L141.259 106.365L143.799 110.115H142.209L140.479 107.335L138.819 110.115Z" fill="white"></path><rect x="110" y="62" width="122.076" height="21.2308" rx="10.6154" fill="#F5768F"></rect><path d="M134.726 75.2954C132.516 75.2954 130.946 73.7654 130.946 71.5554C130.946 69.2854 132.606 67.8554 134.786 67.8554C135.706 67.8554 136.796 68.1954 137.356 68.9354L136.396 69.6954C136.026 69.1854 135.356 68.9654 134.786 68.9654C133.326 68.9654 132.336 70.0954 132.336 71.5554C132.336 73.0954 133.276 74.1654 134.736 74.1654C135.496 74.1654 136.096 73.8354 136.456 73.3454L137.466 74.0554C136.846 74.8354 135.926 75.2954 134.726 75.2954ZM139.919 75.2554C138.669 75.2554 138.149 74.2954 138.149 73.3154V70.2754H139.349V72.9754C139.349 73.5454 139.479 74.2554 140.249 74.2554C141.009 74.2554 141.369 73.5954 141.369 72.9554V70.2754H142.569V74.2754V75.1154H141.429V74.3454H141.409C141.199 74.8254 140.629 75.2554 139.919 75.2554ZM145.409 75.2554C144.669 75.2554 143.899 74.9754 143.439 74.4654L144.229 73.7254C144.489 74.0654 144.939 74.3254 145.459 74.3254C145.809 74.3254 146.229 74.1854 146.229 73.7554C146.229 73.3554 145.859 73.2354 145.129 73.0654C144.419 72.8954 143.709 72.6054 143.709 71.7054C143.709 70.6354 144.669 70.1754 145.619 70.1754C146.309 70.1754 147.029 70.4154 147.419 70.9054L146.639 71.5954C146.429 71.3154 146.029 71.0754 145.589 71.0754C145.209 71.0754 144.819 71.2154 144.819 71.5954C144.819 71.9654 145.189 72.0654 145.859 72.2254C146.569 72.3954 147.409 72.7154 147.409 73.6554C147.409 74.8254 146.459 75.2554 145.409 75.2554ZM150.162 75.2154C148.892 75.2154 148.602 74.4354 148.602 73.5154V71.2354H147.762V70.2754H148.602V68.9054H149.782V70.2754H150.982V71.2354H149.782V73.5054C149.782 73.9354 149.882 74.2454 150.412 74.2454C150.572 74.2454 150.782 74.2154 150.922 74.1454L150.962 75.0854C150.752 75.1654 150.432 75.2154 150.162 75.2154ZM154.181 75.2554C152.731 75.2554 151.571 74.2054 151.571 72.6954C151.571 71.1854 152.731 70.1754 154.181 70.1754C155.631 70.1754 156.791 71.1854 156.791 72.6954C156.791 74.2054 155.631 75.2554 154.181 75.2554ZM154.181 74.2554C155.131 74.2554 155.571 73.4454 155.571 72.6954C155.571 71.9454 155.131 71.1554 154.181 71.1554C153.231 71.1554 152.791 71.9454 152.791 72.6954C152.791 73.4454 153.231 74.2554 154.181 74.2554ZM163.684 70.1354C164.934 70.1354 165.454 71.0954 165.454 72.0754V75.1154H164.254V72.4154C164.254 71.8454 164.124 71.1354 163.354 71.1354C162.604 71.1354 162.294 71.8354 162.294 72.4554V75.1154H161.094V72.1754C161.094 71.5854 160.814 71.1354 160.204 71.1354C159.484 71.1354 159.154 71.7954 159.154 72.4354V75.1154H157.954V71.3154V70.2754H159.094V71.0454H159.114C159.324 70.5754 159.834 70.1354 160.604 70.1354C161.354 70.1354 161.844 70.5054 162.104 71.0454C162.424 70.4554 162.964 70.1354 163.684 70.1354ZM169.151 75.2554C167.671 75.2554 166.571 74.3054 166.571 72.7454C166.571 71.1954 167.661 70.1754 169.111 70.1754C170.451 70.1754 171.431 71.0454 171.431 72.7754C171.431 72.8854 171.431 72.9854 171.421 73.0954H167.771C167.821 73.7754 168.441 74.2754 169.141 74.2754C169.741 74.2754 170.141 74.0354 170.411 73.6554L171.211 74.2954C170.741 74.9354 170.061 75.2554 169.151 75.2554ZM167.771 72.2354H170.231C170.231 71.6154 169.881 71.0754 169.101 71.0754C168.391 71.0754 167.821 71.5654 167.771 72.2354ZM173.793 75.1154H172.593V71.2154V70.2754H173.743V71.0754H173.763C174.023 70.5254 174.533 70.1354 175.163 70.1354C175.253 70.1354 175.373 70.1454 175.453 70.1654V71.2654C175.293 71.2254 175.193 71.2154 175.083 71.2154C174.003 71.2154 173.793 72.1554 173.793 72.5054V75.1154ZM180.695 75.2954C179.775 75.2954 178.825 74.9454 178.265 74.2854L179.165 73.4454C179.515 73.9254 180.155 74.2254 180.715 74.2254C181.305 74.2254 181.995 73.9354 181.995 73.1754C181.995 72.4354 181.255 72.2254 180.365 71.9454C179.505 71.6754 178.575 71.2554 178.575 69.9354C178.575 68.4954 179.885 67.8554 181.165 67.8554C181.875 67.8554 182.685 68.1054 183.225 68.6154L182.405 69.5154C182.135 69.1654 181.605 68.9054 181.105 68.9054C180.525 68.9054 179.855 69.1854 179.855 69.8754C179.855 70.5254 180.405 70.7154 181.205 70.9654C182.115 71.2454 183.275 71.6454 183.275 73.0354C183.275 74.5554 182.085 75.2954 180.695 75.2954ZM186.778 75.2554C185.298 75.2554 184.198 74.3054 184.198 72.7454C184.198 71.1954 185.288 70.1754 186.738 70.1754C188.078 70.1754 189.058 71.0454 189.058 72.7754C189.058 72.8854 189.058 72.9854 189.048 73.0954H185.398C185.448 73.7754 186.068 74.2754 186.768 74.2754C187.368 74.2754 187.768 74.0354 188.038 73.6554L188.838 74.2954C188.368 74.9354 187.688 75.2554 186.778 75.2554ZM185.398 72.2354H187.858C187.858 71.6154 187.508 71.0754 186.728 71.0754C186.018 71.0754 185.448 71.5654 185.398 72.2354ZM191.42 75.1154H190.22V71.2154V70.2754H191.37V71.0754H191.39C191.65 70.5254 192.16 70.1354 192.79 70.1354C192.88 70.1354 193 70.1454 193.08 70.1654V71.2654C192.92 71.2254 192.82 71.2154 192.71 71.2154C191.63 71.2154 191.42 72.1554 191.42 72.5054V75.1154ZM196.362 75.1154H195.082L193.142 70.2754H194.452L195.712 73.8154H195.732L197.002 70.2754H198.272L196.362 75.1154ZM199.599 69.4054C199.159 69.4054 198.839 69.0654 198.839 68.6854C198.839 68.3054 199.159 67.9654 199.599 67.9654C200.039 67.9654 200.379 68.2754 200.379 68.6854C200.379 69.0954 200.039 69.4054 199.599 69.4054ZM200.209 75.1154H199.009V70.2754H200.209V75.1154ZM203.985 75.2554C202.565 75.2554 201.385 74.3154 201.385 72.7154C201.385 71.1554 202.545 70.1754 203.955 70.1754C204.655 70.1754 205.385 70.4554 205.765 70.9254L204.945 71.6454C204.755 71.3754 204.345 71.1754 203.955 71.1754C203.075 71.1754 202.635 71.9654 202.635 72.7154C202.635 73.4654 203.085 74.2554 203.995 74.2554C204.365 74.2554 204.775 74.1054 205.005 73.8254L205.755 74.5854C205.355 75.0154 204.695 75.2554 203.985 75.2554ZM208.848 75.2554C207.368 75.2554 206.268 74.3054 206.268 72.7454C206.268 71.1954 207.358 70.1754 208.808 70.1754C210.148 70.1754 211.128 71.0454 211.128 72.7754C211.128 72.8854 211.128 72.9854 211.118 73.0954H207.468C207.518 73.7754 208.138 74.2754 208.838 74.2754C209.438 74.2754 209.838 74.0354 210.108 73.6554L210.908 74.2954C210.438 74.9354 209.758 75.2554 208.848 75.2554ZM207.468 72.2354H209.928C209.928 71.6154 209.578 71.0754 208.798 71.0754C208.088 71.0754 207.518 71.5654 207.468 72.2354Z" fill="white"></path><defs><linearGradient id="paint0_linear_17_2373" x1="62.3152" y1="43.2304" x2="325.796" y2="297.936" gradientUnits="userSpaceOnUse"><stop offset="0.0633932" stop-color="#70CFBE"></stop><stop offset="0.41159" stop-color="#D7D9F6" stop-opacity="0.625"></stop><stop offset="1" stop-color="#D7D9F6" stop-opacity="0"></stop></linearGradient><linearGradient id="paint1_linear_17_2373" x1="62.3096" y1="43.2234" x2="325.747" y2="297.888" gradientUnits="userSpaceOnUse"><stop offset="0.0633932" stop-color="#70CFBE"></stop><stop offset="0.265625" stop-color="#D7D9F6" stop-opacity="0.625"></stop><stop offset="0.8125" stop-color="#D7D9F6" stop-opacity="0"></stop></linearGradient></defs></svg>