<svg xmlns="http://www.w3.org/2000/svg" width="110" height="71" viewBox="0 0 110 71" fill="none"><path d="M47.7854 18H5.2146C2.33466 18 0 20.3347 0 23.2146V65.7854C0 68.6653 2.33466 71 5.2146 71H47.7854C50.6653 71 53 68.6653 53 65.7854V23.2146C53 20.3347 50.6653 18 47.7854 18Z" fill="#BDC0EF"></path><path d="M104.587 0H58.4134C55.4237 0 53 2.42368 53 5.41344V51.5866C53 54.5763 55.4237 57 58.4134 57H104.587C107.576 57 110 54.5763 110 51.5866V5.41344C110 2.42368 107.576 0 104.587 0Z" fill="#F5768F"></path><path d="M73.1766 39.4573L57.3096 29.461L55.7229 33.2691V62.1472H61.2763C65.7191 57.1755 74.6681 46.5975 74.922 44.0587C75.1759 41.52 73.8642 39.9333 73.1766 39.4573Z" fill="white"></path><path d="M43.8503 25.9218L72 43.6997L61.1251 58.7057C60.6275 59.3957 58.5836 62.29 57.8 61.9763L33.9139 51.9524L5.46327 43.843C4.63562 43.6216 3.92543 43.088 3.4812 42.3537C3.03697 41.6195 2.89312 40.7415 3.07972 39.9034L7.25093 22.6094C7.35119 22.1576 7.54421 21.7317 7.81768 21.3588C8.09115 20.9859 8.43908 20.6742 8.83932 20.4436C9.23955 20.2129 9.68332 20.0683 10.1424 20.019C10.6014 19.9697 11.0657 20.0167 11.5056 20.1572L36.9052 28.1172L41.3178 25.8173C41.7122 25.6113 42.1536 25.5126 42.5979 25.5309C43.0423 25.5493 43.4741 25.684 43.8503 25.9218Z" fill="#BDC0EF"></path><path d="M27.8888 54.2644L32.8584 47.8922L36.6665 49.5931L41.5313 45.4677L55.3198 54.2136L50.2582 65.2317C49.2523 67.5166 47.6656 68.7225 44.6825 66.8184L28.3236 56.6889C28.1266 56.5661 27.9575 56.4034 27.8273 56.2112C27.6971 56.0191 27.6087 55.8017 27.5677 55.5732C27.5267 55.3447 27.5341 55.1102 27.5894 54.8848C27.6448 54.6593 27.7468 54.448 27.8888 54.2644Z" fill="#F5768F"></path><path d="M57.0652 28.8835L73.1449 39.1907C73.6407 39.5078 74.0652 39.9244 74.3916 40.4142C74.718 40.904 74.939 41.4562 75.0407 42.0359C75.1425 42.6156 75.1227 43.2101 74.9826 43.7817C74.8425 44.3534 74.5852 44.8897 74.227 45.3566L62.0538 61.2237C61.5265 61.9125 60.7834 62.4045 59.9434 62.6208C59.1033 62.8371 58.215 62.7653 57.4206 62.4169L55.3293 61.5125" stroke="#040237" stroke-linecap="round" stroke-linejoin="round"></path><path d="M16.9469 22.2415L35.1655 29.1913L43.7781 24.4312C44.7959 23.8684 45.9469 23.591 47.1093 23.6284C48.2718 23.6659 49.4025 24.0167 50.382 24.6438" stroke="#040237" stroke-linecap="round" stroke-linejoin="round"></path><path d="M84.0646 19.8837L69.4987 25.2467L56.2719 20.7532L46.5041 27.6141L45.2347 40.403L48.5795 40.952C50.6391 41.2915 51.8196 39.9745 52.8763 37.8103L57.0747 28.8835" stroke="#040237" stroke-linecap="round" stroke-linejoin="round"></path><path d="M28.1364 53.0236L32.6363 47.6447L37.0251 49.6122L41.3156 45.125L56.0434 54.1534L51.937 62.0107C51.6495 62.5607 51.2518 63.0456 50.7687 63.4351C50.2855 63.8246 49.7274 64.1105 49.1289 64.2748C48.5305 64.4392 47.9046 64.4785 47.2903 64.3903C46.676 64.3022 46.0865 64.0885 45.5584 63.7625L28.1364 53.0236Z" stroke="#040237" stroke-linecap="round" stroke-linejoin="round"></path><path d="M37.0251 49.6122L32.0428 55.3973" stroke="#040237" stroke-linecap="round" stroke-linejoin="round"></path><path d="M45.4474 47.797L37.7296 58.7929" stroke="#040237" stroke-linecap="round" stroke-linejoin="round"></path><path d="M51.15 51.2274L43.886 62.7787" stroke="#040237" stroke-linecap="round" stroke-linejoin="round"></path><path d="M72.1008 47.9017L63.5898 43.3098" stroke="#040237" stroke-linecap="round" stroke-linejoin="round"></path><path d="M68.3689 53.0712L59.9752 48.7236" stroke="#040237" stroke-linecap="round" stroke-linejoin="round"></path><path d="M64.5513 57.6663L58.0585 54.5056" stroke="#040237" stroke-linecap="round" stroke-linejoin="round"></path></svg>