<svg xmlns="http://www.w3.org/2000/svg" width="1400" height="725" viewBox="0 0 1400 725" fill="none"><g clip-path="url(#clip0_9_11)"><mask id="mask0_9_11" style="mask-type:luminance" maskUnits="userSpaceOnUse" x="0" y="0" width="1400" height="725"><path d="M1400 0H0V725H1400V0Z" fill="white"></path></mask><g mask="url(#mask0_9_11)"><path d="M1400 0H0V725H1400V0Z" fill="#3843D0"></path><g opacity="0.3"><path d="M1485.22 541.13H1312.96C1291.48 541.13 1274.07 519.011 1274.07 491.727V184.198C1274.07 156.912 1291.48 134.794 1312.96 134.794H1474.49C1491.76 134.794 1505.76 152.574 1505.76 174.506C1505.76 196.439 1491.76 214.22 1474.49 214.22H1444.33C1422.86 214.22 1405.44 192.1 1405.44 164.816V100.842C1405.44 73.5573 1388.03 51.4385 1366.56 51.4385H978.25C956.774 51.4385 939.362 29.3197 939.362 2.03467V-70.4003C939.362 -97.6852 956.774 -119.804 978.25 -119.804L1055.58 -119.804C1070.87 -119.804 1083.27 -104.054 1083.27 -84.6253C1083.27 -65.1965 1095.67 -49.4465 1110.97 -49.4465H1495.29" stroke="#C3C7F1" stroke-width="2" stroke-miterlimit="10" stroke-linecap="round"></path><path d="M1371.1 583.313V480.368C1371.1 479.236 1371.45 478.152 1372.08 477.351C1372.71 476.552 1373.57 476.103 1374.45 476.103H1452.78C1453.68 476.103 1454.53 476.552 1455.16 477.351C1455.79 478.152 1456.15 479.236 1456.15 480.368V600.135C1456.15 601.266 1455.79 602.35 1455.16 603.149C1454.53 603.95 1453.68 604.399 1452.78 604.399H1374.45C1373.57 604.399 1372.71 603.95 1372.08 603.149C1371.45 602.35 1371.1 601.266 1371.1 600.135V590.253" fill="#9BA1E7"></path><path d="M1383.3 542.452H1443.14" stroke="#C3C7F1" stroke-width="3" stroke-miterlimit="10" stroke-linecap="round"></path><path d="M1388.53 593.365C1391.67 593.365 1394.23 590.124 1394.23 586.127C1394.23 582.129 1391.67 578.888 1388.53 578.888C1385.38 578.888 1382.83 582.129 1382.83 586.127C1382.83 590.124 1385.38 593.365 1388.53 593.365Z" fill="#C3C7F1"></path><path d="M1383.3 523.583H1443.14" stroke="#C3C7F1" stroke-width="3" stroke-miterlimit="10" stroke-linecap="round"></path><path d="M1383.3 533.018H1443.14" stroke="#C3C7F1" stroke-width="3" stroke-miterlimit="10" stroke-linecap="round"></path><path d="M1383.3 551.887H1443.14" stroke="#C3C7F1" stroke-width="3" stroke-miterlimit="10" stroke-linecap="round"></path><path d="M1383.3 561.32H1443.14" stroke="#C3C7F1" stroke-width="3" stroke-miterlimit="10" stroke-linecap="round"></path><path d="M1383.3 570.755H1433.58" stroke="#C3C7F1" stroke-width="3" stroke-miterlimit="10" stroke-linecap="round"></path><path d="M1416.49 496.571H1387.61C1385.23 496.571 1383.3 499.029 1383.3 502.061C1383.3 505.093 1385.23 507.551 1387.61 507.551H1416.49C1418.88 507.551 1420.82 505.093 1420.82 502.061C1420.82 499.029 1418.88 496.571 1416.49 496.571Z" fill="#C3C7F1"></path><path d="M1193.17 31.5715H1151.93C1143.67 31.5715 1136.97 40.1197 1136.97 50.6645V50.6687C1136.97 61.2136 1143.67 69.7619 1151.93 69.7619H1193.17C1201.43 69.7619 1208.12 61.2136 1208.12 50.6687V50.6645C1208.12 40.1197 1201.43 31.5715 1193.17 31.5715Z" fill="#9BA1E7"></path><path d="M1148 53.2128H1195.09" stroke="#C3C7F1" stroke-width="3" stroke-linecap="round" stroke-linejoin="round"></path><path d="M1169.04 46.8477H1195.09" stroke="#C3C7F1" stroke-width="3" stroke-linecap="round" stroke-linejoin="round"></path><path d="M1148 46.8477H1163.03" stroke="#C3C7F1" stroke-width="3" stroke-linecap="round" stroke-linejoin="round"></path><path d="M1268.15 476.103H1281.04C1282.11 476.103 1282.98 474.997 1282.98 473.633V457.252C1282.98 455.888 1282.11 454.782 1281.04 454.782H1268.15C1267.07 454.782 1266.2 455.888 1266.2 457.252V473.633C1266.2 474.997 1267.07 476.103 1268.15 476.103Z" fill="#C3C7F1"></path></g><g opacity="0.3"><path d="M702.579 1256.25H530.322C508.845 1256.25 491.433 1234.13 491.433 1206.85V899.317C491.433 872.032 508.845 849.914 530.322 849.914H691.855C709.119 849.914 723.116 867.693 723.116 889.626C723.116 911.558 709.119 929.339 691.855 929.339H661.693C640.214 929.339 622.804 907.22 622.804 879.935V815.961C622.804 788.676 605.392 766.557 583.915 766.557H195.612C174.135 766.557 156.723 744.439 156.723 717.153V644.719C156.723 617.434 174.135 595.315 195.612 595.315H272.944C288.238 595.315 300.635 611.065 300.635 630.494C300.635 649.922 313.033 665.672 328.327 665.672H712.649" stroke="#C3C7F1" stroke-width="2" stroke-miterlimit="10" stroke-linecap="round"></path><path d="M731.922 650.749H690.68C682.421 650.749 675.728 659.297 675.728 669.842V669.846C675.728 680.391 682.421 688.939 690.68 688.939H731.922C740.18 688.939 746.875 680.391 746.875 669.846V669.842C746.875 659.297 740.18 650.749 731.922 650.749Z" fill="#9BA1E7"></path><path d="M686.75 672.39H733.848" stroke="#C3C7F1" stroke-width="3" stroke-linecap="round" stroke-linejoin="round"></path><path d="M707.793 666.024H733.848" stroke="#C3C7F1" stroke-width="3" stroke-linecap="round" stroke-linejoin="round"></path><path d="M686.75 666.024H701.781" stroke="#C3C7F1" stroke-width="3" stroke-linecap="round" stroke-linejoin="round"></path><path d="M416.434 645.312H483.807V698.4C483.807 699.341 483.512 700.244 482.988 700.909C482.464 701.574 481.754 701.948 481.013 701.948H419.228C418.487 701.948 417.777 701.574 417.253 700.909C416.728 700.244 416.434 699.341 416.434 698.4V645.312Z" fill="#9BA1E7"></path><path d="M416.434 645.312V633.777C416.434 632.906 416.706 632.072 417.191 631.455C417.675 630.84 418.333 630.494 419.018 630.494H481.215C481.9 630.494 482.559 630.84 483.043 631.455C483.528 632.072 483.8 632.906 483.8 633.777V645.312H416.434Z" fill="#C3C7F1"></path><path d="M442.627 689.464H475.9" stroke="#C3C7F1" stroke-width="3" stroke-miterlimit="10" stroke-linecap="round"></path><path d="M431.458 669.909C434.544 669.909 437.046 666.731 437.046 662.809C437.046 658.889 434.544 655.711 431.458 655.711C428.372 655.711 425.87 658.889 425.87 662.809C425.87 666.731 428.372 669.909 431.458 669.909Z" fill="#C3C7F1"></path><path d="M442.627 674.789H475.9" stroke="#C3C7F1" stroke-width="3" stroke-miterlimit="10" stroke-linecap="round"></path><path d="M442.627 682.126H475.9" stroke="#C3C7F1" stroke-width="3" stroke-miterlimit="10" stroke-linecap="round"></path><path d="M473.03 658.932H445.497C443.911 658.932 442.627 660.565 442.627 662.58V662.588C442.627 664.601 443.911 666.234 445.497 666.234H473.03C474.615 666.234 475.9 664.601 475.9 662.588V662.58C475.9 660.565 474.615 658.932 473.03 658.932Z" stroke="#C3C7F1" stroke-width="3" stroke-miterlimit="10" stroke-linecap="round"></path><path d="M148.75 689.126H165.533V667.805H148.75V689.126Z" fill="#C3C7F1"></path><path d="M586.779 677.399H603.561C608.196 677.399 611.953 672.627 611.953 666.739C611.953 660.852 608.196 656.079 603.561 656.079H586.779C582.144 656.079 578.387 660.852 578.387 666.739C578.387 672.627 582.144 677.399 586.779 677.399Z" fill="#C3C7F1"></path></g><g style="mix-blend-mode:screen" filter="url(#filter0_f_9_11)"><path d="M282.431 585.434C398.142 585.434 491.944 466.269 491.944 319.272C491.944 172.274 398.142 53.109 282.431 53.109C166.719 53.109 72.9167 172.274 72.9167 319.272C72.9167 466.269 166.719 585.434 282.431 585.434Z" fill="#BDC0EF" fill-opacity="0.25"></path></g></g></g><defs><filter id="filter0_f_9_11" x="-127.083" y="-146.891" width="819.028" height="932.325" filterUnits="userSpaceOnUse" color-interpolation-filters="sRGB"><feFlood flood-opacity="0" result="BackgroundImageFix"></feFlood><feBlend mode="normal" in="SourceGraphic" in2="BackgroundImageFix" result="shape"></feBlend><feGaussianBlur stdDeviation="100" result="effect1_foregroundBlur_9_11"></feGaussianBlur></filter><clipPath id="clip0_9_11"><rect width="1400" height="725" fill="white"></rect></clipPath></defs></svg>