<svg xmlns="http://www.w3.org/2000/svg" width="479" height="484" viewBox="0 0 479 484" fill="none"><circle cx="242.031" cy="242.661" r="170.37" transform="rotate(75 242.031 242.661)" fill="url(#paint0_linear_1_25095)"></circle><g style="mix-blend-mode:lighten"><path fill-rule="evenodd" clip-rule="evenodd" d="M408.069 213.778C402.299 214.138 396.658 211.761 391.854 208.534C388.969 206.575 386.084 204.212 382.823 203.059C379.563 201.907 375.351 202.022 372.927 204.586C368.83 208.909 372.927 216.703 378.698 218.403C381.496 219.224 384.468 219.123 387.281 220.016C390.094 220.91 392.734 223.344 392.402 226.226C392.018 228.028 390.993 229.63 389.517 230.735C384.151 235.418 375.957 238.011 369.854 234.308C361.285 229.122 361.083 214.599 351.605 211.343C349.009 210.45 345.503 211.041 344.479 213.591C344.104 214.757 344.059 216.003 344.349 217.193C346.946 232.68 362.093 245.056 377.818 244.566C379.262 244.419 380.721 244.487 382.145 244.768C386.04 245.834 387.772 250.733 386.834 254.666C385.896 258.599 383.112 261.754 380.501 264.837C369.295 278.114 360.011 292.896 352.918 308.75C348.922 317.697 345.128 327.58 336.819 332.796C334.759 334.221 332.313 334.985 329.807 334.986C324.196 334.755 320.358 329.352 317.848 324.324C312.242 313.196 308.685 301.153 307.346 288.767C306.206 278.02 305.903 265.413 297.075 259.146C290.698 254.622 282.158 255.271 274.469 253.787C260.043 251.021 247.059 237.939 248.502 223.301C249.685 211.401 259.927 201.878 271.339 198.233C282.75 194.588 295.127 195.726 306.942 197.714C318.757 199.702 330.586 202.512 342.56 202.036C346.066 201.892 350.48 200.596 350.769 197.109C351.201 191.75 341.132 189.012 343.079 184.013C344.637 180.022 351.36 181.967 354.375 178.913C356.337 176.925 355.818 173.395 353.899 171.349C351.823 169.444 349.177 168.275 346.369 168.021C343.264 167.437 340.068 167.565 337.021 168.396C328.365 171.047 323.763 181.016 315.208 183.854C307.808 186.318 299.484 182.716 291.982 184.834C284.986 186.794 278.552 193.478 271.786 191.072C270.248 190.521 268.909 189.528 267.937 188.217C266.964 186.906 266.403 185.337 266.322 183.708C266.242 182.079 266.647 180.463 267.486 179.063C268.325 177.663 269.56 176.543 271.036 175.844C275.205 173.856 280.326 175.57 284.668 174.014C284.942 173.953 285.199 173.83 285.419 173.656C285.639 173.481 285.816 173.259 285.938 173.006C286.154 172.329 285.635 171.666 285.245 171.075C282.966 167.56 284.87 162.589 288.13 160.039C291.391 157.489 295.776 156.711 299.888 155.89C309.014 154.053 318.003 151.593 326.792 148.528C329.779 147.491 333.414 145.099 332.332 142.131C331.697 140.359 329.577 139.567 327.687 139.509C322.681 139.336 318.267 142.506 313.766 144.71C309.265 146.914 303.162 147.937 299.743 144.278C296.599 140.921 297.637 135.187 300.724 131.773C303.812 128.358 308.327 126.716 312.655 125.174C317.18 123.318 321.953 122.134 326.821 121.659C331.683 121.414 336.92 122.782 340.18 126.37C342.041 128.387 343.556 131.225 346.282 131.657C347.55 131.742 348.822 131.565 350.018 131.139C356.566 129.486 363.354 128.998 370.071 129.698C354.224 111.785 334.788 97.3938 313.02 87.4563C291.252 77.5189 267.638 72.2563 243.705 72.0091C219.772 71.762 196.054 76.5357 174.085 86.0215C152.116 95.5073 132.386 109.494 116.171 127.076C123.485 127.839 130.756 130.101 138.128 129.828C143.783 129.626 149.409 127.94 154.992 128.747C157.329 129.078 160.185 130.995 159.176 133.069C158.794 133.757 158.196 134.299 157.473 134.611C155.425 135.706 153.073 136.239 151.169 137.564C149.265 138.89 147.88 141.483 148.962 143.529C150.044 145.575 152.727 145.906 154.978 145.675C160.272 145.128 165.076 142.592 170.01 140.518C174.943 138.443 180.339 136.801 185.489 138.112C190.639 139.423 195.082 144.753 193.611 149.868C192.601 153.398 189.167 155.775 185.619 156.769C182.07 157.763 178.319 157.648 174.64 157.95C173.198 158.066 171.265 158.541 170.918 160.025C170.854 160.363 170.857 160.71 170.929 161.047C171.001 161.383 171.14 161.702 171.337 161.984C173.472 165.341 179.589 164.549 181.161 168.194C182.459 171.219 179.372 174.303 176.4 175.729C171.697 177.976 166.475 178.87 161.484 180.397C156.492 181.924 151.385 184.272 148.5 188.551C144.836 193.795 144.62 201.402 139.498 205.22C135.82 207.972 130.713 207.799 126.226 206.791C121.74 205.782 117.34 204.025 112.724 204.039C108.107 204.053 103.058 206.459 101.904 210.897C101.053 214.21 102.596 217.726 104.876 220.261C107.324 222.648 109.995 224.795 112.853 226.673C120.211 232.248 132.184 246.295 130.251 249.652C128.318 253.009 116.575 244.869 109.752 242.448C106.998 241.645 104.341 240.538 101.832 239.149C96.826 236.008 93.5657 230.793 89.7284 226.312C84.8091 220.55 78.7213 215.766 74.177 209.802C69.3659 234.372 70.0259 259.698 76.1102 283.985C82.1945 308.272 93.5541 330.924 109.384 350.337C125.213 369.75 145.125 385.447 167.708 396.316C190.29 407.185 214.991 412.96 240.058 413.231C265.125 413.501 289.944 408.262 312.757 397.883C335.57 387.504 355.817 372.241 372.063 353.174C388.309 334.108 400.157 311.706 406.766 287.556C413.375 263.407 414.583 238.101 410.305 213.432C409.572 213.616 408.823 213.731 408.069 213.778ZM279.835 144.869C280.724 144.561 281.668 144.444 282.606 144.526C283.543 144.608 284.452 144.887 285.274 145.344C286.119 145.683 286.896 146.171 287.568 146.785C288.425 147.687 289.002 148.818 289.227 150.041C289.764 152.209 289.529 154.496 288.563 156.51C288.07 157.504 287.355 158.37 286.471 159.043C285.588 159.715 284.561 160.174 283.471 160.385C282.563 160.574 281.617 160.42 280.816 159.953C280.423 159.71 280.12 159.343 279.956 158.911C279.792 158.479 279.775 158.004 279.908 157.561C280.196 156.783 281.018 156.337 281.48 155.631C281.769 155.034 281.893 154.371 281.839 153.71C281.786 153.049 281.558 152.414 281.177 151.871C280.406 150.792 279.712 149.66 279.1 148.485C278.609 147.231 277.051 145.503 279.835 144.869ZM270.79 154.954C270.937 154.001 271.347 153.108 271.973 152.375C272.295 152.015 272.733 151.78 273.21 151.712C273.688 151.643 274.175 151.745 274.584 152C275.079 152.757 275.417 153.604 275.58 154.493C275.65 155.676 275.427 156.859 274.931 157.936C274.66 158.464 274.214 158.881 273.67 159.117C273.125 159.354 272.516 159.395 271.944 159.233C270.459 158.613 270.43 156.524 270.79 154.954ZM178.608 113.72C178.925 112.839 179.491 112.069 180.238 111.502C181.809 110.168 183.688 109.247 185.705 108.822L185.128 107.77C183.253 106.819 183.368 103.866 184.854 102.382C186.491 101.063 188.522 100.327 190.624 100.293C194.853 99.7074 199.147 99.7949 203.348 100.552C205.411 100.999 207.82 102.195 207.82 104.313C207.737 105.035 207.45 105.719 206.993 106.285C206.536 106.851 205.927 107.276 205.238 107.511C203.896 108.073 202.353 108.202 201.026 108.649C198.299 109.513 196.121 111.531 193.683 113.058C189.828 115.469 185.33 116.655 180.786 116.458C180.29 116.47 179.797 116.372 179.343 116.17C178.979 115.89 178.712 115.503 178.58 115.063C178.448 114.624 178.458 114.154 178.608 113.72ZM193.625 132.046C192.665 132.674 191.523 132.964 190.379 132.868C188.461 132.868 186.326 132.723 185.013 131.312C184.461 130.564 183.978 129.769 183.57 128.934C182.128 126.6 177.8 130.029 174.193 126.183C170.587 122.336 171.164 120.074 172.635 119.599C177.641 117.956 180.382 119.339 184.176 120.218C187.992 120.973 191.383 123.139 193.668 126.283C194.822 128.041 195.27 130.706 193.625 132.046ZM219.909 300.207C214.139 311.732 203.767 320.305 194.332 329.18C184.897 338.054 175.693 348.413 173.486 361.163C172.476 367.056 172.808 373.698 168.884 378.207C168.298 378.987 167.427 379.505 166.461 379.648C164.758 379.763 163.576 378.034 162.869 376.521C156.334 363.008 154.213 347.707 153.968 332.767C154.031 329.204 153.79 325.642 153.246 322.12C152.689 319.616 151.951 317.156 151.039 314.758C149.393 310.997 147.269 307.462 144.721 304.241C139.441 297.282 134.824 289.589 132.935 281.074C131.045 272.559 132.17 263.065 137.435 256.092C140.635 252.035 145.015 249.067 149.972 247.596C154.929 246.126 160.221 246.225 165.119 247.88C170.89 249.969 175.636 254.118 180.31 258.08C188.244 264.794 196.885 271.421 207.114 273.309C210.085 273.87 213.216 274.029 215.928 275.354C217.977 276.494 219.705 278.132 220.951 280.117C222.197 282.102 222.92 284.369 223.054 286.707C223.267 291.41 222.179 296.081 219.909 300.207ZM231.45 137.622C229.084 138.371 226.603 138.947 224.237 139.898C221.321 141.2 218.609 142.918 216.188 144.998C213.836 146.684 210.417 143.918 210.316 141.022C210.215 138.126 212.191 135.605 213.966 133.314C215.74 131.023 217.544 128.344 217.125 125.462C216.707 122.581 213.865 120.261 211.009 119.051C209.833 118.734 208.787 118.053 208.022 117.106C207.128 115.665 207.893 113.72 208.946 112.381C212.264 108.058 217.89 106.402 223.155 105.177C227.656 104.096 232.172 103.146 236.701 102.296C245.227 100.682 254.431 99.4141 262.236 103.246C263.723 103.855 264.988 104.906 265.857 106.257C266.424 107.379 266.668 108.636 266.563 109.888C266.304 116.429 261.024 121.616 255.701 125.448C248.284 130.739 240.088 134.847 231.407 137.622H231.45Z" fill="#EBF1F7"></path></g><path d="M407.238 355.701C396.014 355.701 386.915 345.448 386.915 332.799C386.915 320.151 396.014 309.897 407.238 309.897C418.462 309.897 427.561 320.151 427.561 332.799C427.561 345.448 418.462 355.701 407.238 355.701Z" fill="white"></path><path fill-rule="evenodd" clip-rule="evenodd" d="M383.467 342.82C381.805 354.532 379.487 367.224 391.677 373.068C398.071 376.14 408.827 375.526 414.859 371.764C419.283 369.002 422.552 364.665 424.808 359.966C427.063 355.266 428.377 350.176 429.574 345.1C431.178 338.314 432.472 329.616 430.26 323C428.449 317.576 424.359 313.167 419.746 309.781C411.956 304.082 402.534 302.353 392.904 302.184C391.411 302.184 389.793 302.252 388.654 303.213C387.132 304.503 387.205 313.838 388.171 316.499C400.728 319.069 412.632 319.836 425.16 322.406C426.133 328.039 426.385 333.772 425.909 339.469C425.662 339.952 419.63 340.217 415.076 341.207C411.589 341.966 408.508 343.907 405.32 345.477C402.708 346.761 399.042 348.375 396.144 347.94C392.174 347.355 388.465 342.903 384.998 342.705C384.182 342.656 383.554 342.202 383.467 342.82Z" fill="#FF8B35"></path><path d="M424.668 324.256C426.612 328.705 427.067 333.664 425.966 338.394C424.865 343.123 422.267 347.371 418.558 350.505C414.849 353.64 410.227 355.493 405.381 355.789C400.534 356.086 395.721 354.81 391.657 352.151C387.594 349.492 384.497 345.592 382.829 341.032C381.16 336.472 381.007 331.495 382.394 326.841C383.781 322.187 386.634 318.106 390.527 315.203C394.42 312.301 399.146 310.733 404.002 310.733" stroke="#040237" stroke-width="2" stroke-linecap="round" stroke-linejoin="round"></path><path d="M395.43 328.197L392.421 343.448L400.848 343.25" stroke="#040237" stroke-width="2" stroke-linecap="round" stroke-linejoin="round"></path><path d="M343.912 333.022C346.208 321.875 351.796 311.674 359.955 303.736C368.113 295.797 378.466 290.488 389.675 288.494C400.885 286.502 412.435 287.915 422.831 292.554C433.228 297.192 441.994 304.842 447.995 314.513C453.995 324.185 456.956 335.433 456.493 346.804M385.154 399.49C396.165 402.389 407.791 401.918 418.531 398.139C425.794 395.584 432.425 391.596 438.05 386.451" stroke="#3843D0" stroke-linecap="round" stroke-linejoin="round"></path><path d="M452.058 386.796C461.032 386.796 468.307 379.521 468.307 370.546C468.307 361.572 461.032 354.296 452.058 354.296C443.083 354.296 435.808 361.572 435.808 370.546C435.808 379.521 443.083 386.796 452.058 386.796Z" fill="#3843D0"></path><path d="M460.158 367.046C460.935 367.455 461.242 368.398 460.857 369.178L460.394 370.121C460.174 370.568 460.174 371.092 460.394 371.539L460.857 372.482C461.242 373.261 460.935 374.211 460.158 374.614L459.221 375.104C458.775 375.339 458.466 375.758 458.379 376.249L458.197 377.28C458.043 378.135 457.233 378.718 456.362 378.599L455.316 378.452C454.82 378.381 454.314 378.544 453.955 378.888L453.195 379.619C452.562 380.223 451.559 380.223 450.926 379.619L450.166 378.888C449.803 378.544 449.301 378.381 448.806 378.452L447.759 378.599C446.888 378.718 446.078 378.135 445.924 377.28L445.736 376.255C445.649 375.764 445.34 375.345 444.894 375.11L443.957 374.618C443.181 374.211 442.873 373.266 443.258 372.488L443.721 371.543C443.941 371.097 443.941 370.574 443.721 370.126L443.258 369.178C442.873 368.398 443.181 367.449 443.957 367.046L444.894 366.556C445.34 366.321 445.649 365.9 445.736 365.41L445.919 364.38C446.073 363.518 446.882 362.934 447.753 363.055L448.8 363.202C449.295 363.273 449.803 363.11 450.16 362.766L450.92 362.035C451.553 361.429 452.556 361.429 453.19 362.035L453.95 362.766C454.314 363.11 454.814 363.273 455.311 363.202L456.356 363.055C457.227 362.934 458.037 363.518 458.191 364.374" stroke="white" stroke-width="1.80298" stroke-miterlimit="10" stroke-linecap="round"></path><path d="M455.98 368.305L450.577 373.348L448.135 370.951" stroke="white" stroke-width="1.80298" stroke-miterlimit="10" stroke-linecap="round"></path><path d="M362.29 348.693H328.889C327.198 348.693 325.828 350.063 325.828 351.754V398.304C325.828 399.995 327.198 401.365 328.889 401.365H362.29C363.98 401.365 365.351 399.995 365.351 398.304V351.754C365.351 350.063 363.98 348.693 362.29 348.693Z" stroke="#7A82E0" stroke-width="2" stroke-linecap="round" stroke-linejoin="round"></path><path d="M357.54 355.812H342.037C338.562 355.812 335.745 358.629 335.745 362.104C335.745 365.58 338.562 368.397 342.037 368.397H357.54C361.015 368.397 363.832 365.58 363.832 362.104C363.832 358.629 361.015 355.812 357.54 355.812Z" fill="#BDC0EF"></path><path d="M341.229 360.311H359.035" stroke="#7A82E0" stroke-width="2" stroke-linecap="round" stroke-linejoin="round"></path><path d="M341.229 363.774H347.027" stroke="#7A82E0" stroke-width="2" stroke-linecap="round" stroke-linejoin="round"></path><path d="M325.828 392.356H365.351" stroke="#7A82E0" stroke-width="2" stroke-linecap="round" stroke-linejoin="round"></path><path d="M349.172 373.862H333.669C330.194 373.862 327.377 376.679 327.377 380.154C327.377 383.629 330.194 386.446 333.669 386.446H349.172C352.647 386.446 355.464 383.629 355.464 380.154C355.464 376.679 352.647 373.862 349.172 373.862Z" fill="#F8A4B4"></path><path d="M332.862 378.361H350.668" stroke="#7A82E0" stroke-width="2" stroke-linecap="round" stroke-linejoin="round"></path><path d="M332.862 381.824H338.655" stroke="#7A82E0" stroke-width="2" stroke-linecap="round" stroke-linejoin="round"></path><path d="M14.6766 226.439C16.6823 216.701 21.5644 207.788 28.6924 200.853C35.8194 193.917 44.8648 189.279 54.6577 187.537C64.4507 185.796 74.5416 187.031 83.6246 191.084C92.7077 195.135 100.366 201.819 105.608 210.269C110.851 218.718 113.437 228.546 113.033 238.479M50.708 284.509C60.3272 287.041 70.4846 286.63 79.8675 283.329C86.2128 281.096 92.006 277.612 96.9206 273.117" stroke="#3843D0" stroke-linecap="round" stroke-linejoin="round"></path><path d="M109.158 273.419C116.999 273.419 123.355 267.063 123.355 259.222C123.355 251.381 116.999 245.025 109.158 245.025C101.318 245.025 94.9614 251.381 94.9614 259.222C94.9614 267.063 101.318 273.419 109.158 273.419Z" fill="#3843D0"></path><path d="M116.235 256.164C116.913 256.521 117.182 257.345 116.846 258.026L116.441 258.85C116.249 259.241 116.249 259.698 116.441 260.089L116.846 260.913C117.182 261.594 116.913 262.423 116.235 262.776L115.417 263.204C115.027 263.409 114.757 263.775 114.681 264.204L114.522 265.105C114.387 265.852 113.68 266.362 112.919 266.258L112.005 266.129C111.572 266.067 111.129 266.209 110.816 266.51L110.152 267.148C109.599 267.676 108.723 267.676 108.169 267.148L107.505 266.51C107.188 266.209 106.749 266.067 106.317 266.129L105.402 266.258C104.641 266.362 103.934 265.852 103.799 265.105L103.636 264.209C103.559 263.78 103.289 263.414 102.9 263.209L102.081 262.78C101.403 262.423 101.134 261.598 101.47 260.918L101.875 260.093C102.067 259.703 102.067 259.246 101.875 258.855L101.47 258.026C101.134 257.345 101.403 256.516 102.081 256.164L102.9 255.735C103.289 255.53 103.559 255.163 103.636 254.735L103.795 253.835C103.929 253.081 104.637 252.572 105.397 252.677L106.312 252.805C106.745 252.867 107.188 252.725 107.5 252.425L108.164 251.786C108.718 251.257 109.594 251.257 110.147 251.786L110.812 252.425C111.129 252.725 111.567 252.867 112 252.805L112.914 252.677C113.675 252.572 114.382 253.081 114.517 253.83" stroke="white" stroke-width="2" stroke-miterlimit="10" stroke-linecap="round"></path><path d="M112.585 257.264L107.864 261.67L105.731 259.576" stroke="white" stroke-width="2" stroke-miterlimit="10" stroke-linecap="round"></path><path d="M32.8552 236.945H3.67431C2.19733 236.945 1 238.143 1 239.62V280.288C1 281.765 2.19733 282.963 3.67431 282.963H32.8552C34.3322 282.963 35.5295 281.765 35.5295 280.288V239.62C35.5295 238.143 34.3322 236.945 32.8552 236.945Z" stroke="#7A82E0" stroke-width="2" stroke-linecap="round" stroke-linejoin="round"></path><path d="M28.7054 243.165H15.1617C12.1257 243.165 9.66449 245.626 9.66449 248.662C9.66449 251.698 12.1257 254.159 15.1617 254.159H28.7054C31.7414 254.159 34.2026 251.698 34.2026 248.662C34.2026 245.626 31.7414 243.165 28.7054 243.165Z" fill="#BDC0EF"></path><path d="M14.4559 247.095H30.0121" stroke="#7A82E0" stroke-width="2" stroke-linecap="round" stroke-linejoin="round"></path><path d="M14.4559 250.121H19.5209" stroke="#7A82E0" stroke-width="2" stroke-linecap="round" stroke-linejoin="round"></path><path d="M0.999977 275.091H35.5295" stroke="#7A82E0" stroke-width="2" stroke-linecap="round" stroke-linejoin="round"></path><path d="M21.3948 258.934H7.8511C4.8151 258.934 2.35393 261.395 2.35393 264.431C2.35393 267.467 4.8151 269.928 7.8511 269.928H21.3948C24.4308 269.928 26.892 267.467 26.892 264.431C26.892 261.395 24.4308 258.934 21.3948 258.934Z" fill="#F8A4B4"></path><path d="M7.14552 262.864H22.7017" stroke="#7A82E0" stroke-width="2" stroke-linecap="round" stroke-linejoin="round"></path><path d="M7.14552 265.89H12.2071" stroke="#7A82E0" stroke-width="2" stroke-linecap="round" stroke-linejoin="round"></path><path d="M343.782 190.243L305.034 208.866" stroke="#3843D0" stroke-linecap="round"></path><path d="M199.793 307.71L164.388 362.393" stroke="#3843D0" stroke-linecap="round"></path><path d="M241.321 314.22C278.791 314.22 309.165 283.9 309.165 246.496C309.165 209.094 278.791 178.773 241.321 178.773C203.851 178.773 173.475 209.094 173.475 246.496C173.475 283.9 203.851 314.22 241.321 314.22Z" fill="#3843D0"></path><path d="M241.319 287.939C264.248 287.939 282.835 269.385 282.835 246.497C282.835 223.609 264.248 205.056 241.319 205.056C218.39 205.056 199.802 223.609 199.802 246.497C199.802 269.385 218.39 287.939 241.319 287.939Z" fill="white"></path><path d="M202.627 298.332C209.899 298.332 215.794 292.447 215.794 285.187C215.794 277.928 209.899 272.043 202.627 272.043C195.354 272.043 189.458 277.928 189.458 285.187C189.458 292.447 195.354 298.332 202.627 298.332Z" fill="#3843D0"></path><path d="M269.554 318.56C271.338 312.743 272.661 305.832 272.799 299.765C272.951 293.13 271.419 287.747 270.577 285.687C269.736 283.627 268.622 280.638 264.518 281.94C260.758 283.132 267.376 322.246 269.554 318.56Z" fill="white"></path><path d="M269.669 330.191C269.669 330.282 269.704 330.369 269.767 330.435C269.829 330.501 269.914 330.541 270.005 330.547C271.475 330.769 272.974 330.422 274.197 329.576C275.419 328.73 276.273 327.45 276.584 325.996C276.895 324.543 276.64 323.025 275.87 321.753C275.1 320.481 273.874 319.551 272.442 319.152C272.281 319.109 272.059 319.152 272.015 319.311C270.988 323.138 270.207 325.659 269.669 330.191Z" fill="white"></path><path d="M264.521 320.569C265.419 319.659 266.535 318.995 267.763 318.641C268.991 318.287 270.29 318.255 271.534 318.548C272.778 318.841 273.926 319.449 274.867 320.314C275.808 321.179 276.511 322.271 276.908 323.486C277.305 324.701 277.382 325.998 277.133 327.252C276.884 328.505 276.317 329.674 275.485 330.645C274.654 331.616 273.587 332.356 272.387 332.796C271.186 333.235 269.893 333.358 268.632 333.153C268.632 333.153 269.133 329.356 271.87 319.014" stroke="#040237" stroke-width="1.5" stroke-linecap="round" stroke-linejoin="round"></path><path d="M270.493 280.967C271.43 282.464 272.231 284.041 272.887 285.68C277.014 296.049 274.718 307.764 271.877 318.553" stroke="#040237" stroke-width="1.5" stroke-linecap="round" stroke-linejoin="round"></path><path d="M193.926 268.354C199.349 277.628 212.441 290.572 216.302 292.396C220.648 294.433 225.542 282.122 225.542 282.122L215.107 282.082C208.203 274.295 193.03 264.169 193.926 268.354Z" fill="white"></path><path d="M193.155 269.794C198.541 278.527 204.537 288.04 212.343 294.615C214.484 296.419 216.013 296.298 217.844 294.278C220.824 290.983 223.277 287.247 225.115 283.203" stroke="#040237" stroke-width="1.5" stroke-linecap="round" stroke-linejoin="round"></path><path d="M191.694 265.886C203.318 271.989 210.095 280.082 213.983 284.176" stroke="#040237" stroke-width="1.5" stroke-linecap="round" stroke-linejoin="round"></path><path d="M191.731 265.455C191.811 265.486 191.878 265.543 191.921 265.617C191.964 265.691 191.98 265.778 191.967 265.863C191.751 267.307 190.987 268.612 189.834 269.508C188.681 270.404 187.227 270.822 185.774 270.675C184.321 270.528 182.981 269.827 182.031 268.718C181.081 267.609 180.595 266.176 180.673 264.718C180.679 264.641 180.708 264.568 180.757 264.508C180.806 264.447 180.871 264.403 180.945 264.381C184.093 263.523 187.718 263.964 191.731 265.455Z" fill="white"></path><path d="M186.392 259.85C190.011 260.709 192.583 264.637 191.388 267.956C190.065 271.626 186.968 272.821 183.743 272.296C180.073 271.697 178.111 268.562 178.286 264.846C178.286 264.846 185.271 262.856 191.546 265.664" stroke="#040237" stroke-width="1.5" stroke-linecap="round" stroke-linejoin="round"></path><path d="M275.603 286.324C275.603 286.324 271.819 267.59 265.888 260.403C260.374 253.717 249.292 251.754 247.996 243.17C245.138 243.123 242.64 242.985 239.472 243.268C237.402 253.727 226.97 255.407 221.772 261.503C216.295 267.926 212.646 286.414 212.646 286.414L223.018 288.374L221.378 308.616C238.21 315.284 253.628 314.951 267.834 308.616L264.653 288.518L275.603 286.324Z" fill="#3843D0"></path><path d="M242.563 230.941C250.026 230.941 256.076 224.891 256.076 217.428C256.076 209.965 250.026 203.915 242.563 203.915C235.1 203.915 229.05 209.965 229.05 217.428C229.05 224.891 235.1 230.941 242.563 230.941Z" fill="white"></path><path fill-rule="evenodd" clip-rule="evenodd" d="M225.136 207.484C221.279 212.542 219.043 218.729 218.182 225.032C217.317 231.334 217.778 237.768 218.943 244.018C219.138 245.068 219.405 246.207 220.245 246.868C221.21 247.634 222.585 247.503 223.808 247.33C226.925 246.894 230.047 246.464 233.165 246.028C234.204 245.886 235.327 245.697 236.035 244.926C236.649 244.26 236.812 243.305 236.917 242.407C237.268 239.348 237.258 236.241 236.88 233.182C234.23 232.746 231.868 231.093 230.273 228.936C228.683 226.774 227.822 224.135 227.508 221.469C226.962 216.851 228.305 211.64 232.173 209.063C233.359 208.276 234.718 207.767 235.846 206.901C236.974 206.035 237.882 204.645 237.583 203.254C237.368 202.236 236.523 201.422 235.558 201.039C234.807 200.74 233.726 200.53 232.928 200.761C232.661 200.84 232.456 201.018 232.225 201.171C231.868 201.412 231.48 201.606 231.118 201.837C229.633 202.776 228.29 203.92 227.083 205.19C226.39 205.914 225.744 206.686 225.136 207.484Z" fill="#FF7029"></path><path fill-rule="evenodd" clip-rule="evenodd" d="M254.439 217.255C255.152 217.145 255.892 216.982 256.433 216.504C257.346 215.691 257.346 214.279 257.152 213.072C256.501 209.063 254.391 205.3 251.311 202.656C248.225 200.005 244.19 198.489 240.128 198.447C237.956 198.426 235.72 198.841 233.899 200.021C232.907 200.661 232.062 201.548 231.49 202.582C231.044 203.39 230.467 204.755 230.803 205.684C231.155 206.665 231.984 207.636 232.619 208.449C233.317 209.341 234.083 210.181 234.912 210.963C236.56 212.516 238.433 213.828 240.448 214.862C242.463 215.896 244.625 216.651 246.85 217.082C249.07 217.512 251.353 217.622 253.599 217.37C253.877 217.339 254.155 217.297 254.439 217.255Z" fill="#FF7029"></path><path d="M231.643 231.906C227.702 229.241 225.109 224.733 225.109 219.616C225.109 211.43 231.748 204.791 239.934 204.791" stroke="#040237" stroke-width="1.5" stroke-miterlimit="10" stroke-linecap="round" stroke-linejoin="round"></path><path d="M253.515 215.749C254.313 217.57 254.754 219.574 254.754 221.689C254.754 229.876 248.115 236.514 239.929 236.514" stroke="#040237" stroke-width="1.5" stroke-miterlimit="10" stroke-linecap="round" stroke-linejoin="round"></path><path d="M234.681 215.444L232.839 224.785L237.998 224.659" stroke="#040237" stroke-width="1.5" stroke-miterlimit="10" stroke-linecap="round" stroke-linejoin="round"></path><path d="M240.39 238.912H236.533C235.363 238.912 234.413 237.962 234.413 236.792C234.413 235.622 235.363 234.672 236.533 234.672H240.39C241.561 234.672 242.511 235.622 242.511 236.792C242.511 237.962 241.561 238.912 240.39 238.912Z" fill="#040237"></path><path d="M248.965 269.458C251.554 269.458 253.654 267.359 253.654 264.769C253.654 262.18 251.554 260.08 248.965 260.08C246.375 260.08 244.276 262.18 244.276 264.769C244.276 267.359 246.375 269.458 248.965 269.458Z" fill="white"></path><path d="M246.035 262.866V265.088C246.035 265.961 246.689 266.669 247.5 266.669C248.307 266.669 248.965 265.961 248.965 265.088V264.447C248.965 263.573 249.619 262.866 250.43 262.866C251.237 262.866 251.895 263.573 251.895 264.447V266.669" stroke="#3843D0" stroke-width="1.5" stroke-miterlimit="10" stroke-linecap="round"></path><path d="M215.271 43.3526C213.127 32.9555 207.907 23.4395 200.287 16.0354C192.666 8.63126 182.995 3.6794 172.525 1.82012C162.056 -0.0391684 151.268 1.27969 141.557 5.60599C131.846 9.93239 123.659 17.0674 118.053 26.0884C112.448 35.1093 109.683 45.6014 110.116 56.2077C110.451 64.4181 112.69 72.4048 116.617 79.5538M161.821 107.081C157.892 106.978 153.975 106.44 150.145 105.469" stroke="#3843D0" stroke-linecap="round" stroke-linejoin="round"></path><path d="M185.791 404.947C183.646 394.55 178.427 385.034 170.806 377.63C163.186 370.226 153.516 365.274 143.046 363.415C132.576 361.555 121.788 362.875 112.077 367.201C102.366 371.527 94.1786 378.662 88.5738 387.683C82.9689 396.704 80.2036 407.196 80.6357 417.802C80.8413 422.838 81.7631 427.79 83.3512 432.515M147.269 466.946C136.985 469.649 126.125 469.209 116.094 465.685C114.73 465.206 113.39 464.673 112.077 464.088" stroke="#3843D0" stroke-linecap="round" stroke-linejoin="round"></path><path d="M167.822 90.1681C167.822 91.1574 168.215 92.1065 168.916 92.806C169.617 93.5056 170.568 93.8983 171.558 93.8983H224.804C225.705 93.8994 226.574 93.5756 227.253 92.9875C227.933 92.3984 228.376 91.5842 228.503 90.6957L229.07 86.7234H167.822V90.1681Z" fill="#3843D0"></path><path d="M178.988 55.4714L175.314 85.3276H229.196L232.762 56.3797C232.828 55.8554 232.78 55.3233 232.624 54.8186C232.467 54.314 232.205 53.8483 231.855 53.4526C231.503 53.0568 231.072 52.74 230.59 52.5234C230.107 52.3066 229.584 52.1948 229.054 52.1954H182.696C181.784 52.1957 180.904 52.529 180.221 53.1324C179.538 53.7359 179.1 54.5677 178.988 55.4714Z" fill="#7A82E0"></path><path d="M202.209 89.7245H184.246" stroke="white" stroke-width="2.27231" stroke-linecap="round" stroke-linejoin="round"></path><path d="M220.864 62.7538H185.698" stroke="white" stroke-width="2.27231" stroke-linecap="round" stroke-linejoin="round"></path><path d="M211.967 75.3463L184.037 75.3077" stroke="white" stroke-width="2.27231" stroke-linecap="round" stroke-linejoin="round"></path><path d="M220.143 68.9385H184.845" stroke="white" stroke-width="2.27231" stroke-linecap="round" stroke-linejoin="round"></path><path d="M151.264 452.925C151.264 453.897 151.651 454.828 152.339 455.516C153.027 456.203 153.961 456.588 154.934 456.588H207.227C208.111 456.589 208.966 456.272 209.632 455.693C210.3 455.115 210.735 454.315 210.86 453.443L211.416 449.542H151.264V452.925Z" fill="#3843D0"></path><path d="M162.231 418.848L158.622 448.17H211.538L215.043 419.741C215.106 419.225 215.061 418.702 214.907 418.207C214.753 417.711 214.495 417.253 214.151 416.865C213.806 416.476 213.383 416.165 212.909 415.953C212.434 415.74 211.921 415.63 211.402 415.63H165.873C164.977 415.631 164.112 415.958 163.442 416.551C162.771 417.143 162.34 417.96 162.231 418.848Z" fill="#7A82E0"></path><path d="M185.036 452.489H167.395" stroke="white" stroke-width="2.27231" stroke-linecap="round" stroke-linejoin="round"></path><path d="M203.358 427.044H168.821" stroke="white" stroke-width="2.27231" stroke-linecap="round" stroke-linejoin="round"></path><path d="M194.62 437.113L167.189 437.075" stroke="white" stroke-width="2.27231" stroke-linecap="round" stroke-linejoin="round"></path><path d="M202.649 432.273H167.983" stroke="white" stroke-width="2.27231" stroke-linecap="round" stroke-linejoin="round"></path><path d="M435.518 153.87C426.725 153.87 419.597 145.852 419.597 135.961C419.597 126.071 426.725 118.053 435.518 118.053C444.312 118.053 451.441 126.071 451.441 135.961C451.441 145.852 444.312 153.87 435.518 153.87Z" fill="white"></path><path fill-rule="evenodd" clip-rule="evenodd" d="M416.896 143.796C415.591 152.959 413.782 162.877 423.311 167.448C428.325 169.849 436.731 169.372 441.461 166.43C444.923 164.287 447.489 160.878 449.255 157.203C451.022 153.527 452.052 149.55 452.987 145.58C454.242 140.275 455.257 133.469 453.524 128.298C452.1 124.054 448.896 120.609 445.283 117.962C439.206 113.514 431.814 112.154 424.283 112.025C423.112 112.025 421.846 112.073 420.954 112.823C419.763 113.836 419.816 121.139 420.573 123.214C430.392 125.223 439.738 125.823 449.561 127.832C450.324 132.237 450.522 136.721 450.152 141.175C449.954 141.54 445.229 141.759 441.659 142.536C438.932 143.126 436.517 144.647 434.02 145.874C431.975 146.876 429.098 148.135 426.838 147.804C423.73 147.342 420.826 143.86 418.109 143.71C417.444 143.667 416.987 143.313 416.896 143.796Z" fill="#6069D9"></path><path d="M449.17 129.258C450.698 132.734 451.061 136.612 450.205 140.312C449.348 144.011 447.317 147.336 444.415 149.791C441.513 152.247 437.894 153.7 434.098 153.937C430.301 154.173 426.53 153.18 423.344 151.104C420.158 149.029 417.729 145.982 416.418 142.418C415.106 138.853 414.984 134.961 416.067 131.321C417.151 127.68 419.382 124.487 422.431 122.216C425.48 119.943 429.181 118.715 432.985 118.712" stroke="#040237" stroke-width="2" stroke-linecap="round" stroke-linejoin="round"></path><path d="M426.27 132.365L423.913 144.289L430.51 144.133" stroke="#040237" stroke-width="2" stroke-linecap="round" stroke-linejoin="round"></path><path d="M362.629 137.681C364.773 127.285 369.992 117.769 377.613 110.365C385.233 102.96 394.903 98.0083 405.373 96.1485C415.843 94.2898 426.631 95.6082 436.342 99.935C446.053 104.261 454.241 111.396 459.845 120.417C465.45 129.438 468.216 139.931 467.784 150.536M401.15 199.679C411.434 202.383 422.294 201.944 432.325 198.419C439.109 196.036 445.303 192.316 450.557 187.517" stroke="#3843D0" stroke-linecap="round" stroke-linejoin="round"></path><path d="M411.506 182.831C411.506 183.811 411.115 184.751 410.421 185.445C409.727 186.138 408.785 186.527 407.803 186.527H355.041C354.149 186.528 353.287 186.207 352.614 185.624C351.941 185.04 351.501 184.234 351.376 183.353L350.815 179.417H411.506V182.831Z" fill="#3843D0"></path><path d="M400.439 148.449L404.079 178.034H350.69L347.155 149.349C347.09 148.83 347.137 148.302 347.292 147.802C347.447 147.302 347.707 146.84 348.054 146.449C348.402 146.056 348.829 145.743 349.308 145.527C349.785 145.313 350.304 145.202 350.829 145.202H396.765C397.669 145.203 398.541 145.534 399.217 146.131C399.895 146.729 400.329 147.554 400.439 148.449Z" fill="#7A82E0"></path><path d="M377.432 182.39H395.232" stroke="white" stroke-width="3.05744" stroke-linecap="round" stroke-linejoin="round"></path><path d="M358.946 155.656H393.793" stroke="white" stroke-width="1.80298" stroke-linecap="round" stroke-linejoin="round"></path><path d="M360.331 166.638L388.007 166.6" stroke="white" stroke-width="1.80298" stroke-linecap="round" stroke-linejoin="round"></path><path d="M359.66 161.292H394.636" stroke="white" stroke-width="1.80298" stroke-linecap="round" stroke-linejoin="round"></path><path d="M150.562 67.8233C159.309 67.8233 166.401 59.8284 166.401 49.9662C166.401 40.104 159.309 32.1091 150.562 32.1091C141.814 32.1091 134.722 40.104 134.722 49.9662C134.722 59.8284 141.814 67.8233 150.562 67.8233Z" fill="white"></path><path fill-rule="evenodd" clip-rule="evenodd" d="M164.845 28.4737C163.031 26.8566 160.779 25.8102 158.374 25.4658C152.922 24.6448 147.35 25.4225 142.332 27.7049C139.656 28.8624 137.211 30.4941 135.116 32.5213C133.951 33.7541 133.019 35.188 132.366 36.7533C131.665 38.225 131.136 39.7732 130.792 41.3668C129.562 47.2597 131.229 53.1341 134.064 58.3135C135.544 60.9458 137.226 63.459 139.097 65.8303C139.986 66.9868 140.894 68.1309 141.82 69.2627L142.953 70.6652L143.525 71.385L143.71 71.6187L143.832 71.7847L143.9 71.8709C144.079 72.1561 144.345 72.3776 144.657 72.5046C144.969 72.6314 145.313 72.6572 145.641 72.5783C145.966 72.4892 146.251 72.2956 146.455 72.0277C146.658 71.7598 146.768 71.4323 146.766 71.0958C145.425 60.7863 149.59 50.243 157.285 43.3167C159.442 41.3849 161.868 39.7769 164.488 38.5434C164.653 38.4601 164.798 38.3422 164.914 38.1979C165.03 38.0536 165.114 37.8861 165.159 37.7068C165.474 37.814 165.818 37.8061 166.128 37.6845C166.439 37.563 166.697 37.3356 166.857 37.0425C168.597 34.1021 167.152 30.6328 164.845 28.4737Z" fill="#F5768F"></path><path d="M138.831 41.6188C137.435 44.811 137.107 48.3686 137.895 51.7625C138.684 55.1562 140.547 58.2049 143.207 60.4548C145.867 62.7047 149.182 64.0357 152.66 64.2496C156.137 64.4635 159.591 63.5488 162.508 61.642C165.424 59.735 167.645 56.9377 168.844 53.666C170.042 50.3944 170.153 46.8233 169.158 43.4841C168.163 40.1449 166.117 37.216 163.324 35.1332C160.531 33.0504 157.14 31.925 153.655 31.9244" stroke="#040237" stroke-width="2" stroke-linecap="round" stroke-linejoin="round"></path><path d="M159.807 44.4484L161.966 55.3915L155.92 55.2501" stroke="#040237" stroke-width="2" stroke-linecap="round" stroke-linejoin="round"></path><path d="M129.091 432.892C120.493 432.892 113.522 425.8 113.522 417.053C113.522 408.305 120.493 401.212 129.091 401.212C137.69 401.212 144.66 408.305 144.66 417.053C144.66 425.8 137.69 432.892 129.091 432.892Z" fill="white"></path><path fill-rule="evenodd" clip-rule="evenodd" d="M141.221 388.793C149.722 388.098 160.038 396.273 155.731 403.015C152.933 407.401 149.427 410.101 144.82 410.679C139.899 411.295 127.971 405.493 124.225 402.473C124.373 407.223 118.689 415.57 113.719 417.74C113.46 411.54 114.334 402.48 120.283 397.442C126.124 392.34 133.482 389.302 141.221 388.793Z" fill="#FEC14D"></path><path fill-rule="evenodd" clip-rule="evenodd" d="M141.221 388.793C149.722 388.098 160.038 396.273 155.731 403.015C152.933 407.401 149.427 410.101 144.82 410.679C139.899 411.295 127.971 405.493 124.225 402.473C124.373 407.223 118.689 415.57 113.719 417.74C113.46 411.54 114.334 402.48 120.283 397.442C126.124 392.34 133.482 389.302 141.221 388.793Z" fill="#3843D0"></path><path d="M115.258 411.049C113.758 414.478 113.406 418.299 114.252 421.944C115.099 425.59 117.1 428.865 119.958 431.281C122.815 433.698 126.377 435.127 130.112 435.357C133.848 435.586 137.557 434.604 140.689 432.555C143.821 430.508 146.208 427.503 147.496 423.989C148.784 420.475 148.901 416.639 147.833 413.052C146.766 409.466 144.567 406.32 141.567 404.082C138.567 401.844 134.925 400.635 131.183 400.635" stroke="#040237" stroke-width="2" stroke-linecap="round" stroke-linejoin="round"></path><path d="M137.334 413.128L139.493 424.071L133.44 423.93" stroke="#040237" stroke-width="2" stroke-linecap="round" stroke-linejoin="round"></path><path d="M145.983 420.835C142.154 420.835 139.05 417.731 139.05 413.903C139.05 410.074 142.154 406.97 145.983 406.97C149.812 406.97 152.915 410.074 152.915 413.903C152.915 417.731 149.812 420.835 145.983 420.835Z" stroke="#040237" stroke-width="2" stroke-linecap="round" stroke-linejoin="round"></path><path d="M129.196 420.835C125.367 420.835 122.263 417.731 122.263 413.903C122.263 410.074 125.367 406.97 129.196 406.97C133.025 406.97 136.129 410.074 136.129 413.903C136.129 417.731 133.025 420.835 129.196 420.835Z" stroke="#040237" stroke-width="2" stroke-linecap="round" stroke-linejoin="round"></path><path d="M463.856 188.099C472.22 188.099 479 181.331 479 172.982C479 164.633 472.22 157.865 463.856 157.865C455.492 157.865 448.712 164.633 448.712 172.982C448.712 181.331 455.492 188.099 463.856 188.099Z" fill="#3843D0"></path><path d="M471.429 169.411C472.156 169.798 472.443 170.688 472.083 171.425L471.65 172.316C471.444 172.738 471.444 173.233 471.65 173.655L472.083 174.546C472.443 175.282 472.156 176.179 471.429 176.56L470.554 177.023C470.137 177.244 469.848 177.64 469.766 178.104L469.596 179.078C469.452 179.886 468.695 180.436 467.881 180.324L466.903 180.185C466.439 180.118 465.966 180.272 465.63 180.597L464.92 181.287C464.328 181.858 463.391 181.858 462.798 181.287L462.088 180.597C461.748 180.272 461.279 180.118 460.816 180.185L459.838 180.324C459.023 180.436 458.267 179.886 458.122 179.078L457.947 178.11C457.865 177.646 457.577 177.25 457.159 177.028L456.284 176.564C455.558 176.179 455.27 175.287 455.63 174.551L456.063 173.66C456.269 173.238 456.269 172.744 456.063 172.321L455.63 171.425C455.27 170.688 455.558 169.792 456.284 169.411L457.159 168.949C457.577 168.727 457.865 168.33 457.947 167.867L458.118 166.893C458.261 166.079 459.018 165.528 459.832 165.642L460.811 165.781C461.274 165.848 461.748 165.694 462.083 165.369L462.793 164.679C463.385 164.107 464.323 164.107 464.915 164.679L465.626 165.369C465.966 165.694 466.434 165.848 466.898 165.781L467.875 165.642C468.69 165.528 469.447 166.079 469.591 166.888" stroke="white" stroke-width="1.80298" stroke-miterlimit="10" stroke-linecap="round"></path><path d="M467.606 170.611L462.442 175.529L460.109 173.191" stroke="white" stroke-width="1.80298" stroke-miterlimit="10" stroke-linecap="round"></path><path d="M132.636 110.391C142.115 110.391 149.8 102.721 149.8 93.259C149.8 83.7971 142.115 76.1266 132.636 76.1266C123.157 76.1266 115.473 83.7971 115.473 93.259C115.473 102.721 123.157 110.391 132.636 110.391Z" fill="#3843D0"></path><path d="M140.723 88.9499L141.219 89.2132C142.042 89.6505 142.369 90.6601 141.96 91.4955L141.471 92.505C141.237 92.9827 141.237 93.5432 141.471 94.022L141.96 95.0315C142.369 95.8659 142.042 96.8818 141.219 97.3138L140.228 97.8393C139.754 98.0898 139.427 98.5399 139.334 99.0643L139.142 100.168C138.978 101.084 138.12 101.709 137.198 101.58L136.089 101.423C135.564 101.347 135.027 101.522 134.647 101.889L133.843 102.671C133.172 103.319 132.109 103.319 131.438 102.671L130.632 101.889C130.247 101.522 129.716 101.347 129.191 101.423L128.082 101.58C127.16 101.709 126.301 101.084 126.138 100.168L125.941 99.0706C125.847 98.5452 125.52 98.0962 125.047 97.8446L124.055 97.3191C123.231 96.8818 122.906 95.8722 123.313 95.0379L123.804 94.0283C124.037 93.5496 124.037 92.9891 123.804 92.5103L123.313 91.4955C122.906 90.6601 123.231 89.6452 124.055 89.2132L125.047 88.6877C125.52 88.4372 125.847 87.9871 125.941 87.4617L126.133 86.3587C126.296 85.4373 127.154 84.8121 128.076 84.9405L129.185 85.0987C129.71 85.174 130.247 84.9989 130.626 84.6316L131.432 83.8492C132.103 83.2017 133.165 83.2017 133.836 83.8492L134.642 84.6316C135.027 84.9989 135.558 85.174 136.083 85.0987L137.193 84.9405C138.114 84.8121 138.972 85.4373 139.135 86.3534" stroke="white" stroke-width="2" stroke-miterlimit="10" stroke-linecap="round"></path><path d="M136.889 90.5725L131.035 96.1456L128.392 93.496" stroke="white" stroke-width="2" stroke-miterlimit="10" stroke-linecap="round"></path><path d="M96.7164 466.249C106.195 466.249 113.88 458.579 113.88 449.117C113.88 439.655 106.195 431.985 96.7164 431.985C87.2373 431.985 79.5531 439.655 79.5531 449.117C79.5531 458.579 87.2373 466.249 96.7164 466.249Z" fill="#3843D0"></path><path d="M105.3 445.07C106.122 445.507 106.449 446.517 106.041 447.351L105.55 448.361C105.317 448.84 105.317 449.4 105.55 449.879L106.041 450.888C106.449 451.723 106.122 452.739 105.3 453.171L104.307 453.696C103.835 453.947 103.508 454.396 103.414 454.921L103.221 456.024C103.058 456.94 102.2 457.565 101.279 457.437L100.169 457.279C99.6439 457.203 99.1068 457.379 98.7278 457.746L97.9221 458.528C97.2512 459.176 96.1886 459.176 95.5177 458.528L94.712 457.746C94.3267 457.379 93.7959 457.203 93.2705 457.279L92.1623 457.437C91.2398 457.565 90.3821 456.94 90.2186 456.024L90.0201 454.928C89.9267 454.402 89.5997 453.953 89.1273 453.701L88.1348 453.176C87.3121 452.739 86.9852 451.729 87.3939 450.895L87.8843 449.884C88.1178 449.406 88.1178 448.846 87.8843 448.367L87.3939 447.351C86.9852 446.517 87.3121 445.501 88.1348 445.07L89.1273 444.545C89.5997 444.293 89.9267 443.844 90.0201 443.319L90.2122 442.216C90.3757 441.293 91.2345 440.669 92.1559 440.797L93.2652 440.955C93.7906 441.031 94.3267 440.856 94.7067 440.488L95.5124 439.706C96.1833 439.059 97.2449 439.059 97.9168 439.706L98.7214 440.488C99.1068 440.856 99.6386 441.031 100.163 440.955L101.272 440.797C102.195 440.669 103.052 441.293 103.216 442.21" stroke="white" stroke-width="2" stroke-miterlimit="10" stroke-linecap="round"></path><path d="M100.967 446.429L95.114 452.003L92.4697 449.353" stroke="white" stroke-width="2" stroke-miterlimit="10" stroke-linecap="round"></path><path d="M203.621 172.575L178.746 112.408" stroke="#3843D0" stroke-linecap="round"></path><path d="M163.566 244.52H120.768" stroke="#3843D0" stroke-linecap="round"></path><path d="M194.772 158.171C199.193 158.171 202.777 154.593 202.777 150.178C202.777 145.763 199.193 142.185 194.772 142.185C190.351 142.185 186.767 145.763 186.767 150.178C186.767 154.593 190.351 158.171 194.772 158.171Z" fill="#6AC7B7"></path><path d="M175.665 352.433C180.086 352.433 183.669 348.854 183.669 344.44C183.669 340.025 180.086 336.446 175.665 336.446C171.244 336.446 167.66 340.025 167.66 344.44C167.66 348.854 171.244 352.433 175.665 352.433Z" fill="#F5768F"></path><path d="M319.989 313.623L297.166 297.169" stroke="#3843D0" stroke-linecap="round"></path><path d="M63.3249 255.53C74.2721 255.53 83.1466 246.655 83.1466 235.708C83.1466 224.761 74.2721 215.886 63.3249 215.886C52.3778 215.886 43.5033 224.761 43.5033 235.708C43.5033 246.655 52.3778 255.53 63.3249 255.53Z" fill="white"></path><path fill-rule="evenodd" clip-rule="evenodd" d="M80.3909 207.865C90.5057 204.478 93.8771 204.986 90.6595 214.47C88.5734 220.628 85.1248 224.97 79.698 227.056C73.917 229.265 57.6748 225.793 52.2249 223.207C53.8183 228.934 48.6917 245.669 46.6826 245.669C44.6734 245.669 35.5978 231.043 43.3725 215.578C46.5132 209.328 56.7204 204.124 64.2565 202.061C71.908 199.959 70.2222 206.241 71.1844 206.218C72.724 206.179 75.7569 202.785 76.9731 203.1C81.3223 204.286 77.1886 208.935 80.3909 207.865Z" fill="#BF5878"></path><path d="M48.3759 228.472C46.6286 232.467 46.2175 236.919 47.204 241.166C48.1904 245.413 50.5218 249.228 53.851 252.044C57.1801 254.859 61.3292 256.525 65.6811 256.793C70.033 257.06 74.3551 255.916 78.0042 253.529C81.6533 251.143 84.4345 247.642 85.934 243.548C87.4335 239.454 87.5713 234.985 86.3266 230.806C85.082 226.628 82.5215 222.962 79.0262 220.356C75.5309 217.749 71.2876 216.341 66.9275 216.34" stroke="#040237" stroke-width="2" stroke-linecap="round" stroke-linejoin="round"></path><path d="M74.6328 232.005L77.3347 245.707L69.7601 245.523" stroke="#040237" stroke-width="2" stroke-linecap="round" stroke-linejoin="round"></path><rect x="147.491" y="98.6616" width="122.076" height="21.2308" rx="10.6154" fill="#F5768F"></rect><path d="M172.216 111.957C170.006 111.957 168.436 110.427 168.436 108.217C168.436 105.947 170.096 104.517 172.276 104.517C173.196 104.517 174.286 104.857 174.846 105.597L173.886 106.357C173.516 105.847 172.846 105.627 172.276 105.627C170.816 105.627 169.826 106.757 169.826 108.217C169.826 109.757 170.766 110.827 172.226 110.827C172.986 110.827 173.586 110.497 173.946 110.007L174.956 110.717C174.336 111.497 173.416 111.957 172.216 111.957ZM177.409 111.917C176.159 111.917 175.639 110.957 175.639 109.977V106.937H176.839V109.637C176.839 110.207 176.969 110.917 177.739 110.917C178.499 110.917 178.859 110.257 178.859 109.617V106.937H180.059V110.937V111.777H178.919V111.007H178.899C178.689 111.487 178.119 111.917 177.409 111.917ZM182.9 111.917C182.16 111.917 181.39 111.637 180.93 111.127L181.72 110.387C181.98 110.727 182.43 110.987 182.95 110.987C183.3 110.987 183.72 110.847 183.72 110.417C183.72 110.017 183.35 109.897 182.62 109.727C181.91 109.557 181.2 109.267 181.2 108.367C181.2 107.297 182.16 106.837 183.11 106.837C183.8 106.837 184.52 107.077 184.91 107.567L184.13 108.257C183.92 107.977 183.52 107.737 183.08 107.737C182.7 107.737 182.31 107.877 182.31 108.257C182.31 108.627 182.68 108.727 183.35 108.887C184.06 109.057 184.9 109.377 184.9 110.317C184.9 111.487 183.95 111.917 182.9 111.917ZM187.653 111.877C186.383 111.877 186.093 111.097 186.093 110.177V107.897H185.253V106.937H186.093V105.567H187.273V106.937H188.473V107.897H187.273V110.167C187.273 110.597 187.373 110.907 187.903 110.907C188.063 110.907 188.273 110.877 188.413 110.807L188.453 111.747C188.243 111.827 187.923 111.877 187.653 111.877ZM191.671 111.917C190.221 111.917 189.061 110.867 189.061 109.357C189.061 107.847 190.221 106.837 191.671 106.837C193.121 106.837 194.281 107.847 194.281 109.357C194.281 110.867 193.121 111.917 191.671 111.917ZM191.671 110.917C192.621 110.917 193.061 110.107 193.061 109.357C193.061 108.607 192.621 107.817 191.671 107.817C190.721 107.817 190.281 108.607 190.281 109.357C190.281 110.107 190.721 110.917 191.671 110.917ZM201.175 106.797C202.425 106.797 202.945 107.757 202.945 108.737V111.777H201.745V109.077C201.745 108.507 201.615 107.797 200.845 107.797C200.095 107.797 199.785 108.497 199.785 109.117V111.777H198.585V108.837C198.585 108.247 198.305 107.797 197.695 107.797C196.975 107.797 196.645 108.457 196.645 109.097V111.777H195.445V107.977V106.937H196.585V107.707H196.605C196.815 107.237 197.325 106.797 198.095 106.797C198.845 106.797 199.335 107.167 199.595 107.707C199.915 107.117 200.455 106.797 201.175 106.797ZM206.641 111.917C205.161 111.917 204.061 110.967 204.061 109.407C204.061 107.857 205.151 106.837 206.601 106.837C207.941 106.837 208.921 107.707 208.921 109.437C208.921 109.547 208.921 109.647 208.911 109.757H205.261C205.311 110.437 205.931 110.937 206.631 110.937C207.231 110.937 207.631 110.697 207.901 110.317L208.701 110.957C208.231 111.597 207.551 111.917 206.641 111.917ZM205.261 108.897H207.721C207.721 108.277 207.371 107.737 206.591 107.737C205.881 107.737 205.311 108.227 205.261 108.897ZM211.284 111.777H210.084V107.877V106.937H211.234V107.737H211.254C211.514 107.187 212.024 106.797 212.654 106.797C212.744 106.797 212.864 106.807 212.944 106.827V107.927C212.784 107.887 212.684 107.877 212.574 107.877C211.494 107.877 211.284 108.817 211.284 109.167V111.777ZM218.186 111.957C217.266 111.957 216.316 111.607 215.756 110.947L216.656 110.107C217.006 110.587 217.646 110.887 218.206 110.887C218.796 110.887 219.486 110.597 219.486 109.837C219.486 109.097 218.746 108.887 217.856 108.607C216.996 108.337 216.066 107.917 216.066 106.597C216.066 105.157 217.376 104.517 218.656 104.517C219.366 104.517 220.176 104.767 220.716 105.277L219.896 106.177C219.626 105.827 219.096 105.567 218.596 105.567C218.016 105.567 217.346 105.847 217.346 106.537C217.346 107.187 217.896 107.377 218.696 107.627C219.606 107.907 220.766 108.307 220.766 109.697C220.766 111.217 219.576 111.957 218.186 111.957ZM224.268 111.917C222.788 111.917 221.688 110.967 221.688 109.407C221.688 107.857 222.778 106.837 224.228 106.837C225.568 106.837 226.548 107.707 226.548 109.437C226.548 109.547 226.548 109.647 226.538 109.757H222.888C222.938 110.437 223.558 110.937 224.258 110.937C224.858 110.937 225.258 110.697 225.528 110.317L226.328 110.957C225.858 111.597 225.178 111.917 224.268 111.917ZM222.888 108.897H225.348C225.348 108.277 224.998 107.737 224.218 107.737C223.508 107.737 222.938 108.227 222.888 108.897ZM228.911 111.777H227.711V107.877V106.937H228.861V107.737H228.881C229.141 107.187 229.651 106.797 230.281 106.797C230.371 106.797 230.491 106.807 230.571 106.827V107.927C230.411 107.887 230.311 107.877 230.201 107.877C229.121 107.877 228.911 108.817 228.911 109.167V111.777ZM233.853 111.777H232.573L230.633 106.937H231.943L233.203 110.477H233.223L234.493 106.937H235.763L233.853 111.777ZM237.09 106.067C236.65 106.067 236.33 105.727 236.33 105.347C236.33 104.967 236.65 104.627 237.09 104.627C237.53 104.627 237.87 104.937 237.87 105.347C237.87 105.757 237.53 106.067 237.09 106.067ZM237.7 111.777H236.5V106.937H237.7V111.777ZM241.476 111.917C240.056 111.917 238.876 110.977 238.876 109.377C238.876 107.817 240.036 106.837 241.446 106.837C242.146 106.837 242.876 107.117 243.256 107.587L242.436 108.307C242.246 108.037 241.836 107.837 241.446 107.837C240.566 107.837 240.126 108.627 240.126 109.377C240.126 110.127 240.576 110.917 241.486 110.917C241.856 110.917 242.266 110.767 242.496 110.487L243.246 111.247C242.846 111.677 242.186 111.917 241.476 111.917ZM246.339 111.917C244.859 111.917 243.759 110.967 243.759 109.407C243.759 107.857 244.849 106.837 246.299 106.837C247.639 106.837 248.619 107.707 248.619 109.437C248.619 109.547 248.619 109.647 248.609 109.757H244.959C245.009 110.437 245.629 110.937 246.329 110.937C246.929 110.937 247.329 110.697 247.599 110.317L248.399 110.957C247.929 111.597 247.249 111.917 246.339 111.917ZM244.959 108.897H247.419C247.419 108.277 247.069 107.737 246.289 107.737C245.579 107.737 245.009 108.227 244.959 108.897Z" fill="white"></path><rect x="117.768" y="462.769" width="97.6606" height="21.2308" rx="10.6154" fill="#3843D0"></rect><path d="M141.459 476.025C139.979 476.025 138.879 475.075 138.879 473.515C138.879 471.965 139.969 470.945 141.419 470.945C142.759 470.945 143.739 471.815 143.739 473.545C143.739 473.655 143.739 473.755 143.729 473.865H140.079C140.129 474.545 140.749 475.045 141.449 475.045C142.049 475.045 142.449 474.805 142.719 474.425L143.519 475.065C143.049 475.705 142.369 476.025 141.459 476.025ZM140.079 473.005H142.539C142.539 472.385 142.189 471.845 141.409 471.845C140.699 471.845 140.129 472.335 140.079 473.005ZM148.401 476.065C146.191 476.065 144.621 474.535 144.621 472.325C144.621 470.055 146.281 468.625 148.461 468.625C149.381 468.625 150.471 468.965 151.031 469.705L150.071 470.465C149.701 469.955 149.031 469.735 148.461 469.735C147.001 469.735 146.011 470.865 146.011 472.325C146.011 473.865 146.951 474.935 148.411 474.935C149.171 474.935 149.771 474.605 150.131 474.115L151.141 474.825C150.521 475.605 149.601 476.065 148.401 476.065ZM154.077 476.025C152.627 476.025 151.467 474.975 151.467 473.465C151.467 471.955 152.627 470.945 154.077 470.945C155.527 470.945 156.687 471.955 156.687 473.465C156.687 474.975 155.527 476.025 154.077 476.025ZM154.077 475.025C155.027 475.025 155.467 474.215 155.467 473.465C155.467 472.715 155.027 471.925 154.077 471.925C153.127 471.925 152.687 472.715 152.687 473.465C152.687 474.215 153.127 475.025 154.077 475.025ZM163.581 470.905C164.831 470.905 165.351 471.865 165.351 472.845V475.885H164.151V473.185C164.151 472.615 164.021 471.905 163.251 471.905C162.501 471.905 162.191 472.605 162.191 473.225V475.885H160.991V472.945C160.991 472.355 160.711 471.905 160.101 471.905C159.381 471.905 159.051 472.565 159.051 473.205V475.885H157.851V472.085V471.045H158.991V471.815H159.011C159.221 471.345 159.731 470.905 160.501 470.905C161.251 470.905 161.741 471.275 162.001 471.815C162.321 471.225 162.861 470.905 163.581 470.905ZM172.477 470.905C173.727 470.905 174.247 471.865 174.247 472.845V475.885H173.047V473.185C173.047 472.615 172.917 471.905 172.147 471.905C171.397 471.905 171.087 472.605 171.087 473.225V475.885H169.887V472.945C169.887 472.355 169.607 471.905 168.997 471.905C168.277 471.905 167.947 472.565 167.947 473.205V475.885H166.747V472.085V471.045H167.887V471.815H167.907C168.117 471.345 168.627 470.905 169.397 470.905C170.147 470.905 170.637 471.275 170.897 471.815C171.217 471.225 171.757 470.905 172.477 470.905ZM177.944 476.025C176.464 476.025 175.364 475.075 175.364 473.515C175.364 471.965 176.454 470.945 177.904 470.945C179.244 470.945 180.224 471.815 180.224 473.545C180.224 473.655 180.224 473.755 180.214 473.865H176.564C176.614 474.545 177.234 475.045 177.934 475.045C178.534 475.045 178.934 474.805 179.204 474.425L180.004 475.065C179.534 475.705 178.854 476.025 177.944 476.025ZM176.564 473.005H179.024C179.024 472.385 178.674 471.845 177.894 471.845C177.184 471.845 176.614 472.335 176.564 473.005ZM182.586 475.885H181.386V471.985V471.045H182.536V471.845H182.556C182.816 471.295 183.326 470.905 183.956 470.905C184.046 470.905 184.166 470.915 184.246 470.935V472.035C184.086 471.995 183.986 471.985 183.876 471.985C182.796 471.985 182.586 472.925 182.586 473.275V475.885ZM187.173 476.025C185.753 476.025 184.573 475.085 184.573 473.485C184.573 471.925 185.733 470.945 187.143 470.945C187.843 470.945 188.573 471.225 188.953 471.695L188.133 472.415C187.943 472.145 187.533 471.945 187.143 471.945C186.263 471.945 185.823 472.735 185.823 473.485C185.823 474.235 186.273 475.025 187.183 475.025C187.553 475.025 187.963 474.875 188.193 474.595L188.943 475.355C188.543 475.785 187.883 476.025 187.173 476.025ZM192.035 476.025C190.555 476.025 189.455 475.075 189.455 473.515C189.455 471.965 190.545 470.945 191.995 470.945C193.335 470.945 194.315 471.815 194.315 473.545C194.315 473.655 194.315 473.755 194.305 473.865H190.655C190.705 474.545 191.325 475.045 192.025 475.045C192.625 475.045 193.025 474.805 193.295 474.425L194.095 475.065C193.625 475.705 192.945 476.025 192.035 476.025ZM190.655 473.005H193.115C193.115 472.385 192.765 471.845 191.985 471.845C191.275 471.845 190.705 472.335 190.655 473.005Z" fill="white"></path><rect x="37.0919" y="279.123" width="76.43" height="21.2308" rx="10.6154" fill="#BF5878"></rect><path d="M60.9625 292.418C58.7525 292.418 57.1825 290.888 57.1825 288.678C57.1825 286.408 58.8425 284.978 61.0225 284.978C61.9425 284.978 63.0325 285.318 63.5925 286.058L62.6325 286.818C62.2625 286.308 61.5925 286.088 61.0225 286.088C59.5625 286.088 58.5725 287.218 58.5725 288.678C58.5725 290.218 59.5125 291.288 60.9725 291.288C61.7325 291.288 62.3325 290.958 62.6925 290.468L63.7025 291.178C63.0825 291.958 62.1625 292.418 60.9625 292.418ZM66.6382 292.378C65.1882 292.378 64.0282 291.328 64.0282 289.818C64.0282 288.308 65.1882 287.298 66.6382 287.298C68.0882 287.298 69.2482 288.308 69.2482 289.818C69.2482 291.328 68.0882 292.378 66.6382 292.378ZM66.6382 291.378C67.5882 291.378 68.0282 290.568 68.0282 289.818C68.0282 289.068 67.5882 288.278 66.6382 288.278C65.6882 288.278 65.2482 289.068 65.2482 289.818C65.2482 290.568 65.6882 291.378 66.6382 291.378ZM71.6117 292.238H70.4117V288.448V287.398H71.5517V288.168H71.5717C71.7817 287.688 72.3517 287.258 73.0617 287.258C74.3117 287.258 74.8317 288.218 74.8317 289.198V292.238H73.6317V289.538C73.6317 288.968 73.5017 288.258 72.7317 288.258C71.9717 288.258 71.6117 288.918 71.6117 289.558V292.238ZM77.942 292.338C76.672 292.338 76.382 291.558 76.382 290.638V288.358H75.542V287.398H76.382V286.028H77.562V287.398H78.762V288.358H77.562V290.628C77.562 291.058 77.662 291.368 78.192 291.368C78.352 291.368 78.562 291.338 78.702 291.268L78.742 292.208C78.532 292.288 78.212 292.338 77.942 292.338ZM81.9305 292.378C80.4505 292.378 79.3505 291.428 79.3505 289.868C79.3505 288.318 80.4405 287.298 81.8905 287.298C83.2305 287.298 84.2105 288.168 84.2105 289.898C84.2105 290.008 84.2105 290.108 84.2005 290.218H80.5505C80.6005 290.898 81.2205 291.398 81.9205 291.398C82.5205 291.398 82.9205 291.158 83.1905 290.778L83.9905 291.418C83.5205 292.058 82.8405 292.378 81.9305 292.378ZM80.5505 289.358H83.0105C83.0105 288.738 82.6605 288.198 81.8805 288.198C81.1705 288.198 80.6005 288.688 80.5505 289.358ZM86.5726 292.238H85.3726V288.448V287.398H86.5126V288.168H86.5326C86.7426 287.688 87.3126 287.258 88.0226 287.258C89.2726 287.258 89.7926 288.218 89.7926 289.198V292.238H88.5926V289.538C88.5926 288.968 88.4626 288.258 87.6926 288.258C86.9326 288.258 86.5726 288.918 86.5726 289.558V292.238ZM92.903 292.338C91.633 292.338 91.343 291.558 91.343 290.638V288.358H90.503V287.398H91.343V286.028H92.523V287.398H93.723V288.358H92.523V290.628C92.523 291.058 92.623 291.368 93.153 291.368C93.313 291.368 93.523 291.338 93.663 291.268L93.703 292.208C93.493 292.288 93.173 292.338 92.903 292.338Z" fill="white"></path><rect x="373.596" y="392.708" width="85.9838" height="21.2308" rx="10.6154" fill="#FF8B35"></rect><path d="M394.794 405.823H393.594V398.743H395.564L397.404 403.773H397.434L399.254 398.743H401.234V405.823H399.984V400.133H399.964L397.814 405.823H396.934L394.814 400.133H394.794V405.823ZM404.193 405.943C403.423 405.943 402.393 405.573 402.393 404.453C402.393 403.033 404.173 402.823 405.663 402.823H405.693V402.703C405.693 402.113 405.193 401.823 404.593 401.823C404.083 401.823 403.593 402.063 403.283 402.373L402.663 401.643C403.203 401.143 403.963 400.883 404.693 400.883C406.413 400.883 406.833 401.943 406.833 402.903V405.033V405.823H405.713V405.213H405.683C405.443 405.633 404.873 405.943 404.193 405.943ZM404.433 405.033C405.253 405.033 405.693 404.563 405.693 403.803V403.633H405.423C404.663 403.633 403.593 403.723 403.593 404.433C403.593 404.893 404.023 405.033 404.433 405.033ZM409.431 405.823H408.231V401.923V400.983H409.381V401.783H409.401C409.661 401.233 410.171 400.843 410.801 400.843C410.891 400.843 411.011 400.853 411.091 400.873V401.973C410.931 401.933 410.831 401.923 410.721 401.923C409.641 401.923 409.431 402.863 409.431 403.213V405.823ZM413.094 405.823H411.894V398.263H413.094V403.023H413.124L414.944 400.983H416.484L414.404 403.173L416.614 405.823H415.024L413.124 403.343H413.094V405.823ZM419.428 405.963C417.948 405.963 416.848 405.013 416.848 403.453C416.848 401.903 417.938 400.883 419.388 400.883C420.728 400.883 421.708 401.753 421.708 403.483C421.708 403.593 421.708 403.693 421.698 403.803H418.048C418.098 404.483 418.718 404.983 419.418 404.983C420.018 404.983 420.418 404.743 420.688 404.363L421.488 405.003C421.018 405.643 420.338 405.963 419.428 405.963ZM418.048 402.943H420.508C420.508 402.323 420.158 401.783 419.378 401.783C418.668 401.783 418.098 402.273 418.048 402.943ZM424.58 405.923C423.31 405.923 423.02 405.143 423.02 404.223V401.943H422.18V400.983H423.02V399.613H424.2V400.983H425.4V401.943H424.2V404.213C424.2 404.643 424.3 404.953 424.83 404.953C424.99 404.953 425.2 404.923 425.34 404.853L425.38 405.793C425.17 405.873 424.85 405.923 424.58 405.923ZM426.878 400.113C426.438 400.113 426.118 399.773 426.118 399.393C426.118 399.013 426.438 398.673 426.878 398.673C427.318 398.673 427.658 398.983 427.658 399.393C427.658 399.803 427.318 400.113 426.878 400.113ZM427.488 405.823H426.288V400.983H427.488V405.823ZM430.144 405.823H428.944V402.033V400.983H430.084V401.753H430.104C430.314 401.273 430.884 400.843 431.594 400.843C432.844 400.843 433.364 401.803 433.364 402.783V405.823H432.164V403.123C432.164 402.553 432.034 401.843 431.264 401.843C430.504 401.843 430.144 402.503 430.144 403.143V405.823ZM436.934 408.223C436.154 408.223 435.174 407.943 434.554 407.433L435.244 406.503C435.704 406.943 436.324 407.183 436.924 407.183C438.084 407.183 438.444 406.483 438.444 405.533V405.183H438.424C438.074 405.653 437.514 405.903 436.854 405.903C435.414 405.903 434.484 404.753 434.484 403.383C434.484 401.983 435.384 400.843 436.834 400.843C437.504 400.843 438.134 401.123 438.484 401.703H438.504V400.983H439.644V405.393C439.644 407.123 438.804 408.223 436.934 408.223ZM437.074 404.913C437.964 404.913 438.504 404.183 438.504 403.373C438.504 402.533 437.954 401.823 437.084 401.823C436.214 401.823 435.704 402.513 435.704 403.373C435.704 404.143 436.214 404.913 437.074 404.913Z" fill="white"></path><rect x="369.35" y="192.077" width="54.1379" height="21.2308" rx="10.6154" fill="#6069D9"></rect><path d="M393.867 205.372C391.657 205.372 390.087 203.842 390.087 201.632C390.087 199.362 391.747 197.932 393.927 197.932C394.847 197.932 395.937 198.272 396.497 199.012L395.537 199.772C395.167 199.262 394.497 199.042 393.927 199.042C392.467 199.042 391.477 200.172 391.477 201.632C391.477 203.172 392.417 204.242 393.877 204.242C394.637 204.242 395.237 203.912 395.597 203.422L396.607 204.132C395.987 204.912 395.067 205.372 393.867 205.372ZM398.17 205.192H396.65L399.1 201.412L396.9 198.112H398.42L399.88 200.532L401.32 198.112H402.77L400.61 201.442L403.15 205.192H401.56L399.83 202.412L398.17 205.192Z" fill="white"></path><defs><linearGradient id="paint0_linear_1_25095" x1="71.6616" y1="82.2395" x2="365.66" y2="366.447" gradientUnits="userSpaceOnUse"><stop offset="0.0633932" stop-color="#70CFBE"></stop><stop offset="0.41159" stop-color="#D7D9F6" stop-opacity="0.625"></stop><stop offset="1" stop-color="#D7D9F6" stop-opacity="0"></stop></linearGradient></defs></svg>