<svg xmlns="http://www.w3.org/2000/svg" width="150" height="41" viewBox="0 0 150 41" fill="none"><path d="M134.059 0C136.074 0.00681744 138.088 2.18211e-07 140.103 0.00340872C140.101 0.354507 140.101 0.7039 140.103 1.055C139.312 1.05329 138.518 1.055 137.727 1.055C137.724 3.25192 137.725 5.44884 137.725 7.64576C137.294 7.64405 136.863 7.64405 136.432 7.64746C136.428 5.44884 136.433 3.25192 136.428 1.055C135.639 1.055 134.847 1.05159 134.058 1.0567C134.051 0.7039 134.052 0.351098 134.059 0Z" fill="#FF6600"></path><path d="M141.61 0C142.267 0 142.926 0.00170425 143.586 0C144.329 1.914 145.086 3.82288 145.829 5.73688C146.567 3.82629 147.31 1.9174 148.038 0.00340872C148.69 -2.18211e-07 149.345 -0.00170447 149.999 0.00340872C149.994 2.55143 150.008 5.09944 149.992 7.64746C149.563 7.64235 149.133 7.64235 148.706 7.64405C148.701 5.54769 148.712 3.45133 148.697 1.35667C147.843 3.4394 147.051 5.54769 146.219 7.64064C145.938 7.64064 145.66 7.64064 145.384 7.63894C144.559 5.55451 143.778 3.45133 142.914 1.38224C142.887 3.47008 142.909 5.55621 142.901 7.64405C142.469 7.64405 142.04 7.64405 141.61 7.64405C141.605 5.09604 141.605 2.54802 141.61 0Z" fill="#FF6600"></path><path d="M10.6589 8.15059C13.3006 8.00913 16.0361 8.6227 18.216 10.1703C20.0993 11.4911 21.4543 13.4904 22.1224 15.6856C22.8348 18.0274 22.9268 20.5362 22.5809 22.9513C22.2604 25.0306 21.4747 27.0724 20.1181 28.6967C18.6148 30.5322 16.4298 31.7423 14.1221 32.2179C11.6338 32.7309 8.98518 32.5587 6.62294 31.5992C4.66292 30.8049 2.95856 29.3903 1.84562 27.5871C0.471904 25.3834 -0.0462214 22.7348 0.00320489 20.1629C-0.01043 17.4308 0.647453 14.6084 2.29386 12.3876C4.20786 9.73735 7.44444 8.28012 10.6589 8.15059ZM10.41 13.3676C9.16414 13.5313 8.00517 14.2249 7.30127 15.2714C6.39285 16.6179 6.11163 18.2779 6.05368 19.8732C6.01619 21.6491 6.21389 23.5069 7.11379 25.0715C7.73759 26.152 8.82327 26.948 10.0453 27.1968C11.5417 27.5053 13.2239 27.3383 14.4783 26.4043C15.6032 25.5504 16.2066 24.1835 16.4827 22.8285C16.7843 21.2861 16.7946 19.6874 16.544 18.1347C16.3071 16.7542 15.7788 15.3413 14.6931 14.4056C13.5375 13.3915 11.886 13.1478 10.41 13.3676Z" fill="#FF6600"></path><path d="M32.6586 11.4095C34.3971 9.38303 37.0951 8.04682 39.7948 8.29906C39.7914 10.2062 39.7931 12.1151 39.7931 14.024C38.0802 14.0393 36.294 14.1041 34.7175 14.854C34.0306 15.2102 33.3421 15.7539 33.0898 16.5056C33.066 21.6135 33.0881 26.7249 33.0779 31.8346C31.0156 31.8295 28.9533 31.838 26.8911 31.8295C26.8877 24.1326 26.8962 16.4357 26.886 8.73879C28.8102 8.72174 30.7344 8.73197 32.6586 8.73197C32.662 9.62335 32.662 10.5164 32.6586 11.4095Z" fill="#FF6600"></path><path d="M47.8003 8.92415C50.1557 8.17083 52.6884 8.10947 55.1222 8.45886C57.1692 8.7861 59.2945 9.59738 60.5779 11.3103C61.5647 12.5766 61.8613 14.2418 61.7539 15.8149C61.7607 21.1529 61.7181 26.4944 61.7846 31.8325C59.9797 31.8325 58.1747 31.8307 56.3698 31.8325C56.1926 31.1643 56.017 30.4996 55.8415 29.8332C54.2615 30.8712 52.4754 31.599 50.6108 31.9109C48.7411 32.2091 46.7351 32.2534 44.9813 31.437C43.4508 30.7502 42.2611 29.3799 41.7669 27.7761C41.1584 25.8314 41.2692 23.5868 42.3617 21.8313C43.34 20.2667 44.9557 19.2355 46.6124 18.5163C49.5473 17.267 52.7259 16.7489 55.8756 16.3773C55.85 15.4314 56.0477 14.3423 55.3694 13.5634C54.4115 12.4743 52.8043 12.4062 51.463 12.5221C49.5882 12.6703 47.8548 13.6742 46.6822 15.1297C45.3068 14.3491 43.928 13.5719 42.5628 12.7726C43.8274 10.9592 45.7005 9.59567 47.8003 8.92415ZM50.2716 21.3421C49.324 21.7546 48.3713 22.3255 47.8395 23.2442C47.1254 24.4304 47.2583 26.0734 48.1804 27.1114C48.6644 27.6278 49.3683 27.9312 50.079 27.9124C52.1976 27.9516 54.1627 26.8642 55.7034 25.4803C55.6949 23.6788 55.7051 21.8773 55.6983 20.0775C53.8559 20.311 51.9964 20.628 50.2716 21.3421Z" fill="#FF6600"></path><path d="M77.9286 8.43033C79.8579 8.06389 81.9441 8.13036 83.7558 8.95356C85.1039 9.56372 86.1249 10.7653 86.6174 12.1544C86.9958 13.1872 87.1458 14.2933 87.1696 15.3909C87.1696 20.8602 87.1696 26.3295 87.1696 31.7988C85.1414 31.7988 83.1133 31.8022 81.0851 31.7988C81.0851 26.6568 81.0868 21.5164 81.0834 16.3743C81.051 15.3637 80.9419 14.2541 80.2585 13.4548C79.5665 12.7032 78.4518 12.6469 77.5025 12.7526C75.6175 12.9878 73.983 14.0718 72.5547 15.2614C72.5547 20.7733 72.5547 26.2852 72.5547 31.7988C70.5368 31.7988 68.5222 31.8005 66.506 31.7988C66.506 24.3201 66.5026 16.8413 66.506 9.36091C68.1916 9.124 69.8789 8.8905 71.5645 8.66041C71.7247 9.56543 71.9292 10.4653 72.1065 11.3686C73.8722 10.0938 75.7658 8.87687 77.9286 8.43033Z" fill="#FF6600"></path><path d="M93.7359 11.7883C95.159 9.82319 97.4156 8.44436 99.8494 8.26029C101.416 8.16996 103.026 8.31142 104.487 8.90965C105.598 9.3596 106.634 10.1249 107.166 11.2276C107.315 10.3771 107.482 9.53004 107.614 8.67956C109.329 8.63525 111.045 8.67104 112.762 8.66081C112.762 16.2793 112.762 23.8961 112.762 31.5146C112.726 33.7609 112.228 36.1538 110.638 37.8343C108.864 39.7074 106.236 40.4164 103.747 40.6653C100.877 40.9414 97.8178 40.7829 95.2442 39.3512C93.5961 38.4547 92.294 36.8697 91.9309 35.0017C93.9319 34.6796 95.9311 34.3557 97.932 34.0336C98.0888 34.6233 98.3615 35.2233 98.8933 35.5658C99.9602 36.2595 101.291 36.3021 102.524 36.2851C103.696 36.2817 104.961 35.963 105.772 35.0613C106.662 34.0626 106.849 32.6616 106.888 31.3748C106.878 30.4033 106.912 29.4301 106.865 28.4587C106.256 29.4455 105.532 30.4101 104.502 30.9845C103.021 31.8282 101.25 31.8981 99.5938 31.7395C97.3235 31.5009 95.1266 30.3795 93.7171 28.5609C91.9395 26.3248 91.3174 23.3882 91.2918 20.5828C91.2322 17.5081 91.8815 14.2988 93.7359 11.7883ZM101.153 12.632C100.265 12.7939 99.4455 13.2762 98.8643 13.9665C98.0291 14.9414 97.6423 16.2128 97.465 17.4638C97.2775 18.887 97.3167 20.3306 97.4497 21.7571C97.6133 23.1581 97.949 24.6477 98.9614 25.6925C99.7148 26.5123 100.86 26.8583 101.947 26.8242C103.115 26.8531 104.325 26.4663 105.157 25.6192C106.07 24.6835 106.496 23.3882 106.713 22.1218C106.905 20.9203 106.957 19.6965 106.909 18.4813C106.807 16.823 106.324 15.0965 105.138 13.883C104.129 12.828 102.578 12.3695 101.153 12.632Z" fill="#FF6600"></path><path d="M119.039 11.6152C120.592 9.72504 122.937 8.6172 125.338 8.32746C128.021 8.01215 130.908 8.33598 133.219 9.83241C135.104 11.0306 136.41 12.994 137.052 15.1142C137.637 17.0691 137.831 19.1416 137.659 21.1749C132.563 21.1732 127.469 21.1766 122.376 21.1732C122.386 22.7191 122.618 24.3382 123.462 25.6642C124.145 26.7431 125.33 27.4333 126.582 27.6157C127.876 27.8032 129.258 27.7265 130.443 27.1231C131.494 26.5931 132.306 25.6983 132.972 24.7422C134.457 25.5739 135.946 26.4022 137.437 27.222C136.071 29.6558 133.543 31.2698 130.857 31.8579C128.113 32.439 125.158 32.4493 122.524 31.3874C120.474 30.5728 118.78 28.9587 117.793 26.9885C116.52 24.4609 116.259 21.5533 116.438 18.765C116.624 16.2101 117.369 13.6042 119.039 11.6152ZM123.789 13.7184C122.933 14.6694 122.569 15.9596 122.468 17.2106C125.563 17.2174 128.658 17.2123 131.753 17.214C131.721 15.9817 131.44 14.683 130.596 13.7439C129.642 12.6582 128.116 12.2662 126.719 12.3702C125.623 12.4367 124.525 12.8849 123.789 13.7184Z" fill="#FF6600"></path></svg>