<svg xmlns="http://www.w3.org/2000/svg" width="74" height="75" viewBox="0 0 74 75" fill="none"><path d="M34.9791 40V0C-6.88123 5.5 -7.38123 52.5 13.6188 67L34.9791 40Z" fill="#F5768F"></path><path fill-rule="evenodd" clip-rule="evenodd" d="M73 38.5C73 58.1061 57.1061 74 37.5 74C17.8939 74 2 58.1061 2 38.5C2 18.8939 17.8939 3 37.5 3C37.6669 3 37.8336 3.00115 38 3.00345V41.3292L17.6045 67.6941L18.3955 68.3059L38.8955 41.8059L39 41.6708V41.5V3.03112C57.9104 3.81716 73 19.3964 73 38.5ZM74 38.5C74 58.6584 57.6584 75 37.5 75C17.3416 75 1 58.6584 1 38.5C1 18.3416 17.3416 2 37.5 2C57.6584 2 74 18.3416 74 38.5Z" fill="#040237"></path><path fill-rule="evenodd" clip-rule="evenodd" d="M27.8198 24.0505C28.0601 23.8102 28.0601 23.4206 27.8198 23.1802C27.5794 22.9399 27.1898 22.9399 26.9495 23.1802L20 30.1297L13.0505 23.1802C12.8102 22.9399 12.4206 22.9399 12.1802 23.1802C11.9399 23.4206 11.9399 23.8102 12.1802 24.0505L19.1297 31L12.1802 37.9495C11.9399 38.1898 11.9399 38.5794 12.1802 38.8198C12.4206 39.0601 12.8102 39.0601 13.0505 38.8198L20 31.8703L26.9495 38.8198C27.1898 39.0601 27.5794 39.0601 27.8198 38.8198C28.0601 38.5794 28.0601 38.1898 27.8198 37.9495L20.8703 31L27.8198 24.0505Z" fill="#343941"></path><path fill-rule="evenodd" clip-rule="evenodd" d="M59.662 43.2218C60.0584 43.5622 60.1142 44.1722 59.7866 44.5842L48.9743 58.1841L48.972 58.187C48.7654 58.4448 48.5061 58.6516 48.213 58.7922C47.9199 58.9328 47.6003 59.0037 47.2775 58.9998C46.9494 58.9956 46.6257 58.9141 46.3322 58.7616C46.0396 58.6095 45.7838 58.3907 45.584 58.1216C45.5834 58.1208 45.5828 58.12 45.5822 58.1192L42.1962 53.5941C41.8805 53.1722 41.9536 52.5642 42.3595 52.2361C42.7654 51.9079 43.3503 51.9839 43.666 52.4058L47.0578 56.9387C47.0864 56.9773 47.1231 57.0087 47.165 57.0305C47.2069 57.0523 47.253 57.0639 47.2999 57.0645C47.3457 57.0649 47.3911 57.0548 47.4327 57.0348C47.4742 57.0149 47.511 56.9857 47.5404 56.9493C47.5402 56.9496 47.5406 56.949 47.5404 56.9493L58.3513 43.3513C58.6788 42.9393 59.2657 42.8813 59.662 43.2218Z" fill="#343941"></path></svg>