<svg xmlns="http://www.w3.org/2000/svg" width="94" height="49" viewBox="0 0 94 49" fill="none"><path fill-rule="evenodd" clip-rule="evenodd" d="M83.5608 26.8122C85.7435 32.0818 86.867 37.7297 86.867 43.4335L60.0172 43.4335C60.0172 41.6705 59.6699 39.9248 58.9953 38.296C58.3206 36.6672 57.3317 35.1873 56.0851 33.9407C54.8385 32.694 53.3585 31.7052 51.7298 31.0305C50.101 30.3558 48.3553 30.0086 46.5923 30.0086C44.8293 30.0086 43.0836 30.3558 41.4548 31.0305C39.826 31.7052 38.3461 32.694 37.0994 33.9407C35.8528 35.1873 34.864 36.6672 34.1893 38.296C33.5146 39.9248 33.1674 41.6705 33.1674 43.4335L0 43.4335C0 37.7297 1.12344 32.0818 3.30618 26.8122C5.48891 21.5426 8.6882 16.7545 12.7214 12.7214C16.7545 8.6882 21.5426 5.48891 26.8122 3.30618C32.0818 1.12344 37.7297 0 43.4335 0C49.1372 0 54.7852 1.12344 60.0547 3.30618C65.3243 5.48891 70.1124 8.6882 74.1456 12.7214C78.1787 16.7545 81.378 21.5426 83.5608 26.8122Z" fill="#BDC0EF"></path><path d="M90.2061 32.1366C92.2999 37.1915 93.4077 42.5986 93.4713 48.0665L7.61021 48.0665C7.67389 42.5986 8.78161 37.1915 10.8754 32.1366C13.033 26.9277 16.1955 22.1947 20.1822 18.208C24.169 14.2212 28.9019 11.0588 34.1108 8.90117C39.3198 6.74356 44.9027 5.63306 50.5408 5.63306C56.1789 5.63306 61.7618 6.74356 66.9707 8.90117C72.1796 11.0588 76.9126 14.2212 80.8993 18.208C84.8861 22.1947 88.0485 26.9277 90.2061 32.1366Z" stroke="#040237"></path><path d="M55.4764 33.9571L65.1503 17.5708" stroke="#040237" stroke-linecap="round"></path></svg>