<svg xmlns="http://www.w3.org/2000/svg" width="72" height="88" viewBox="0 0 72 88" fill="none"><g clip-path="url(#clip0_4_9)"><path d="M36 84.7138C36.731 84.3494 55.736 76.152 61.7665 71.2336C67.9797 66.133 71.269 58.8464 71.269 50.1025V9.11551L70.7208 8.93334C55.5533 0.735943 36.731 1.28244 35.8173 1.28244C35.0863 1.28244 16.264 0.735943 1.09644 8.93334L0.730957 9.11551V50.2847C0.730957 59.0286 4.0203 66.3151 10.2335 71.4158C16.264 76.3342 35.269 84.5316 36 84.7138Z" fill="#341B14"></path><path d="M36 85.6245C36 85.6245 15.8985 76.8806 9.68528 71.9621C3.1066 66.4972 0 59.0285 0 50.4667V7.84025C15.8985 -0.721481 36 0.00717645 36 0.00717645C36 0.00717645 56.1015 -0.721481 72 7.84025V50.2846C72 58.8463 68.8934 66.315 62.3147 71.78C56.1015 76.8806 36 85.6245 36 85.6245ZM2.92386 50.4667C2.92386 58.482 5.84772 65.0399 11.5127 69.594C16.6294 73.7838 31.797 80.5239 36 82.3455C40.203 80.5239 55.5533 73.6016 60.4873 69.594C66.1523 65.0399 69.0761 58.2998 69.0761 50.4667V8.56891C47.8782 6.5651 22.6599 7.65808 2.92386 25.8745V50.4667Z" fill="#FFB406"></path><path d="M56.2843 44.4554C59.0254 46.0949 60.1218 47.1879 60.3046 49.1917C60.3046 51.3777 58.8426 52.6528 56.467 52.6528C54.4569 52.6528 52.0812 51.5598 50.4366 50.1025V55.9318C52.4467 57.0248 54.8223 57.9356 57.3807 57.9356C63.5939 57.9356 66.5178 53.5636 66.5178 49.556C66.7005 45.9127 65.6041 42.9981 60.3046 39.9013C57.9289 38.444 56.1015 37.5332 56.1015 35.3472C56.1015 33.1612 58.1117 32.2504 59.7563 32.2504C61.9492 32.2504 64.1421 33.5255 65.4213 34.8007V29.3358C64.3249 28.4249 61.9492 27.1498 58.4772 27.3319C54.2741 27.5141 49.8883 30.4287 49.8883 35.5293C50.0711 38.9905 51.1675 41.5408 56.2843 44.4554ZM34.7208 57.5712C35.269 57.7534 36.1827 57.9356 37.6447 57.9356C44.7716 57.9356 48.7919 51.5598 48.7919 42.4516C48.7919 33.1612 44.5888 27.5141 37.0964 27.5141C33.6244 27.5141 30.8832 28.2428 28.5076 29.7001V70.8692H34.7208V57.5712ZM34.7208 32.7969C35.269 32.6147 36.1827 32.2504 36.9137 32.2504C40.5685 32.2504 42.0305 35.165 42.0305 42.2694C42.0305 49.1917 40.203 52.4706 36.5482 52.4706C35.6345 52.4706 34.9036 52.2885 34.5381 52.1063V32.7969H34.7208ZM15.533 57.9356C19.3706 57.9356 22.6599 57.0247 25.0355 55.3853V27.8784H18.6396V51.742C17.9086 52.2885 16.9949 52.4706 15.7157 52.4706C12.7919 52.4706 12.4264 49.7382 12.4264 48.0987V27.8784H6.03046V47.7344C6.03046 54.4744 9.3198 57.9356 15.533 57.9356ZM58.1117 82.5278V86.7176H58.8426V85.0781H59.0254L60.1218 86.7176H61.0355C61.0355 86.7176 59.9391 85.0781 59.7563 84.8959C60.3046 84.7137 60.6701 84.3494 60.6701 83.8029C60.6701 83.2564 60.3046 82.5278 59.2081 82.5278H58.1117ZM59.2081 83.0743C59.7563 83.0743 59.9391 83.4386 59.9391 83.6208C59.9391 83.9851 59.7563 84.3494 59.0254 84.3494H58.8426V83.0743H59.2081Z" fill="#FFB406"></path><path d="M62.132 84.5316C62.132 85.9889 60.8528 87.2641 59.3908 87.2641C57.9289 87.2641 56.6497 85.9889 56.6497 84.5316C56.6497 83.0743 57.9289 81.7991 59.3908 81.7991C61.0355 81.7991 62.132 83.0743 62.132 84.5316ZM59.3908 81.0705C57.5634 81.0705 55.9188 82.5278 55.9188 84.5316C55.9188 86.3532 57.3807 87.9927 59.3908 87.9927C61.2183 87.9927 62.8629 86.5354 62.8629 84.5316C62.8629 82.7099 61.2183 81.0705 59.3908 81.0705Z" fill="#FFB406"></path></g><defs><clipPath id="clip0_4_9"><rect width="72" height="88" fill="white"></rect></clipPath></defs></svg>