<svg xmlns="http://www.w3.org/2000/svg" width="150" height="60" viewBox="0 0 150 60" fill="none"><path d="M13.3484 44.5185L7.95142 31.8713H5.39671L0 44.5185H2.82424L3.97562 41.7022H9.30051L10.4519 44.5185H13.3484ZM8.31095 39.2625H4.96496L6.63805 35.1899L8.31095 39.2625ZM26.0815 42.4915L24.3187 40.7154C23.3291 41.6127 22.4477 42.1858 21.0086 42.1858C18.8497 42.1858 17.3566 40.3923 17.3566 38.2396V38.2039C17.3566 36.0512 18.8858 34.2936 21.0086 34.2936C22.268 34.2936 23.2573 34.8317 24.2287 35.7109L25.9918 33.6835C24.8222 32.5352 23.4011 31.7461 21.0266 31.7461C17.1589 31.7461 14.4606 34.6701 14.4606 38.2399V38.2756C14.4606 41.8812 17.2129 44.7335 20.9187 44.7335C23.3473 44.7335 24.7865 43.8723 26.0815 42.4915ZM39.5375 42.4914L37.7744 40.7154C36.785 41.6127 35.9034 42.1858 34.4641 42.1858C32.3054 42.1858 30.8123 40.3923 30.8123 38.2396V38.2038C30.8123 36.0512 32.3413 34.2935 34.4641 34.2935C35.7237 34.2935 36.7131 34.8317 37.6844 35.7108L39.4475 33.6835C38.2779 32.5351 36.8569 31.7461 34.4823 31.7461C30.6146 31.7461 27.916 34.6701 27.916 38.2399V38.2756C27.916 41.8811 30.6685 44.7335 34.3744 44.7335C36.8029 44.7335 38.2418 43.8723 39.5375 42.4914ZM54.7562 38.2396V38.2038C54.7562 34.6343 51.9678 31.7461 48.0819 31.7461C44.1962 31.7461 41.3717 34.67 41.3717 38.2398V38.2755C41.3717 41.8451 44.1602 44.7334 48.046 44.7334C51.9313 44.7334 54.7562 41.8102 54.7562 38.2396ZM51.8599 38.2754C51.8599 40.4279 50.3125 42.1855 48.0819 42.1855C45.8513 42.1855 44.268 40.392 44.268 38.2393V38.2036C44.268 36.0509 45.8149 34.2932 48.046 34.2932C50.2766 34.2932 51.8599 36.0868 51.8599 38.2394V38.2754ZM68.6436 44.5182L65.5678 40.0328C67.1686 39.4412 68.2659 38.1674 68.2659 36.1402V36.1044C68.2659 33.5216 66.4849 31.9609 63.5169 31.9609H57.7602V44.5183H60.5303V40.5002H62.7074L65.4056 44.5183L68.6436 44.5182ZM65.4595 36.2843C65.4595 37.3421 64.686 38.0603 63.3367 38.0603H60.5303V34.4544H63.2829C64.6321 34.4544 65.4595 35.0641 65.4595 36.2483V36.2843Z" fill="#12283B"></path><path d="M65.1597 25.8195C65.1597 25.985 65.8645 25.971 66.5693 25.971C69.2229 25.971 71.863 25.7371 74.3646 25.1443C77.6957 24.3584 78.5944 23.1872 80.4598 22.1395C84.2611 20.0033 89.071 20.3752 89.071 20.0169C89.071 19.9204 89.0018 19.8928 87.6614 19.5481C87.5367 19.0386 86.8732 18.7078 86.2096 18.7078C84.6484 18.7078 82.0902 20.5133 79.7963 20.5133C79.5474 20.5133 79.3124 20.4855 79.0635 20.4441C78.1379 18.7214 76.023 17.1913 73.411 16.8604C71.9043 16.6676 70.8264 16.4885 69.9696 16.3371C66.9422 15.7855 66.1545 15 65.8089 15C65.7398 15 65.7123 15.069 65.7123 15.1241C65.7123 15.7028 66.7489 17.3294 68.3935 19.1627C69.4718 20.3614 71.2544 22.0979 71.2544 22.925C71.2544 23.3798 70.2458 23.9314 68.3243 24.7444C66.0858 25.6957 65.1597 25.6816 65.1597 25.8195Z" fill="#E29C16"></path><path d="M85.9371 44.5184V31.961H83.1665V36.9307H76.8648V31.961H74.0947V44.5184H76.8648V39.4775H83.1665V44.5184H85.9371ZM102.325 38.2395V38.2038C102.325 34.6343 99.5372 31.7461 95.6513 31.7461C91.7661 31.7461 88.9422 34.6701 88.9422 38.2398V38.2756C88.9422 41.8451 91.7301 44.7335 95.6165 44.7335C99.5012 44.7335 102.325 41.8102 102.325 38.2395ZM99.4288 38.2754C99.4288 40.428 97.8824 42.1855 95.6513 42.1855C93.4213 42.1855 91.8373 40.392 91.8373 38.2393V38.2036C91.8373 36.0509 93.3854 34.2932 95.6165 34.2932C97.8459 34.2932 99.4288 36.087 99.4288 38.2395V38.2754ZM114.324 34.5083V31.9607H103.89V34.5083H107.722V44.5182H110.493V34.5083H114.324ZM126.574 44.5182V42.06H119.738V39.4237H125.676V36.9654H119.738V34.4186H126.485V31.9607H116.986V44.5182H126.574ZM138.032 44.5182V42.0065H132.349V31.9607H129.58V44.5182H138.032ZM149.76 40.8046V40.7688C149.76 38.5801 148.322 37.6655 145.766 37.0017C143.591 36.4461 143.05 36.1765 143.05 35.3515V35.316C143.05 34.706 143.607 34.2216 144.67 34.2216C145.731 34.2216 146.828 34.6879 147.943 35.4593L149.382 33.3785C148.105 32.3561 146.54 31.7819 144.705 31.7819C142.134 31.7819 140.298 33.289 140.298 35.5667V35.6025C140.298 38.0965 141.935 38.7953 144.471 39.4415C146.576 39.9797 147.008 40.3388 147.008 41.0384V41.0734C147.008 41.8102 146.325 42.2578 145.191 42.2578C143.753 42.2578 142.565 41.6661 141.432 40.7328L139.795 42.6889C141.305 44.0338 143.231 44.6975 145.137 44.6975C147.853 44.6975 149.76 43.2978 149.76 40.8046Z" fill="#12283B"></path></svg>