<svg xmlns="http://www.w3.org/2000/svg" width="150" height="60" viewBox="0 0 150 60" fill="none"><mask id="mask0_82_154" style="mask-type:luminance" maskUnits="userSpaceOnUse" x="0" y="16" width="150" height="29"><path d="M150 16H0V44.0359H150V16Z" fill="white"></path></mask><g mask="url(#mask0_82_154)"><path d="M54.5943 18.9368C52.4389 16.9791 49.5642 16 45.9727 16C41.5347 16 38.3027 16.7438 36.0341 18.8884H35.6569L35.4114 16.539H31.1006V43.481H35.8423V29.0401C35.8423 26.0949 36.6861 23.894 38.3751 22.4391C40.063 20.9843 42.2185 20.2568 44.8411 20.2568C47.355 20.2568 49.3487 20.9306 50.822 22.2776C52.2948 23.6247 53.0315 25.6991 53.0315 28.5012V43.481H57.8274V27.3695C57.8274 23.7056 56.7497 20.8949 54.5943 18.9368Z" fill="#81809B"></path><path d="M98.2774 35.5874L97.9242 35.5951V16.5469H93.1284V43.4799H97.6182L119.93 16.5469H114.287L98.2774 35.5874Z" fill="#81809B"></path><path d="M15.3887 35.6334C14.2172 35.6334 13.1249 35.6825 12.1076 35.7908L21.6523 24.4393L22.0054 24.4316L22.0053 37.0251C20.1387 36.0991 17.9342 35.6334 15.3887 35.6334ZM0 43.4799H3.17441H5.65255C5.80966 43.2936 6.26137 42.7573 6.47997 42.4876C6.73262 42.1755 7.01177 41.8867 7.31868 41.6224C9.11166 40.0771 11.4009 39.3043 14.1868 39.3043C16.8569 39.3043 18.9747 40.0201 20.5397 41.4508C21.1482 42.0074 21.6305 42.689 22.002 43.4799H22.0053H26.668H26.801V16.5469H22.312L0 43.4799Z" fill="#81809B"></path><path d="M84.0453 31.5269C84.0453 34.329 83.3092 36.4033 81.8361 37.7504C80.363 39.0974 78.3692 39.7711 75.8552 39.7711H75.1008C72.587 39.7711 70.5933 39.0974 69.1199 37.7504C67.6471 36.4033 66.9107 34.329 66.9107 31.5269V16.5469H62.1147V32.6584C62.1147 36.3224 63.1925 39.133 65.3479 41.0913C67.5032 43.0488 70.3782 43.9763 73.9693 44.0279C74.5992 44.037 76.4465 44.037 76.9868 44.0279C80.5777 43.9677 83.4533 43.0488 85.6081 41.0913C87.7637 39.133 88.8418 36.3224 88.8418 32.6584V16.5469H84.0453V31.5269Z" fill="#81809B"></path><path d="M145.204 16.5469V31.5269C145.204 34.329 144.467 36.4033 142.995 37.7504C141.522 39.0974 139.528 39.7711 137.015 39.7711H136.26C133.747 39.7711 131.753 39.0974 130.279 37.7504C128.807 36.4033 128.07 34.329 128.07 31.5269V16.5469H123.274V32.6584C123.274 36.3224 124.351 39.133 126.507 41.0913C128.662 43.0488 131.537 43.9763 135.128 44.0279C135.759 44.037 137.606 44.037 138.147 44.0279C141.737 43.9677 144.612 43.0488 146.767 41.0913C148.923 39.133 150.001 36.3224 150.001 32.6584V16.5469H145.204Z" fill="#81809B"></path></g></svg>