<svg xmlns="http://www.w3.org/2000/svg" width="69" height="49" viewBox="0 0 69 49" fill="none"><path d="M28.1851 19.2294H5.08232C4.26536 19.2294 3.48185 18.9187 2.90417 18.3657C2.32649 17.8128 2.00195 17.0627 2.00195 16.2807C2.00195 15.4987 2.32649 14.7487 2.90417 14.1957C3.48185 13.6427 4.26536 13.332 5.08232 13.332H28.1851C29.0021 13.332 29.7856 13.6427 30.3632 14.1957C30.9409 14.7487 31.2655 15.4987 31.2655 16.2807C31.2655 17.0627 30.9409 17.8128 30.3632 18.3657C29.7856 18.9187 29.0021 19.2294 28.1851 19.2294Z" fill="#FEC14C"></path><path d="M28.1851 33.9755H5.08232C4.26536 33.9755 3.48185 33.6648 2.90417 33.1118C2.32649 32.5589 2.00195 31.8088 2.00195 31.0268C2.00195 30.2448 2.32649 29.4948 2.90417 28.9418C3.48185 28.3888 4.26536 28.0781 5.08232 28.0781H28.1851C29.0021 28.0781 29.7856 28.3888 30.3632 28.9418C30.9409 29.4948 31.2655 30.2448 31.2655 31.0268C31.2655 31.8088 30.9409 32.5589 30.3632 33.1118C29.7856 33.6648 29.0021 33.9755 28.1851 33.9755Z" fill="#FEC14C"></path><path d="M20.6382 48.7177H5.08232C4.26536 48.7177 3.48185 48.407 2.90417 47.854C2.32649 47.301 2.00195 46.551 2.00195 45.769C2.00195 44.987 2.32649 44.2369 2.90417 43.684C3.48185 43.131 4.26536 42.8203 5.08232 42.8203H20.6382C21.4552 42.8203 22.2387 43.131 22.8164 43.684C23.394 44.2369 23.7186 44.987 23.7186 45.769C23.7186 46.551 23.394 47.301 22.8164 47.854C22.2387 48.407 21.4552 48.7177 20.6382 48.7177Z" fill="#FEC14C"></path><path d="M67.6464 12.2713L62.1403 6.75946C61.7088 6.32561 61.1958 5.98135 60.631 5.74645C60.0662 5.51155 59.4606 5.39062 58.849 5.39062C58.2373 5.39062 57.6317 5.51155 57.0669 5.74645C56.5021 5.98135 55.9892 6.32561 55.5576 6.75946L30.242 32.1014C30.0612 32.2905 29.9338 32.5242 29.8728 32.7788L25.9355 46.5429C25.8584 46.8069 25.8549 47.0871 25.9254 47.3531C25.9959 47.619 26.1377 47.8606 26.3354 48.0517C26.4796 48.2076 26.6563 48.3298 26.853 48.4096C27.0497 48.4894 27.2616 48.5249 27.4735 48.5136H27.8734L41.654 44.6337C41.9112 44.5806 42.1468 44.4519 42.3307 44.2642L67.6464 18.9223C68.5231 18.0267 69.0098 16.8199 68.9998 15.566C69.0034 14.9545 68.8855 14.3483 68.6532 13.7827C68.4209 13.2172 68.0787 12.7034 67.6464 12.2713Z" fill="#FEC14C"></path><path fill-rule="evenodd" clip-rule="evenodd" d="M0 12.542C0 11.8295 0.581559 11.252 1.29895 11.252H29.3562C30.0736 11.252 30.6552 11.8295 30.6552 12.542C30.6552 13.2545 30.0736 13.8321 29.3562 13.8321H1.29895C0.581559 13.8321 0 13.2545 0 12.542Z" fill="#3843D0"></path><path fill-rule="evenodd" clip-rule="evenodd" d="M0 26.4747C0 25.7622 0.581559 25.1847 1.29895 25.1847H29.3562C30.0736 25.1847 30.6552 25.7622 30.6552 26.4747C30.6552 27.1872 30.0736 27.7648 29.3562 27.7648H1.29895C0.581559 27.7648 0 27.1872 0 26.4747Z" fill="#3843D0"></path><path fill-rule="evenodd" clip-rule="evenodd" d="M0 40.4074C0 39.695 0.581559 39.1174 1.29895 39.1174H18.575C19.2924 39.1174 19.8739 39.695 19.8739 40.4074C19.8739 41.1199 19.2924 41.6975 18.575 41.6975H1.29895C0.581559 41.6975 0 41.1199 0 40.4074Z" fill="#3843D0"></path><path fill-rule="evenodd" clip-rule="evenodd" d="M56.2276 2.71942C55.9946 2.71942 55.764 2.76595 55.5492 2.85628C55.3345 2.9466 55.14 3.0789 54.9771 3.24541L54.9641 3.25869L29.5993 28.491L26.4305 39.8041L37.7478 36.6365L62.9894 11.281L62.9957 11.2747C63.1596 11.1122 63.2897 10.9189 63.3785 10.7058C63.4673 10.4928 63.513 10.2643 63.513 10.0335C63.513 9.80271 63.4673 9.57421 63.3785 9.36118C63.2897 9.14815 63.1596 8.95479 62.9957 8.79228L62.989 8.78565L57.4779 3.24544C57.3151 3.07894 57.1206 2.9466 56.9059 2.85628C56.6911 2.76595 56.4605 2.71942 56.2276 2.71942ZM54.4941 0.349739C55.0428 0.118907 55.6322 0 56.2276 0C56.8229 0 57.4123 0.118907 57.961 0.349739C58.5078 0.579738 59.0033 0.916238 59.4186 1.3396C59.4201 1.34113 59.4216 1.34266 59.4231 1.3442L64.9114 6.86149C64.9127 6.86275 64.9139 6.864 64.9152 6.86526C65.3323 7.2798 65.6635 7.77258 65.8897 8.31536C66.1166 8.85978 66.2334 9.44372 66.2334 10.0335C66.2334 10.6233 66.1166 11.2072 65.8897 11.7516C65.6634 12.2945 65.3321 12.7874 64.9149 13.202C64.9137 13.2032 64.9126 13.2043 64.9114 13.2055L39.4235 38.8084C39.2579 38.9747 39.0521 39.0954 38.8261 39.1586L24.8354 43.0746C24.3622 43.2071 23.8543 43.0741 23.5068 42.7267C23.1593 42.3794 23.0263 41.8717 23.1588 41.3986L27.0762 27.413C27.1395 27.1871 27.2602 26.9814 27.4266 26.8159L53.0391 1.33695C53.4539 0.914835 53.9485 0.579259 54.4941 0.349739Z" fill="#3843D0"></path></svg>