<svg xmlns="http://www.w3.org/2000/svg" width="45" height="41" viewBox="0 0 45 41" fill="none"><path d="M17.5 41C19.1569 41 20.5 39.6569 20.5 38C20.5 36.3431 19.1569 35 17.5 35C15.8431 35 14.5 36.3431 14.5 38C14.5 39.6569 15.8431 41 17.5 41Z" fill="#FEC14C"></path><path d="M38.5 41C40.1569 41 41.5 39.6569 41.5 38C41.5 36.3431 40.1569 35 38.5 35C36.8431 35 35.5 36.3431 35.5 38C35.5 39.6569 36.8431 41 38.5 41Z" fill="#FEC14C"></path><path d="M16.7294 27.5H41.23L44.83 9.5H13.5522L12.7581 5H4V8H10.2419L14.7419 33.5H41.5V30.5H17.2581L16.7294 27.5Z" fill="#FEC14C"></path><path d="M14 35C14.8284 35 15.5 34.3284 15.5 33.5C15.5 32.6716 14.8284 32 14 32C13.1716 32 12.5 32.6716 12.5 33.5C12.5 34.3284 13.1716 35 14 35Z" stroke="#3843D0" stroke-width="2.5" stroke-linecap="round" stroke-linejoin="round"></path><path d="M35 35C35.8284 35 36.5 34.3284 36.5 33.5C36.5 32.6716 35.8284 32 35 32C34.1716 32 33.5 32.6716 33.5 33.5C33.5 34.3284 34.1716 35 35 35Z" stroke="#3843D0" stroke-width="2.5" stroke-linecap="round" stroke-linejoin="round"></path><path d="M2 2H8L12.5 27.5H36.5" stroke="#3843D0" stroke-width="2.5" stroke-linecap="round" stroke-linejoin="round"></path><path d="M12.5 21.5H35.885C36.0585 21.5001 36.2266 21.4401 36.3608 21.3302C36.495 21.2203 36.5869 21.0673 36.6209 20.8972L39.3209 7.39719C39.3427 7.28833 39.3401 7.17599 39.3132 7.06828C39.2863 6.96057 39.2358 6.86018 39.1654 6.77435C39.095 6.68851 39.0064 6.61938 38.906 6.57193C38.8057 6.52449 38.696 6.49992 38.585 6.5H9.5" stroke="#3843D0" stroke-width="2.5" stroke-linecap="round" stroke-linejoin="round"></path></svg>