<svg xmlns="http://www.w3.org/2000/svg" width="46" height="37" viewBox="0 0 46 37" fill="none"><path d="M41.6153 5.07587H9.4606C8.29769 5.07587 7.18242 5.51328 6.36012 6.29188C5.53783 7.07048 5.07587 8.12649 5.07587 9.22759L5.07587 32.754C5.07587 33.8551 5.53783 34.9111 6.36012 35.6897C7.18242 36.4683 8.29769 36.9058 9.4606 36.9058H41.6153C42.7782 36.9058 43.8935 36.4683 44.7157 35.6897C45.538 34.9111 46 33.8551 46 32.754V9.22759C46 8.12649 45.538 7.07048 44.7157 6.29188C43.8935 5.51328 42.7782 5.07587 41.6153 5.07587ZM41.2937 16.5346L29.6011 23.1774C28.3661 23.8829 26.9511 24.2558 25.5087 24.2558C24.0663 24.2558 22.6513 23.8829 21.4163 23.1774L9.72368 16.5346C9.25085 16.2381 8.91778 15.7796 8.79443 15.2555C8.67108 14.7313 8.76704 14.1823 9.06216 13.7237C9.35728 13.2652 9.8286 12.9327 10.3771 12.7963C10.9256 12.6598 11.5087 12.7299 12.0037 12.9918L23.6963 19.6069C24.2454 19.9137 24.8712 20.0755 25.5087 20.0755C26.1462 20.0755 26.772 19.9137 27.3211 19.6069L39.0137 12.9918C39.5088 12.7299 40.0918 12.6598 40.6403 12.7963C41.1888 12.9327 41.6601 13.2652 41.9552 13.7237C42.2504 14.1823 42.3463 14.7313 42.223 15.2555C42.0996 15.7796 41.7666 16.2381 41.2937 16.5346Z" fill="#FEC14C"></path><path fill-rule="evenodd" clip-rule="evenodd" d="M3.14966 4.236C3.17396 3.64383 3.70692 3.08031 4.48061 3.08031H36.4442C37.2174 3.08031 37.7501 3.64303 37.7751 4.23474L21.3306 17.456C21.0932 17.6401 20.7863 17.7469 20.4616 17.7469C20.1369 17.7469 19.83 17.6401 19.5925 17.4559L3.14966 4.236ZM0.000861166 5.01274V27.5517C0.000861166 29.9687 2.06303 31.8299 4.48061 31.8299H36.4442C38.8618 31.8299 40.924 29.9687 40.924 27.5517V4.27821C40.924 1.86115 38.8618 0 36.4442 0H4.48061C2.06303 0 0.000861166 1.86115 0.000861166 4.27821V4.91061C-0.000288052 4.94466 -0.000286058 4.97873 0.000861166 5.01274ZM3.14879 8.22203L17.6026 19.8429L17.6171 19.8543C18.4232 20.4869 19.4299 20.8272 20.4616 20.8272C21.4933 20.8272 22.5001 20.487 23.3062 19.8543L37.7761 8.2207V27.5517C37.7761 28.159 37.2363 28.7496 36.4442 28.7496H4.48061C3.68855 28.7496 3.14879 28.159 3.14879 27.5517V8.22203Z" fill="#3843D0"></path></svg>