<svg xmlns="http://www.w3.org/2000/svg" width="145" height="145" viewBox="0 0 145 145" fill="none"><path d="M35.3626 128.83H114.962C124.613 128.83 132.437 121.006 132.437 111.355V34.4754C132.437 24.8239 124.613 16.9999 114.962 16.9999L35.3626 16.9999C25.7112 16.9999 17.8871 24.8239 17.8871 34.4754L17.8871 111.355C17.8871 121.006 25.7112 128.83 35.3626 128.83Z" fill="#BDC0EF"></path><path d="M98.9083 40.1014H41.136C25.1136 40.1014 11.702 53.2099 12.005 69.2245C12.106 74.6776 13.7661 79.9877 16.789 84.5272C19.8119 89.0668 24.0712 92.646 29.0636 94.8419C34.0559 97.0378 39.5726 97.7584 44.9615 96.9187C50.3504 96.079 55.3863 93.7141 59.4739 90.1034C62.1927 87.6396 65.72 86.2575 69.3888 86.2182H69.956C73.6843 86.2379 77.2769 87.6196 80.0575 90.1034C83.5263 93.155 87.6837 95.3197 92.173 96.4117C96.6622 97.5037 101.349 97.4904 105.832 96.373C110.315 95.2556 114.46 93.0674 117.912 89.9962C121.363 86.9249 124.018 83.0622 125.649 78.7395C127.28 74.4167 127.838 69.7628 127.275 65.1771C126.712 60.5914 125.045 56.2106 122.417 52.4106C119.789 48.6106 116.279 45.5048 112.187 43.3595C108.095 41.2143 103.544 40.0936 98.9238 40.0936L98.9083 40.1014Z" stroke="#040237" stroke-width="2" stroke-linecap="round" stroke-linejoin="round"></path><path d="M55.713 75.021C54.1375 78.8123 51.2085 81.8822 47.4955 83.6341C43.7824 85.3859 39.5505 85.6945 35.6226 84.4998C31.6947 83.305 28.3514 80.6924 26.2426 77.1698C24.1338 73.6471 23.4102 69.4662 24.2126 65.4398C25.0149 61.4133 27.2858 57.8291 30.5838 55.3838C33.8818 52.9386 37.9712 51.8071 42.057 52.2092C46.1429 52.6114 49.9332 54.5185 52.6912 57.5598C55.4492 60.6011 56.9777 64.5593 56.9796 68.6649" stroke="#040237" stroke-width="2" stroke-linecap="round" stroke-linejoin="round"></path><path d="M88.6747 73.6844C91.4469 73.6844 93.6943 71.437 93.6943 68.6648C93.6943 65.8925 91.4469 63.6451 88.6747 63.6451C85.9024 63.6451 83.655 65.8925 83.655 68.6648C83.655 71.437 85.9024 73.6844 88.6747 73.6844Z" stroke="#040237" stroke-width="2" stroke-linecap="round" stroke-linejoin="round"></path><path d="M109.592 73.6844C112.365 73.6844 114.612 71.437 114.612 68.6648C114.612 65.8925 112.365 63.6451 109.592 63.6451C106.82 63.6451 104.573 65.8925 104.573 68.6648C104.573 71.437 106.82 73.6844 109.592 73.6844Z" stroke="#040237" stroke-width="2" stroke-linecap="round" stroke-linejoin="round"></path><path d="M99.1336 84.1512C101.906 84.1512 104.153 81.9038 104.153 79.1316C104.153 76.3593 101.906 74.1119 99.1336 74.1119C96.3614 74.1119 94.114 76.3593 94.114 79.1316C94.114 81.9038 96.3614 84.1512 99.1336 84.1512Z" stroke="#040237" stroke-width="2" stroke-linecap="round" stroke-linejoin="round"></path><path d="M99.1336 63.2255C101.906 63.2255 104.153 60.9782 104.153 58.2059C104.153 55.4336 101.906 53.1863 99.1336 53.1863C96.3614 53.1863 94.114 55.4336 94.114 58.2059C94.114 60.9782 96.3614 63.2255 99.1336 63.2255Z" stroke="#040237" stroke-width="2" stroke-linecap="round" stroke-linejoin="round"></path><path d="M40.4755 52.1296V85.2079" stroke="#040237" stroke-width="2" stroke-linecap="round" stroke-linejoin="round"></path><path d="M23.9325 68.665H52.1154" stroke="#040237" stroke-width="2" stroke-linecap="round" stroke-linejoin="round"></path></svg>