<svg xmlns="http://www.w3.org/2000/svg" width="475" height="397" viewBox="0 0 475 397" fill="none"><rect x="472.794" y="292.148" width="472.278" height="97.6817" rx="48.8409" transform="rotate(-180 472.794 292.148)" fill="#F1F2FB"></rect><rect x="259.507" y="225.832" width="197.156" height="86.9277" rx="43.4639" transform="rotate(-180 259.507 225.832)" fill="#F1F2FB"></rect><path d="M91.8584 220.928C92.3195 219.263 94.6805 219.263 95.1416 220.928L95.2157 221.195C97.083 227.938 102.969 232.792 109.944 233.341V233.341C111.988 233.502 111.988 236.498 109.944 236.659V236.659C102.969 237.208 97.083 242.062 95.2157 248.805L95.1416 249.072C94.6805 250.737 92.3195 250.737 91.8584 249.072L91.7843 248.805C89.917 242.062 84.0311 237.208 77.0562 236.659V236.659C75.012 236.498 75.012 233.502 77.0562 233.341V233.341C84.031 232.792 89.917 227.938 91.7843 221.195L91.8584 220.928Z" fill="white"></path><g clip-path="url(#clip0_50_987)"><path d="M239.039 314.064C302.176 314.064 353.359 262.787 353.359 199.534C353.359 136.281 302.176 85.0039 239.039 85.0039C175.902 85.0039 124.719 136.281 124.719 199.534C124.719 262.787 175.902 314.064 239.039 314.064Z" fill="#FAF4EB"></path><ellipse cx="252.794" cy="205.669" rx="16.5425" ry="16.579" fill="#FEC14C"></ellipse><path d="M192.86 116.222C192.485 116.222 192.109 116.034 191.921 115.846C191.546 115.282 191.734 114.717 192.109 114.341C204.874 104.938 219.891 98.356 235.66 95.1589L239.602 94.4067L231.53 78.2333H223.833C223.27 78.2333 222.707 77.6691 222.707 77.1049C222.707 76.5407 223.27 75.9766 223.833 75.9766H291.224C291.787 75.9766 292.35 76.5407 292.35 77.1049C292.35 77.6691 291.787 78.2333 291.224 78.2333H283.528L275.456 94.2186L279.398 94.9709C290.849 97.2276 301.736 101.365 311.873 107.007L312.061 107.195C312.249 107.383 312.436 107.571 312.624 107.947C312.624 108.323 312.624 108.511 312.436 108.888C312.249 109.264 311.873 109.452 311.498 109.452C311.31 109.452 311.122 109.452 310.934 109.264C294.603 100.049 276.207 95.1589 257.435 95.1589H257.06C233.97 95.1589 211.82 102.493 193.235 116.222C193.235 116.222 193.048 116.222 192.86 116.222ZM242.042 94.0306L244.295 93.8425C248.8 93.2783 253.305 92.9022 257.81 92.9022C262.316 92.9022 266.821 93.2783 271.138 93.8425L273.391 94.0306L281.275 78.2333H234.346L242.042 94.0306Z" fill="#3843D0"></path><path d="M257.623 314.628C196.614 314.628 147.057 264.792 146.869 203.671C146.869 180.352 154.378 157.032 168.269 138.226C168.457 137.85 168.832 137.85 169.208 137.85C169.395 137.85 169.583 137.85 169.958 138.038C170.522 138.414 170.522 139.166 170.146 139.542C156.443 157.972 148.934 180.728 149.122 203.671C149.122 222.478 154.002 240.908 163.201 257.269C182.348 291.309 218.577 312.372 257.623 312.372C276.207 312.372 294.791 307.482 310.934 298.267C336.089 283.974 354.297 260.654 361.994 232.633C369.69 204.612 366.123 175.274 351.857 150.074C351.482 149.509 351.669 148.945 352.232 148.569C352.42 148.381 352.608 148.381 352.796 148.381C353.171 148.381 353.546 148.569 353.734 148.945C363.12 165.495 368.188 184.489 368.188 203.671C368.188 264.792 318.631 314.628 257.623 314.628Z" fill="#3843D0"></path><path d="M299.671 246.926C299.296 246.926 299.108 246.738 298.92 246.55L269.637 217.212L267.572 218.529C265.694 219.845 263.442 220.785 261.189 221.161C260.063 221.35 258.749 221.538 257.623 221.538C249.175 221.538 241.667 215.52 239.977 207.057L239.414 204.612H215.386C214.823 204.612 214.26 204.048 214.26 203.484C214.26 202.919 214.823 202.355 215.386 202.355H239.414L239.977 199.91C240.353 197.654 241.291 195.397 242.605 193.516C245.984 188.439 251.616 185.43 257.623 185.43C261.189 185.43 264.568 186.558 267.572 188.439L269.637 189.755L323.887 135.405V110.769C323.887 110.393 324.075 110.017 324.262 109.828L358.052 84.44C358.239 84.252 358.427 84.252 358.802 84.252C359.178 84.252 359.366 84.44 359.553 84.6281C359.741 84.8161 359.929 85.1923 359.929 85.3803V101.178H375.697C375.885 101.178 376.26 101.178 376.448 101.366C376.636 101.554 376.823 101.742 376.823 102.118C376.823 102.494 376.823 102.682 376.636 102.87L351.294 136.721C351.106 136.909 350.731 137.098 350.355 137.098H325.576L271.138 191.636L272.452 193.704C276.394 199.722 276.394 207.433 272.452 213.451L271.138 215.52L300.422 244.857C300.798 245.233 300.798 245.986 300.422 246.362C300.235 246.926 299.859 246.926 299.671 246.926ZM257.435 187.874C253.305 187.874 249.363 189.567 246.36 192.388C243.356 195.397 241.667 199.346 241.667 203.484C241.667 207.621 243.356 211.758 246.172 214.579C249.175 217.588 253.117 219.281 257.435 219.281C261.565 219.281 265.507 217.588 268.51 214.767L268.698 214.579C271.701 211.57 273.203 207.621 273.203 203.484C273.203 201.039 272.64 198.782 271.701 196.713L269.824 192.764L258.373 204.236C257.998 204.612 257.81 204.612 257.623 204.612C257.247 204.612 257.059 204.424 256.872 204.236C256.684 204.048 256.496 203.672 256.496 203.484C256.496 203.107 256.684 202.919 256.872 202.731L268.322 191.26L264.38 189.379C262.128 188.439 259.875 187.874 257.435 187.874ZM341.72 118.103C342.096 118.103 342.283 118.291 342.471 118.479C342.659 118.667 342.846 119.044 342.846 119.232C342.846 119.608 342.659 119.796 342.471 119.984L327.641 134.841H349.604L373.257 103.434H358.615C358.052 103.434 357.488 102.87 357.488 102.306V87.6371L325.952 111.333V133.524L340.969 118.479C341.157 118.291 341.532 118.103 341.72 118.103Z" fill="#3843D0"></path><path d="M257.622 120.36C257.059 120.36 256.496 119.796 256.496 119.232V110.769C256.496 110.205 257.059 109.641 257.622 109.641C258.186 109.641 258.749 110.205 258.749 110.769V119.232C258.749 119.796 258.186 120.36 257.622 120.36Z" fill="#3843D0"></path><path d="M215.386 131.643C215.011 131.643 214.635 131.454 214.447 131.078L210.318 123.744C210.13 123.556 210.13 123.18 210.13 122.804C210.13 122.427 210.318 122.239 210.693 122.051C210.881 121.863 211.068 121.863 211.256 121.863C211.632 121.863 212.007 122.051 212.195 122.427L216.325 129.762C216.512 129.95 216.512 130.326 216.512 130.702C216.512 131.078 216.325 131.266 215.949 131.454C215.761 131.643 215.574 131.643 215.386 131.643Z" fill="#3843D0"></path><path d="M184.6 162.673C184.413 162.673 184.225 162.673 184.037 162.485L176.716 158.348C176.153 157.972 175.965 157.408 176.341 156.843C176.529 156.467 176.904 156.279 177.279 156.279C177.467 156.279 177.655 156.279 177.843 156.467L185.164 160.605C185.727 160.981 185.914 161.545 185.539 162.109C185.351 162.297 184.976 162.673 184.6 162.673Z" fill="#3843D0"></path><path d="M164.89 204.8C164.327 204.8 163.764 204.236 163.764 203.671C163.764 203.107 164.327 202.543 164.89 202.543H173.337C173.713 202.543 173.9 202.731 174.088 202.919C174.276 203.107 174.464 203.483 174.464 203.671C174.464 204.236 173.9 204.8 173.337 204.8H164.89Z" fill="#3843D0"></path><path d="M177.279 251.252C176.904 251.252 176.529 251.063 176.341 250.687C175.965 250.123 176.153 249.371 176.716 249.183L184.037 245.045C184.225 244.857 184.413 244.857 184.6 244.857C184.976 244.857 185.351 245.045 185.539 245.422C185.914 245.986 185.727 246.55 185.164 246.926L177.843 251.063C177.655 251.252 177.467 251.252 177.279 251.252Z" fill="#3843D0"></path><path d="M211.256 285.29C211.068 285.29 210.881 285.29 210.693 285.102C210.505 284.914 210.318 284.726 210.13 284.35C210.13 283.974 210.13 283.786 210.318 283.598L214.447 276.263C214.635 275.887 215.011 275.699 215.386 275.699C215.574 275.699 215.761 275.699 215.949 275.887C216.137 276.075 216.325 276.263 216.512 276.64C216.7 277.016 216.512 277.204 216.325 277.392L212.195 284.726C212.007 285.102 211.632 285.29 211.256 285.29Z" fill="#3843D0"></path><path d="M257.622 297.702C257.059 297.702 256.496 297.138 256.496 296.574V288.111C256.496 287.547 257.059 286.982 257.622 286.982C258.186 286.982 258.749 287.547 258.749 288.111V296.574C258.749 297.138 258.186 297.702 257.622 297.702Z" fill="#3843D0"></path><path d="M303.989 285.29C303.613 285.29 303.238 285.102 303.05 284.726L298.92 277.392C298.545 276.828 298.733 276.263 299.296 275.887C299.484 275.699 299.671 275.699 299.859 275.699C300.234 275.699 300.61 275.887 300.798 276.263L304.927 283.598C305.115 283.786 305.115 284.162 305.115 284.538C305.115 284.914 304.927 285.102 304.552 285.29C304.364 285.29 304.177 285.29 303.989 285.29Z" fill="#3843D0"></path><path d="M337.778 251.25C337.59 251.25 337.402 251.25 337.215 251.062L329.894 246.925C329.706 246.737 329.518 246.549 329.331 246.172C329.331 245.796 329.331 245.608 329.518 245.232C329.706 244.856 330.081 244.668 330.457 244.668C330.645 244.668 330.832 244.668 331.02 244.856L338.341 248.993C338.529 249.181 338.716 249.37 338.904 249.746C338.904 250.122 338.904 250.31 338.716 250.498C338.529 251.062 338.153 251.25 337.778 251.25Z" fill="#3843D0"></path><path d="M341.908 204.8C341.345 204.8 340.782 204.236 340.782 203.671C340.782 203.107 341.345 202.543 341.908 202.543H350.355C350.731 202.543 350.918 202.731 351.106 202.919C351.294 203.107 351.482 203.483 351.482 203.671C351.482 204.047 351.294 204.236 351.106 204.424C350.918 204.612 350.543 204.8 350.355 204.8H341.908Z" fill="#3843D0"></path><path d="M330.457 162.674C330.081 162.674 329.706 162.486 329.518 162.11C329.331 161.922 329.331 161.546 329.331 161.169C329.331 160.793 329.518 160.605 329.894 160.417L337.215 156.28C337.402 156.092 337.59 156.092 337.778 156.092C338.153 156.092 338.529 156.28 338.716 156.656C338.904 156.844 338.904 157.22 338.904 157.596C338.904 157.972 338.716 158.16 338.341 158.349L331.02 162.486C331.02 162.486 330.832 162.674 330.457 162.674Z" fill="#3843D0"></path><path d="M299.671 131.643C299.483 131.643 299.296 131.643 299.108 131.454C298.92 131.266 298.733 131.078 298.545 130.702C298.545 130.326 298.545 130.138 298.733 129.762L302.862 122.427C303.05 122.051 303.426 121.863 303.801 121.863C303.989 121.863 304.176 121.863 304.364 122.051C304.552 122.239 304.74 122.427 304.927 122.804C304.927 123.18 304.927 123.368 304.74 123.556L300.61 130.89C300.422 131.454 300.047 131.643 299.671 131.643Z" fill="#3843D0"></path><path d="M180.095 127.13C179.72 127.13 179.532 126.942 179.344 126.754C178.969 126.378 178.969 125.625 179.344 125.249C179.532 125.061 179.907 124.873 180.095 124.873C180.47 124.873 180.658 125.061 180.846 125.249C181.221 125.625 181.221 126.378 180.846 126.754C180.658 127.13 180.283 127.13 180.095 127.13Z" fill="#3843D0"></path><path d="M225.711 460.753H-117.813C-124.383 460.753 -129.639 455.487 -129.639 448.905V384.023" stroke="#FF8D54" stroke-width="2" stroke-miterlimit="10" stroke-linecap="round" stroke-dasharray="4 4"></path></g><path d="M390.125 62.1368C390.269 61.1246 391.731 61.1246 391.875 62.1368V62.1368C392.425 65.9944 395.437 69.0371 399.289 69.6263V69.6263C400.289 69.7793 400.289 71.2207 399.289 71.3737V71.3737C395.437 71.9629 392.425 75.0056 391.875 78.8632V78.8632C391.731 79.8754 390.269 79.8754 390.125 78.8632V78.8632C389.575 75.0056 386.563 71.9629 382.711 71.3737V71.3737C381.711 71.2207 381.711 69.7793 382.711 69.6263V69.6263C386.563 69.0371 389.575 65.9944 390.125 62.1368V62.1368Z" fill="#DCEEEB"></path><defs><clipPath id="clip0_50_987"><rect width="431" height="397" fill="white" transform="translate(44)"></rect></clipPath></defs></svg>