<svg xmlns="http://www.w3.org/2000/svg" width="293" height="106" viewBox="0 0 293 106" fill="none"><path d="M0 72.3304C0 72.5742 0 73.062 0.243865 73.3058C0.48773 73.5497 0.731595 73.7936 1.21933 73.7936H3.41411C4.38957 73.7936 4.8773 73.3058 4.8773 72.3304V42.8227C5.36503 42.335 11.169 35.5555 20.0945 35.5555C28.0933 35.5555 32.6779 40.6279 32.6779 50.0411V72.2816C32.6779 73.0132 33.4095 73.7448 34.1411 73.7448H36.3359C37.0675 73.7448 37.7991 73.2571 37.7991 72.2816V50.0899C37.7991 37.7503 31.5074 31.7024 20.3871 31.7024C14.5831 31.7024 9.02301 33.8972 4.92607 37.5064V3.41411C4.92607 2.68252 4.19448 1.95092 3.46288 1.95092H1.70706C0.731595 1.95092 0 2.68252 0 3.41411V72.3304ZM46.9196 50.0899C47.4074 40.6767 53.4552 33.8972 62.6245 33.8972C71.7939 33.8972 76.915 41.1644 76.915 50.0899H46.9196ZM41.8472 52.2359C41.8472 64.3316 50.0899 73.7448 62.6245 73.7448C68.9163 73.7448 75.4518 71.0623 77.5979 69.1601C78.3294 68.4285 78.3294 67.9408 78.0856 67.4531L76.8663 65.9899C76.3785 65.2583 75.8908 65.2583 74.9153 65.9899C71.3061 68.4285 67.1604 69.8429 62.8196 69.8429C53.6503 69.8429 47.1147 62.8196 46.627 53.6503H79.7439C81.4509 53.6503 81.4509 51.9432 81.4509 50.7727C81.4509 38.4331 73.2083 29.7515 62.3319 29.7515C50.0411 29.9954 41.8472 40.1402 41.8472 52.2359ZM87.5475 72.5742C87.5475 72.8181 87.5475 73.3058 87.7914 73.5497C88.0353 73.7936 88.2791 74.0374 88.523 74.0374H90.2301C90.9617 74.0374 91.4494 73.5497 91.4494 72.5742V3.41411C91.4494 2.68252 90.9617 1.95092 90.2301 1.95092H88.523C87.7914 1.95092 87.3037 2.43865 87.3037 3.41411L87.5475 72.5742ZM102.521 65.7948V40.3841C102.765 39.4086 107.106 33.8485 115.104 33.8485C124.274 33.8485 130.565 42.0911 130.565 52.2359C130.565 62.6245 123.786 70.8672 114.129 70.8672C107.106 70.8672 102.765 66.0387 102.521 65.7948ZM102.277 70.8672C103.496 71.8426 107.593 74.7202 114.373 74.7202C126.468 74.7202 135.15 65.307 135.15 52.4797C135.15 39.6524 126.468 29.9954 115.056 29.9954C110.227 29.9954 105.642 31.7025 101.74 34.5801L101.497 31.8976C101.497 31.4098 101.009 31.166 100.033 31.166H99.058C98.3264 31.166 97.5948 31.6537 97.3509 32.6291V104.423C97.3509 105.155 98.0825 105.886 98.8141 105.886H100.765C101.497 105.886 102.228 105.398 102.228 104.423C102.277 104.472 102.277 70.8672 102.277 70.8672ZM140.027 69.8917C141.978 71.3549 146.563 73.7448 152.855 73.7448C163.975 73.7448 169.535 68.1847 169.535 60.6736C169.535 53.8942 164.95 50.7727 158.902 47.1147C155.537 45.1638 153.342 43.9932 153.342 41.5546C153.342 39.6037 155.049 37.7015 158.659 37.7015C161.341 37.7015 163.975 38.4331 166.414 39.8963C167.145 40.3841 168.364 39.8963 168.852 38.9209L170.803 35.5555C171.535 34.5801 171.535 33.6046 170.315 32.873C168.608 31.6537 164.755 29.9954 159.195 29.9954C147.343 29.9954 142.759 36.0433 142.759 42.0911C142.759 48.139 147.099 51.7482 152.66 55.1623C157.244 57.8448 158.951 59.2592 158.951 61.6978C158.951 64.5755 156.074 66.0387 153.147 66.0387C150.026 66.0387 146.856 65.0632 144.466 63.3561C143.49 62.6245 142.515 63.1123 142.027 63.8439L139.588 67.6969C139.344 67.9408 139.101 68.4285 139.344 68.6724C139.296 69.404 139.54 69.6479 140.027 69.8917ZM173.144 71.8426C173.144 72.8181 173.632 73.7936 174.607 73.7936H180.899C182.362 73.7936 182.85 73.062 183.094 71.8426L186.703 46.9196C187.679 45.2126 192.019 40.3841 197.092 40.3841C201.676 40.3841 204.115 44.2371 203.14 51.0166L200.262 71.7939C200.262 72.7693 200.75 73.7448 201.725 73.7448H208.017C208.992 73.7448 209.968 72.7693 210.212 71.7939L213.089 51.0166C214.552 39.6524 210.651 31.6537 199.774 31.6537C194.458 31.6537 189.873 34.7752 188.41 35.9945L192.995 4.09693C192.995 3.6092 192.995 3.12147 192.751 2.8776C192.507 2.63374 192.019 2.14601 191.532 2.14601H184.996C184.021 2.14601 183.045 3.12147 183.045 4.09693C183.045 4.1457 173.144 71.8426 173.144 71.8426ZM216.894 71.8426C216.894 72.8181 217.381 73.7936 218.357 73.7936H224.892C225.868 73.7936 226.843 72.8181 227.087 71.8426L232.403 34.385C232.403 33.4095 231.916 32.434 230.94 32.434H224.405C223.185 32.434 222.454 33.4095 222.21 34.385C222.21 34.3362 216.894 71.8426 216.894 71.8426ZM229.965 15.5098C233.574 15.5098 236.988 12.6322 236.988 9.2181C236.988 7.7549 236.5 6.53558 235.525 5.6089C234.549 4.63344 233.086 4.14571 231.916 4.14571C228.306 4.14571 225.38 7.02331 225.136 10.6813C224.892 13.315 227.087 15.5098 229.965 15.5098ZM234.793 103.74C234.793 104.716 235.281 105.691 236.256 105.691H243.036C244.011 105.691 244.987 104.716 245.231 103.74L253.912 40.6279H265.033C266.008 40.6279 266.983 39.8963 267.227 38.9209L267.959 34.8239C267.959 34.3362 267.959 33.8485 267.715 33.6046C267.471 33.3607 266.983 33.1169 266.496 33.1169H255.375L257.326 19.558C258.302 12.2908 261.667 9.16933 265.813 9.16933C268.008 9.16933 270.398 10.3887 271.861 11.3641C272.836 12.0957 273.568 11.608 274.299 10.8764L277.177 6.53558C277.665 5.80398 277.665 4.82852 277.177 4.34079C274.738 2.38987 271.129 0 266.057 0C256.156 0 248.645 6.29172 246.694 19.3629L244.743 32.9218H239.914C238.939 32.9218 237.963 33.6534 237.963 34.6288L236.988 38.9696C236.988 39.4574 236.988 39.9451 237.476 40.189C237.72 40.4328 238.207 40.6767 238.695 40.6767H243.524L234.793 103.74Z" fill="white"></path><path d="M267.91 63.5993C266.934 70.8665 268.641 75.695 276.152 75.695C280.737 75.695 286.785 73.2563 287.76 72.8174C288.736 72.3296 289.467 71.598 288.98 70.3787L287.76 65.7941C287.517 64.8186 287.029 64.087 285.81 64.8186C284.59 65.5502 282.2 66.7695 280.249 66.7695C278.542 66.7695 277.372 66.0379 277.811 62.4287L280.688 40.9198H289.955C290.931 40.9198 291.906 40.1882 291.906 39.2128L292.638 35.1158C292.882 34.1404 292.15 33.4088 290.931 33.4088H282.005L283.712 22.0447C283.712 21.0692 283.225 20.0938 282.249 20.0938H275.957C274.982 20.3376 274.006 21.0692 273.763 22.0447L272.056 33.1649H263.374C262.398 33.1649 261.423 33.8965 261.423 34.872L260.691 38.9689C260.691 39.4566 260.691 39.9444 260.935 40.1882C261.179 40.4321 261.667 40.676 262.155 40.676H270.641C270.592 40.6272 267.91 63.5993 267.91 63.5993Z" fill="white"></path></svg>