<svg xmlns="http://www.w3.org/2000/svg" width="150" height="60" viewBox="0 0 150 60" fill="none"><mask id="mask0_82_162" style="mask-type:luminance" maskUnits="userSpaceOnUse" x="0" y="7" width="150" height="46"><path d="M150 7H0V52.6325H150V7Z" fill="white"></path></mask><g mask="url(#mask0_82_162)"><path d="M0 39.2775V7.66797H5.54068V39.2775H0Z" fill="black"></path><path d="M19.7235 16.3477C12.6196 16.3477 7.70361 21.8213 7.70361 28.0865C7.70361 35.0789 13.0516 39.8959 19.7787 39.8959C26.163 39.8959 31.7032 35.1675 31.7032 28.0714C31.7032 22.1043 27.1124 16.3477 19.7235 16.3477ZM19.6582 21.7041C23.3759 21.7041 26.1123 24.6042 26.1123 28.1067C26.1123 31.8203 23.0953 34.5293 19.7586 34.5293C15.8159 34.5293 13.3346 31.3977 13.3346 28.1167C13.3346 24.5204 16.136 21.7041 19.6582 21.7041Z" fill="black"></path><path d="M45.6244 16.3477C38.5205 16.3477 33.6045 21.8213 33.6045 28.0865C33.6045 35.0789 38.9526 39.8959 45.6796 39.8959C52.064 39.8959 57.6041 35.1675 57.6041 28.0714C57.6041 23.8927 55.7984 22.0386 55.7984 22.0386L57.3341 21.5109V17.0044H49.4647C49.4647 17.0044 47.7587 16.3477 45.6244 16.3477ZM45.5592 21.7041C49.2768 21.7041 52.0133 24.6042 52.0133 28.1067C52.0133 31.8203 48.9963 34.5293 45.6595 34.5293C41.7168 34.5293 39.2356 31.3977 39.2356 28.1167C39.2356 24.5204 42.0369 21.7041 45.5592 21.7041Z" fill="black"></path><path d="M51.9741 40.8242C51.9741 44.5378 48.9571 47.267 45.6204 47.267C41.6776 47.267 39.1864 44.1052 39.1864 40.8242H33.5654C33.5654 47.8165 38.9134 52.6335 45.6404 52.6335C52.0248 52.6335 57.565 47.9203 57.565 40.8242H51.9741Z" fill="black"></path><path d="M59.8232 39.2786V17.0039H65.3639V39.2786H59.8232Z" fill="black"></path><path d="M70.744 39.2789V21.9935H67.7729V17.0042H70.744V10.1641H76.2847V17.0042H79.3362V21.9935H76.2847V39.2789H70.744Z" fill="black"></path><path d="M66.2512 10.6769C66.2512 12.7076 64.6085 14.3538 62.5821 14.3538C60.5558 14.3538 58.9131 12.7076 58.9131 10.6769C58.9131 8.64621 60.5558 7 62.5821 7C64.6085 7 66.2512 8.64621 66.2512 10.6769Z" fill="black"></path><path d="M91.793 16.332C84.6555 16.332 80.0542 21.8087 80.0542 28.2873C80.0542 34.9822 84.6708 39.9104 91.9084 39.9104C98.66 39.9104 101.981 35.6856 101.981 35.6856L98.2772 31.9689C98.2772 31.9689 95.4807 34.9916 91.9787 34.9916C89.0594 34.9916 86.7254 33.3588 85.9111 30.3645H103.176V28.8355C103.176 22.7347 99.6517 16.332 91.793 16.332ZM91.6174 21.2208C94.1698 21.2208 96.78 22.5892 97.3638 25.858H85.7605C86.2201 23.5602 88.2259 21.2208 91.6174 21.2208Z" fill="black"></path><path d="M117.035 39.9136C109.877 39.9136 105 34.4503 105 28.0087C105 21.361 110.512 16.3281 117.012 16.3281C123.295 16.3281 126.511 20.7734 126.511 20.7734L122.646 24.6293C122.646 24.6293 120.407 21.7303 116.985 21.7303C113.193 21.7303 110.599 24.6378 110.599 28.094C110.599 31.7433 113.358 34.5431 116.943 34.5431C120.42 34.5431 122.641 31.6488 122.641 31.6488L126.545 35.5026C126.545 35.5026 123.36 39.9136 117.035 39.9136Z" fill="black"></path><path d="M128.561 39.294V7.58789H134.101V19.2368C134.101 19.2368 136.223 16.3271 140.838 16.3271C146.639 16.3271 150.001 20.6491 150.001 26.177V39.294H144.46V27.0162C144.46 23.3025 142.153 21.7618 139.597 21.7618C136.685 21.7618 134.101 23.4226 134.101 27.3036V39.294H128.561Z" fill="black"></path></g></svg>