<svg xmlns="http://www.w3.org/2000/svg" width="92" height="64" viewBox="0 0 92 64" fill="none"><g clip-path="url(#clip0_111_138)"><path fill-rule="evenodd" clip-rule="evenodd" d="M38.05 6.98001C40.998 3.90901 45.105 2.00201 49.645 2.00201C55.68 2.00201 60.947 5.36801 63.751 10.365C66.2599 9.24434 68.9773 8.66671 71.725 8.67001C82.611 8.67001 91.435 17.572 91.435 28.555C91.435 39.538 82.611 48.44 71.725 48.44C70.394 48.44 69.096 48.307 67.841 48.054C65.372 52.457 60.664 55.433 55.263 55.433C53.002 55.433 50.863 54.913 48.96 53.982C46.456 59.872 40.623 64 33.826 64C26.748 64 20.714 59.52 18.399 53.239C17.3676 53.4567 16.3162 53.5663 15.262 53.566C6.83304 53.567 4.23908e-05 46.663 4.23908e-05 38.146C-0.00628116 35.4469 0.694977 32.7933 2.03391 30.4496C3.37284 28.106 5.30268 26.1543 7.63104 24.789C6.66509 22.5633 6.16809 20.1623 6.17104 17.736C6.17104 7.94001 14.122 1.20693e-05 23.93 1.20693e-05C26.6623 -0.00317572 29.3584 0.625153 31.8077 1.83595C34.257 3.04674 36.3934 4.80724 38.05 6.98001Z" fill="white"></path><path fill-rule="evenodd" clip-rule="evenodd" d="M13.244 33.1917L13.614 32.1647C13.673 31.9887 13.806 32.0467 13.86 32.0797C13.963 32.1407 14.037 32.1957 14.17 32.2737C15.26 32.9627 16.27 32.9697 16.585 32.9697C17.401 32.9697 17.907 32.5377 17.907 31.9547V31.9247C17.907 31.2907 17.127 31.0507 16.226 30.7747L16.026 30.7107C14.789 30.3587 13.466 29.8497 13.466 28.2837V28.2517C13.466 26.7657 14.665 25.7287 16.381 25.7287L16.569 25.7267C17.577 25.7267 18.551 26.0197 19.257 26.4477C19.321 26.4877 19.383 26.5617 19.347 26.6597L18.967 27.6867C18.9 27.8617 18.717 27.7457 18.717 27.7457C17.9804 27.3618 17.1654 27.1528 16.335 27.1347C15.607 27.1347 15.139 27.5207 15.139 28.0447V28.0777C15.139 28.6887 15.941 28.9497 16.871 29.2527L17.031 29.3027C18.264 29.6927 19.58 30.2327 19.58 31.7177V31.7487C19.58 33.3537 18.414 34.3507 16.539 34.3507C15.618 34.3507 14.737 34.2087 13.805 33.7137C13.629 33.6117 13.455 33.5237 13.283 33.3987C13.265 33.3727 13.186 33.3417 13.243 33.1917H13.244ZM40.701 33.1917L41.072 32.1647C41.126 31.9967 41.283 32.0587 41.317 32.0797C41.419 32.1427 41.495 32.1957 41.627 32.2737C42.719 32.9627 43.727 32.9697 44.045 32.9697C44.858 32.9697 45.365 32.5377 45.365 31.9547V31.9247C45.365 31.2907 44.586 31.0507 43.685 30.7747L43.485 30.7107C42.246 30.3587 40.923 29.8497 40.923 28.2837V28.2517C40.923 26.7657 42.123 25.7287 43.839 25.7287L44.026 25.7267C45.034 25.7267 46.009 26.0197 46.716 26.4477C46.778 26.4877 46.841 26.5617 46.806 26.6597C46.771 26.7507 46.459 27.5907 46.426 27.6867C46.357 27.8617 46.176 27.7457 46.176 27.7457C45.4391 27.3617 44.6237 27.1526 43.793 27.1347C43.065 27.1347 42.597 27.5207 42.597 28.0447V28.0777C42.597 28.6887 43.398 28.9497 44.329 29.2527L44.489 29.3027C45.722 29.6927 47.037 30.2327 47.037 31.7177V31.7487C47.037 33.3537 45.872 34.3507 43.997 34.3507C43.075 34.3507 42.194 34.2087 41.263 33.7137C41.087 33.6117 40.913 33.5237 40.74 33.3987C40.722 33.3727 40.643 33.3417 40.701 33.1917ZM61.011 28.3627C61.165 28.8787 61.241 29.4457 61.241 30.0447C61.241 30.6447 61.165 31.2097 61.011 31.7257C60.8702 32.2232 60.6285 32.6865 60.301 33.0867C59.9729 33.4753 59.5613 33.785 59.097 33.9927C58.617 34.2127 58.053 34.3227 57.419 34.3227C56.785 34.3227 56.219 34.2127 55.741 33.9927C55.2767 33.785 54.8651 33.4753 54.537 33.0867C54.2098 32.6865 53.9679 32.2237 53.826 31.7267C53.6688 31.18 53.5913 30.6135 53.596 30.0447C53.596 29.4447 53.673 28.8787 53.826 28.3627C53.98 27.8427 54.219 27.3847 54.536 27.0027C54.8649 26.6124 55.2765 26.3002 55.741 26.0887C56.22 25.8647 56.783 25.7517 57.419 25.7517C58.055 25.7517 58.618 25.8647 59.097 26.0887C59.575 26.3117 59.981 26.6187 60.301 27.0027C60.619 27.3847 60.859 27.8427 61.011 28.3627ZM59.447 30.0447C59.447 29.1377 59.279 28.4247 58.945 27.9247C58.615 27.4287 58.115 27.1887 57.419 27.1887C56.723 27.1887 56.227 27.4287 55.901 27.9247C55.574 28.4247 55.407 29.1377 55.407 30.0447C55.407 30.9507 55.574 31.6687 55.903 32.1727C56.227 32.6747 56.723 32.9177 57.419 32.9177C58.115 32.9177 58.615 32.6737 58.945 32.1727C59.277 31.6687 59.447 30.9507 59.447 30.0447ZM73.869 32.6747L74.253 33.7367C74.303 33.8667 74.19 33.9237 74.19 33.9237C73.597 34.1537 72.774 34.3177 71.973 34.3177C70.615 34.3177 69.575 33.9267 68.881 33.1547C68.191 32.3847 67.839 31.3377 67.839 30.0387C67.839 29.4377 67.926 28.8687 68.096 28.3537C68.266 27.8337 68.521 27.3757 68.857 26.9937C69.2059 26.6009 69.6362 26.289 70.118 26.0797C70.618 25.8567 71.206 25.7447 71.862 25.7447C72.305 25.7447 72.699 25.7717 73.037 25.8217C73.398 25.8777 73.879 26.0077 74.082 26.0867C74.119 26.1007 74.222 26.1507 74.18 26.2717C74.032 26.6887 73.931 26.9607 73.794 27.3407C73.734 27.5027 73.612 27.4487 73.612 27.4487C73.097 27.2867 72.603 27.2127 71.958 27.2127C71.183 27.2127 70.601 27.4707 70.221 27.9757C69.837 28.4847 69.622 29.1517 69.619 30.0387C69.616 31.0117 69.86 31.7327 70.292 32.1787C70.723 32.6237 71.325 32.8487 72.083 32.8487C72.39 32.8487 72.68 32.8287 72.941 32.7877C73.199 32.7467 73.441 32.6667 73.669 32.5777C73.669 32.5777 73.816 32.5227 73.869 32.6747ZM81.879 28.0677C82.22 29.2617 82.042 30.2927 82.036 30.3497C82.023 30.4857 81.883 30.4877 81.883 30.4877L76.584 30.4837C76.617 31.2887 76.81 31.8587 77.2 32.2457C77.583 32.6247 78.191 32.8677 79.014 32.8687C80.272 32.8717 80.809 32.6187 81.19 32.4777C81.19 32.4777 81.335 32.4257 81.39 32.5697L81.735 33.5407C81.805 33.7037 81.749 33.7607 81.69 33.7937C81.358 33.9767 80.553 34.3187 79.021 34.3227C78.278 34.3257 77.631 34.2197 77.098 34.0127C76.5915 33.8251 76.1353 33.5228 75.765 33.1297C75.4111 32.7439 75.1483 32.2836 74.996 31.7827C74.832 31.2338 74.7514 30.6634 74.757 30.0907C74.757 29.4907 74.834 28.9207 74.989 28.3997C75.144 27.8747 75.385 27.4117 75.706 27.0227C76.0387 26.6256 76.4558 26.3079 76.927 26.0927C77.413 25.8637 78.015 25.7517 78.677 25.7517C79.244 25.7517 79.762 25.8737 80.193 26.0597C80.525 26.2017 80.859 26.4587 81.201 26.8267C81.417 27.0587 81.746 27.5667 81.879 28.0677ZM76.609 29.1747H80.389C80.35 28.6887 80.255 28.2527 80.037 27.9247C79.705 27.4287 79.247 27.1557 78.552 27.1557C77.856 27.1557 77.362 27.4287 77.035 27.9247C76.821 28.2527 76.684 28.6707 76.609 29.1747ZM39.434 28.0677C39.774 29.2617 39.599 30.2927 39.593 30.3497C39.579 30.4857 39.439 30.4877 39.439 30.4877L34.139 30.4837C34.173 31.2887 34.365 31.8587 34.756 32.2457C35.139 32.6247 35.746 32.8677 36.569 32.8687C37.827 32.8717 38.366 32.6187 38.746 32.4777C38.746 32.4777 38.891 32.4257 38.945 32.5697L39.291 33.5407C39.361 33.7037 39.305 33.7607 39.247 33.7937C38.913 33.9767 38.107 34.3187 36.577 34.3227C35.833 34.3257 35.186 34.2197 34.654 34.0127C34.1474 33.8248 33.6909 33.5226 33.32 33.1297C32.967 32.7435 32.705 32.2833 32.553 31.7827C32.3878 31.234 32.3065 30.6636 32.312 30.0907C32.312 29.4907 32.39 28.9207 32.544 28.3997C32.6881 27.897 32.9323 27.4286 33.262 27.0227C33.5946 26.626 34.0114 26.3083 34.482 26.0927C34.97 25.8637 35.572 25.7517 36.232 25.7517C36.7536 25.7504 37.2701 25.8552 37.75 26.0597C38.082 26.2017 38.416 26.4587 38.757 26.8267C38.973 27.0587 39.302 27.5667 39.434 28.0677ZM34.163 29.1747H37.945C37.905 28.6887 37.81 28.2527 37.593 27.9247C37.263 27.4287 36.803 27.1557 36.108 27.1557C35.412 27.1557 34.917 27.4287 34.592 27.9247C34.376 28.2527 34.24 28.6707 34.163 29.1747ZM24.817 28.9217C24.817 28.9217 25.235 28.9587 25.691 29.0247V28.8007C25.691 28.0937 25.544 27.7607 25.255 27.5377C24.959 27.3117 24.517 27.1947 23.945 27.1947C23.945 27.1947 22.655 27.1787 21.635 27.7327C21.588 27.7607 21.549 27.7767 21.549 27.7767C21.549 27.7767 21.421 27.8217 21.375 27.6907L21 26.6827C20.942 26.5377 21.047 26.4717 21.047 26.4717C21.524 26.0997 22.68 25.8747 22.68 25.8747C23.1493 25.7922 23.6245 25.7484 24.101 25.7437C25.159 25.7437 25.978 25.9897 26.535 26.4767C27.093 26.9657 27.377 27.7537 27.377 28.8157L27.38 33.6637C27.38 33.6637 27.391 33.8037 27.258 33.8357C27.258 33.8357 27.063 33.8897 26.888 33.9307C26.711 33.9717 26.073 34.1017 25.552 34.1897C25.02 34.2788 24.4814 34.3236 23.942 34.3237C23.427 34.3237 22.955 34.2757 22.539 34.1807C22.1513 34.0995 21.7842 33.9402 21.46 33.7127C21.1645 33.4981 20.9274 33.2131 20.77 32.8837C20.607 32.5507 20.525 32.1437 20.525 31.6737C20.525 31.2127 20.622 30.8017 20.809 30.4517C20.997 30.1037 21.255 29.8087 21.579 29.5777C21.9137 29.342 22.288 29.1682 22.684 29.0647C23.097 28.9547 23.536 28.8977 23.99 28.8977C24.323 28.8977 24.601 28.9047 24.817 28.9217ZM22.708 32.6457C22.705 32.6447 23.183 33.0207 24.262 32.9547C25.02 32.9087 25.692 32.7647 25.692 32.7647V30.3547C25.692 30.3547 25.014 30.2437 24.253 30.2327C23.174 30.2197 22.714 30.6167 22.717 30.6157C22.399 30.8417 22.244 31.1767 22.244 31.6407C22.244 31.9377 22.297 32.1697 22.404 32.3317C22.471 32.4387 22.5 32.4787 22.708 32.6457ZM67.563 26.1907C67.513 26.3357 67.256 27.0617 67.163 27.3027C67.129 27.3947 67.073 27.4577 66.97 27.4467C66.97 27.4467 66.666 27.3767 66.388 27.3767C66.197 27.3767 65.924 27.4007 65.678 27.4767C65.4313 27.5525 65.2068 27.6874 65.024 27.8697C64.83 28.0567 64.673 28.3197 64.559 28.6497C64.443 28.9817 64.383 29.5097 64.383 30.0397V33.9877C64.3831 34.0088 64.3791 34.0297 64.3711 34.0492C64.3631 34.0687 64.3514 34.0865 64.3365 34.1014C64.3216 34.1164 64.3039 34.1283 64.2845 34.1364C64.265 34.1445 64.2441 34.1487 64.223 34.1487H62.832C62.8107 34.1489 62.7896 34.145 62.7699 34.1371C62.7501 34.1292 62.7321 34.1175 62.7169 34.1026C62.7016 34.0878 62.6895 34.0701 62.6811 34.0505C62.6727 34.0309 62.6683 34.0099 62.668 33.9887V26.0837C62.668 25.9947 62.733 25.9237 62.822 25.9237H64.179C64.269 25.9237 64.333 25.9947 64.333 26.0837V26.7297C64.536 26.4577 64.9 26.2177 65.229 26.0697C65.559 25.9197 65.928 25.8097 66.595 25.8497C66.942 25.8707 67.393 25.9657 67.484 26.0007C67.5018 26.0078 67.518 26.0184 67.5316 26.0318C67.5453 26.0453 67.5561 26.0614 67.5634 26.0791C67.5708 26.0967 67.5745 26.1157 67.5745 26.1349C67.5744 26.1541 67.5705 26.173 67.563 26.1907ZM54.493 22.5277C54.53 22.5427 54.631 22.5917 54.591 22.7117L54.184 23.8247C54.15 23.9087 54.128 23.9587 53.955 23.9067C53.7262 23.8347 53.4879 23.7976 53.248 23.7967C53.038 23.7967 52.848 23.8237 52.68 23.8797C52.5119 23.9335 52.3595 24.0275 52.236 24.1537C52.0717 24.3125 51.9446 24.5058 51.864 24.7197C51.669 25.2797 51.594 25.8767 51.584 25.9147H53.278C53.421 25.9147 53.466 25.9807 53.452 26.0857L53.254 27.1877C53.222 27.3477 53.077 27.3417 53.077 27.3417H51.331L50.138 34.0977C50.0354 34.7036 49.8795 35.2992 49.672 35.8777C49.485 36.3667 49.292 36.7237 48.982 37.0647C48.7174 37.3698 48.3809 37.6042 48.003 37.7467C47.636 37.8817 47.19 37.9507 46.703 37.9507C46.471 37.9507 46.221 37.9457 45.926 37.8757C45.7616 37.8381 45.5997 37.7907 45.441 37.7337C45.376 37.7107 45.323 37.6277 45.361 37.5217C45.397 37.4167 45.711 36.5577 45.753 36.4447C45.807 36.3087 45.945 36.3607 45.945 36.3607C46.039 36.4007 46.105 36.4267 46.23 36.4517C46.357 36.4767 46.527 36.4987 46.656 36.4987C46.887 36.4987 47.097 36.4707 47.28 36.4087C47.5 36.3377 47.63 36.2087 47.764 36.0367C47.904 35.8557 48.018 35.6107 48.135 35.2817C48.252 34.9487 48.359 34.5087 48.451 33.9757L49.639 27.3427H48.469C48.329 27.3427 48.281 27.2767 48.297 27.1707L48.493 26.0687C48.524 25.9087 48.673 25.9147 48.673 25.9147H49.874L49.939 25.5567C50.119 24.4927 50.476 23.6837 51.004 23.1527C51.535 22.6177 52.29 22.3477 53.248 22.3477C53.522 22.3477 53.764 22.3657 53.969 22.4027C54.17 22.4407 54.323 22.4757 54.493 22.5277ZM30.817 33.9877C30.817 34.0777 30.755 34.1487 30.665 34.1487H29.26C29.17 34.1487 29.109 34.0767 29.109 33.9887V22.6757C29.109 22.5887 29.171 22.5167 29.259 22.5167H30.665C30.755 22.5167 30.817 22.5887 30.817 22.6767V33.9877Z" fill="#0091C6"></path></g><defs><clipPath id="clip0_111_138"><rect width="92" height="64" fill="white"></rect></clipPath></defs></svg>