<svg xmlns="http://www.w3.org/2000/svg" width="1604" height="563" viewBox="0 0 1604 563" fill="none"><rect x="1341.16" y="417.877" width="38.7799" height="42.8325" rx="3.5" transform="rotate(-180 1341.16 417.877)" stroke="white" stroke-opacity="0.5"></rect><rect x="1276.16" y="337.697" width="38.7799" height="42.8325" rx="3.5" transform="rotate(-180 1276.16 337.697)" stroke="white" stroke-opacity="0.5"></rect><rect x="1341.16" y="257.514" width="38.7799" height="42.8325" rx="3.5" transform="rotate(-180 1341.16 257.514)" stroke="white" stroke-opacity="0.5"></rect><rect x="1538.12" y="257.514" width="38.7799" height="42.8325" rx="3.5" transform="rotate(-180 1538.12 257.514)" stroke="white" stroke-opacity="0.5"></rect><path d="M1302.38 157.944L1302.38 134.874C1302.38 134.668 1302.55 134.501 1302.76 134.501L1340.79 134.501C1341 134.501 1341.16 134.668 1341.16 134.874L1341.16 157.944C1341.16 168.653 1332.48 177.334 1321.77 177.334C1311.07 177.334 1302.38 168.653 1302.38 157.944Z" stroke="white" stroke-opacity="0.5"></path><rect x="1145.17" y="417.877" width="39.7502" height="42.8325" rx="3.5" transform="rotate(-180 1145.17 417.877)" stroke="white" stroke-opacity="0.5"></rect><rect x="1145.17" y="337.697" width="39.7502" height="42.8325" rx="3.5" transform="rotate(-180 1145.17 337.697)" stroke="white" stroke-opacity="0.5"></rect><rect x="1145.17" y="257.514" width="39.7502" height="42.8325" rx="3.5" transform="rotate(-180 1145.17 257.514)" stroke="white" stroke-opacity="0.5"></rect><rect x="1079.2" y="417.877" width="38.7799" height="42.8325" rx="3.5" transform="rotate(-180 1079.2 417.877)" stroke="white" stroke-opacity="0.5"></rect><rect x="1210.18" y="337.697" width="38.7799" height="42.8325" rx="3.5" transform="rotate(-180 1210.18 337.697)" stroke="white" stroke-opacity="0.5"></rect><rect x="1079.2" y="257.514" width="38.7799" height="42.8325" rx="19.39" transform="rotate(-180 1079.2 257.514)" stroke="white" stroke-opacity="0.5"></rect><rect x="948.215" y="417.877" width="38.7799" height="42.8325" rx="3.5" transform="rotate(-180 948.215 417.877)" stroke="white" stroke-opacity="0.5"></rect><rect x="1013.22" y="337.697" width="38.7799" height="42.8325" rx="3.5" transform="rotate(-180 1013.22 337.697)" stroke="white" stroke-opacity="0.5"></rect><rect x="1013.22" y="257.514" width="38.7799" height="42.8325" rx="3.5" transform="rotate(-180 1013.22 257.514)" stroke="white" stroke-opacity="0.5"></rect><path d="M1601.86 417.877L1565.62 417.877C1564.92 417.877 1564.35 417.308 1564.35 416.606L1564.35 394.434C1564.35 383.726 1573.03 375.044 1583.74 375.044C1594.45 375.044 1603.13 383.726 1603.13 394.434L1603.13 416.606C1603.13 417.308 1602.56 417.877 1601.86 417.877Z" stroke="white" stroke-opacity="0.5"></path><path d="M1535.88 337.697L1499.64 337.697C1498.94 337.697 1498.37 337.128 1498.37 336.426L1498.37 314.255C1498.37 303.546 1507.05 294.865 1517.76 294.865C1528.47 294.865 1537.15 303.546 1537.15 314.255L1537.15 336.426C1537.15 337.128 1536.58 337.697 1535.88 337.697Z" stroke="white" stroke-opacity="0.5"></path><path d="M1499.64 134.5H1535.88C1536.58 134.5 1537.15 135.069 1537.15 135.771V157.943C1537.15 168.651 1528.47 177.333 1517.76 177.333C1507.05 177.333 1498.37 168.651 1498.37 157.943V135.771C1498.37 135.069 1498.94 134.5 1499.64 134.5Z" stroke="white" stroke-opacity="0.5"></path><path d="M1208.91 417.877L1172.67 417.877C1171.97 417.877 1171.4 417.308 1171.4 416.606L1171.4 394.434C1171.4 383.726 1180.08 375.044 1190.79 375.044C1201.5 375.044 1210.18 383.726 1210.18 394.434L1210.18 416.606C1210.18 417.308 1209.61 417.877 1208.91 417.877Z" stroke="white" stroke-opacity="0.5"></path><path d="M1077.93 337.697L1041.69 337.697C1040.99 337.697 1040.42 337.128 1040.42 336.426L1040.42 314.255C1040.42 303.546 1049.1 294.865 1059.81 294.865C1070.52 294.865 1079.2 303.546 1079.2 314.255L1079.2 336.426C1079.2 337.128 1078.63 337.697 1077.93 337.697Z" stroke="white" stroke-opacity="0.5"></path><path d="M1207.94 257.514L1171.7 257.514C1171 257.514 1170.43 256.945 1170.43 256.243L1170.43 234.071C1170.43 223.362 1179.11 214.681 1189.82 214.681C1200.53 214.681 1209.21 223.362 1209.21 234.071L1209.21 256.243C1209.21 256.945 1208.64 257.514 1207.94 257.514Z" stroke="white" stroke-opacity="0.5"></path><path d="M1498.37 398.002L1498.37 394.92C1498.37 383.943 1507.27 375.044 1518.25 375.044C1529.22 375.044 1538.12 383.943 1538.12 394.92L1538.12 398.002C1538.12 408.979 1529.22 417.877 1518.25 417.877C1507.27 417.877 1498.37 408.979 1498.37 398.002Z" stroke="white" stroke-opacity="0.5"></path><path d="M1563.38 317.822L1563.38 314.74C1563.38 303.763 1572.28 294.865 1583.25 294.865C1594.23 294.865 1603.13 303.763 1603.13 314.74L1603.13 317.822C1603.13 328.799 1594.23 337.697 1583.25 337.697C1572.28 337.697 1563.38 328.799 1563.38 317.822Z" stroke="white" stroke-opacity="0.5"></path><path d="M1563.38 237.639L1563.38 234.556C1563.38 223.58 1572.28 214.681 1583.25 214.681C1594.23 214.681 1603.13 223.58 1603.13 234.556L1603.13 237.639C1603.13 248.615 1594.23 257.514 1583.25 257.514C1572.28 257.514 1563.38 248.615 1563.38 237.639Z" stroke="white" stroke-opacity="0.5"></path><path d="M1563.38 157.459L1563.38 154.377C1563.38 143.4 1572.28 134.501 1583.25 134.501C1594.23 134.501 1603.13 143.4 1603.13 154.377L1603.13 157.459C1603.13 168.436 1594.23 177.334 1583.25 177.334C1572.28 177.334 1563.38 168.436 1563.38 157.459Z" stroke="white" stroke-opacity="0.5"></path><path d="M1433.37 318.307L1433.37 314.255C1433.37 303.546 1442.05 294.865 1452.76 294.865C1463.47 294.865 1472.15 303.546 1472.15 314.255L1472.15 318.307C1472.15 329.016 1463.47 337.697 1452.76 337.697C1442.05 337.697 1433.37 329.016 1433.37 318.307Z" stroke="white" stroke-opacity="0.5"></path><path d="M1433.37 238.124L1433.37 153.89C1433.37 143.181 1442.05 134.5 1452.76 134.5C1463.47 134.5 1472.15 143.181 1472.15 153.89L1472.15 238.124C1472.15 248.833 1463.47 257.514 1452.76 257.514C1442.05 257.514 1433.37 248.832 1433.37 238.124Z" stroke="white" stroke-opacity="0.5"></path><path d="M1448.26 417.877L1390.31 417.877C1377.65 417.877 1367.39 407.615 1367.39 394.957C1367.39 383.959 1376.31 375.044 1387.3 375.044L1451.26 375.044C1462.26 375.044 1471.18 383.959 1471.18 394.957C1471.18 407.615 1460.91 417.877 1448.26 417.877Z" stroke="white" stroke-opacity="0.5"></path><path d="M1367.39 317.822L1367.39 234.558C1367.39 223.582 1376.29 214.683 1387.27 214.683C1398.24 214.683 1407.14 223.582 1407.14 234.558L1407.14 317.822C1407.14 328.799 1398.24 337.697 1387.27 337.697C1376.29 337.697 1367.39 328.799 1367.39 317.822Z" stroke="white" stroke-opacity="0.5"></path><path d="M1367.39 157.459L1367.39 154.377C1367.39 143.4 1376.29 134.501 1387.27 134.501C1398.24 134.501 1407.14 143.4 1407.14 154.377L1407.14 157.459C1407.14 168.436 1398.24 177.334 1387.27 177.334C1376.29 177.334 1367.39 168.436 1367.39 157.459Z" stroke="white" stroke-opacity="0.5"></path><path d="M1236.41 398.002L1236.41 394.92C1236.41 383.943 1245.31 375.044 1256.28 375.044C1267.26 375.044 1276.16 383.943 1276.16 394.92L1276.16 398.002C1276.16 408.979 1267.26 417.877 1256.28 417.877C1245.31 417.877 1236.41 408.979 1236.41 398.002Z" stroke="white" stroke-opacity="0.5"></path><path d="M1301.41 317.822L1301.41 314.74C1301.41 303.763 1310.31 294.865 1321.29 294.865C1332.27 294.865 1341.16 303.763 1341.16 314.74L1341.16 317.822C1341.16 328.799 1332.27 337.697 1321.29 337.697C1310.31 337.697 1301.41 328.799 1301.41 317.822Z" stroke="white" stroke-opacity="0.5"></path><path d="M1236.41 237.639L1236.41 234.556C1236.41 223.58 1245.31 214.681 1256.28 214.681C1267.26 214.681 1276.16 223.58 1276.16 234.556L1276.16 237.639C1276.16 248.615 1267.26 257.514 1256.28 257.514C1245.31 257.514 1236.41 248.615 1236.41 237.639Z" stroke="white" stroke-opacity="0.5"></path><path d="M1236.41 157.459L1236.41 154.377C1236.41 143.4 1245.31 134.501 1256.28 134.501C1267.26 134.501 1276.16 143.4 1276.16 154.377L1276.16 157.459C1276.16 168.436 1267.26 177.334 1256.28 177.334C1245.31 177.334 1236.41 168.436 1236.41 157.459Z" stroke="white" stroke-opacity="0.5"></path><path d="M974.442 398.002L974.442 394.92C974.442 383.943 983.341 375.044 994.317 375.044C1005.29 375.044 1014.19 383.943 1014.19 394.92L1014.19 398.002C1014.19 408.979 1005.29 417.877 994.317 417.877C983.341 417.877 974.442 408.979 974.442 398.002Z" stroke="white" stroke-opacity="0.5"></path><path d="M907.495 317.822L907.495 314.74C907.495 303.763 916.394 294.865 927.371 294.865C938.347 294.865 947.246 303.763 947.246 314.74L947.246 317.822C947.246 328.799 938.347 337.697 927.371 337.697C916.394 337.697 907.495 328.799 907.495 317.822Z" stroke="white" stroke-opacity="0.5"></path><path d="M907.495 237.639L907.495 234.556C907.495 223.58 916.394 214.681 927.371 214.681C938.347 214.681 947.246 223.58 947.246 234.556L947.246 237.639C947.246 248.615 938.347 257.514 927.371 257.514C916.394 257.514 907.495 248.615 907.495 237.639Z" stroke="white" stroke-opacity="0.5"></path><path d="M1563.36 396.994L1537.17 396.994" stroke="white" stroke-opacity="0.5" stroke-linejoin="round"></path><path d="M1497.87 396.994L1471.68 396.994" stroke="white" stroke-opacity="0.5" stroke-linejoin="round"></path><path d="M1518.25 338.197L1518.25 374.546" stroke="white" stroke-opacity="0.5" stroke-linejoin="round"></path><path d="M1387.27 177.834L1387.27 214.183" stroke="white" stroke-opacity="0.5" stroke-linejoin="round"></path><rect x="449.372" y="308.758" width="40.1713" height="46.9243" rx="3.5" transform="rotate(-180 449.372 308.758)" stroke="white" stroke-opacity="0.5"></rect><rect x="382.092" y="221.092" width="40.1713" height="46.9243" rx="3.5" transform="rotate(-180 382.092 221.092)" stroke="white" stroke-opacity="0.5"></rect><rect x="449.372" y="133.426" width="40.1713" height="46.9243" rx="3.5" transform="rotate(-180 449.372 133.426)" stroke="white" stroke-opacity="0.5"></rect><rect x="246.528" y="308.758" width="41.1755" height="46.9243" rx="3.5" transform="rotate(-180 246.528 308.758)" stroke="white" stroke-opacity="0.5"></rect><rect x="246.528" y="221.092" width="41.1755" height="46.9243" rx="3.5" transform="rotate(-180 246.528 221.092)" stroke="white" stroke-opacity="0.5"></rect><rect x="246.528" y="133.426" width="41.1755" height="46.9243" rx="3.5" transform="rotate(-180 246.528 133.426)" stroke="white" stroke-opacity="0.5"></rect><rect x="178.244" y="308.758" width="40.1713" height="46.9243" rx="3.5" transform="rotate(-180 178.244 308.758)" stroke="white" stroke-opacity="0.5"></rect><rect x="313.808" y="221.092" width="40.1713" height="46.9243" rx="3.5" transform="rotate(-180 313.808 221.092)" stroke="white" stroke-opacity="0.5"></rect><rect x="178.244" y="133.426" width="40.1713" height="46.9243" rx="20.0857" transform="rotate(-180 178.244 133.426)" stroke="white" stroke-opacity="0.5"></rect><rect x="42.6802" y="308.758" width="40.1713" height="46.9243" rx="3.5" transform="rotate(-180 42.6802 308.758)" stroke="white" stroke-opacity="0.5"></rect><rect x="109.959" y="221.092" width="40.1713" height="46.9243" rx="3.5" transform="rotate(-180 109.959 221.092)" stroke="white" stroke-opacity="0.5"></rect><rect x="109.959" y="133.426" width="40.1713" height="46.9243" rx="3.5" transform="rotate(-180 109.959 133.426)" stroke="white" stroke-opacity="0.5"></rect><path d="M719.064 308.758L681.765 308.758C680.972 308.758 680.329 308.115 680.329 307.321L680.329 281.919C680.329 270.826 689.321 261.834 700.414 261.834C711.507 261.834 720.5 270.826 720.5 281.919L720.5 307.321C720.5 308.115 719.857 308.758 719.064 308.758Z" stroke="white" stroke-opacity="0.5"></path><path d="M650.779 221.092L613.481 221.092C612.688 221.092 612.045 220.449 612.045 219.655L612.045 194.253C612.045 183.16 621.037 174.168 632.13 174.168C643.223 174.168 652.216 183.16 652.216 194.253L652.216 219.655C652.216 220.449 651.573 221.092 650.779 221.092Z" stroke="white" stroke-opacity="0.5"></path><path d="M650.779 133.426L613.481 133.426C612.688 133.426 612.045 132.783 612.045 131.989L612.045 106.587C612.045 95.4942 621.037 86.5015 632.13 86.5015C643.223 86.5015 652.216 95.4942 652.216 106.587L652.216 131.989C652.216 132.783 651.573 133.426 650.779 133.426Z" stroke="white" stroke-opacity="0.5"></path><path d="M312.372 308.758L275.073 308.758C274.28 308.758 273.637 308.115 273.637 307.321L273.637 281.919C273.637 270.826 282.629 261.834 293.722 261.834C304.815 261.834 313.808 270.826 313.808 281.919L313.808 307.321C313.808 308.115 313.165 308.758 312.372 308.758Z" stroke="white" stroke-opacity="0.5"></path><path d="M176.808 221.092L139.509 221.092C138.716 221.092 138.073 220.449 138.073 219.655L138.073 194.253C138.073 183.16 147.065 174.168 158.158 174.168C169.251 174.168 178.244 183.16 178.244 194.253L178.244 219.655C178.244 220.449 177.601 221.092 176.808 221.092Z" stroke="white" stroke-opacity="0.5"></path><path d="M311.367 133.426L274.069 133.426C273.275 133.426 272.632 132.783 272.632 131.989L272.632 106.587C272.632 95.4942 281.625 86.5015 292.718 86.5015C303.811 86.5015 312.804 95.4942 312.804 106.587L312.804 131.989C312.804 132.783 312.161 133.426 311.367 133.426Z" stroke="white" stroke-opacity="0.5"></path><path d="M612.044 288.17L612.044 282.421C612.044 271.051 621.262 261.834 632.632 261.834C644.002 261.834 653.22 271.051 653.22 282.421L653.22 288.17C653.22 299.54 644.002 308.758 632.632 308.758C621.262 308.758 612.044 299.54 612.044 288.17Z" stroke="white" stroke-opacity="0.5"></path><path d="M679.325 200.504L679.325 194.755C679.325 183.385 688.542 174.168 699.912 174.168C711.283 174.168 720.5 183.385 720.5 194.755L720.5 200.504C720.5 211.874 711.283 221.092 699.912 221.092C688.542 221.092 679.325 211.874 679.325 200.504Z" stroke="white" stroke-opacity="0.5"></path><path d="M679.325 112.838L679.325 107.089C679.325 95.719 688.542 86.5015 699.912 86.5015C711.283 86.5015 720.5 95.719 720.5 107.089L720.5 112.838C720.5 124.208 711.283 133.426 699.912 133.426C688.542 133.426 679.325 124.208 679.325 112.838Z" stroke="white" stroke-opacity="0.5"></path><path d="M544.765 288.672L544.765 281.919C544.765 270.826 553.757 261.834 564.85 261.834C575.943 261.834 584.936 270.826 584.936 281.919L584.936 288.672C584.936 299.765 575.943 308.758 564.85 308.758C553.757 308.758 544.765 299.765 544.765 288.672Z" stroke="white" stroke-opacity="0.5"></path><path d="M544.765 201.006L544.765 194.253C544.765 183.16 553.757 174.168 564.85 174.168C575.943 174.168 584.936 183.16 584.936 194.253L584.936 201.006C584.936 212.099 575.943 221.092 564.85 221.092C553.757 221.092 544.765 212.099 544.765 201.006Z" stroke="white" stroke-opacity="0.5"></path><path d="M544.765 113.34L544.765 106.587C544.765 95.4942 553.757 86.5015 564.85 86.5015C575.943 86.5015 584.936 95.4942 584.936 106.587L584.936 113.34C584.936 124.433 575.943 133.426 564.85 133.426C553.757 133.426 544.765 124.433 544.765 113.34Z" stroke="white" stroke-opacity="0.5"></path><path d="M476.48 288.17L476.48 282.421C476.48 271.051 485.698 261.834 497.068 261.834C508.438 261.834 517.656 271.051 517.656 282.421L517.656 288.17C517.656 299.54 508.438 308.758 497.068 308.758C485.698 308.758 476.48 299.54 476.48 288.17Z" stroke="white" stroke-opacity="0.5"></path><path d="M476.48 200.504L476.48 107.089C476.48 95.7187 485.698 86.5012 497.068 86.5012C508.438 86.5012 517.656 95.7187 517.656 107.089L517.656 200.504C517.656 211.874 508.438 221.092 497.068 221.092C485.698 221.092 476.48 211.874 476.48 200.504Z" stroke="white" stroke-opacity="0.5"></path><path d="M340.916 288.17L340.916 282.421C340.916 271.051 350.134 261.834 361.504 261.834C372.874 261.834 382.092 271.051 382.092 282.421L382.092 288.17C382.092 299.54 372.874 308.758 361.504 308.758C350.134 308.758 340.916 299.54 340.916 288.17Z" stroke="white" stroke-opacity="0.5"></path><path d="M408.197 200.504L408.197 194.755C408.197 183.385 417.414 174.168 428.784 174.168C440.155 174.168 449.372 183.385 449.372 194.755L449.372 200.504C449.372 211.874 440.155 221.092 428.784 221.092C417.414 221.092 408.197 211.874 408.197 200.504Z" stroke="white" stroke-opacity="0.5"></path><path d="M340.916 112.838L340.916 107.089C340.916 95.719 350.134 86.5015 361.504 86.5015C372.874 86.5015 382.092 95.719 382.092 107.089L382.092 112.838C382.092 124.208 372.874 133.426 361.504 133.426C350.134 133.426 340.916 124.208 340.916 112.838Z" stroke="white" stroke-opacity="0.5"></path><path d="M69.7884 288.17L69.7884 282.421C69.7884 271.051 79.0058 261.834 90.3761 261.834C101.746 261.834 110.964 271.051 110.964 282.421L110.964 288.17C110.964 299.54 101.746 308.758 90.3761 308.758C79.0058 308.758 69.7884 299.54 69.7884 288.17Z" stroke="white" stroke-opacity="0.5"></path><path d="M0.500299 200.504L0.5003 194.755C0.500301 183.385 9.71775 174.168 21.088 174.168C32.4583 174.168 41.6758 183.385 41.6758 194.755L41.6758 200.504C41.6758 211.874 32.4583 221.092 21.088 221.092C9.71774 221.092 0.500298 211.874 0.500299 200.504Z" stroke="white" stroke-opacity="0.5"></path><path d="M0.500299 112.838L0.5003 107.089C0.500301 95.719 9.71775 86.5015 21.088 86.5015C32.4583 86.5015 41.6758 95.719 41.6758 107.089L41.6758 112.838C41.6758 124.208 32.4583 133.426 21.088 133.426C9.71774 133.426 0.500298 124.208 0.500299 112.838Z" stroke="white" stroke-opacity="0.5"></path><path d="M679.327 199.383L652.214 199.383" stroke="white" stroke-opacity="0.5" stroke-linejoin="round"></path><path d="M611.544 199.383L584.432 199.383" stroke="white" stroke-opacity="0.5" stroke-linejoin="round"></path><path d="M565.353 221.592L565.353 261.334" stroke="white" stroke-opacity="0.5" stroke-linejoin="round"></path><path d="M497.068 309.258L497.068 349" stroke="white" stroke-opacity="0.5" stroke-linejoin="round"></path><path d="M90.376 309.258L90.376 349" stroke="white" stroke-opacity="0.5" stroke-linejoin="round"></path><g filter="url(#filter0_f_71_159)"><ellipse cx="799.495" cy="261.5" rx="471.5" ry="181.5" fill="#040237" fill-opacity="0.8"></ellipse></g><rect width="1604" height="200" transform="matrix(1 0 0 -1 0 563)" fill="white"></rect><defs><filter id="filter0_f_71_159" x="247.995" y="0" width="1103" height="523" filterUnits="userSpaceOnUse" color-interpolation-filters="sRGB"><feFlood flood-opacity="0" result="BackgroundImageFix"></feFlood><feBlend mode="normal" in="SourceGraphic" in2="BackgroundImageFix" result="shape"></feBlend><feGaussianBlur stdDeviation="40" result="effect1_foregroundBlur_71_159"></feGaussianBlur></filter></defs></svg>