<svg xmlns="http://www.w3.org/2000/svg" width="46" height="48" viewBox="0 0 46 48" fill="none"><path d="M46 11.1429C46 9.51367 45.3528 7.95121 44.2008 6.7992C43.0488 5.64719 41.4863 5 39.8571 5H9.14286C7.51367 5 5.95121 5.64719 4.7992 6.7992C3.64719 7.95121 3 9.51367 3 11.1429L3 41.8571C3 43.4863 3.64719 45.0488 4.7992 46.2008C5.95121 47.3528 7.51367 48 9.14286 48H39.8571C41.4863 48 43.0488 47.3528 44.2008 46.2008C45.3528 45.0488 46 43.4863 46 41.8571V11.1429ZM35.0964 27.8514L25.1143 37.0657C24.9487 37.2234 24.7287 37.3114 24.5 37.3114C24.2713 37.3114 24.0513 37.2234 23.8857 37.0657L13.9036 27.8514C13.0245 26.9657 12.4029 25.8575 12.1053 24.6456C11.8078 23.4336 11.8454 22.1636 12.2143 20.9714C12.5418 19.7571 13.1821 18.65 14.0714 17.7607C14.9608 16.8714 16.0679 16.231 17.2821 15.9036C18.5155 15.677 19.786 15.7635 20.9773 16.1552C22.1686 16.547 23.2425 17.2314 24.1007 18.1457C24.2145 18.2354 24.3551 18.2842 24.5 18.2842C24.6449 18.2842 24.7855 18.2354 24.8993 18.1457C25.7575 17.2314 26.8314 16.547 28.0227 16.1552C29.214 15.7635 30.4845 15.677 31.7179 15.9036C32.9321 16.231 34.0392 16.8714 34.9286 17.7607C35.8179 18.65 36.4582 19.7571 36.7857 20.9714C37.165 22.1626 37.2079 23.4353 36.9098 24.6493C36.6117 25.8633 35.9842 26.9714 35.0964 27.8514Z" fill="#FEC14C"></path><path fill-rule="evenodd" clip-rule="evenodd" d="M4.45496 2.71171C3.49219 2.71171 2.71171 3.49219 2.71171 4.45496V38.545C2.71171 39.5078 3.49219 40.2883 4.45496 40.2883H38.545C39.5078 40.2883 40.2883 39.5078 40.2883 38.545V4.45496C40.2883 3.49219 39.5078 2.71171 38.545 2.71171H4.45496ZM0 4.45496C0 1.99455 1.99455 0 4.45496 0H38.545C41.0054 0 43 1.99455 43 4.45496V38.545C43 41.0054 41.0054 43 38.545 43H4.45496C1.99455 43 0 41.0054 0 38.545V4.45496ZM13.138 22.7495C11.1947 20.8396 11.5571 17.9873 13.2329 16.3053C14.0427 15.4925 15.1017 15.0312 16.2658 15.1126C17.4298 15.1939 18.9029 15.8343 20.4836 17.6247C20.7409 17.9163 21.1111 18.0832 21.5 18.0832C21.8889 18.0832 22.2591 17.9163 22.5164 17.6247C24.0971 15.8343 25.5702 15.1939 26.7342 15.1126C27.8983 15.0312 28.9573 15.4925 29.7671 16.3053C31.4429 17.9873 31.8053 20.8396 29.862 22.7496L21.5 30.4983L13.138 22.7495ZM21.5 14.7916C19.8693 13.2992 18.148 12.5258 16.4549 12.4074C14.4056 12.2642 12.6018 13.0967 11.3119 14.3913C8.79188 16.9207 8.00571 21.5291 11.2556 24.7016L11.2811 24.7259L20.5784 33.3414C21.0984 33.8232 21.9016 33.8232 22.4216 33.3414L31.7189 24.7259L31.7444 24.7016C34.9943 21.5291 34.2081 16.9207 31.6881 14.3913C30.3982 13.0967 28.5944 12.2642 26.5451 12.4074C24.852 12.5258 23.1307 13.2992 21.5 14.7916Z" fill="#3843D0"></path></svg>