<svg xmlns="http://www.w3.org/2000/svg" width="150" height="60" viewBox="0 0 150 60" fill="none"><path d="M7.17567 32.1932H2.45023V37.1678C2.45023 37.8049 1.92518 38.344 1.25012 38.344C1.22512 38.344 1.20011 38.344 1.20011 38.344C0.550053 38.344 0 37.8294 0 37.1923V37.1678V24.3761C0 23.7389 0.525051 23.1998 1.17511 23.1998H1.20011H7.17567C10.751 23.1998 12.4012 25.3563 12.4012 27.7333C12.4012 30.1103 10.726 32.1932 7.17567 32.1932ZM7.52573 25.4053H2.50023V29.9878H7.52573C8.75083 30.0858 9.82595 29.1791 9.92594 27.9783C9.92594 27.9048 9.92594 27.8068 9.92594 27.7333C9.97593 26.508 9.00085 25.4788 7.75075 25.4298C7.67571 25.4053 7.60072 25.4053 7.52573 25.4053ZM29.3528 38.393C28.7027 38.393 28.1527 37.8784 28.1527 37.2413V37.2168V31.7031H20.5769V37.1678C20.6019 37.8049 20.1019 38.3195 19.4769 38.344C19.4518 38.344 19.4268 38.344 19.3768 38.344C18.7268 38.344 18.1767 37.8294 18.1767 37.1923V37.1678V24.3761C18.1767 23.7144 18.7268 23.1998 19.3768 23.1998C20.0269 23.1998 20.5769 23.7389 20.5769 24.3761V29.4976H28.1527V24.3761C28.1527 23.7144 28.7027 23.1998 29.3528 23.1998C30.0278 23.1998 30.5529 23.7389 30.5529 24.3761V37.1678C30.5779 37.8049 30.0779 38.3685 29.4028 38.393C29.3778 38.393 29.3778 38.393 29.3528 38.393ZM72.5568 25.4543H68.0813V37.1678C68.0813 37.8294 67.5316 38.393 66.8562 38.393H66.8314C66.1813 38.393 65.6312 37.8784 65.6312 37.2168C65.6312 37.1923 65.6312 37.1678 65.6312 37.1678V25.4543H61.1556C60.5309 25.4543 60.0057 24.9397 60.0057 24.327C60.0057 23.7144 60.5309 23.1998 61.1556 23.1998H72.5568C73.182 23.1998 73.7068 23.7144 73.7068 24.327C73.7068 24.9397 73.2069 25.4543 72.5568 25.4543ZM84.858 38.491C80.5827 38.4665 77.1572 35.0603 77.1825 30.8699C77.1825 30.8454 77.1825 30.7964 77.1825 30.7719C77.2824 26.6061 80.8078 23.3223 85.0583 23.4449C89.3083 23.5429 92.6588 26.9981 92.5336 31.164C92.4337 35.2319 89.0335 38.491 84.858 38.491ZM84.858 25.3073C81.7078 25.3073 79.5823 27.8558 79.5823 30.8209C79.5823 33.7615 81.6829 36.3346 84.858 36.3346C88.0082 36.3346 90.1337 33.786 90.1337 30.8209C90.1337 27.8558 88.0082 25.3073 84.858 25.3073ZM105.785 38.393H100.009C99.3344 38.393 98.7594 37.8539 98.7594 37.1923V37.1678V24.4251C98.7594 23.7634 99.3095 23.1998 99.9844 23.1998H100.009H105.385C108.335 23.1998 110.11 24.7191 110.11 26.9491C110.11 28.4194 109.46 29.6937 108.26 30.2818C109.96 30.8209 111.085 32.4138 111.01 34.1781C111.061 36.5061 109.085 38.393 105.785 38.393ZM105.585 25.4543H101.31V29.3016H105.585C106.66 29.3016 107.535 28.4439 107.535 27.3902C107.535 26.312 106.66 25.4543 105.585 25.4543ZM106.135 31.4581H101.31V36.1386H106.135C107.435 36.1876 108.535 35.2074 108.585 33.9576C108.585 33.9086 108.585 33.8841 108.585 33.8351C108.585 32.5363 107.535 31.4826 106.21 31.4826C106.185 31.4581 106.16 31.4581 106.135 31.4581ZM124.312 38.491C120.036 38.4665 116.611 35.0603 116.636 30.8699C116.636 30.8454 116.636 30.7964 116.636 30.7719C116.736 26.6061 120.261 23.3223 124.512 23.4449C128.762 23.5429 132.113 26.9981 131.988 31.164C131.888 35.2319 128.462 38.491 124.312 38.491ZM124.312 25.3073C121.161 25.3073 119.036 27.8558 119.036 30.8209C119.036 33.7615 121.136 36.3346 124.312 36.3346C127.487 36.3346 129.587 33.786 129.587 30.8209C129.562 27.8558 127.462 25.3073 124.312 25.3073ZM149.639 38.197C149.439 38.344 149.189 38.442 148.939 38.442C148.564 38.442 148.214 38.2705 147.989 38.0009L143.814 32.5853L139.638 38.0009C139.413 38.2705 139.088 38.442 138.738 38.442C138.488 38.442 138.238 38.344 138.038 38.197C137.788 38.0009 137.638 37.6824 137.638 37.3638C137.613 37.1188 137.713 36.8492 137.888 36.6777L142.414 30.8209L137.888 24.9642C137.738 24.7681 137.638 24.5231 137.638 24.278C137.638 23.9105 137.838 23.5919 138.138 23.3958C138.313 23.2978 138.538 23.2243 138.738 23.1998C139.088 23.1998 139.438 23.3468 139.638 23.6409L143.763 29.0075L147.939 23.6409C148.139 23.3713 148.464 23.1998 148.789 23.1998C149.039 23.1998 149.289 23.2978 149.489 23.4449C149.764 23.6654 149.939 23.984 149.939 24.327C149.939 24.5721 149.839 24.7927 149.689 24.9642L145.164 30.7719L149.739 36.6287C149.889 36.8247 149.964 37.0698 149.989 37.3148C150.039 37.6334 149.914 37.9764 149.639 38.197ZM43.9042 18.3723C43.9042 19.0584 44.354 20.7248 44.5542 22.2196C44.7541 23.6899 44.7541 24.9152 45.3543 24.9152C45.7544 24.9152 46.0044 24.6211 46.0044 24.131C46.0044 23.6409 46.4546 21.8765 46.4546 20.3327C46.4546 19.8426 46.6544 19.7446 46.6544 19.0094C46.6544 18.2743 46.3543 17 45.1541 17C44.4543 17.0245 43.8794 17.5881 43.9042 18.2988C43.9042 18.2988 43.9042 18.3478 43.9042 18.3723ZM49.5795 27.9538C51.0296 27.9538 53.655 25.4053 54.2553 25.2092C54.6803 25.0867 55.0301 24.8417 55.2552 24.4741C55.4803 24.082 55.8551 23.8369 56.3053 23.7879C56.6552 23.6409 57.2555 23.3468 57.2555 22.9057C57.2555 22.4646 57.0552 22.3176 56.7555 22.3176C54.805 22.3176 48.4295 25.2092 48.4295 26.9981C48.4797 27.5617 48.9797 27.9783 49.5795 27.9538ZM47.7045 32.3893C47.7045 33.3695 48.6546 33.0754 48.7545 34.0556C48.8544 34.8398 49.7047 35.82 50.2548 36.2611C51.2547 36.9963 51.6051 38.8096 53.0552 38.8096C53.505 38.8831 53.9303 38.5646 54.0049 38.0989C54.0049 38.0499 54.0049 38.0009 54.0049 37.9519C54.0049 35.8445 49.9298 31.6541 48.2795 31.6541C47.9798 31.7031 47.7045 31.8992 47.7045 32.3893ZM36.0784 41.9218C36.0784 42.5589 36.2284 43 36.9785 43C38.3787 43 39.1787 40.5005 40.4538 38.1725C41.5539 36.1141 42.254 35.4279 42.8541 33.9331C43.1041 33.2469 43.8043 33.492 43.8043 32.8058C43.8043 32.3648 43.4541 32.2177 43.0541 32.2177C41.0539 32.2422 36.0784 39.9124 36.0784 41.9218ZM39.9788 28.0518C40.7789 28.0518 41.979 28.983 41.979 28.0028C41.979 26.6306 38.5786 24.8662 36.8535 24.8662C36.1534 24.8662 35.8034 25.2092 35.8034 25.6994C35.8784 27.7087 39.2287 28.0518 39.9788 28.0518Z" fill="#007377"></path></svg>