<svg xmlns="http://www.w3.org/2000/svg" width="150" height="60" viewBox="0 0 150 60" fill="none"><g clip-path="url(#clip0_82_156)"><path d="M43.9981 20.0024L47.9986 0H28.0033L24.0028 20.0024H4.00047L0 39.9976H20.0023L16.0019 60H35.9972L39.9976 39.9976H60L64.0005 20.0024H43.9981Z" fill="#FDBA4D"></path><path d="M137.152 45.7267H142.14C142.487 45.7469 142.834 45.6815 143.149 45.5362C143.262 45.4725 143.36 45.3844 143.434 45.2781C143.508 45.1719 143.558 45.0503 143.579 44.9223C143.616 44.8142 143.618 44.6976 143.586 44.5881C143.555 44.4785 143.491 44.381 143.403 44.3085C143.122 44.1516 142.8 44.0828 142.479 44.111H140.405C139.184 44.111 138.394 43.9346 138.041 43.5959C137.688 43.2572 137.596 42.6364 137.78 41.7615C137.9 40.9727 138.326 40.263 138.965 39.7859C139.726 39.3246 140.61 39.1056 141.498 39.158H146.592L146.254 40.9219H142.063C141.602 40.8892 141.14 40.9443 140.701 41.0841C140.587 41.1397 140.489 41.222 140.414 41.324C140.339 41.426 140.29 41.5446 140.27 41.6698C140.236 41.7685 140.232 41.8753 140.26 41.9762C140.288 42.077 140.346 42.167 140.426 42.2342C140.67 42.3789 140.954 42.4431 141.237 42.4176H143.354C144.116 42.3482 144.875 42.5785 145.47 43.0597C145.691 43.3057 145.843 43.605 145.912 43.928C145.982 44.2509 145.966 44.5864 145.865 44.9012C145.729 45.633 145.348 46.297 144.786 46.785C144.252 47.2487 143.567 47.4999 142.86 47.4905H136.75L137.152 45.7267Z" fill="#17479E"></path><path d="M127.26 45.7266H132.248C132.595 45.7469 132.942 45.6815 133.257 45.5361C133.37 45.4725 133.468 45.3843 133.542 45.2781C133.617 45.1718 133.666 45.0503 133.688 44.9223C133.726 44.8133 133.73 44.695 133.698 44.5837C133.667 44.4725 133.601 44.3738 133.511 44.3014C133.232 44.1455 132.913 44.0767 132.594 44.1038H130.527C129.309 44.1038 128.521 43.9322 128.163 43.5888C127.806 43.2454 127.719 42.6339 127.902 41.7544C128.022 40.9656 128.448 40.2559 129.087 39.7788C129.848 39.3146 130.731 39.0931 131.62 39.1438H136.714L136.362 40.9218H132.171C131.711 40.8888 131.248 40.9439 130.809 41.0841C130.695 41.1392 130.596 41.2213 130.521 41.3234C130.446 41.4255 130.397 41.5444 130.379 41.6697C130.345 41.7685 130.342 41.8751 130.37 41.9757C130.397 42.0763 130.455 42.1663 130.534 42.2341C130.78 42.3755 131.063 42.4372 131.345 42.4105H133.462C134.224 42.3418 134.983 42.5721 135.579 43.0526C135.799 43.2986 135.951 43.5979 136.021 43.9209C136.09 44.2438 136.074 44.5793 135.974 44.8941C135.835 45.6253 135.455 46.2889 134.894 46.7779C134.361 47.2422 133.675 47.4934 132.968 47.4834H126.865L127.26 45.7266Z" fill="#17479E"></path><path fill-rule="evenodd" clip-rule="evenodd" d="M127.697 35.998H125.397L124.96 38.1993H127.26L127.697 35.998Z" fill="#17479E"></path><path fill-rule="evenodd" clip-rule="evenodd" d="M124.77 39.1523L123.083 47.4989H125.397L127.07 39.1523H124.77Z" fill="#17479E"></path><path fill-rule="evenodd" clip-rule="evenodd" d="M120.995 39.1504L117.827 44.9712L117.016 39.1504H114.469L111.294 44.9712L110.51 39.1504H102.044C101.211 39.0969 100.383 39.3175 99.6872 39.7784C99.085 40.2771 98.6942 40.9855 98.5936 41.761C98.5101 42.0684 98.5071 42.3922 98.5849 42.7011C98.6628 43.01 98.8188 43.2937 99.0381 43.5248C99.3082 43.7607 99.6251 43.9367 99.968 44.0412C100.311 44.1458 100.672 44.1766 101.028 44.1316H102.94C103.243 44.1021 103.547 44.1714 103.808 44.3292C103.891 44.4061 103.951 44.5056 103.98 44.6157C104.009 44.7258 104.005 44.8419 103.97 44.95C103.952 45.0766 103.907 45.1978 103.838 45.3051C103.768 45.4123 103.676 45.5031 103.568 45.5709C103.275 45.7157 102.949 45.7814 102.622 45.7614H96.8791L96.5264 47.4971H103.335C104.002 47.5063 104.645 47.2529 105.127 46.7915C105.657 46.2864 106.009 45.6228 106.129 44.9006C106.223 44.5848 106.239 44.2508 106.175 43.9274C106.112 43.604 105.97 43.3011 105.762 43.0451C105.494 42.8082 105.181 42.6289 104.841 42.5185C104.501 42.408 104.142 42.3687 103.786 42.403H101.783C101.515 42.4289 101.247 42.3643 101.021 42.2196C100.945 42.1493 100.891 42.0589 100.864 41.9589C100.838 41.8589 100.841 41.7536 100.873 41.6551C100.888 41.5315 100.932 41.4132 101.002 41.3101C101.072 41.207 101.165 41.1221 101.275 41.0625C101.683 40.924 102.115 40.8688 102.545 40.9002H108.337L109.438 47.5112H112.084L115.153 41.7892L115.957 47.5112H118.709L123.436 39.1645H121.016L120.995 39.1504Z" fill="#17479E"></path><path d="M148.525 13.6036C147.171 11.9714 145.096 11.153 142.302 11.1483C139.688 11.0801 137.136 11.9484 135.106 13.5965C133.11 15.249 131.777 17.5664 131.352 20.1229C130.835 22.8322 131.258 24.9982 132.622 26.621C133.986 28.2438 136.075 29.0552 138.888 29.0552C141.486 29.1305 144.026 28.2747 146.049 26.6422C148.035 24.9937 149.361 22.6839 149.781 20.137C150.303 17.4183 149.885 15.2405 148.525 13.6036ZM144.998 20.1511C144.769 21.6023 144.091 22.945 143.057 23.9893C142.594 24.4493 142.043 24.8113 141.437 25.0538C140.831 25.2962 140.182 25.4141 139.53 25.4004C138.953 25.4487 138.374 25.3436 137.851 25.0957C137.328 24.8479 136.88 24.4662 136.552 23.9893C135.955 23.0486 135.814 21.7621 136.129 20.1299C136.346 18.6805 137.012 17.3356 138.034 16.2847C138.496 15.8237 139.047 15.461 139.654 15.2185C140.26 14.976 140.909 14.8587 141.562 14.8736C142.136 14.8238 142.713 14.9245 143.236 15.1658C143.76 15.4071 144.211 15.7805 144.546 16.2494C145.148 17.1996 145.292 18.5001 144.977 20.1511H144.998Z" fill="#17479E"></path><path fill-rule="evenodd" clip-rule="evenodd" d="M131.197 5.10156H126.399L125.496 9.75114H130.301L131.197 5.10156Z" fill="#17479E"></path><path fill-rule="evenodd" clip-rule="evenodd" d="M110.983 11.4017C109.254 11.3103 107.542 11.786 106.108 12.7564C104.855 13.7895 104.04 15.2595 103.829 16.8697C103.481 18.6994 103.65 19.9741 104.337 20.6938C105.023 21.4135 106.54 21.7733 108.888 21.7733H112.853C113.478 21.7168 114.106 21.86 114.645 22.1825C114.822 22.3424 114.948 22.5501 115.01 22.7805C115.071 23.0109 115.064 23.2541 114.991 23.4807C114.955 23.7438 114.862 23.9957 114.718 24.2188C114.574 24.4419 114.383 24.6307 114.158 24.7719C113.557 25.0873 112.882 25.2359 112.204 25.2023H100.301L99.5957 28.8006H113.706C115.096 28.7938 116.428 28.2443 117.418 27.2695C118.518 26.2222 119.249 24.8454 119.499 23.3467C119.819 21.6675 119.563 20.3857 118.73 19.5014C117.897 18.6171 116.533 18.1726 114.638 18.1679H110.482C109.928 18.2202 109.371 18.0861 108.902 17.7869C108.745 17.639 108.634 17.45 108.58 17.2415C108.526 17.0331 108.533 16.8137 108.598 16.6087C108.629 16.3526 108.721 16.1076 108.866 15.8941C109.011 15.6806 109.204 15.5047 109.431 15.381C110.281 15.0905 111.181 14.9753 112.077 15.0423H124.424L121.722 28.7935H126.519L129.969 11.3946H110.983V11.4017Z" fill="#17479E"></path><path fill-rule="evenodd" clip-rule="evenodd" d="M95.7503 11.4023L93.168 24.9488H89.485C88.2385 24.9488 87.4577 24.7466 87.1426 24.3421C86.8274 23.9375 86.7968 23.0791 87.0508 21.7668L89.0193 11.4023H84.4897L82.4507 22.1196C81.9803 24.509 82.2155 26.2141 83.1562 27.2348C84.0664 28.2508 85.8161 28.8011 88.4126 28.8011H92.4271L92.3707 29.0551C92.2635 29.7768 91.885 30.4304 91.3124 30.8825C90.6933 31.3146 89.9501 31.5326 89.1957 31.5034H80.9761L80.2705 35.0311H89.2733C91.4888 35.0311 93.2385 34.5232 94.5226 33.4225C95.831 32.1931 96.7029 30.5707 97.0062 28.8011C97.0062 28.653 97.7117 25.1958 97.7117 25.1958L100.329 11.4375H95.7291L95.7503 11.4023Z" fill="#17479E"></path><path fill-rule="evenodd" clip-rule="evenodd" d="M79.5369 12.9261C78.5844 11.9242 76.8276 11.4021 74.2735 11.4021H70.28L71.5006 5.10156H67.0275L62.2368 28.801H66.7946L69.511 15.2333H73.1164C74.2829 15.2333 75.0402 15.4473 75.3882 15.8753C75.7363 16.3033 75.7998 17.1124 75.5787 18.3024L73.582 28.801H78.2175L80.3341 17.7732C80.7575 15.5437 80.4917 13.928 79.5369 12.9261Z" fill="#17479E"></path><path fill-rule="evenodd" clip-rule="evenodd" d="M54.5531 11.4023H45.7196L40.9995 35.0029H45.6985L46.9473 28.8011H50.9407C52.401 28.8278 53.8548 28.6011 55.2375 28.1309C56.4057 27.6989 57.4602 27.0064 58.3208 26.1059C59.0905 25.334 59.7377 24.4489 60.2399 23.4813C60.7449 22.4843 61.1037 21.4197 61.3052 20.3204C61.8274 17.5123 61.5005 15.3251 60.3245 13.7588C59.1322 12.1925 57.206 11.4023 54.5531 11.4023ZM56.5639 19.9606C56.2159 21.7809 55.5809 23.0838 54.659 23.8693C53.737 24.6549 52.3495 25.0453 50.4962 25.0406H47.674L49.6213 15.1629H52.7116C54.4567 15.1629 55.6138 15.525 56.183 16.2494C56.7521 16.9738 56.8791 18.2085 56.5639 19.9535V19.9606Z" fill="#17479E"></path></g><defs><clipPath id="clip0_82_156"><rect width="150" height="60" fill="white"></rect></clipPath></defs></svg>