<svg xmlns="http://www.w3.org/2000/svg" width="47" height="47" viewBox="0 0 47 47" fill="none"><path d="M47 11.6786C47 9.64209 46.191 7.68901 44.751 6.249C43.311 4.80899 41.3579 4 39.3214 4L18.5893 4C16.3492 4 14.2008 4.88989 12.6168 6.4739C11.0327 8.05791 10.1429 10.2063 10.1429 12.4464V38.5536C10.1429 39.5718 9.73836 40.5484 9.01836 41.2684C8.29835 41.9884 7.32181 42.3929 6.30357 42.3929C5.69263 42.3929 5.1067 42.6356 4.6747 43.0676C4.2427 43.4996 4 44.0855 4 44.6964C4 45.3074 4.2427 45.8933 4.6747 46.3253C5.1067 46.7573 5.69263 47 6.30357 47H27.8036C30.0437 47 32.1921 46.1101 33.7761 44.5261C35.3601 42.9421 36.25 40.7937 36.25 38.5536V20.125C36.25 19.9214 36.3309 19.726 36.4749 19.582C36.6189 19.438 36.8142 19.3571 37.0179 19.3571H43.1607C44.179 19.3571 45.1555 18.9526 45.8755 18.2326C46.5955 17.5126 47 16.5361 47 15.5179V11.6786ZM29.3393 35.8814H17.0536C16.5404 35.8814 16.0482 35.6776 15.6853 35.3147C15.3224 34.9518 15.1186 34.4596 15.1186 33.9464C15.1186 33.4332 15.3224 32.9411 15.6853 32.5782C16.0482 32.2153 16.5404 32.0114 17.0536 32.0114H29.3393C29.8525 32.0114 30.3447 32.2153 30.7075 32.5782C31.0704 32.9411 31.2743 33.4332 31.2743 33.9464C31.2743 34.4596 31.0704 34.9518 30.7075 35.3147C30.3447 35.6776 29.8525 35.8814 29.3393 35.8814ZM29.3393 26.6671H17.0536C16.5404 26.6671 16.0482 26.4633 15.6853 26.1004C15.3224 25.7375 15.1186 25.2453 15.1186 24.7321C15.1186 24.2189 15.3224 23.7268 15.6853 23.3639C16.0482 23.001 16.5404 22.7971 17.0536 22.7971H29.3393C29.8525 22.7971 30.3447 23.001 30.7075 23.3639C31.0704 23.7268 31.2743 24.2189 31.2743 24.7321C31.2743 25.2453 31.0704 25.7375 30.7075 26.1004C30.3447 26.4633 29.8525 26.6671 29.3393 26.6671ZM29.3393 17.4529H20.8929C20.3797 17.4529 19.8875 17.249 19.5246 16.8861C19.1617 16.5232 18.9579 16.0311 18.9579 15.5179C18.9579 15.0047 19.1617 14.5125 19.5246 14.1496C19.8875 13.7867 20.3797 13.5829 20.8929 13.5829H29.3393C29.8525 13.5829 30.3447 13.7867 30.7075 14.1496C31.0704 14.5125 31.2743 15.0047 31.2743 15.5179C31.2743 16.0311 31.0704 16.5232 30.7075 16.8861C30.3447 17.249 29.8525 17.4529 29.3393 17.4529ZM42.3929 13.9821C42.3929 14.1858 42.312 14.3811 42.168 14.5251C42.024 14.6691 41.8286 14.75 41.625 14.75H37.0179C36.8142 14.75 36.6189 14.6691 36.4749 14.5251C36.3309 14.3811 36.25 14.1858 36.25 13.9821V11.6786C36.25 10.864 36.5736 10.0827 37.1496 9.50674C37.7256 8.93074 38.5068 8.60714 39.3214 8.60714C40.136 8.60714 40.9173 8.93074 41.4933 9.50674C42.0693 10.0827 42.3929 10.864 42.3929 11.6786V13.9821Z" fill="#FEC14C"></path><path fill-rule="evenodd" clip-rule="evenodd" d="M13.7523 2.71171C12.468 2.71171 11.2363 3.22189 10.3282 4.13C9.42008 5.03812 8.90991 6.26978 8.90991 7.55405V35.4459C8.90991 37.2229 8.28381 38.9354 7.15377 40.2883H24.5991C25.8834 40.2883 27.115 39.7781 28.0232 38.87C28.9313 37.9619 29.4414 36.7302 29.4414 35.4459V6.77928C29.4414 5.30399 29.9223 3.87828 30.7973 2.71171H13.7523ZM36.2207 0H13.7523C11.7488 0 9.82739 0.795871 8.41073 2.21253C6.99407 3.62919 6.1982 5.5506 6.1982 7.55405V35.4459C6.1982 36.7302 5.68802 37.9619 4.77991 38.87C3.87179 39.7781 2.64012 40.2883 1.35586 40.2883C0.607037 40.2883 0 40.8953 0 41.6441C0 42.393 0.607037 43 1.35586 43H24.5991C26.6026 43 28.524 42.2041 29.9406 40.7875C31.3573 39.3708 32.1532 37.4494 32.1532 35.4459V12.009H40.0946C40.8652 12.009 41.6042 11.7029 42.149 11.158C42.6939 10.6132 43 9.87416 43 9.1036V6.77928C43 4.9813 42.2858 3.25697 41.0144 1.9856C39.743 0.714243 38.0187 0 36.2207 0ZM32.1532 9.2973H40.0946C40.146 9.2973 40.1952 9.27689 40.2316 9.24057C40.2679 9.20424 40.2883 9.15498 40.2883 9.1036V6.77928C40.2883 5.70049 39.8597 4.66589 39.0969 3.90307C38.3341 3.14026 37.2995 2.71171 36.2207 2.71171C35.1419 2.71171 34.1073 3.14026 33.3445 3.90307C32.5817 4.66589 32.1532 5.70049 32.1532 6.77928V9.2973ZM17.045 12.2027C17.045 11.4539 17.6521 10.8468 18.4009 10.8468H23.0495C23.7984 10.8468 24.4054 11.4539 24.4054 12.2027C24.4054 12.9515 23.7984 13.5586 23.0495 13.5586H18.4009C17.6521 13.5586 17.045 12.9515 17.045 12.2027ZM13.9459 21.5C13.9459 20.7512 14.553 20.1441 15.3018 20.1441H23.0495C23.7984 20.1441 24.4054 20.7512 24.4054 21.5C24.4054 22.2488 23.7984 22.8559 23.0495 22.8559H15.3018C14.553 22.8559 13.9459 22.2488 13.9459 21.5ZM13.9459 30.7973C13.9459 30.0485 14.553 29.4414 15.3018 29.4414H23.0495C23.7984 29.4414 24.4054 30.0485 24.4054 30.7973C24.4054 31.5461 23.7984 32.1532 23.0495 32.1532H15.3018C14.553 32.1532 13.9459 31.5461 13.9459 30.7973Z" fill="#3843D0"></path></svg>