<svg xmlns="http://www.w3.org/2000/svg" width="35" height="36" viewBox="0 0 35 36" fill="none"><path d="M25.8929 32.6785H6.60714C6.1809 32.6785 5.77212 32.8535 5.47072 33.165C5.16932 33.4764 5 33.8988 5 34.3393C5 34.7797 5.16932 35.2021 5.47072 35.5136C5.77212 35.825 6.1809 36 6.60714 36H25.8929C26.3191 36 26.7279 35.825 27.0293 35.5136C27.3307 35.2021 27.5 34.7797 27.5 34.3393C27.5 33.8988 27.3307 33.4764 27.0293 33.165C26.7279 32.8535 26.3191 32.6785 25.8929 32.6785Z" fill="#FEC14C"></path><path d="M33.3929 23.8218H6.60714C6.1809 23.8218 5.77212 23.9968 5.47072 24.3082C5.16932 24.6197 5 25.0421 5 25.4825C5 25.923 5.16932 26.3454 5.47072 26.6569C5.77212 26.9683 6.1809 27.1433 6.60714 27.1433H33.3929C33.8191 27.1433 34.2279 26.9683 34.5293 26.6569C34.8307 26.3454 35 25.923 35 25.4825C35 25.0421 34.8307 24.6197 34.5293 24.3082C34.2279 23.9968 33.8191 23.8218 33.3929 23.8218Z" fill="#FEC14C"></path><path d="M32.8571 5H7.14286C5.95939 5 5 5.99138 5 7.2143V16.0715C5 17.2944 5.95939 18.2858 7.14286 18.2858H32.8571C34.0406 18.2858 35 17.2944 35 16.0715V7.2143C35 5.99138 34.0406 5 32.8571 5Z" fill="#FEC14C"></path><path d="M21.5014 27.5659H1.65396C1.2153 27.5659 0.794609 27.7402 0.484432 28.0504C0.174256 28.3605 0 28.7812 0 29.2199C0 29.6585 0.174256 30.0792 0.484432 30.3894C0.794609 30.6996 1.2153 30.8738 1.65396 30.8738H21.5014C21.9401 30.8738 22.3608 30.6996 22.6709 30.3894C22.9811 30.0792 23.1554 29.6585 23.1554 29.2199C23.1554 28.7812 22.9811 28.3605 22.6709 28.0504C22.3608 27.7402 21.9401 27.5659 21.5014 27.5659Z" fill="#3843D0"></path><path d="M29.2199 18.7449H1.65396C1.2153 18.7449 0.794609 18.9191 0.484432 19.2293C0.174256 19.5395 0 19.9602 0 20.3988C0 20.8375 0.174256 21.2582 0.484432 21.5684C0.794609 21.8785 1.2153 22.0528 1.65396 22.0528H29.2199C29.6585 22.0528 30.0792 21.8785 30.3894 21.5684C30.6996 21.2582 30.8738 20.8375 30.8738 20.3988C30.8738 19.9602 30.6996 19.5395 30.3894 19.2293C30.0792 18.9191 29.6585 18.7449 29.2199 18.7449Z" fill="#3843D0"></path><path d="M27.0146 13.2316H3.85923C2.83748 13.2259 1.85923 12.8174 1.13674 12.0949C0.414244 11.3724 0.00578907 10.3942 0 9.37242L0 3.85923C0.00578907 2.83748 0.414244 1.85923 1.13674 1.13674C1.85923 0.414244 2.83748 0.00578907 3.85923 0H27.0146C28.0364 0.00578907 29.0146 0.414244 29.7371 1.13674C30.4596 1.85923 30.8681 2.83748 30.8738 3.85923V9.37242C30.8681 10.3942 30.4596 11.3724 29.7371 12.0949C29.0146 12.8174 28.0364 13.2259 27.0146 13.2316ZM3.85923 3.30791C3.71301 3.30791 3.57278 3.366 3.46939 3.46939C3.366 3.57278 3.30791 3.71301 3.30791 3.85923V9.37242C3.30791 9.51863 3.366 9.65887 3.46939 9.76226C3.57278 9.86565 3.71301 9.92373 3.85923 9.92373H27.0146C27.1608 9.92373 27.3011 9.86565 27.4045 9.76226C27.5078 9.65887 27.5659 9.51863 27.5659 9.37242V3.85923C27.5659 3.71301 27.5078 3.57278 27.4045 3.46939C27.3011 3.366 27.1608 3.30791 27.0146 3.30791H3.85923Z" fill="#3843D0"></path></svg>