<svg xmlns="http://www.w3.org/2000/svg" width="401" height="357" viewBox="0 0 401 357" fill="none"><rect x="150" y="98" width="251" height="240" rx="8" fill="#DCEEEB"></rect><circle cx="140" cy="140" r="140" fill="#FAF4EB"></circle><path d="M298.768 121.39L262.248 91.805C260.759 90.5509 258.883 89.9238 256.953 89.9238H128.914C124.17 89.9238 120.308 93.9141 120.308 98.8164V306.937C120.308 311.84 124.17 315.83 128.914 315.83H293.472C298.216 315.83 302.078 311.84 302.078 306.937V128.401C302.078 125.665 300.864 123.1 298.768 121.39Z" fill="white"></path><path d="M271.604 83.1546L308.124 112.74C310.22 114.45 311.434 117.015 311.434 119.751V298.287C311.434 303.189 307.572 307.18 302.828 307.18H138.27C133.526 307.18 129.664 303.189 129.664 298.287V90.166C129.664 85.2637 133.526 81.2734 138.27 81.2734H266.309C268.239 81.2734 270.115 81.9005 271.604 83.1546Z" stroke="#3843D0" stroke-width="2.25" stroke-linecap="round"></path><path d="M276.128 124.31C273.314 124.937 270.611 122.771 270.556 119.807L269.673 83.4953C269.618 81.6142 271.715 80.5311 273.149 81.6712L311.378 112.567C312.813 113.707 312.316 116.101 310.496 116.5L276.128 124.31Z" fill="#F1F2FB" stroke="#3843D0" stroke-width="2.0495"></path><path d="M163.407 191.139H282.874" stroke="#3843D0" stroke-width="2.25" stroke-linecap="round"></path><path d="M156.527 224.471H283.186" stroke="#3843D0" stroke-width="2.25" stroke-linecap="round"></path><path d="M156.527 259.812H283.186" stroke="#3843D0" stroke-width="2.25" stroke-linecap="round"></path><path d="M215.837 201.132C221.484 201.132 226.062 196.401 226.062 190.566C226.062 184.73 221.484 180 215.837 180C210.19 180 205.612 184.73 205.612 190.566C205.612 196.401 210.19 201.132 215.837 201.132Z" fill="white"></path><path d="M212.811 203.343C218.458 203.343 223.036 198.612 223.036 192.777C223.036 186.941 218.458 182.211 212.811 182.211C207.164 182.211 202.586 186.941 202.586 192.777C202.586 198.612 207.164 203.343 212.811 203.343Z" fill="#FEC14C"></path><path d="M215.837 201.132C221.484 201.132 226.062 196.401 226.062 190.566C226.062 184.73 221.484 180 215.837 180C210.19 180 205.612 184.73 205.612 190.566C205.612 196.401 210.19 201.132 215.837 201.132Z" stroke="#3843D0" stroke-width="2.25"></path><path d="M252.929 233.423C258.576 233.423 263.154 228.692 263.154 222.857C263.154 217.022 258.576 212.291 252.929 212.291C247.282 212.291 242.704 217.022 242.704 222.857C242.704 228.692 247.282 233.423 252.929 233.423Z" fill="white"></path><path d="M249.955 235.634C255.602 235.634 260.18 230.903 260.18 225.068C260.18 219.232 255.602 214.502 249.955 214.502C244.308 214.502 239.73 219.232 239.73 225.068C239.73 230.903 244.308 235.634 249.955 235.634Z" fill="#FEC14C"></path><path d="M252.929 233.423C258.576 233.423 263.154 228.692 263.154 222.857C263.154 217.022 258.576 212.291 252.929 212.291C247.282 212.291 242.704 217.022 242.704 222.857C242.704 228.692 247.282 233.423 252.929 233.423Z" stroke="#3843D0" stroke-width="2.25"></path><path d="M195.334 266.845C200.982 266.845 205.559 262.114 205.559 256.279C205.559 250.443 200.982 245.713 195.334 245.713C189.687 245.713 185.109 250.443 185.109 256.279C185.109 262.114 189.687 266.845 195.334 266.845Z" fill="white"></path><path d="M192.361 269.056C198.008 269.056 202.586 264.325 202.586 258.49C202.586 252.654 198.008 247.924 192.361 247.924C186.714 247.924 182.136 252.654 182.136 258.49C182.136 264.325 186.714 269.056 192.361 269.056Z" fill="#FEC14C"></path><path d="M195.334 266.845C200.982 266.845 205.559 262.114 205.559 256.279C205.559 250.443 200.982 245.713 195.334 245.713C189.687 245.713 185.109 250.443 185.109 256.279C185.109 262.114 189.687 266.845 195.334 266.845Z" stroke="#3843D0" stroke-width="2.25"></path><path d="M345.864 288.121C346.048 286.803 347.952 286.803 348.136 288.121V288.121C348.837 293.129 352.734 297.088 357.73 297.867V297.867C359.024 298.068 359.024 299.932 357.73 300.133V300.133C352.734 300.912 348.837 304.871 348.136 309.879V309.879C347.952 311.197 346.048 311.197 345.864 309.879V309.879C345.163 304.871 341.266 300.912 336.27 300.133V300.133C334.976 299.932 334.976 298.068 336.27 297.867V297.867C341.266 297.088 345.163 293.129 345.864 288.121V288.121Z" fill="white"></path><rect x="299" y="60" width="18" height="16" rx="8" fill="#DCEEEB"></rect><path fill-rule="evenodd" clip-rule="evenodd" d="M175.942 113.797L181.157 98.0317C181.325 97.5259 182.082 97.5259 182.25 98.0317L187.382 113.839L203.952 113.923C204.499 113.923 204.71 114.64 204.289 114.935L190.914 124.715L195.961 140.522C196.13 141.028 195.541 141.492 195.078 141.154L181.62 131.417L168.161 141.112C167.698 141.449 167.109 140.986 167.278 140.48L172.409 124.672L159.034 114.851C158.572 114.514 158.824 113.839 159.371 113.839L175.942 113.797Z" fill="white"></path><path fill-rule="evenodd" clip-rule="evenodd" d="M173.839 115.904L179.054 100.139C179.222 99.6333 179.979 99.6333 180.147 100.139L185.279 115.947L201.849 116.031C202.396 116.031 202.607 116.747 202.186 117.043L188.811 126.822L193.858 142.629C194.027 143.135 193.438 143.599 192.975 143.262L179.517 133.524L166.058 143.22C165.595 143.557 165.006 143.093 165.175 142.587L170.306 126.78L156.931 116.958C156.469 116.621 156.721 115.947 157.268 115.947L173.839 115.904Z" fill="#FEC14C"></path><path fill-rule="evenodd" clip-rule="evenodd" d="M175.942 113.797L181.157 98.0317C181.325 97.5259 182.082 97.5259 182.25 98.0317L187.382 113.839L203.952 113.923C204.499 113.923 204.71 114.64 204.289 114.935L190.914 124.715L195.961 140.522C196.13 141.028 195.541 141.492 195.078 141.154L181.62 131.417L168.161 141.112C167.698 141.449 167.109 140.986 167.278 140.48L172.409 124.672L159.034 114.851C158.572 114.514 158.824 113.839 159.371 113.839L175.942 113.797Z" stroke="#3843D0" stroke-width="2" stroke-miterlimit="10"></path><path fill-rule="evenodd" clip-rule="evenodd" d="M123.873 113.797L129.047 98.0317C129.215 97.5259 129.972 97.5259 130.14 98.0317L135.271 113.839L151.842 113.923C152.389 113.923 152.599 114.64 152.179 114.935L138.804 124.715L143.851 140.522C144.019 141.028 143.43 141.492 142.968 141.154L129.551 131.417L116.093 141.112C115.63 141.449 115.041 140.986 115.209 140.48L120.298 124.672L106.924 114.851C106.461 114.514 106.714 113.839 107.26 113.839L123.873 113.797Z" fill="white"></path><path fill-rule="evenodd" clip-rule="evenodd" d="M121.771 115.904L126.944 100.139C127.112 99.6333 127.869 99.6333 128.038 100.139L133.169 115.947L149.74 116.031C150.286 116.031 150.497 116.747 150.076 117.043L136.702 126.822L141.749 142.629C141.917 143.135 141.328 143.599 140.865 143.262L127.449 133.524L113.99 143.22C113.527 143.557 112.939 143.093 113.107 142.587L118.196 126.78L104.821 116.958C104.359 116.621 104.611 115.947 105.158 115.947L121.771 115.904Z" fill="#FEC14C"></path><path fill-rule="evenodd" clip-rule="evenodd" d="M123.873 113.797L129.047 98.0317C129.215 97.5259 129.972 97.5259 130.14 98.0317L135.271 113.839L151.842 113.923C152.389 113.923 152.599 114.64 152.179 114.935L138.804 124.715L143.851 140.522C144.019 141.028 143.43 141.492 142.968 141.154L129.551 131.417L116.093 141.112C115.63 141.449 115.041 140.986 115.209 140.48L120.298 124.672L106.924 114.851C106.461 114.514 106.714 113.839 107.26 113.839L123.873 113.797Z" stroke="#3843D0" stroke-width="2" stroke-miterlimit="10"></path><path fill-rule="evenodd" clip-rule="evenodd" d="M69.6604 113.797L74.8336 98.0317C75.0018 97.5259 75.7589 97.5259 75.9271 98.0317L81.0582 113.797L97.6292 113.881C98.1759 113.881 98.3862 114.598 97.9656 114.893L84.5911 124.672L89.6381 140.48C89.8063 140.986 89.2175 141.449 88.7549 141.112L75.3383 131.417L61.8797 141.112C61.417 141.449 60.8282 140.986 60.9964 140.48L66.1275 124.672L52.753 114.851C52.2904 114.514 52.5427 113.839 53.0895 113.839L69.6604 113.797Z" fill="white"></path><path fill-rule="evenodd" clip-rule="evenodd" d="M67.5574 115.904L72.7306 100.139C72.8988 99.6333 73.6559 99.6333 73.8241 100.139L78.9552 115.904L95.5262 115.989C96.0729 115.989 96.2832 116.705 95.8626 117L82.4881 126.78L87.5351 142.587C87.7033 143.093 87.1145 143.557 86.6519 143.22L73.2353 133.524L59.7766 143.22C59.314 143.557 58.7252 143.093 58.8934 142.587L64.0245 126.78L50.65 116.958C50.1873 116.621 50.4397 115.947 50.9865 115.947L67.5574 115.904Z" fill="#FEC14C"></path><path fill-rule="evenodd" clip-rule="evenodd" d="M69.6604 113.797L74.8336 98.0317C75.0018 97.5259 75.7589 97.5259 75.9271 98.0317L81.0582 113.797L97.6292 113.881C98.1759 113.881 98.3862 114.598 97.9656 114.893L84.5911 124.672L89.6381 140.48C89.8063 140.986 89.2175 141.449 88.7549 141.112L75.3383 131.417L61.8797 141.112C61.417 141.449 60.8282 140.986 60.9964 140.48L66.1275 124.672L52.753 114.851C52.2904 114.514 52.5427 113.839 53.0895 113.839L69.6604 113.797Z" stroke="#3843D0" stroke-width="2" stroke-miterlimit="10"></path></svg>