<svg xmlns="http://www.w3.org/2000/svg" width="145" height="145" viewBox="0 0 145 145" fill="none"><path d="M32.5441 134H112.456C122.145 134 130 126.164 130 116.498V39.5019C130 29.8359 122.145 22 112.456 22L32.5441 22C22.8548 22 15 29.8359 15 39.5019L15 116.498C15 126.164 22.8548 134 32.5441 134Z" fill="#F5768F"></path><path d="M63.2856 40H104.484L110 118H35L40.5161 40H56.0614" stroke="#040237" stroke-width="2" stroke-linecap="round" stroke-linejoin="round"></path><path d="M56 46.9688V28.2564C56.0105 23.94 57.7541 19.804 60.8483 16.7563C63.9425 13.7085 68.1344 11.9979 72.5039 12V12C76.8776 12 81.0722 13.7158 84.1656 16.7701C87.259 19.8244 88.9979 23.9671 89 28.2876V47" stroke="#040237" stroke-width="2" stroke-linecap="round" stroke-linejoin="round"></path><path d="M56.5 56C58.433 56 60 54.2091 60 52C60 49.7909 58.433 48 56.5 48C54.567 48 53 49.7909 53 52C53 54.2091 54.567 56 56.5 56Z" stroke="#040237" stroke-width="2" stroke-linecap="round" stroke-linejoin="round"></path><path d="M89 56C91.2091 56 93 54.2091 93 52C93 49.7909 91.2091 48 89 48C86.7909 48 85 49.7909 85 52C85 54.2091 86.7909 56 89 56Z" stroke="#040237" stroke-width="2" stroke-linecap="round" stroke-linejoin="round"></path></svg>