<svg xmlns="http://www.w3.org/2000/svg" width="495" height="594" viewBox="0 0 495 594" fill="none"><path fill-rule="evenodd" clip-rule="evenodd" d="M331.358 268.977C336.946 282.551 339.834 297.068 339.834 311.711H270.898C270.898 307.186 270.019 302.661 268.261 298.514C266.503 294.303 263.992 290.532 260.79 287.327C257.588 284.122 253.821 281.609 249.614 279.849C245.408 278.089 240.95 277.21 236.43 277.21C231.91 277.21 227.389 278.089 223.246 279.849C219.039 281.609 215.272 284.122 212.07 287.327C208.868 290.532 206.357 294.366 204.599 298.514C202.841 302.724 201.962 307.186 201.962 311.711H116.703C116.703 297.068 119.591 282.551 125.178 268.977C130.766 255.403 138.991 243.085 149.35 232.716C159.709 222.347 172.015 214.114 185.513 208.521C199.074 202.928 213.577 200.037 228.205 200.037C242.834 200.037 257.4 202.928 270.898 208.521C284.459 214.114 296.765 222.347 307.061 232.716C317.546 243.085 325.77 255.403 331.358 268.977Z" fill="#FAF4EB"></path><rect width="401.242" height="83.624" rx="41.812" transform="matrix(1 8.74228e-08 8.74228e-08 -1 0.773438 359.301)" fill="#F1F2FB"></rect><rect width="167.501" height="74.4176" rx="37.2088" transform="matrix(1 8.74228e-08 8.74228e-08 -1 181.979 302.529)" fill="#F1F2FB"></rect><path d="M360.63 211.098H233.476C222.88 211.098 214.202 202.416 214.202 191.816V164.583C214.202 153.982 222.88 145.301 233.476 145.301H360.63C371.226 145.301 379.904 153.982 379.904 164.583V191.816C379.904 202.416 371.226 211.098 360.63 211.098Z" fill="white"></path><path d="M339.163 278.174H212.009C201.413 278.174 192.735 269.492 192.735 258.892V231.659C192.735 221.058 201.413 212.377 212.009 212.377H339.163C349.759 212.377 358.437 221.058 358.437 231.659V258.892C358.437 269.492 349.759 278.174 339.163 278.174Z" fill="white"></path><path d="M359.625 340.682H232.471C221.875 340.682 213.197 332 213.197 321.4V294.167C213.197 283.566 221.875 274.885 232.471 274.885H359.625C370.221 274.885 378.899 283.566 378.899 294.167V321.4C378.899 332 370.221 340.682 359.625 340.682Z" fill="white"></path><path d="M349.486 406.752H222.332C211.736 406.752 203.058 398.07 203.058 387.47V360.237C203.058 349.637 211.736 340.955 222.332 340.955H349.486C360.082 340.955 368.76 349.637 368.76 360.237V387.47C368.76 398.07 360.082 406.752 349.486 406.752Z" fill="white"></path><path d="M352.865 218.318H225.712C215.115 218.318 206.438 209.637 206.438 199.036V171.804C206.438 161.203 215.115 152.521 225.712 152.521H352.865C363.462 152.521 372.139 161.203 372.139 171.804V199.036C372.139 209.637 363.462 218.318 352.865 218.318Z" fill="#FAF4EB"></path><path d="M330.668 286.948H203.423C192.827 286.948 184.149 278.266 184.149 267.666V234.95C184.149 224.35 192.827 215.668 203.423 215.668H330.577C341.173 215.668 349.851 224.35 349.851 234.95V267.666C349.942 278.266 341.264 286.948 330.668 286.948Z" fill="#FAF4EB"></path><path d="M353.231 350.004H226.077C215.481 350.004 206.803 341.322 206.803 330.722V303.489C206.803 292.889 215.481 284.207 226.077 284.207H353.231C363.827 284.207 372.505 292.889 372.505 303.489V330.722C372.505 341.322 363.827 350.004 353.231 350.004Z" fill="#FAF4EB"></path><path d="M342.452 414.154H215.207C204.61 414.154 195.933 405.473 195.933 394.872V367.64C195.933 357.039 204.61 348.357 215.207 348.357H342.452C353.048 348.357 361.726 357.039 361.726 367.64V394.872C361.726 405.473 353.048 414.154 342.452 414.154Z" fill="#FAF4EB"></path><path d="M361.909 210.275H234.664C224.068 210.275 215.39 201.594 215.39 190.993V163.761C215.39 153.16 224.068 144.479 234.664 144.479H361.818C372.414 144.479 381.092 153.16 381.092 163.761V190.993C381.183 201.594 372.505 210.275 361.909 210.275Z" stroke="#3843D0" stroke-width="2" stroke-miterlimit="10"></path><path d="M340.077 276.256H212.923C202.327 276.256 193.649 267.574 193.649 256.974V229.741C193.649 219.141 202.327 210.459 212.923 210.459H340.077C350.673 210.459 359.351 219.141 359.351 229.741V256.974C359.351 267.574 350.673 276.256 340.077 276.256Z" stroke="#3843D0" stroke-width="2" stroke-miterlimit="10"></path><path d="M359.625 342.234H232.471C221.875 342.234 213.197 333.553 213.197 322.952V295.72C213.197 285.119 221.875 276.438 232.471 276.438H359.625C370.221 276.438 378.899 285.119 378.899 295.72V322.952C378.899 333.553 370.221 342.234 359.625 342.234Z" stroke="#3843D0" stroke-width="2" stroke-miterlimit="10"></path><path d="M349.486 408.123H222.332C211.736 408.123 203.058 399.442 203.058 388.841V361.608C203.058 351.008 211.736 342.326 222.332 342.326H349.486C360.082 342.326 368.76 351.008 368.76 361.608V388.841C368.76 399.442 360.082 408.123 349.486 408.123Z" stroke="#3843D0" stroke-width="2" stroke-miterlimit="10"></path><path d="M180.312 405.748C224.909 405.748 261.062 369.579 261.062 324.964C261.062 280.348 224.909 244.18 180.312 244.18C135.716 244.18 99.5625 280.348 99.5625 324.964C99.5625 369.579 135.716 405.748 180.312 405.748Z" fill="white"></path><path d="M168.529 411.414C213.126 411.414 249.279 375.245 249.279 330.63C249.279 286.014 213.126 249.846 168.529 249.846C123.932 249.846 87.7788 286.014 87.7788 330.63C87.7788 375.245 123.932 411.414 168.529 411.414Z" fill="#FEC14C"></path><path d="M177.572 369.651C176.933 369.651 176.476 369.195 176.476 368.555V358.959L173.187 358.137C165.514 356.127 160.125 349.273 160.125 341.322C160.125 340.683 160.582 340.226 161.221 340.226C161.861 340.226 162.317 340.683 162.317 341.322C162.317 349.73 169.168 356.584 177.572 356.584C185.976 356.584 192.827 349.73 192.827 341.322C192.827 332.915 185.976 326.061 177.572 326.061C169.625 326.061 162.683 320.669 160.673 312.993C159.486 308.515 160.216 303.855 162.5 299.834C164.875 295.813 168.62 292.98 173.096 291.792L176.385 290.969V281.374C176.385 280.734 176.841 280.277 177.481 280.277C178.12 280.277 178.577 280.734 178.577 281.374V290.969L181.865 291.792C189.538 293.802 194.928 300.656 194.928 308.607C194.928 309.246 194.471 309.703 193.832 309.703C193.192 309.703 192.736 309.246 192.736 308.607C192.736 300.199 185.885 293.345 177.481 293.345C169.077 293.345 162.226 300.199 162.226 308.607C162.226 317.014 169.077 323.868 177.481 323.868C185.428 323.868 192.37 329.26 194.38 336.936C195.567 341.414 194.836 346.074 192.553 350.095C190.178 354.116 186.433 356.949 181.957 358.137L178.668 358.959V368.555C178.76 369.103 178.211 369.651 177.572 369.651Z" fill="#3843D0"></path><path d="M178.668 406.753C223.871 406.753 260.515 370.094 260.515 324.873C260.515 279.651 223.871 242.992 178.668 242.992C133.466 242.992 96.8223 279.651 96.8223 324.873C96.8223 370.094 133.466 406.753 178.668 406.753Z" stroke="#3843D0" stroke-width="2" stroke-miterlimit="10"></path><path d="M401.702 132.62C401.87 131.416 403.61 131.416 403.778 132.62V132.62C404.418 137.196 407.979 140.813 412.543 141.525V141.525C413.725 141.709 413.725 143.412 412.543 143.596V143.596C407.979 144.308 404.418 147.925 403.778 152.5V152.5C403.61 153.704 401.87 153.704 401.702 152.5V152.5C401.062 147.925 397.502 144.308 392.937 143.596V143.596C391.755 143.412 391.755 141.709 392.937 141.525V141.525C397.502 140.813 401.062 137.196 401.702 132.62V132.62Z" fill="#DCEEEB"></path><path d="M377.377 93.7601C377.639 91.8894 380.342 91.8894 380.604 93.7601V93.7601C381.6 100.87 387.135 106.491 394.229 107.595V107.595C396.067 107.881 396.067 110.528 394.229 110.814V110.814C387.135 111.918 381.6 117.539 380.604 124.649V124.649C380.342 126.52 377.639 126.52 377.377 124.649V124.649C376.381 117.539 370.846 111.918 363.752 110.814V110.814C361.914 110.528 361.914 107.881 363.752 107.595V107.595C370.846 106.491 376.381 100.87 377.377 93.7601V93.7601Z" fill="#DCEEEB"></path></svg>