<svg xmlns="http://www.w3.org/2000/svg" width="48" height="49" viewBox="0 0 48 49" fill="none"><path fill-rule="evenodd" clip-rule="evenodd" d="M14.3573 5.375H43.5357C44.5539 5.375 45.5305 5.77949 46.2505 6.49949C46.9705 7.2195 47.375 8.19603 47.375 9.21426V35.3213C47.375 36.3395 46.9705 37.316 46.2505 38.036C45.5305 38.756 44.5539 39.1605 43.5357 39.1605H40.4643C39.8533 39.1605 39.2674 38.9178 38.8354 38.4858C38.4034 38.0538 38.1607 37.4679 38.1607 36.857C38.1607 36.246 38.4034 35.6601 38.8354 35.2281C39.2674 34.7961 39.8533 34.5534 40.4643 34.5534H42C42.2036 34.5534 42.3989 34.4725 42.5429 34.3285C42.6869 34.1845 42.7678 33.9892 42.7678 33.7856V16.8928C42.7678 16.6891 42.6869 16.4938 42.5429 16.3498C42.3989 16.2058 42.2036 16.1249 42 16.1249H12.8216C12.2131 16.117 11.6318 15.8717 11.2015 15.4414C10.7712 15.0112 10.526 14.4298 10.518 13.8214V9.21426C10.518 8.19603 10.9225 7.2195 11.6425 6.49949C12.3625 5.77949 13.3391 5.375 14.3573 5.375ZM32.4289 21.8566C33.1489 22.5766 33.5534 23.5531 33.5534 24.5714V44.5355C33.5534 45.5538 33.1489 46.5303 32.4289 47.2503C31.7089 47.9703 30.7324 48.3748 29.7141 48.3748H8.21426C7.19603 48.3748 6.2195 47.9703 5.49949 47.2503C4.77949 46.5303 4.375 45.5538 4.375 44.5355V24.5714C4.375 23.5531 4.77949 22.5766 5.49949 21.8566C6.2195 21.1366 7.19603 20.7321 8.21426 20.7321H29.7141C30.7324 20.7321 31.7089 21.1366 32.4289 21.8566ZM9.20702 43.5428C9.35102 43.6868 9.54632 43.7677 9.74997 43.7677H28.1784C28.3821 43.7677 28.5774 43.6868 28.7214 43.5428C28.8654 43.3988 28.9463 43.2035 28.9463 42.9998V32.2499C28.9463 32.0462 28.8654 31.8509 28.7214 31.7069C28.5774 31.5629 28.3821 31.482 28.1784 31.482H9.74997C9.54632 31.482 9.35102 31.5629 9.20702 31.7069C9.06301 31.8509 8.98212 32.0462 8.98212 32.2499V42.9998C8.98212 43.2035 9.06301 43.3988 9.20702 43.5428Z" fill="#FEC14C"></path><path fill-rule="evenodd" clip-rule="evenodd" d="M7.74764 4.45496C7.74764 3.27343 8.21701 2.14029 9.05247 1.30483C9.88794 0.46936 11.0211 0 12.2026 0H38.545C39.7266 0 40.8597 0.46936 41.6952 1.30483C42.5306 2.14029 43 3.27343 43 4.45496V29.2477C43 30.4293 42.5306 31.5624 41.6952 32.3979C40.8597 33.2333 39.7266 33.7027 38.545 33.7027H33.8964C33.1475 33.7027 32.5405 33.0957 32.5405 32.3468C32.5405 31.598 33.1475 30.991 33.8964 30.991H38.545C39.0074 30.991 39.4508 30.8073 39.7777 30.4804C40.1046 30.1535 40.2883 29.7101 40.2883 29.2477V12.009H10.4594V15.3018C10.4594 16.0506 9.85233 16.6577 9.1035 16.6577C8.35468 16.6577 7.74764 16.0506 7.74764 15.3018V4.45496ZM10.9699 3.2223C11.2969 2.89537 11.7403 2.71171 12.2026 2.71171H38.545C39.0074 2.71171 39.4508 2.89537 39.7777 3.2223C40.1046 3.54922 40.2883 3.99262 40.2883 4.45496V9.2973H10.4594V4.45496C10.4594 3.99262 10.643 3.54922 10.9699 3.2223Z" fill="#3843D0"></path><path fill-rule="evenodd" clip-rule="evenodd" d="M0 38.545C0 41.0054 1.99456 43 4.45497 43H23.0496C25.51 43 27.5046 41.0054 27.5046 38.545V26.1487C27.5046 23.6882 25.51 21.6937 23.0496 21.6937H4.45497C1.99456 21.6937 0 23.6882 0 26.1487V38.545ZM4.45497 24.4054C3.4922 24.4054 2.71172 25.1859 2.71172 26.1487V29.4414H24.7929V26.1487C24.7929 25.1859 24.0124 24.4054 23.0496 24.4054H4.45497ZM24.7929 32.1532H2.71172V38.545C2.71172 39.5078 3.4922 40.2883 4.45497 40.2883H23.0496C24.0124 40.2883 24.7929 39.5078 24.7929 38.545V32.1532Z" fill="#3843D0"></path></svg>