<svg xmlns="http://www.w3.org/2000/svg" width="46" height="45" viewBox="0 0 46 45" fill="none"><path d="M45.9338 24.9192C46.0633 24.0866 46.0023 23.2371 45.7549 22.4291C45.5075 21.621 45.0794 20.8735 44.5002 20.2377C43.921 19.6019 43.2042 19.0929 42.3991 18.7456C41.594 18.3984 40.7195 18.221 39.8356 18.2257H29.886C29.6786 18.2258 29.4793 18.1495 29.3297 18.0128C29.1801 17.876 29.0919 17.6894 29.0836 17.4921V11.6849C29.0419 10.1686 28.3821 8.72722 27.2438 7.6661C26.1056 6.60498 24.5783 6.00744 22.9854 6.00001C21.9655 5.99779 20.9623 6.24718 20.0736 6.72389C19.1849 7.2006 18.441 7.88838 17.9143 8.72022L10.404 20.5485H4.20955C3.35833 20.5485 2.54196 20.8706 1.94006 21.4437C1.33815 22.0169 1 22.7943 1 23.605L1 38.0923C1 38.903 1.33815 39.6804 1.94006 40.2536C2.54196 40.8267 3.35833 41.1488 4.20955 41.1488H10.3719L13.8382 43.8384C15.1387 44.6066 16.6407 45.0093 18.1711 44.9998H37.1717C38.6271 45.0068 40.0361 44.5126 41.139 43.6084C42.242 42.7041 42.9645 41.4506 43.1735 40.079L45.9338 24.9192ZM41.1194 24.2162L38.5518 39.4983C38.5062 39.7846 38.3553 40.0463 38.1261 40.2366C37.8969 40.4269 37.6041 40.5335 37.3001 40.5375H18.2995C17.7559 40.5351 17.2193 40.4204 16.7268 40.2013L14.9616 38.887C14.8637 38.8143 14.7841 38.7217 14.7286 38.6159C14.673 38.5102 14.643 38.3939 14.6406 38.2757V22.9937C14.5986 22.8642 14.5986 22.7258 14.6406 22.5963L22.0226 11.1042C22.5682 10.2484 24.2693 10.7986 24.2693 11.6849V20.5485C24.2777 21.1512 24.535 21.7264 24.9856 22.1497C25.4361 22.573 26.0435 22.8103 26.6764 22.8103H39.8356C40.0196 22.8078 40.2018 22.845 40.3685 22.9191C40.5353 22.9932 40.6823 23.1023 40.7985 23.2382C40.9231 23.3694 41.0163 23.5248 41.0717 23.6936C41.1272 23.8625 41.1434 24.0408 41.1194 24.2162Z" fill="#FEC14C"></path><path fill-rule="evenodd" clip-rule="evenodd" d="M14.9137 36.2534C14.8412 36.2534 14.7698 36.2369 14.7049 36.2051L11.7586 34.7607C11.3048 34.5382 10.8044 34.4224 10.2971 34.4224L3.26807 34.4224C3.01022 34.4224 2.8012 34.2174 2.8012 33.9646L2.8012 17.4852C2.8012 17.2323 3.01023 17.0274 3.26807 17.0274L9.62935 17.0274C10.8259 17.0274 11.9193 16.3876 12.4975 15.374C13.2273 14.0948 14.6133 11.7064 16.0957 9.36589C17.6085 6.97744 19.1274 4.79271 20.1319 3.80782C21.295 2.66744 22.0647 2.68674 22.4424 2.80211C22.9253 2.94961 23.4345 3.44856 23.7036 4.20474C23.7484 4.33072 23.8174 4.70995 23.8622 5.40229C23.9039 6.04693 23.9186 6.83848 23.9143 7.69678C23.9057 9.41071 23.8219 11.3196 23.7468 12.7091C23.6474 14.5456 25.1336 16.1119 27.0283 16.1119L38.8627 16.1119C40.3358 16.1119 41.4406 17.4333 41.1517 18.8496L37.977 34.4135C37.7588 35.4833 36.8008 36.2534 35.688 36.2534L14.9137 36.2534ZM13.4522 38.6617C13.906 38.8842 14.4064 39 14.9137 39L35.688 39C38.136 39 40.2437 37.3058 40.7238 34.9521L43.8985 19.3882C44.5341 16.2723 42.1035 13.3653 38.8627 13.3653L27.0283 13.3653C26.758 13.3653 26.5287 13.138 26.544 12.8546C26.6201 11.4488 26.7066 9.48919 26.7155 7.71028C26.7199 6.82215 26.7052 5.9612 26.6578 5.22838C26.6134 4.54327 26.5336 3.82008 26.3484 3.29981C25.8833 1.99308 24.8509 0.660977 23.2754 0.179806C21.5948 -0.333511 19.7893 0.259491 18.1512 1.86569C16.8806 3.1115 15.2005 5.57312 13.716 7.91687C12.2012 10.3086 10.7915 12.7382 10.0528 14.0332C9.96384 14.1891 9.79954 14.2808 9.62935 14.2808L3.26807 14.2808C1.46317 14.2808 4.0712e-06 15.7154 3.76178e-06 17.4852L8.80415e-07 33.9646C5.7099e-07 35.7343 1.46316 37.1689 3.26807 37.1689L10.2971 37.169C10.3696 37.169 10.441 37.1855 10.5059 37.2173L13.4522 38.6617Z" fill="#3843D0"></path><path fill-rule="evenodd" clip-rule="evenodd" d="M8.87047 15.6541L8.87047 35.7957L11.6717 35.7957L11.6717 15.6541L8.87047 15.6541Z" fill="#3843D0"></path></svg>