<svg xmlns="http://www.w3.org/2000/svg" width="145" height="145" viewBox="0 0 145 145" fill="none"><path d="M37.1569 131H119.843C129.871 131 138 122.882 138 112.869V33.1311C138 23.1176 129.871 15 119.843 15L37.1569 15C27.1291 15 19 23.1176 19 33.1311L19 112.869C19 122.882 27.1291 131 37.1569 131Z" fill="#FED688"></path><path d="M101.036 106H101.037C102.259 106.001 103.442 105.552 104.37 104.729L101.036 106ZM101.036 106H14.1007C12.7559 106 11.4599 105.454 10.5019 104.474C9.54295 103.493 9 102.158 9 100.761V96H106.851M101.036 106L106.851 96M106.851 96L106.084 101.506L106.084 101.506C105.91 102.759 105.3 103.903 104.371 104.728L106.851 96Z" stroke="#040237" stroke-width="2"></path><path d="M110.961 44.6949L110.961 44.6971L105.236 91H19.1311L25.001 43.4622C25.1531 42.2329 25.7516 41.1003 26.6848 40.2779C27.6201 39.4553 28.8244 39.0005 30.0727 39C30.0728 39 30.0729 39 30.073 39L105.889 39L105.89 39C106.615 38.9993 107.332 39.1518 107.993 39.4475C108.651 39.7427 109.241 40.1743 109.721 40.7134C110.2 41.2521 110.558 41.8858 110.772 42.5726C110.986 43.2601 111.05 43.9835 110.961 44.6949Z" stroke="#040237" stroke-width="2"></path><path d="M64 100H35" stroke="#040237" stroke-width="2.27231" stroke-linecap="round" stroke-linejoin="round"></path><path d="M95 56H37" stroke="#040237" stroke-width="2.27231" stroke-linecap="round" stroke-linejoin="round"></path><path d="M80 76H34" stroke="#040237" stroke-width="2.27231" stroke-linecap="round" stroke-linejoin="round"></path><path d="M93 66H36" stroke="#040237" stroke-width="2.27231" stroke-linecap="round" stroke-linejoin="round"></path></svg>