<svg xmlns="http://www.w3.org/2000/svg" width="145" height="145" viewBox="0 0 145 145" fill="none"><path d="M20.1569 131H102.843C112.871 131 121 122.882 121 112.869L121 33.1311C121 23.1176 112.871 15 102.843 15L20.1569 15C10.1291 15 2 23.1176 2 33.1311L2 112.869C2 122.882 10.1291 131 20.1569 131Z" fill="#6AC7B7"></path><path d="M14.993 64L6 44H15.1667L32 64" stroke="#040237" stroke-width="2" stroke-linecap="round" stroke-linejoin="round"></path><path d="M55.8179 125H48.5822C48.4816 125 48.3829 124.973 48.2955 124.924C48.2081 124.875 48.1351 124.804 48.0833 124.718C48.0316 124.633 48.003 124.535 48.0002 124.435C47.9975 124.336 48.0207 124.237 48.0676 124.148L71.4587 81H94L56.2545 124.783C56.2014 124.848 56.135 124.901 56.0597 124.938C55.9844 124.976 55.902 124.997 55.8179 125Z" stroke="#040237" stroke-width="2" stroke-linecap="round" stroke-linejoin="round"></path><path d="M94 64L62.1993 37.143C62.0905 37.0513 61.9504 37.0005 61.8053 37H54.5388C54.4408 37.0083 54.3465 37.0399 54.2645 37.0918C54.1825 37.1437 54.1153 37.2143 54.0692 37.2973C54.023 37.3802 53.9992 37.4729 54 37.5668C54.0008 37.6608 54.0262 37.7531 54.0738 37.8353L71.4992 63.9549" stroke="#040237" stroke-width="2" stroke-linecap="round" stroke-linejoin="round"></path><path d="M66.7276 81C62.4765 81.0001 58.2465 80.3869 54.1615 79.1783L16.6724 68.1128L15 64H129.31C131.719 64.0005 134.063 64.7952 136 66.2672L142.774 71.438C143.116 71.699 143.401 72.0312 143.61 72.4129C143.819 72.7945 143.948 73.2171 143.987 73.6531C144.026 74.0891 143.976 74.5288 143.839 74.9434C143.702 75.3581 143.482 75.7385 143.192 76.0599V76.0599C141.856 77.5427 140.237 78.7274 138.436 79.5403C136.636 80.3531 134.691 80.7769 132.725 80.7852L66.7276 81Z" stroke="#040237" stroke-width="2" stroke-linecap="round" stroke-linejoin="round"></path><path d="M129 70H141" stroke="#040237" stroke-width="2" stroke-linecap="round" stroke-linejoin="round"></path><path d="M89 70H119" stroke="#040237" stroke-width="2" stroke-linecap="round" stroke-linejoin="round"></path></svg>