<svg xmlns="http://www.w3.org/2000/svg" width="401" height="357" viewBox="0 0 401 357" fill="none"><g clip-path="url(#clip0_82_99)"><path d="M192.5 256C239.657 256 278 218.782 278 173C278 127.218 239.767 90 192.5 90C145.233 90 107 127.218 107 173C107 218.782 145.343 256 192.5 256Z" fill="white"></path><path d="M187.9 218.2C212.6 218.2 232.7 198.6 232.7 174.4C232.7 150.2 212.6 130.6 187.9 130.6C163.2 130.6 143.1 150.2 143.1 174.4C143.1 198.6 163.2 218.2 187.9 218.2Z" fill="#FAF4EB"></path><path d="M177.6 297.5C174.9 297.5 172.5 295.6 172 293L166 261.1H153.9C154 260.3 154 259.5 153.9 258.7H167C167.6 258.7 168.1 259.1 168.1 259.7L174.3 292.5C174.5 294 175.8 295.1 177.4 295.1H177.5H212.7C214.3 295.1 215.7 294 215.9 292.4L222.1 259.7C222.2 259.2 222.5 258.9 222.9 258.7C225.2 258 227.6 257.1 229.9 256.2L230.1 256.1C232.4 255.2 234.7 254.1 236.9 253C237.1 252.9 237.2 252.9 237.4 252.9C237.7 252.9 237.9 253 238.1 253.1L266.3 272C266.8 272.4 267.5 272.6 268.2 272.6C269.1 272.6 269.9 272.2 270.6 271.6L295.5 247.3C296.6 246.3 296.8 244.5 295.8 243.2L276.5 215.9C276.2 215.5 276.2 215.1 276.3 214.7L276.4 214.6C277.5 212.4 278.6 210.2 279.6 207.9C280.5 205.6 281.4 203.3 282.2 201C282.3 200.6 282.7 200.3 283.1 200.2L316.7 194.1C317.4 194 318.1 193.6 318.6 193.1C319.1 192.4 319.4 191.7 319.3 190.9V156.5C319.3 155.8 319.1 155.1 318.6 154.5C318.1 153.8 317.4 153.5 316.6 153.4L283 147.4C282.5 147.3 282.1 147 282 146.6C281.3 144.3 280.3 142 279.4 139.7C278.4 137.4 277.3 135.1 276.2 133C276 132.6 276 132.2 276.3 131.8L295.7 104.3C296.6 103.1 296.4 101.2 295.2 100.2L270.3 75.9004C269.8 75.4004 269.1 75.1004 268.4 75.0004H268.3C268.2 75.0004 268.1 75.0004 268 75.0004C267.3 75.0004 266.7 75.2004 266.1 75.6004L238.1 94.2004C237.8 94.4004 237.6 94.5004 237.3 94.5004C237.1 94.5004 236.9 94.4004 236.8 94.4004C234.6 93.3004 232.2 92.2004 229.9 91.3004C227.6 90.3004 225.2 89.5004 222.9 88.8004C222.4 88.7004 222 88.3004 222 87.9004L216.1 55.0004C215.9 53.5004 214.6 52.4004 213 52.4004H212.9H177.7C176.1 52.4004 174.7 53.5004 174.5 55.1004L168.3 87.7004V87.8004C168.2 88.4004 167.7 88.8004 167.1 88.8004H134C134.1 88.0004 134.1 87.2004 134 86.4004H166.1L172.1 54.5004C172.6 51.9004 174.9 49.9004 177.7 49.9004H212.9C215.6 49.9004 218 51.8004 218.5 54.4004L224.6 86.5004L225.7 86.9004C227.6 87.6004 229.5 88.2004 231.2 88.9004C233 89.6004 234.8 90.4004 236.6 91.3004L237.7 91.8004L265.3 73.3004C266.2 72.6004 267.4 72.3004 268.5 72.3004C270 72.3004 271.4 72.9004 272.5 73.9004L297.5 98.3004C299.4 100.2 299.7 103.1 298.2 105.4L279.2 132.3L279.7 133.3C280.6 135 281.4 136.8 282.1 138.5C282.8 140.3 283.6 142.1 284.2 143.9L284.6 145L317.5 150.9C320.2 151.4 322.1 153.6 322.1 156.3V191C322.1 193.7 320.2 196 317.5 196.4L284.5 202.3L284.1 203.4C283.4 205.2 282.8 207.1 282 208.8C281.3 210.6 280.5 212.3 279.6 214L279.1 215L298.1 241.9C299.6 244.1 299.4 247.1 297.4 249L272.4 273.4C271.3 274.4 269.9 275 268.4 275C267.3 275 266.1 274.7 265.2 274L237.7 255.4L236.6 255.9C234.9 256.7 233.1 257.5 231.2 258.3L231.1 258.4C229.3 259.1 227.5 259.8 225.7 260.4L224.6 260.8L218.5 292.9C218 295.5 215.7 297.4 212.9 297.4L177.6 297.5Z" fill="#3843D0"></path><path d="M192.7 230.1C192.1 230.1 191.6 229.6 191.5 229C191.5 228.7 191.6 228.4 191.8 228.2C192 228 192.3 227.8 192.6 227.8C206.2 227.4 218.9 221.9 228.5 212.3C238.5 202.3 244.1 188.9 244.1 174.7C244.1 160.5 238.6 147.2 228.5 137.1C222.1 130.7 214.1 126 205.4 123.5C203.9 123.1 202.4 122.7 200.9 122.4C200.4 122.3 200 121.8 199.9 121.3C199.9 121.2 199.9 121.2 199.9 121.1C200 120.5 200.5 120.1 201 120.1C201.1 120.1 201.1 120.1 201.2 120.1C202.8 120.4 204.4 120.8 205.9 121.2C210.4 122.5 214.7 124.3 218.7 126.6C222.8 129 226.7 132 230.1 135.4C235.4 140.7 239.5 146.9 242.3 153.8C243.6 157.1 244.7 160.6 245.3 164.1C246 167.6 246.3 171.1 246.3 174.7C246.3 178.3 246 181.8 245.3 185.3C244.6 188.8 243.6 192.3 242.3 195.6C239.5 202.5 235.4 208.7 230.1 213.9C220.2 223.9 206.9 229.6 192.7 230.1ZM167.7 224.9C167.5 224.9 167.4 224.9 167.2 224.8C165.7 224.1 164.3 223.3 162.9 222.5C158.8 220.1 155.1 217.2 151.7 213.9C146.4 208.6 142.3 202.4 139.5 195.6C138.2 192.3 137.1 188.8 136.5 185.3C135.8 181.8 135.5 178.2 135.5 174.7C135.5 171.2 135.8 167.6 136.5 164.1C137.2 160.6 138.2 157.1 139.5 153.8C142.3 146.9 146.4 140.7 151.7 135.4C155 132.1 158.8 129.2 162.8 126.8C166.7 124.5 170.9 122.7 175.3 121.4C175.4 121.4 175.5 121.3 175.6 121.3C176.1 121.3 176.6 121.6 176.7 122.1C176.9 122.7 176.5 123.4 175.9 123.5C167.4 126 159.6 130.6 153.3 136.9C143.3 146.9 137.7 160.3 137.7 174.5C137.7 188.7 143.2 202 153.3 212.1C156.5 215.3 160.1 218.1 164 220.4C165.3 221.2 166.7 221.9 168.1 222.6C168.5 222.8 168.8 223.2 168.8 223.7C168.8 223.9 168.8 224 168.7 224.2C168.6 224.6 168.2 224.9 167.7 224.9Z" fill="#3843D0"></path><path d="M191 221.499C187.9 221.499 184.7 221.199 181.6 220.599C178.5 219.999 175.5 218.999 172.6 217.799C172 217.499 171.7 216.899 172 216.299C172.2 215.899 172.6 215.599 173.1 215.599C173.3 215.599 173.4 215.599 173.6 215.699C179.1 218.099 185 219.299 191.1 219.299C203 219.299 214.2 214.699 222.6 206.199C231 197.799 235.7 186.599 235.7 174.699C235.7 162.799 231.1 151.599 222.6 143.199C222.4 142.999 222.3 142.699 222.3 142.399C222.3 142.099 222.4 141.799 222.6 141.599C222.8 141.399 223.1 141.299 223.4 141.299C223.7 141.299 224 141.399 224.2 141.599C228.7 146.099 232.2 151.299 234.5 157.099C236.8 162.699 237.9 168.699 237.9 174.799C237.9 180.899 236.7 186.799 234.5 192.499C232.1 198.299 228.7 203.499 224.2 207.999C219.7 212.499 214.5 215.899 208.7 218.299C203 220.399 197.1 221.499 191 221.499ZM153.4 201.899C153 201.899 152.7 201.699 152.4 201.399C151.5 200.099 150.6 198.699 149.8 197.199C146 190.299 144 182.499 144 174.599C144 168.499 145.2 162.599 147.4 156.899C149.8 151.099 153.2 145.799 157.7 141.399C162.2 136.899 167.4 133.499 173.2 131.099C178.8 128.799 184.8 127.699 190.9 127.699C196.2 127.699 201.5 128.599 206.5 130.299C211.7 132.099 216.4 134.799 220.6 138.199C221.1 138.599 221.2 139.299 220.8 139.799C220.6 140.099 220.2 140.199 219.9 140.199C219.6 140.199 219.4 140.099 219.2 139.899C211.3 133.399 201.2 129.799 191 129.799C179.1 129.799 167.9 134.399 159.5 142.899C151.1 151.299 146.4 162.499 146.4 174.399C146.4 181.899 148.3 189.299 151.9 195.899C152.6 197.199 153.5 198.599 154.4 199.899C154.5 200.099 154.6 200.299 154.6 200.599C154.6 200.999 154.4 201.299 154.1 201.599C153.8 201.799 153.6 201.899 153.4 201.899Z" fill="#3843D0"></path><path d="M138.8 227.9C138.5 227.9 138.2 227.8 138 227.6C137.8 227.4 137.7 227.1 137.7 226.8C137.7 226.5 137.8 226.2 138 226L151.8 212.2C152 212 152.3 211.9 152.6 211.9C152.9 211.9 153.2 212 153.4 212.2C153.6 212.4 153.7 212.7 153.7 213C153.7 213.3 153.6 213.6 153.4 213.8L139.6 227.6C139.4 227.8 139.1 227.9 138.8 227.9Z" fill="#3843D0"></path><path d="M78.7998 297.3C75.9998 297.3 73.3998 296.2 71.3998 294.2C70.3998 293.2 69.5998 292 69.0998 290.7C68.5998 289.4 68.2998 288.1 68.2998 286.7C68.2998 285.3 68.5998 284 69.0998 282.7C69.5998 281.4 70.3998 280.2 71.3998 279.2L131.4 219.2C131.6 219 131.9 218.9 132.2 218.9C132.5 218.9 132.8 219 133 219.2L146.2 232.4C146.4 232.6 146.5 232.9 146.5 233.2C146.5 233.5 146.4 233.8 146.2 234L99.6998 280.5C99.4998 280.7 99.1998 280.8 98.8998 280.8C98.5998 280.8 98.2998 280.7 98.0998 280.5C97.8998 280.3 97.7998 280 97.7998 279.7C97.7998 279.4 97.8998 279.1 98.0998 278.9L143.8 233.2L132.2 221.7L72.9998 281C71.4998 282.5 70.5998 284.6 70.5998 286.8C70.5998 289 71.3998 291 72.9998 292.6C74.4998 294.1 76.5998 295 78.7998 295C78.9998 295 79.2998 295 79.4998 295C80.1998 295 80.6998 295.5 80.7998 296.1C80.7998 296.4 80.6998 296.7 80.4998 297C80.2998 297.2 79.9998 297.4 79.6998 297.4C79.3998 297.3 79.0998 297.3 78.7998 297.3Z" fill="#3843D0"></path><path d="M302.864 279.121C303.048 277.803 304.952 277.803 305.136 279.121V279.121C305.837 284.129 309.734 288.088 314.73 288.867V288.867C316.024 289.068 316.024 290.932 314.73 291.133V291.133C309.734 291.912 305.837 295.871 305.136 300.879V300.879C304.952 302.197 303.048 302.197 302.864 300.879V300.879C302.163 295.871 298.266 291.912 293.27 291.133V291.133C291.976 290.932 291.976 289.068 293.27 288.867V288.867C298.266 288.088 302.163 284.129 302.864 279.121V279.121Z" fill="#FEC14C"></path><path d="M101.01 71.7289C101.25 69.9997 103.75 69.9997 103.99 71.7289V71.7289C104.901 78.2923 110.002 83.4862 116.548 84.5148V84.5148C118.241 84.7809 118.241 87.2191 116.548 87.4852V87.4852C110.002 88.5138 104.901 93.7077 103.99 100.271V100.271C103.75 102 101.25 102 101.01 100.271V100.271C100.099 93.7077 94.9982 88.5138 88.4523 87.4852V87.4852C86.7588 87.2191 86.7588 84.7809 88.4523 84.5148V84.5148C94.9982 83.4862 100.099 78.2923 101.01 71.7289V71.7289Z" fill="#FEC14C"></path><rect x="318" y="242" width="16" height="16" rx="8" fill="white"></rect></g><defs><clipPath id="clip0_82_99"><rect width="266" height="260" fill="white" transform="translate(68 49)"></rect></clipPath></defs></svg>