<svg xmlns="http://www.w3.org/2000/svg" width="140" height="21.88" viewBox="0 0 140 21.88"><defs><style>.a{fill:#b2c55a;}</style></defs><path class="a" d="M15.81,21.57a4.27,4.27,0,0,1-1.56-.21,1.75,1.75,0,0,1-1.05-.91,4.45,4.45,0,0,1-.36-.94c-.18-.65-.34-1.3-.52-2,0-.17,0-.17-.21-.17H6.85c-.16,0-.16,0-.21.18-.22.84-.43,1.69-.65,2.53-.08.32-.17.64-.25,1a.27.27,0,0,1-.17.2,6.23,6.23,0,0,1-1.71.32,6.62,6.62,0,0,1-1.6-.14A2.59,2.59,0,0,1,1.18,21a1.7,1.7,0,0,1-.65-1.28,3.56,3.56,0,0,1,.15-1.12c.7-2.63,1.55-5.23,2.43-7.81C3.84,8.57,4.58,6.4,5.38,4.25c.12-.34.26-.67.37-1A.44.44,0,0,1,6,3a8.38,8.38,0,0,1,1.71-.57,8.54,8.54,0,0,1,2.14-.21,7.08,7.08,0,0,1,2.65.53,2.35,2.35,0,0,1,1.22,1,3.77,3.77,0,0,1,.21.52c.71,2.07,1.33,4.16,1.95,6.26.69,2.39,1.36,4.79,2,7.18.24.89.48,1.78.74,2.66a.32.32,0,0,1-.13.39,3.32,3.32,0,0,1-1.37.64A5.09,5.09,0,0,1,15.81,21.57ZM11.39,13.2a.7.7,0,0,0-.06-.3c-.41-1.59-.85-3.16-1.3-4.74-.1-.32-.19-.64-.28-1a.13.13,0,0,0-.2-.09.27.27,0,0,0-.07.13l-.29.86C8.64,9.72,8.08,11.33,7.64,13c0,.22-.06.22.18.22h3.57Z"/><path class="a" d="M96.2,6.12a.8.8,0,0,0,0-.26V1.3c0-.13,0-.17.16-.2.33-.08.67-.14,1-.19A7.82,7.82,0,0,1,98.76.83a9.26,9.26,0,0,1,1.17.11,1.82,1.82,0,0,1,1.51,1.62,6.3,6.3,0,0,1,0,.75q0,7.3,0,14.59a2.65,2.65,0,0,1-1.19,2.27,9.19,9.19,0,0,1-2.46,1.14,9.8,9.8,0,0,1-2.16.4,14.25,14.25,0,0,1-2,0,9.43,9.43,0,0,1-3.79-.95,6.91,6.91,0,0,1-3.59-4.37A10,10,0,0,1,86,13.06a8.69,8.69,0,0,1,.58-2.8,6.77,6.77,0,0,1,4.56-4.08,10.11,10.11,0,0,1,3.42-.38A5.31,5.31,0,0,1,96,6.08Zm0,7.54V13c0-.84,0-1.68,0-2.53a.24.24,0,0,0-.15-.25,3.29,3.29,0,0,0-.6-.21,3.9,3.9,0,0,0-1.89.07,2.76,2.76,0,0,0-2,1.82,4.73,4.73,0,0,0-.26,1.23,6.28,6.28,0,0,0,.19,2.4,2.76,2.76,0,0,0,2,2,4.25,4.25,0,0,0,1.23.12,2.8,2.8,0,0,0,1.32-.41.35.35,0,0,0,.18-.34C96.25,15.79,96.25,14.73,96.25,13.66Z"/><path class="a" d="M112.36,21.75a9.38,9.38,0,0,1-3-.38,7,7,0,0,1-4.85-4.73,9.09,9.09,0,0,1-.41-2.2,10.3,10.3,0,0,1,0-1.57,7.76,7.76,0,0,1,1.66-4.34,6.91,6.91,0,0,1,2.93-2.13,8.73,8.73,0,0,1,2.51-.58,9.78,9.78,0,0,1,3.77.36,7.13,7.13,0,0,1,5,5.18,9,9,0,0,1,.3,2.83,9.29,9.29,0,0,1-.64,3.12,6.78,6.78,0,0,1-4,3.88,9.13,9.13,0,0,1-2.37.52A8.4,8.4,0,0,1,112.36,21.75Zm2.56-8c0-.19,0-.38,0-.56a5.07,5.07,0,0,0-.4-1.8,2.41,2.41,0,0,0-1.4-1.38,2.75,2.75,0,0,0-1.53-.08,2.19,2.19,0,0,0-1.24.76,3.41,3.41,0,0,0-.66,1.35,7.22,7.22,0,0,0-.17,2.36,4.53,4.53,0,0,0,.34,1.54,2.71,2.71,0,0,0,.88,1.2,2.41,2.41,0,0,0,1.74.47,2.22,2.22,0,0,0,1.76-1,3.61,3.61,0,0,0,.42-.86A5.77,5.77,0,0,0,114.92,13.78Z"/><path class="a" d="M44.17,21.75a9.26,9.26,0,0,1-3.38-.52,7,7,0,0,1-4.39-4.47A8.76,8.76,0,0,1,36,14.33,10.43,10.43,0,0,1,36,13,7.6,7.6,0,0,1,38.21,7.9a7.26,7.26,0,0,1,3.11-1.76,10.11,10.11,0,0,1,3.37-.34,8.18,8.18,0,0,1,4.07,1.26,7.09,7.09,0,0,1,3,4A9.7,9.7,0,0,1,52.11,13a9,9,0,0,1,0,1.27,8.45,8.45,0,0,1-.84,3.55,6.73,6.73,0,0,1-3.79,3.41,8.9,8.9,0,0,1-2.39.53A8.48,8.48,0,0,1,44.17,21.75Zm-2.85-8.06a6.27,6.27,0,0,0,.31,2.14,2.88,2.88,0,0,0,.87,1.3,2.45,2.45,0,0,0,1.84.51,2.27,2.27,0,0,0,1.88-1.28,4,4,0,0,0,.38-1.06,7.64,7.64,0,0,0,.14-2,6.09,6.09,0,0,0-.23-1.47,3.17,3.17,0,0,0-.67-1.22,2.39,2.39,0,0,0-2.1-.73,2.28,2.28,0,0,0-1.61.85,3.45,3.45,0,0,0-.59,1.18A6.36,6.36,0,0,0,41.32,13.69Z"/><path class="a" d="M83.43,14.73c0,1.16,0,2.32,0,3.47a2.31,2.31,0,0,1-1,2,6.63,6.63,0,0,1-2.38,1.14,12.12,12.12,0,0,1-2.47.4,17.92,17.92,0,0,1-2.2,0A9.65,9.65,0,0,1,71.84,21a4.55,4.55,0,0,1-2.35-2.2,4.78,4.78,0,0,1-.39-1.54,5.8,5.8,0,0,1,.14-1.9,3.68,3.68,0,0,1,1.88-2.42,7.09,7.09,0,0,1,2.19-.74c.6-.11,1.21-.17,1.82-.23l1.82-.2,1.21-.13c.19,0,.16-.06.16-.18a1.34,1.34,0,0,0-.88-1.37,4.43,4.43,0,0,0-1.18-.29,9.63,9.63,0,0,0-1.2,0,11.25,11.25,0,0,0-3.45.63,4.09,4.09,0,0,0-.49.18.24.24,0,0,1-.28,0,2.21,2.21,0,0,1-.51-.67,2.63,2.63,0,0,1-.22-2,1.79,1.79,0,0,1,.68-.94,4.56,4.56,0,0,1,1.58-.69,13.82,13.82,0,0,1,1.91-.31,15.85,15.85,0,0,1,2.48-.07,10.14,10.14,0,0,1,3.32.64A5.61,5.61,0,0,1,82,7.64a4.73,4.73,0,0,1,1.34,2.61,6.6,6.6,0,0,1,.1,1.17Zm-5.07,1.59v-.89c0-.42.07-.37-.38-.34-.68,0-1.37.1-2.06.17a3.08,3.08,0,0,0-1.22.36.93.93,0,0,0-.52.67A1.26,1.26,0,0,0,75,17.74a2.54,2.54,0,0,0,.87.17,6.64,6.64,0,0,0,1.54-.09,3.89,3.89,0,0,0,.81-.22.22.22,0,0,0,.15-.23C78.35,17,78.36,16.67,78.36,16.32Z"/><path class="a" d="M34.39,8a6.9,6.9,0,0,1-.24,1.5,53.43,53.43,0,0,1-1.89,5.91c-.52,1.38-1.06,2.76-1.67,4.11-.19.41-.39.81-.58,1.22a.61.61,0,0,1-.21.24,4.35,4.35,0,0,1-1.41.52,7.3,7.3,0,0,1-1.4.14,7,7,0,0,1-1.94-.19,3.74,3.74,0,0,1-.75-.28,1.91,1.91,0,0,1-.85-.86,26.73,26.73,0,0,1-1.05-2.46q-1.08-2.76-2-5.57c-.55-1.68-1.06-3.37-1.48-5.08a.25.25,0,0,1,.1-.3A4.18,4.18,0,0,1,21.24,6a4.26,4.26,0,0,1,1.55.14,2.16,2.16,0,0,1,1.43,1.27,8.1,8.1,0,0,1,.39,1.27c.53,2.06,1.05,4.12,1.58,6.18.18.69.37,1.38.55,2.08a.24.24,0,0,1,0,.08.1.1,0,0,0,.1.08A.09.09,0,0,0,27,17a1.66,1.66,0,0,0,.06-.21c.47-1.85.92-3.69,1.34-5.54.33-1.47.65-3,.94-4.43v0a.41.41,0,0,1,.3-.38A6.2,6.2,0,0,1,30.86,6a4.58,4.58,0,0,1,1.77,0,3,3,0,0,1,.94.34,1.52,1.52,0,0,1,.77,1.1A2,2,0,0,1,34.39,8Z"/><path class="a" d="M54.06,13.87a9,9,0,0,1,.43-3,7,7,0,0,1,4-4.35,9,9,0,0,1,2.85-.69,10.11,10.11,0,0,1,2.13,0,5.14,5.14,0,0,1,2.15.66,2.62,2.62,0,0,1,1.22,1.44,2.31,2.31,0,0,1-.16,1.8,3.75,3.75,0,0,1-.54.78.19.19,0,0,1-.26.06A7.42,7.42,0,0,0,64.09,10a4.7,4.7,0,0,0-2.49.22,3.34,3.34,0,0,0-2.07,2.33,4.79,4.79,0,0,0,0,2.52,3.22,3.22,0,0,0,2,2.23,4,4,0,0,0,1.19.27,6,6,0,0,0,3-.59.3.3,0,0,1,.35,0A2.91,2.91,0,0,1,67,18.1a2.26,2.26,0,0,1-1.1,3,5.4,5.4,0,0,1-1.65.53,10.18,10.18,0,0,1-1.83.13A10,10,0,0,1,58.63,21a7.24,7.24,0,0,1-4.33-5A7.59,7.59,0,0,1,54.06,13.87Z"/><path class="a" d="M134.48,4.16c.29-.06.58-.15.87-.18a4.73,4.73,0,0,1,2.52.33,2.87,2.87,0,0,1,1.54,1.75,4.22,4.22,0,0,1,0,2.74,3.21,3.21,0,0,1-1.55,1.86,5.06,5.06,0,0,1-2.12.59,9.55,9.55,0,0,1-1.31,0,5.36,5.36,0,0,1-1.77-.4,2.15,2.15,0,0,1-.94-.72,1.43,1.43,0,0,1,.14-1.82A4.23,4.23,0,0,1,132.3,8a.18.18,0,0,1,.25,0,7,7,0,0,0,.87.53,3.28,3.28,0,0,0,1.15.31,3.71,3.71,0,0,0,1-.05,1.23,1.23,0,0,0,1-1.41,1,1,0,0,0-.72-.93,2.36,2.36,0,0,0-.88-.09,2.58,2.58,0,0,0-1.06.29,1,1,0,0,1-.65.09,2.26,2.26,0,0,1-.94-.37,1.42,1.42,0,0,1-.52-.76,3.07,3.07,0,0,1-.07-1.13c0-.44.07-.88.11-1.32s.08-1.1.13-1.65a1.68,1.68,0,0,1,.46-1,1.39,1.39,0,0,1,.89-.43,4.09,4.09,0,0,1,.61,0h4.66a.33.33,0,0,1,.36.24,2.48,2.48,0,0,1,.18,1.4,1,1,0,0,1-1,.84c-1.08,0-2.15,0-3.23,0-.28,0-.29,0-.3.28s-.05.79-.09,1.18A.42.42,0,0,0,134.48,4.16Z"/><path class="a" d="M125.05,4.17l.63-.14a5,5,0,0,1,2.2.07,3,3,0,0,1,2.25,2.41A4.33,4.33,0,0,1,130,8.85a3.2,3.2,0,0,1-1.45,1.76,5,5,0,0,1-2.24.64,9.67,9.67,0,0,1-1.7-.06,4.17,4.17,0,0,1-1.61-.48,2,2,0,0,1-.66-.56,1.42,1.42,0,0,1,.12-1.84,2.67,2.67,0,0,1,.36-.31c.21-.14.18-.11.34,0a5.8,5.8,0,0,0,1.06.6,3.11,3.11,0,0,0,.9.21,3.62,3.62,0,0,0,1-.05,1.29,1.29,0,0,0,.7-2,1.07,1.07,0,0,0-.73-.38,2.64,2.64,0,0,0-1.66.25,1.09,1.09,0,0,1-.81.07,1.86,1.86,0,0,1-.87-.39,1.53,1.53,0,0,1-.52-1,5.06,5.06,0,0,1,0-1.23c0-.48.07-1,.11-1.44a9.54,9.54,0,0,1,.14-1.31A1.49,1.49,0,0,1,123.74.06a2.68,2.68,0,0,1,.63,0h4.78c.25,0,.25,0,.35.24a2.32,2.32,0,0,1,.17,1.42.94.94,0,0,1-1,.82h-3.14c-.1,0-.23,0-.32,0s0,.2-.06.31c0,.3-.05.6-.07.91C125.07,3.86,125.06,4,125.05,4.17Z"/></svg>