<?xml version="1.0" encoding="UTF-8"?>
<svg width="150px" height="35px" viewBox="0 0 150 35" version="1.1" xmlns="http://www.w3.org/2000/svg" xmlns:xlink="http://www.w3.org/1999/xlink">
    <title>CNX_logo_White_Color</title>
    <g id="ðŸ-Logos" stroke="none" stroke-width="1" fill="none" fill-rule="evenodd">
        <g id="Group" transform="translate(0.000000, 0.782609)">
            <path d="M0.376884422,6.59547739 C-0.829145729,10.3643216 2.14824121,15 7.91457286,19.2211055 C3.61809045,15.4899497 1.50753769,11.6080402 2.60050251,8.36683417 C4.8241206,1.58291457 19.9371859,-0.188442211 36.3693467,4.86180905 C40.8919598,6.25628141 45.0376884,7.46231156 48.6557789,9.38442211 C44.5854271,6.97236181 39.6482412,4.97487437 34.1834171,3.27889447 C17.7135678,-1.77135678 2.60050251,-0.188442211 0.376884422,6.59547739" id="Path" fill="#093479" fill-rule="nonzero"></path>
            <path d="M18.6557789,22.4623116 C12.6256281,19.0326633 9.15829146,14.6231156 10.1005025,11.0050251 C10.7788945,8.4798995 13.5301508,6.67085427 17.4874372,5.99246231 C12.4748744,6.40703518 8.59296482,8.32914573 7.80150754,11.2688442 C6.82160804,15.0753769 10.5904523,19.6356784 17.0728643,23.178392 L18.6557789,22.4623116" id="Path" fill="#00929F" fill-rule="nonzero"></path>
            <path d="M18.0527638,13.4170854 C19.1080402,10.2135678 25.138191,9.08291457 34.1080402,11.9095477 C38.1407035,13.1909548 41.6080402,14.9623116 43.7939698,16.8844221 C41.6080402,15.2638191 38.5929648,13.7939698 35.1256281,12.7386935 C27.3241206,10.3643216 20.1256281,11.0050251 19.0703518,14.2462312 C18.580402,15.7914573 19.5603015,17.638191 21.5954774,19.4095477 C18.919598,17.3743719 17.4874372,15.1884422 18.0527638,13.4170854" id="Path" fill="#F15D22" fill-rule="nonzero"></path>
            <path d="M37.6507538,19.7864322 C36.8592965,21.7462312 32.6758794,21.2939698 29.0954774,20.0502513 C27.2487437,19.4095477 25.7035176,18.5050251 24.7236181,17.6005025 C25.7035176,18.3919598 27.361809,19.0326633 28.6809045,19.4472362 C32.2613065,20.6155779 35.8417085,20.2386935 36.3693467,19.1457286 C37.3869347,17.0351759 34.0703518,15.7537688 32.2613065,15.2261307 C33.7311558,15.5276382 34.4095477,15.8668342 35.4271357,16.3190955 C37.5753769,17.5628141 38.0653266,18.8442211 37.6507538,19.7864322" id="Path" fill="#FFD200" fill-rule="nonzero"></path>
            <path d="M12.0226131,26.0427136 C12.3241206,26.3065327 12.7386935,26.4572864 13.379397,26.4572864 C14.2085427,26.4572864 14.8869347,26.1180905 14.8869347,25.6658291 C14.8869347,24.8366834 12.6633166,23.6306533 8.9321608,23.6306533 C3.73115578,23.6306533 0.753768844,25.8919598 0.753768844,28.6809045 C0.753768844,31.3567839 3.31658291,33.8442211 9.04522613,33.8442211 C12.7386935,33.8442211 14.6984925,32.638191 14.6984925,32.0728643 C14.6984925,31.8090452 14.321608,31.620603 13.8693467,31.620603 C13.5678392,31.620603 13.4547739,31.6582915 12.9271357,31.8844221 C12.5125628,32.0351759 11.4572864,32.4497487 9.87437186,32.4497487 C6.89698492,32.4497487 4.40954774,30.9422111 4.40954774,28.2286432 C4.40954774,26.0050251 6.33165829,24.7613065 8.66834171,24.7613065 C10.5150754,24.7613065 11.3065327,25.4396985 12.0226131,26.0427136" id="Path" fill="#093479"></path>
            <path d="M31.9974874,28.4924623 C31.8090452,25.8919598 29.0201005,23.6306533 23.9698492,23.6306533 C18.8065327,23.6306533 15.8291457,25.8919598 15.8291457,28.7562814 C15.8291457,32.1105528 19.5979899,33.8442211 23.9321608,33.8442211 C28.7939698,33.8819095 32.2236181,31.5829146 31.9974874,28.4924623 M28.4170854,28.5301508 C28.4547739,29.4723618 28.2286432,30.5653266 27.4371859,31.3567839 C26.4949749,32.2613065 25.1005025,32.5628141 23.9698492,32.5628141 C22.9899497,32.5628141 20.3517588,32.298995 19.6356784,30.0376884 C19.5226131,29.660804 19.4472362,29.2085427 19.4472362,28.6432161 C19.4472362,27.8894472 19.5603015,25.9296482 22.0477387,25.138191 C22.6130653,24.9497487 23.2914573,24.8743719 23.9698492,24.8743719 C24.459799,24.8743719 26.1180905,24.9120603 27.361809,25.9673367 C28.2663317,26.758794 28.4170854,27.7763819 28.4170854,28.5301508 Z" id="Shape" fill="#093479"></path>
            <path d="M37.5,24.120603 C37.2361809,23.8944724 37.1231156,23.8567839 36.6708543,23.8567839 L34.7487437,23.8567839 C34.4095477,23.8567839 34.1834171,23.8944724 34.1834171,24.1582915 L34.1834171,33.3919598 C34.1834171,33.6557789 34.3341709,33.6557789 34.7487437,33.6557789 L36.3316583,33.6557789 C36.7462312,33.6557789 36.821608,33.580402 36.821608,33.3542714 L36.821608,26.6457286 L45.6030151,33.3542714 C45.8668342,33.580402 45.9422111,33.6180905 46.281407,33.6557789 L47.7135678,33.6557789 C48.0904523,33.6557789 48.241206,33.6180905 48.241206,33.3919598 L48.241206,24.120603 C48.241206,23.8944724 48.1281407,23.8190955 47.7512563,23.8567839 L46.1683417,23.8567839 C45.7537688,23.8567839 45.678392,23.9321608 45.678392,24.120603 L45.678392,30.3015075 L37.5,24.120603" id="Path" fill="#093479"></path>
            <path d="M61.8467337,26.0427136 C62.1482412,26.3065327 62.5628141,26.4572864 63.2035176,26.4572864 C64.0326633,26.4572864 64.7110553,26.1180905 64.7110553,25.6658291 C64.7110553,24.8366834 62.4874372,23.6306533 58.7562814,23.6306533 C53.5175879,23.6306533 50.5778894,25.8919598 50.5778894,28.6809045 C50.5778894,31.3567839 53.1407035,33.8442211 58.8316583,33.8442211 C62.5251256,33.8442211 64.4849246,32.638191 64.4849246,32.0728643 C64.4849246,31.8090452 64.1080402,31.620603 63.6557789,31.620603 C63.3542714,31.620603 63.241206,31.6582915 62.7135678,31.8844221 C62.298995,32.0351759 61.2437186,32.4497487 59.660804,32.4497487 C56.6834171,32.4497487 54.1959799,30.9422111 54.1959799,28.2286432 C54.1959799,26.0050251 56.1180905,24.7613065 58.4547739,24.7613065 C60.339196,24.7613065 61.1306533,25.4396985 61.8467337,26.0427136" id="Path" fill="#093479"></path>
            <path d="M76.0175879,29.1708543 C76.4321608,29.1708543 76.5829146,29.1331658 76.5829146,28.9070352 L76.5829146,28.2286432 C76.5829146,28.0025126 76.4321608,27.9648241 76.0552764,27.9648241 L70.9673367,27.9648241 L70.9673367,25.1005025 L76.9974874,25.1005025 C77.4120603,25.1005025 77.6005025,25.0628141 77.5628141,24.798995 L77.5628141,24.120603 C77.6005025,23.8567839 77.3366834,23.8567839 76.9974874,23.8567839 L68.178392,23.8567839 C67.7261307,23.8567839 67.5753769,23.9321608 67.5753769,24.2336683 L67.5753769,33.3165829 C67.5753769,33.6180905 67.7638191,33.6180905 68.178392,33.6180905 L76.9974874,33.6180905 C77.4120603,33.6180905 77.5251256,33.580402 77.5628141,33.4296482 L77.5628141,32.638191 C77.5628141,32.3743719 77.3743719,32.3743719 76.9974874,32.3743719 L70.9673367,32.3743719 L70.9673367,29.1708543 L76.0175879,29.1708543" id="Path" fill="#093479"></path>
            <path d="M83.7437186,24.120603 C83.4798995,23.8944724 83.3668342,23.8567839 82.9145729,23.8567839 L81.0301508,23.8567839 C80.6909548,23.8567839 80.4648241,23.8944724 80.4648241,24.1582915 L80.4648241,33.3919598 C80.4648241,33.6557789 80.6155779,33.6557789 81.0301508,33.6557789 L82.6130653,33.6557789 C83.0276382,33.6557789 83.1030151,33.580402 83.1030151,33.3542714 L83.1030151,26.6457286 L91.8467337,33.3542714 C92.1105528,33.580402 92.1859296,33.6180905 92.5251256,33.6557789 L93.9572864,33.6557789 C94.3341709,33.6557789 94.4849246,33.6180905 94.4849246,33.3919598 L94.4849246,24.120603 C94.4849246,23.8944724 94.3718593,23.8190955 93.9949749,23.8567839 L92.4120603,23.8567839 C91.9974874,23.8567839 91.9221106,23.9321608 91.9221106,24.120603 L91.9221106,30.3015075 L83.7437186,24.120603" id="Path" fill="#093479"></path>
            <path d="M108.39196,25.1005025 C108.844221,25.1005025 108.957286,25.0251256 108.957286,24.798995 L108.957286,24.120603 C108.957286,23.8944724 108.768844,23.8567839 108.39196,23.8567839 L97.2361809,23.8567839 C96.8592965,23.8567839 96.6708543,23.8944724 96.6708543,24.1582915 L96.6708543,24.798995 C96.6708543,25.0251256 96.7839196,25.1005025 97.2361809,25.1005025 L101.080402,25.1005025 L101.080402,33.3165829 C101.080402,33.580402 101.231156,33.6180905 101.683417,33.6557789 L103.982412,33.6557789 C104.396985,33.6557789 104.51005,33.5427136 104.51005,33.3165829 L104.51005,25.1005025 L108.39196,25.1005025" id="Path" fill="#093479"></path>
            <path d="M111.105528,33.3542714 C111.105528,33.6180905 111.29397,33.6557789 111.670854,33.6557789 L113.894472,33.6557789 C114.384422,33.6557789 114.459799,33.580402 114.459799,33.3165829 L114.459799,29.8115578 C114.459799,29.6984925 114.459799,29.4346734 114.987437,29.4346734 C115.477387,29.4346734 115.778894,29.660804 115.89196,29.8115578 L119.698492,33.3542714 C119.962312,33.580402 120,33.6180905 120.527638,33.6180905 L123.090452,33.6180905 C123.278894,33.6180905 123.580402,33.6180905 123.580402,33.4296482 C123.580402,33.3542714 123.467337,33.241206 123.39196,33.1658291 L118.643216,29.0954774 C120.414573,28.7939698 122.600503,28.0025126 122.600503,26.4572864 C122.600503,25.6658291 122.072864,24.9120603 120.942211,24.4221106 C119.434673,23.7437186 117.173367,23.7060302 115.703518,23.7060302 C114.045226,23.7060302 112.085427,23.8190955 111.520101,23.9321608 C111.180905,24.0075377 111.105528,24.0829146 111.105528,24.3844221 L111.105528,33.3542714 M114.459799,24.8743719 C114.723618,24.8743719 115.062814,24.8366834 115.590452,24.8366834 C116.570352,24.8366834 119.208543,24.8366834 119.208543,26.7211055 C119.208543,28.0025126 117.625628,28.4924623 116.11809,28.6055276 C115.703518,28.6432161 115.40201,28.6432161 114.459799,28.6055276 L114.459799,24.8743719 L114.459799,24.8743719 Z" id="Shape" fill="#093479"></path>
            <path d="M129.233668,24.1582915 C129.233668,23.8944724 129.082915,23.8567839 128.70603,23.8567839 L126.29397,23.8567839 C125.841709,23.8567839 125.766332,23.9698492 125.766332,24.1582915 L125.766332,33.3542714 C125.766332,33.6180905 125.954774,33.6557789 126.331658,33.6557789 L128.70603,33.6557789 C129.045226,33.6557789 129.271357,33.6180905 129.271357,33.3542714 L129.271357,24.1582915" id="Path" fill="#093479"></path>
            <path d="M141.29397,33.3542714 C141.557789,33.6180905 141.633166,33.6180905 142.123116,33.6180905 L144.572864,33.6180905 C144.761307,33.6180905 145.062814,33.6180905 145.062814,33.4296482 C145.062814,33.3542714 144.987437,33.2788945 144.91206,33.2035176 L139.861809,28.2663317 L144.120603,24.2713568 C144.19598,24.1959799 144.271357,24.120603 144.271357,24.0452261 C144.271357,23.8567839 143.969849,23.8567839 143.819095,23.8567839 L142.085427,23.8567839 C141.633166,23.8567839 141.595477,23.8567839 141.29397,24.120603 L138.429648,26.8341709 L135.640704,24.120603 C135.376884,23.8944724 135.301508,23.8567839 134.773869,23.8567839 L132.474874,23.8567839 C132.324121,23.8567839 132.399497,23.8567839 132.399497,24.0452261 C132.399497,24.0829146 132.437186,24.1582915 132.512563,24.2336683 L136.469849,28.6432161 L131.947236,33.241206 C131.758794,33.3919598 131.721106,33.4673367 131.721106,33.5050251 C131.721106,33.6557789 132.060302,33.6557789 132.248744,33.6557789 L133.605528,33.6557789 C134.020101,33.6557789 134.095477,33.6180905 134.359296,33.3919598 L137.90201,30.1130653 L141.29397,33.3542714" id="Path" fill="#093479"></path>
            <path d="M58.0025126,21.0301508 C54.8743719,16.1306533 48.3165829,10.9296482 38.8567839,7.7638191 C30.6030151,4.97487437 21.1432161,3.54271357 15.0376884,3.95728643 C20.879397,4.14572864 27.361809,5.0879397 35.3140704,7.57537688 C45.339196,10.7035176 52.2361809,16.0929648 55.4020101,21.1432161 C55.4020101,21.1432161 56.0050251,21.1055276 56.5703518,21.0678392 C57.4371859,20.9547739 58.0025126,21.0301508 58.0025126,21.0301508" id="Path" fill="#C1D82F" fill-rule="nonzero"></path>
            <polygon id="Path" fill="#093479" fill-rule="nonzero" points="145.89196 21.5201005 145.100503 21.5201005 145.100503 21.218593 147.060302 21.218593 147.060302 21.5201005 146.231156 21.5201005 146.231156 23.8567839 145.89196 23.8567839"></polygon>
            <path d="M149.547739,22.6884422 C149.51005,22.3115578 149.51005,21.8969849 149.51005,21.5577889 L149.51005,21.5577889 C149.434673,21.8592965 149.321608,22.1984925 149.170854,22.5753769 L148.718593,23.8567839 L148.454774,23.8567839 L148.040201,22.6130653 C147.927136,22.2361809 147.81407,21.8969849 147.738693,21.5954774 L147.738693,21.5954774 C147.738693,21.9346734 147.701005,22.3492462 147.701005,22.7638191 L147.625628,23.8944724 L147.286432,23.8944724 L147.474874,21.2562814 L147.889447,21.2562814 L148.341709,22.5376884 C148.454774,22.8768844 148.530151,23.1407035 148.605528,23.4422111 L148.605528,23.4422111 C148.680905,23.178392 148.756281,22.8768844 148.869347,22.5376884 L149.321608,21.2562814 L149.736181,21.2562814 L149.886935,23.8944724 L149.547739,23.8944724 L149.547739,22.6884422 Z" id="Path" fill="#093479" fill-rule="nonzero"></path>
        </g>
    </g>
</svg>