<svg width="36" height="38" viewBox="0 0 36 38" fill="none" xmlns="http://www.w3.org/2000/svg">
<path d="M17.54 36.005V30.655C17.54 27.365 14.87 24.695 11.58 24.695H7.08C3.79 24.695 1.12 27.365 1.12 30.655V36.005" stroke="#040237" stroke-width="2" stroke-miterlimit="10" stroke-linecap="round"/>
<path d="M13.5 20.505H21.12" stroke="#040237" stroke-width="2" stroke-miterlimit="10" stroke-linecap="round" stroke-linejoin="round"/>
<path d="M22.26 24.615L25.19 20.505H33.14C34.1 20.505 34.88 19.725 34.88 18.765V3.735C34.88 2.775 34.1 1.995 33.14 1.995H12.54C11.58 1.995 10.8 2.775 10.8 3.735V9.39499" stroke="#040237" stroke-width="2" stroke-miterlimit="10" stroke-linecap="round" stroke-linejoin="round"/>
<path d="M27.89 12.955C28.746 12.955 29.44 12.261 29.44 11.405C29.44 10.5489 28.746 9.85498 27.89 9.85498C27.0339 9.85498 26.34 10.5489 26.34 11.405C26.34 12.261 27.0339 12.955 27.89 12.955Z" fill="#040237"/>
<path d="M19.22 12.955C20.0761 12.955 20.77 12.261 20.77 11.405C20.77 10.5489 20.0761 9.85498 19.22 9.85498C18.364 9.85498 17.67 10.5489 17.67 11.405C17.67 12.261 18.364 12.955 19.22 12.955Z" fill="#040237"/>
<path d="M23.57 12.955C24.4261 12.955 25.12 12.261 25.12 11.405C25.12 10.5489 24.4261 9.85498 23.57 9.85498C22.714 9.85498 22.02 10.5489 22.02 11.405C22.02 12.261 22.714 12.955 23.57 12.955Z" fill="#040237"/>
<path d="M9.33003 22.035C12.6714 22.035 15.38 19.3263 15.38 15.985C15.38 12.6437 12.6714 9.935 9.33003 9.935C5.98871 9.935 3.28003 12.6437 3.28003 15.985C3.28003 19.3263 5.98871 22.035 9.33003 22.035Z" stroke="#040237" stroke-width="2" stroke-miterlimit="10" stroke-linecap="round"/>
<path d="M22.26 24.615L25.19 20.505H33.14C34.1 20.505 34.88 19.725 34.88 18.765V15.435" stroke="#F5768F" stroke-width="2" stroke-miterlimit="10" stroke-linecap="round" stroke-linejoin="round"/>
</svg>
