<?xml version="1.0" encoding="UTF-8"?>
<svg width="92px" height="60px" viewBox="0 0 92 60" version="1.1" xmlns="http://www.w3.org/2000/svg" xmlns:xlink="http://www.w3.org/1999/xlink">
    <title>majorel_logo</title>
    <defs>
        <linearGradient x1="0.0549613785%" y1="49.995668%" x2="99.9592989%" y2="49.995668%" id="linearGradient-1">
            <stop stop-color="#1226AA" offset="7.58%"></stop>
            <stop stop-color="#1226AA" stop-opacity="0" offset="68.93%"></stop>
        </linearGradient>
    </defs>
    <g id="ðŸ-Logos" stroke="none" stroke-width="1" fill="none" fill-rule="evenodd">
        <g id="majorel_logo" transform="translate(0.266667, 0.000000)" fill-rule="nonzero">
            <g id="Group" transform="translate(0.586667, 35.826087)" fill="#1226AA">
                <path d="M44.0863768,18.6484211 C44.0863768,21.2850526 43.7457391,23.7389474 39.893913,23.9738947 C39.6842899,24 39.4353623,24 39.1864348,24 L39.1864348,21.9507368 C39.3305507,21.9507368 39.4877681,21.9507368 39.6056812,21.9246316 C41.3874783,21.7288421 41.5184928,20.3713684 41.5184928,18.7136842 L41.5184928,5.43915789 L44.0994783,5.43915789 L44.0994783,18.6484211 L44.0863768,18.6484211 Z" id="Path"></path>
                <path d="M46.9817971,12.1221053 C46.9817971,8.54568421 49.6282899,5.03452632 54.1613913,5.03452632 C58.6944928,5.03452632 61.3409855,8.54568421 61.3409855,12.1482105 C61.3409855,15.7507368 58.6944928,19.2357895 54.1613913,19.2357895 C49.6282899,19.2357895 46.9817971,15.7507368 46.9817971,12.1482105 L46.9817971,12.1221053 Z M49.5627826,12.1743158 C49.5627826,14.8370526 51.5935072,16.8341053 54.1744928,16.8341053 C56.7554783,16.8341053 58.7862029,14.8370526 58.7862029,12.1482105 C58.7862029,9.45936842 56.7554783,7.46231579 54.1744928,7.46231579 C51.5935072,7.46231579 49.5627826,9.45936842 49.5627826,12.1482105 L49.5627826,12.1743158 Z" id="Shape"></path>
                <path d="M63.9874783,5.43915789 L66.4112464,5.43915789 L66.4112464,7.41010526 C67.1842319,5.83073684 68.586087,5.06063158 70.4202899,5.03452632 L70.4202899,7.60589474 L70.249971,7.60589474 C67.8262029,7.60589474 66.5553623,8.93726316 66.5553623,11.6 L66.5553623,18.8572632 L63.9743768,18.8572632 L63.9743768,5.43915789 L63.9874783,5.43915789 Z" id="Path"></path>
                <path d="M73.2108986,12.9705263 C73.3288116,15.6854737 75.7132754,17.0690526 77.744,17.0690526 C79.552,17.0690526 80.8883478,16.2075789 81.6351304,14.7978947 L84.3078261,14.7978947 C83.6658551,16.2728421 82.7225507,17.3953684 81.5827246,18.1263158 C80.4428986,18.8964211 79.1065507,19.2618947 77.744,19.2618947 C73.3288116,19.2618947 70.6037101,15.7376842 70.6037101,12.1743158 C70.6037101,8.32378947 73.6301449,5.03452632 77.7177971,5.03452632 C79.6568116,5.03452632 81.4124058,5.75242105 82.6963478,7.00547368 C84.2816232,8.61094737 84.9497971,10.7124211 84.7270725,12.9574737 L73.2108986,12.9574737 L73.2108986,12.9705263 Z M82.1722899,10.9604211 C82.0543768,9.18526316 80.2594783,7.18821053 77.7177971,7.22736842 C75.0975072,7.22736842 73.3812174,9.13305263 73.2633043,10.9604211 L82.1722899,10.9604211 Z" id="Shape"></path>
                <polygon id="Path" points="87.2556522 0.596631579 89.8366377 0.596631579 89.8366377 18.8572632 87.2556522 18.8572632"></polygon>
                <path d="M35.1511884,5.43915789 L35.1511884,7.09684211 C33.8934493,5.85684211 32.164058,5.08673684 30.2774493,5.08673684 C26.4125217,5.08673684 23.2812754,8.25852632 23.2812754,12.1482105 C23.2812754,16.0378947 26.4256232,19.2096842 30.2774493,19.2096842 C32.1771594,19.2096842 33.8934493,18.4395789 35.1511884,17.1995789 L35.1511884,18.8572632 L37.7321739,18.8572632 L37.7321739,5.43915789 L35.1511884,5.43915789 Z M30.2774493,16.7296842 C27.7881739,16.7296842 25.7705507,14.6673684 25.7705507,12.1482105 C25.7705507,9.616 27.7881739,7.56673684 30.2774493,7.56673684 C32.7667246,7.56673684 34.7843478,9.62905263 34.7843478,12.1482105 C34.7843478,14.6804211 32.7536232,16.7296842 30.2774493,16.7296842 Z" id="Shape"></path>
                <path d="M14.7653333,5.12589474 C12.9573333,5.12589474 11.3589565,5.96126316 10.2977391,7.26652632 C9.24962319,5.96126316 7.63814493,5.12589474 5.83014493,5.12589474 C4.5462029,5.12589474 3.35397101,5.55663158 2.39756522,6.26147368 L2.39756522,5.46526316 L0,5.46526316 L0,18.8833684 L0.104811594,18.8833684 L2.41066667,18.8833684 L2.64649275,18.8833684 L2.64649275,10.8429474 C2.64649275,9.08084211 4.07455072,7.65810526 5.84324638,7.65810526 C7.61194203,7.65810526 9.04,9.08084211 9.04,10.8429474 L9.04,18.8833684 L11.5816812,18.8833684 L11.5816812,10.8429474 C11.5816812,9.08084211 13.0097391,7.65810526 14.7784348,7.65810526 C16.5471304,7.65810526 17.9751884,9.08084211 17.9751884,10.8429474 L17.9751884,18.8833684 L20.5168696,18.8833684 L20.5168696,10.8429474 C20.4906667,7.68421053 17.9227826,5.12589474 14.7653333,5.12589474 Z" id="Path"></path>
                <ellipse id="Oval" cx="42.8548406" cy="1.95410526" rx="1.69008696" ry="1.68378947"></ellipse>
            </g>
            <path d="M54.8350327,27.9765151 C57.92,30.2468662 61.1095425,32.5836018 64.665098,33.5129853 C64.3252288,33.8714618 63.9853595,34.2166613 63.6454902,34.5353071 C60.3383007,33.4997084 57.3971242,31.415234 54.547451,29.3174827 C53.789281,28.1756687 52.9657516,27.0338547 52.050719,25.9849791 C52.9918954,26.6222706 53.9069281,27.2993929 54.8350327,27.9765151 Z M61.1618301,36.4339048 C61.3186928,36.3409664 61.4755556,36.2480281 61.6324183,36.1418128 C59.6847059,35.1858755 57.8938562,33.5793698 56.1422222,31.840095 C58.1030065,34.9336143 59.6193464,37.3367345 61.1618301,36.4339048 Z M32.7304575,28.6801912 C32.7304575,28.6801912 38.1422222,21.6965382 44.0245752,21.6965382 C48.7173856,21.6965382 51.5278431,25.4007952 51.5278431,25.4007952 C52.8742484,25.9849791 54.2598693,26.6621013 55.6585621,27.3525005 C59.0311111,28.9988369 62.4951634,30.698281 66.3383007,31.5745569 C66.6128105,31.2293573 66.8873203,30.8708808 67.174902,30.5124043 C63.2402614,29.7157899 59.6585621,27.9632382 56.1814379,26.2637941 C53.9722876,25.1750878 51.789281,24.1129352 49.6062745,23.3561515 C52.7304575,23.8473971 55.9722876,24.856442 59.3971242,25.9185945 C62.3513725,26.8347011 65.3971242,27.7773615 68.6258824,28.4810376 C68.8611765,28.135838 69.0833987,27.7773615 69.3186928,27.418885 C65.9722876,26.715209 62.8088889,25.7327179 59.7369935,24.7767806 C55.8938562,23.5818589 52.2598693,22.4665988 48.7696732,22.0151839 C55.044183,21.7496458 62.2729412,23.2632132 70.5866667,25.3211337 C70.7827451,24.9759342 70.9788235,24.6440115 71.1618301,24.285535 C63.8546405,22.4798757 56.7827451,20.8733699 50.4559477,20.8468161 C50.4036601,20.8468161 50.3513725,20.8468161 50.299085,20.8468161 C49.5932026,20.8468161 48.9134641,20.8733699 48.2467974,20.8999238 C55.4363399,19.3863564 63.8415686,19.7315559 72.2729412,22.1213992 C72.4428758,21.7894765 72.5997386,21.4575538 72.7566013,21.1123543 C65.044183,18.9083877 57.2794771,18.3109269 50.2729412,19.3996333 C49.3840523,19.5324023 48.5213072,19.7050021 47.671634,19.8908788 C55.2010458,17.155836 64.4820915,15.9609144 73.7631373,18.868557 C73.8938562,18.5366343 74.0376471,18.2179886 74.168366,17.8860659 C64.5213072,14.8191004 54.8611765,16.1202373 47.0703268,19.0013261 C48.1422222,18.4702498 49.2533333,17.9524504 50.3905882,17.4744818 C59.3448366,13.730394 67.6324183,13.0798256 75.0180392,15.5493303 C75.1226144,15.2174076 75.2271895,14.8987618 75.3317647,14.5801161 C67.7108497,12.03095 59.1879739,12.6815184 50.0115033,16.5318214 C48.9003922,16.9965131 47.8023529,17.5010356 46.7435294,18.0321119 C55.0180392,12.9337796 65.7762092,8.73827706 75.9984314,12.1371652 C76.0768627,11.8052425 76.1422222,11.4865968 76.2075817,11.167951 C65.6977778,7.72923213 54.6912418,12.0043961 46.2598693,17.1956667 C47.9853595,15.9343606 49.8546405,14.6863313 51.8154248,13.5312404 C61.0703268,8.07443171 69.3709804,6.41481835 76.547451,8.56567727 C76.5735948,8.23375459 76.5866667,7.91510883 76.5866667,7.59646306 C69.2141176,5.47215797 60.7304575,7.18487895 51.3448366,12.7213491 C49.3971242,13.8631631 47.5539869,15.0979154 45.8415686,16.3326678 C47.8023529,14.7128851 49.9330719,13.0931025 52.2075817,11.5795351 C61.2141176,5.57837322 69.292549,3.33457596 76.3121569,4.84814334 C76.2206536,4.50294376 76.1160784,4.17102109 75.9984314,3.85237533 C68.8611765,2.49813083 60.7304575,4.82158953 51.7239216,10.8227514 C49.4494118,12.3363188 47.3186928,13.9561015 45.3579085,15.5758841 C46.8481046,14.1950858 48.4428758,12.8142875 50.1291503,11.460043 C55.540915,7.13177132 60.7435294,4.11791346 65.6062745,2.49813083 C68.3121569,1.59530116 70.9003922,1.14388632 73.3709804,1.1040556 C72.5866667,0.798686746 71.6977778,0.626086957 70.6520261,0.626086957 C70.1030065,0.626086957 69.5670588,0.65264077 69.0180392,0.705748398 C67.8023529,0.944732721 66.5735948,1.26337849 65.3056209,1.68823951 C60.3644444,3.33457596 55.0703268,6.40154145 49.5670588,10.7829207 C46.6520261,13.1063794 43.9984314,15.5626072 41.7108497,17.8595121 C38.8873203,20.8733699 36.665098,23.6216897 35.2664052,25.4140721 C34.6912418,26.144302 33.5278431,27.6180386 33.5278431,27.6180386 L32.5866667,28.0960073 L32.7304575,28.6801912 Z" id="Shape" fill="#009FE3"></path>
            <path d="M54.8350327,27.9765151 C57.92,30.2468662 61.1095425,32.5836018 64.665098,33.5129853 C64.3252288,33.8714618 63.9853595,34.2166613 63.6454902,34.5353071 C60.3383007,33.4997084 57.3971242,31.415234 54.547451,29.3174827 C53.789281,28.1756687 52.9657516,27.0338547 52.050719,25.9849791 C52.9918954,26.6222706 53.9069281,27.2993929 54.8350327,27.9765151 Z M61.1618301,36.4339048 C61.3186928,36.3409664 61.4755556,36.2480281 61.6324183,36.1418128 C59.6847059,35.1858755 57.8938562,33.5793698 56.1422222,31.840095 C58.1030065,34.9336143 59.6193464,37.3367345 61.1618301,36.4339048 Z M32.7304575,28.6801912 C32.7304575,28.6801912 38.1422222,21.6965382 44.0245752,21.6965382 C48.7173856,21.6965382 51.5278431,25.4007952 51.5278431,25.4007952 C52.8742484,25.9849791 54.2598693,26.6621013 55.6585621,27.3525005 C59.0311111,28.9988369 62.4951634,30.698281 66.3383007,31.5745569 C66.6128105,31.2293573 66.8873203,30.8708808 67.174902,30.5124043 C63.2402614,29.7157899 59.6585621,27.9632382 56.1814379,26.2637941 C53.9722876,25.1750878 51.789281,24.1129352 49.6062745,23.3561515 C52.7304575,23.8473971 55.9722876,24.856442 59.3971242,25.9185945 C62.3513725,26.8347011 65.3971242,27.7773615 68.6258824,28.4810376 C68.8611765,28.135838 69.0833987,27.7773615 69.3186928,27.418885 C65.9722876,26.715209 62.8088889,25.7327179 59.7369935,24.7767806 C55.8938562,23.5818589 52.2598693,22.4665988 48.7696732,22.0151839 C55.044183,21.7496458 62.2729412,23.2632132 70.5866667,25.3211337 C70.7827451,24.9759342 70.9788235,24.6440115 71.1618301,24.285535 C63.8546405,22.4798757 56.7827451,20.8733699 50.4559477,20.8468161 C50.4036601,20.8468161 50.3513725,20.8468161 50.299085,20.8468161 C49.5932026,20.8468161 48.9134641,20.8733699 48.2467974,20.8999238 C55.4363399,19.3863564 63.8415686,19.7315559 72.2729412,22.1213992 C72.4428758,21.7894765 72.5997386,21.4575538 72.7566013,21.1123543 C65.044183,18.9083877 57.2794771,18.3109269 50.2729412,19.3996333 C49.3840523,19.5324023 48.5213072,19.7050021 47.671634,19.8908788 C55.2010458,17.155836 64.4820915,15.9609144 73.7631373,18.868557 C73.8938562,18.5366343 74.0376471,18.2179886 74.168366,17.8860659 C64.5213072,14.8191004 54.8611765,16.1202373 47.0703268,19.0013261 C48.1422222,18.4702498 49.2533333,17.9524504 50.3905882,17.4744818 C59.3448366,13.730394 67.6324183,13.0798256 75.0180392,15.5493303 C75.1226144,15.2174076 75.2271895,14.8987618 75.3317647,14.5801161 C67.7108497,12.03095 59.1879739,12.6815184 50.0115033,16.5318214 C48.9003922,16.9965131 47.8023529,17.5010356 46.7435294,18.0321119 C55.0180392,12.9337796 65.7762092,8.73827706 75.9984314,12.1371652 C76.0768627,11.8052425 76.1422222,11.4865968 76.2075817,11.167951 C65.6977778,7.72923213 54.6912418,12.0043961 46.2598693,17.1956667 C47.9853595,15.9343606 49.8546405,14.6863313 51.8154248,13.5312404 C61.0703268,8.07443171 69.3709804,6.41481835 76.547451,8.56567727 C76.5735948,8.23375459 76.5866667,7.91510883 76.5866667,7.59646306 C69.2141176,5.47215797 60.7304575,7.18487895 51.3448366,12.7213491 C49.3971242,13.8631631 47.5539869,15.0979154 45.8415686,16.3326678 C47.8023529,14.7128851 49.9330719,13.0931025 52.2075817,11.5795351 C61.2141176,5.57837322 69.292549,3.33457596 76.3121569,4.84814334 C76.2206536,4.50294376 76.1160784,4.17102109 75.9984314,3.85237533 C68.8611765,2.49813083 60.7304575,4.82158953 51.7239216,10.8227514 C49.4494118,12.3363188 47.3186928,13.9561015 45.3579085,15.5758841 C46.8481046,14.1950858 48.4428758,12.8142875 50.1291503,11.460043 C55.540915,7.13177132 60.7435294,4.11791346 65.6062745,2.49813083 C68.3121569,1.59530116 70.9003922,1.14388632 73.3709804,1.1040556 C72.5866667,0.798686746 71.6977778,0.626086957 70.6520261,0.626086957 C70.1030065,0.626086957 69.5670588,0.65264077 69.0180392,0.705748398 C67.8023529,0.944732721 66.5735948,1.26337849 65.3056209,1.68823951 C60.3644444,3.33457596 55.0703268,6.40154145 49.5670588,10.7829207 C46.6520261,13.1063794 43.9984314,15.5626072 41.7108497,17.8595121 C38.8873203,20.8733699 36.665098,23.6216897 35.2664052,25.4140721 C34.6912418,26.144302 33.5278431,27.6180386 33.5278431,27.6180386 L32.5866667,28.0960073 L32.7304575,28.6801912 Z" id="Shape" fill="url(#linearGradient-1)"></path>
            <g id="Group" transform="translate(21.386667, 10.226087)" fill="#009FE3">
                <g id="Path">
                    <g transform="translate(0.000000, 17.160000)">
                        <path d="M0.0901818182,1.4916 L10.8901818,1.4916 C11.152,1.122 11.4269091,0.7656 11.7018182,0.4356 L0.0770909091,0.4356 C0.0901818182,0.8052 0.0901818182,1.1616 0.0901818182,1.4916 Z"></path>
                        <path d="M0.0901818182,3.6036 L9.45018182,3.6036 C9.68581818,3.2604 9.92145455,2.904 10.1570909,2.5476 L0.0901818182,2.5476 C0.0901818182,3.0624 0.0901818182,3.4188 0.0901818182,3.6036 Z"></path>
                        <path d="M0.469818182,5.7156 L7.84,5.7156 C8.128,5.3856 8.416,5.0292 8.69090909,4.6596 L0.168727273,4.6596 C0.234181818,5.0028 0.325818182,5.3592 0.469818182,5.7156 Z"></path>
                        <path d="M1.15054545,6.7848 C1.71345455,7.3788 2.57745455,7.8012 3.87345455,7.8012 C4.97309091,7.8012 5.90254545,7.4052 6.72727273,6.7848 L1.15054545,6.7848 Z"></path>
                    </g>
                    <path d="M18.7316364,9.1344 L0.0901818182,9.1344 C0.0901818182,9.4776 0.0901818182,9.834 0.0901818182,10.1904 L17.7890909,10.1904 C18.0901818,9.8472 18.4043636,9.4908 18.7316364,9.1344 Z"></path>
                    <path d="M16.8596364,11.2464 L0.0901818182,11.2464 C0.0901818182,11.5896 0.0901818182,11.946 0.0901818182,12.3024 L15.9563636,12.3024 C16.2443636,11.9592 16.5454545,11.616 16.8596364,11.2464 Z"></path>
                    <path d="M15.0792727,13.3716 L0.0901818182,13.3716 C0.0901818182,13.728 0.0901818182,14.0712 0.0901818182,14.4276 L14.2152727,14.4276 C14.4901818,14.0844 14.7650909,13.7412 15.0792727,13.3716 Z"></path>
                    <path d="M25.408,2.7984 L0.482909091,2.7984 C0.352,3.1284 0.247272727,3.4848 0.181818182,3.8544 L24.2036364,3.8544 C24.5963636,3.498 25.0021818,3.1416 25.408,2.7984 Z"></path>
                    <path d="M21.8996364,5.94 C22.2661818,5.5968 22.6327273,5.2536 23.0123636,4.9104 C23.0123636,4.9104 23.0123636,4.9104 23.0123636,4.9104 L0.0901818182,4.9104 C0.0901818182,5.148 0.0901818182,5.5044 0.0901818182,5.9664 L21.8865455,5.9664 C21.8865455,5.9532 21.8996364,5.9532 21.8996364,5.94 Z"></path>
                    <path d="M19.8967273,7.8936 C20.1847273,7.6032 20.4727273,7.3128 20.7738182,7.0224 L0.0901818182,7.0224 C0.0901818182,7.3524 0.0901818182,7.7088 0.0901818182,8.0784 L19.7134545,8.0784 C19.7789091,8.0124 19.8312727,7.9464 19.8967273,7.8936 Z"></path>
                    <path d="M27.7643636,0.858 C27.8298182,0.8052 27.8952727,0.7524 27.9607273,0.7128 C18.3258182,0.7128 5.28727273,0.7128 3.664,0.7128 C2.55127273,0.7128 1.72654545,1.1088 1.15054545,1.7424 L26.6909091,1.7424 C27.0312727,1.4388 27.3978182,1.1484 27.7643636,0.858 Z"></path>
                </g>
                <path d="M13.3774545,15.4836 L0.0901818182,15.4836 C0.0901818182,15.84 0.0901818182,16.1964 0.0901818182,16.5396 L12.5396364,16.5396 C12.8276364,16.17 13.1418182,15.774 13.3774545,15.4836 Z" id="Path"></path>
            </g>
        </g>
    </g>
</svg>