<svg width="38" height="38" viewBox="0 0 38 38" fill="none" xmlns="http://www.w3.org/2000/svg">
<path d="M19 36.9894C28.9411 36.9894 37 28.9329 37 18.9947C37 9.0565 28.9411 1 19 1C9.05888 1 1 9.0565 1 18.9947C1 28.9329 9.05888 36.9894 19 36.9894Z" stroke="#040237" stroke-width="2" stroke-linecap="round" stroke-linejoin="round"/>
<path d="M13.4516 24.5943C14.1355 25.574 15.0735 26.3489 16.1648 26.8357C17.2562 27.3224 18.4596 27.5027 19.6457 27.357C22.7057 27.0818 25.0034 24.8801 24.8234 22.6572C24.6645 20.7307 23.1822 18.7936 18.9998 18.5184C14.8175 18.2432 13.3351 16.3061 13.1869 14.3796C13.0069 12.1567 15.3045 9.98677 18.3751 9.71156C19.4914 9.55555 20.6291 9.68765 21.6799 10.0953C22.7307 10.5029 23.6597 11.1724 24.3786 12.0403" stroke="#040237" stroke-width="2" stroke-linecap="round" stroke-linejoin="round"/>
<path d="M18.8733 6.64197V31.3582" stroke="#040237" stroke-width="2" stroke-linecap="round" stroke-linejoin="round"/>
<path d="M37 19.0052C37 23.7777 35.1036 28.3548 31.7279 31.7295C28.3523 35.1041 23.7739 37 19 37" stroke="#F5768F" stroke-width="2" stroke-linecap="round" stroke-linejoin="round"/>
</svg>
