<svg width="600" height="428" viewBox="0 0 600 428" fill="none" xmlns="http://www.w3.org/2000/svg">
<ellipse cx="306.941" cy="216.606" rx="210.942" ry="210.894" fill="#DCEEEB"/>
<path d="M502.611 226.056C502.611 109.622 408.169 15.2339 291.669 15.2339C175.169 15.2339 80.7266 109.622 80.7266 226.056C80.7266 273.699 96.5391 317.651 123.205 352.955" stroke="black" stroke-width="2"/>
<path d="M95.0438 293.322C89.7725 293.361 85.5307 297.655 85.5696 302.913C85.6085 308.171 89.9133 312.403 95.1846 312.364C100.456 312.325 104.698 308.031 104.659 302.773C104.62 297.514 100.315 293.283 95.0438 293.322Z" fill="#3843D0"/>
<path d="M458.409 85.8371L446.59 96.2374C445.901 96.8442 445.835 97.8936 446.443 98.5814L456.869 110.37C457.478 111.058 458.53 111.124 459.219 110.517L471.038 100.117C471.727 99.5101 471.793 98.4607 471.185 97.7729L460.759 85.9838C460.15 85.2961 459.098 85.2304 458.409 85.8371Z" fill="#3843D0"/>
<path d="M86.4135 271.987L101.34 285.447C101.455 285.552 101.54 285.684 101.586 285.832C101.633 285.98 101.639 286.137 101.604 286.288C101.569 286.439 101.494 286.578 101.388 286.69C101.281 286.803 101.146 286.885 100.997 286.928L81.5788 293.021C81.4317 293.071 81.2741 293.08 81.1221 293.049C80.97 293.018 80.8292 292.947 80.7139 292.843C80.5987 292.739 80.5133 292.606 80.4665 292.459C80.4197 292.311 80.4133 292.154 80.4478 292.003L84.9838 272.435C85.0188 272.289 85.0913 272.154 85.1942 272.044C85.2972 271.934 85.427 271.852 85.5711 271.807C85.7151 271.761 85.8685 271.754 86.0161 271.786C86.1638 271.817 86.3007 271.887 86.4135 271.987Z" fill="#6AC7B7"/>
<path d="M435.158 70.1968L454.471 75.8333C454.62 75.8771 454.754 75.9597 454.86 76.0726C454.967 76.1855 455.041 76.3246 455.075 76.4756C455.109 76.6266 455.103 76.784 455.056 76.9317C455.009 77.0793 454.924 77.2117 454.808 77.3154L439.985 91.2328C439.875 91.3414 439.737 91.4185 439.586 91.4563C439.436 91.4941 439.278 91.4911 439.129 91.4478C438.98 91.4044 438.845 91.3221 438.739 91.2095C438.632 91.0969 438.558 90.958 438.523 90.8071L434.067 71.2215C434.035 71.0743 434.041 70.9213 434.086 70.7774C434.13 70.6335 434.211 70.5036 434.321 70.4003C434.431 70.2971 434.566 70.224 434.713 70.1884C434.86 70.1527 435.013 70.1556 435.158 70.1968Z" fill="#6AC7B7"/>
<path d="M135.602 111.398C140.793 111.399 145.869 109.865 150.187 106.989C154.504 104.113 157.87 100.024 159.858 95.24C161.846 90.4558 162.367 85.191 161.355 80.1114C160.343 75.0318 157.844 70.3654 154.173 66.7028C150.503 63.0402 145.826 60.5457 140.734 59.5348C135.642 58.5238 130.364 59.0421 125.567 61.0236C120.77 63.0051 116.67 66.3611 113.786 70.6671C110.901 74.9731 109.361 80.0353 109.361 85.2142C109.36 88.6523 110.038 92.057 111.356 95.2337C112.675 98.4103 114.607 101.297 117.044 103.728C119.481 106.159 122.374 108.089 125.558 109.404C128.742 110.72 132.155 111.398 135.602 111.398V111.398Z" fill="white" stroke="#040237" stroke-width="2" stroke-linecap="round" stroke-linejoin="round"/>
<path d="M135.594 98.0551V72.382" stroke="#040237" stroke-width="2" stroke-linecap="round" stroke-linejoin="round"/>
<path d="M122.729 85.2146H148.466" stroke="#040237" stroke-width="2" stroke-linecap="round" stroke-linejoin="round"/>
<path d="M498.534 209.9C513.151 209.9 525 198.08 525 183.5C525 168.919 513.151 157.099 498.534 157.099C483.917 157.099 472.068 168.919 472.068 183.5C472.068 198.08 483.917 209.9 498.534 209.9Z" fill="#6AC7B7"/>
<path d="M498.737 182.99H488.93V173.217H498.737V182.99Z" fill="white"/>
<path d="M509.541 182.99H499.744V173.217H509.541V182.99Z" fill="white"/>
<path d="M498.737 193.782H488.93V184.009H498.737V193.782Z" fill="white"/>
<path d="M509.541 193.782H499.744V184.009H509.541V193.782Z" fill="white"/>
<path d="M188.107 68.5523C202.603 68.5523 214.355 56.8297 214.355 42.3691C214.355 27.9085 202.603 16.1859 188.107 16.1859C173.61 16.1859 161.858 27.9085 161.858 42.3691C161.858 56.8297 173.61 68.5523 188.107 68.5523Z" fill="#6AC7B7"/>
<path d="M187.243 38.325V50.9369H176.772L187.243 38.325ZM187.243 33.8013C187.2 35.158 186.63 36.4449 185.653 37.3895C184.676 38.3342 183.368 38.8624 182.007 38.8624C180.647 38.8624 179.339 38.3342 178.362 37.3895C177.385 36.4449 176.814 35.158 176.772 33.8013H187.243ZM188.97 50.9369C188.948 50.2379 189.067 49.5417 189.32 48.8894C189.573 48.2372 189.955 47.6423 190.443 47.1401C190.931 46.6379 191.515 46.2386 192.16 45.9659C192.806 45.6932 193.5 45.5527 194.201 45.5527C194.902 45.5527 195.596 45.6932 196.241 45.9659C196.887 46.2386 197.471 46.6379 197.959 47.1401C198.447 47.6423 198.829 48.2372 199.082 48.8894C199.334 49.5417 199.453 50.2379 199.431 50.9369H188.97ZM188.97 46.4132V33.8013H199.442L188.97 46.4132Z" fill="white"/>
<path d="M352.497 52.8009C367.114 52.8009 378.963 40.981 378.963 26.4004C378.963 11.8199 367.114 0 352.497 0C337.88 0 326.031 11.8199 326.031 26.4004C326.031 40.981 337.88 52.8009 352.497 52.8009Z" fill="#6AC7B7"/>
<path d="M360.813 27.4301C360.813 27.6136 360.74 27.7895 360.61 27.9193C360.48 28.049 360.303 28.1219 360.119 28.1219C359.935 28.1219 359.759 28.049 359.629 27.9193C359.499 27.7895 359.426 27.6136 359.426 27.4301V21.2149C359.426 21.0314 359.499 20.8555 359.629 20.7258C359.759 20.596 359.935 20.5232 360.119 20.5232C360.303 20.5232 360.48 20.596 360.61 20.7258C360.74 20.8555 360.813 21.0314 360.813 21.2149V27.4301ZM360.568 31.7574C360.464 31.8458 357.898 33.9938 353.19 33.9938C348.482 33.9938 345.922 31.8458 345.812 31.7574C345.696 31.6325 345.63 31.4692 345.627 31.2987C345.623 31.1282 345.684 30.9626 345.795 30.8337C345.907 30.7047 346.063 30.6215 346.232 30.6C346.402 30.5785 346.574 30.6202 346.714 30.7172C346.756 30.7484 349.045 32.6259 353.19 32.6259C357.335 32.6259 359.645 30.738 359.666 30.7172C359.732 30.646 359.813 30.5897 359.902 30.5517C359.992 30.5137 360.089 30.495 360.186 30.4967C360.283 30.4985 360.379 30.5207 360.468 30.5619C360.556 30.6031 360.634 30.6623 360.698 30.7358C360.762 30.8093 360.809 30.8953 360.837 30.9883C360.866 31.0813 360.874 31.1792 360.861 31.2756C360.849 31.3719 360.817 31.4647 360.766 31.5477C360.715 31.6307 360.648 31.7021 360.568 31.7574ZM345.572 21.2149C345.587 21.0425 345.667 20.8819 345.795 20.7649C345.922 20.648 346.09 20.5831 346.263 20.5831C346.437 20.5831 346.604 20.648 346.732 20.7649C346.86 20.8819 346.939 21.0425 346.954 21.2149V27.4301C346.939 27.6026 346.86 27.7631 346.732 27.8801C346.604 27.997 346.437 28.0619 346.263 28.0619C346.09 28.0619 345.922 27.997 345.795 27.8801C345.667 27.7631 345.587 27.6026 345.572 27.4301V21.2149ZM349.034 19.8314C349.034 19.648 349.108 19.472 349.238 19.3423C349.368 19.2126 349.544 19.1397 349.728 19.1397C349.912 19.1397 350.088 19.2126 350.218 19.3423C350.348 19.472 350.421 19.648 350.421 19.8314V29.0632C350.421 29.2467 350.348 29.4227 350.218 29.5524C350.088 29.6821 349.912 29.755 349.728 29.755C349.544 29.755 349.368 29.6821 349.238 29.5524C349.108 29.4227 349.034 29.2467 349.034 29.0632V19.8314ZM352.497 19.483C352.498 19.2999 352.571 19.1248 352.701 18.9953C352.831 18.8659 353.007 18.7926 353.19 18.7912V18.7912C353.374 18.7912 353.55 18.8641 353.68 18.9938C353.81 19.1235 353.883 19.2995 353.883 19.483V19.483V29.5053C353.883 29.6888 353.81 29.8647 353.68 29.9945C353.55 30.1242 353.374 30.1971 353.19 30.1971C353.006 30.1971 352.83 30.1242 352.7 29.9945C352.57 29.8647 352.497 29.6888 352.497 29.5053V19.483V19.483ZM355.964 19.8314C355.979 19.659 356.058 19.4984 356.186 19.3815C356.314 19.2645 356.481 19.1996 356.655 19.1996C356.828 19.1996 356.995 19.2645 357.123 19.3815C357.251 19.4984 357.331 19.659 357.346 19.8314V29.0632C357.331 29.2357 357.251 29.3962 357.123 29.5132C356.995 29.6302 356.828 29.6951 356.655 29.6951C356.481 29.6951 356.314 29.6302 356.186 29.5132C356.058 29.3962 355.979 29.2357 355.964 29.0632V19.8314ZM360.985 16.0347H345.395C344.704 16.0347 344.041 16.3086 343.552 16.7963C343.063 17.284 342.788 17.9455 342.788 18.6352V34.1811C342.788 34.8708 343.063 35.5322 343.552 36.0199C344.041 36.5076 344.704 36.7816 345.395 36.7816H360.985C361.676 36.7816 362.339 36.5076 362.828 36.0199C363.317 35.5322 363.592 34.8708 363.592 34.1811V18.6248C363.589 17.9369 363.313 17.2781 362.825 16.7927C362.336 16.3072 361.675 16.0347 360.985 16.0347V16.0347Z" fill="white"/>
<path d="M294.642 226.604H154.046C144.501 226.604 136.77 235.363 136.77 246.122V405.316C136.77 416.075 144.501 424.834 154.046 424.834H294.642C304.187 424.834 311.918 416.075 311.918 405.316V246.122C311.918 235.363 304.187 226.604 294.642 226.604Z" fill="#3843D0"/>
<path d="M449.46 195.184H311.441C302.469 195.184 295.215 201.277 295.215 208.894V325.624C295.215 333.145 302.469 339.334 311.441 339.334H449.46C458.433 339.334 465.687 333.241 465.687 325.624V208.799C465.687 201.277 458.433 195.184 449.46 195.184Z" fill="#6AC7B7"/>
<path d="M236.704 249.264L258.275 263.546L255.793 291.919L267.534 293.537L278.606 274.495L331.484 306.391L298.364 351.997C296.837 354.092 290.632 362.947 288.342 361.994L206.542 328.29L135.051 303.344C132.473 302.678 130.278 301.059 128.942 298.869C127.606 296.679 127.128 293.918 127.796 291.347L129.705 239.267C129.992 237.838 130.564 236.601 131.423 235.458C132.283 234.316 133.332 233.364 134.573 232.602C135.814 231.935 137.15 231.459 138.582 231.364C140.014 231.269 141.446 231.364 142.782 231.84L215.705 256.119L229.163 249.169C230.309 248.502 231.645 248.217 232.981 248.217C234.222 248.217 235.463 248.597 236.704 249.264Z" fill="#DCEEEB"/>
<path d="M198.047 337.049L212.269 318.864L223.15 323.815L237.086 312.009L276.506 336.859L261.998 368.374C259.134 374.848 254.648 378.371 246.058 372.944L199.288 344C198.238 343.238 197.474 342.095 197.188 340.763C196.997 339.43 197.283 338.097 198.047 337.049Z" fill="#6AC7B7"/>
<path d="M320.127 258.118L280.133 241.266L252.167 260.879L248.54 297.441L261.616 299.916L271.543 287.443L281.47 264.497L302.85 276.018L320.127 258.118Z" fill="#6AC7B7"/>
<path d="M281.469 264.498L327.476 294.013C328.908 294.965 330.148 296.108 331.007 297.536C331.962 298.964 332.535 300.488 332.821 302.201C333.107 303.82 333.012 305.534 332.63 307.153C332.248 308.771 331.485 310.294 330.435 311.627L295.5 356.948C293.973 358.948 291.873 360.376 289.487 360.947C287.101 361.614 284.524 361.328 282.233 360.376L276.22 357.71" stroke="#040038" stroke-width="2" stroke-linecap="round" stroke-linejoin="round"/>
<path d="M166.74 245.455L218.855 265.355L243.481 251.739C246.344 250.121 249.685 249.359 253.026 249.454C256.366 249.55 259.612 250.597 262.38 252.311" stroke="#040038" stroke-width="2" stroke-linecap="round" stroke-linejoin="round"/>
<path d="M181.44 320.101L158.723 312.865" stroke="#040038" stroke-width="2" stroke-linecap="round" stroke-linejoin="round"/>
<path d="M196.52 324.862L181.534 320.006" stroke="#040038" stroke-width="2" stroke-linecap="round" stroke-linejoin="round"/>
<path d="M424.833 214.417L317.072 254.215L279.274 241.362L251.307 260.975L247.68 297.537L257.225 299.06C263.143 300.012 266.484 296.299 269.538 290.015L281.469 264.498" stroke="#040038" stroke-width="2" stroke-linecap="round" stroke-linejoin="round"/>
<path d="M198.811 333.431L211.601 318.007L224.201 323.624L236.514 310.866L278.607 336.669L266.866 359.138C266.007 360.662 264.957 362.09 263.526 363.232C262.189 364.375 260.567 365.137 258.849 365.613C257.131 366.089 255.317 366.184 253.599 365.898C251.881 365.613 250.163 365.042 248.636 364.089L198.811 333.431Z" stroke="#040038" stroke-width="2" stroke-linecap="round" stroke-linejoin="round"/>
<path d="M224.2 323.719L209.978 340.286" stroke="#040038" stroke-width="2" stroke-linecap="round" stroke-linejoin="round"/>
<path d="M248.254 318.483L226.109 349.903" stroke="#040038" stroke-width="2" stroke-linecap="round" stroke-linejoin="round"/>
<path d="M264.575 328.29L243.767 361.328" stroke="#040038" stroke-width="2" stroke-linecap="round" stroke-linejoin="round"/>
<path d="M324.517 318.863L300.177 305.724" stroke="#040038" stroke-width="2" stroke-linecap="round" stroke-linejoin="round"/>
<path d="M313.827 333.621L289.774 321.149" stroke="#040038" stroke-width="2" stroke-linecap="round" stroke-linejoin="round"/>
<path d="M302.851 346.665L284.238 337.62" stroke="#040038" stroke-width="2" stroke-linecap="round" stroke-linejoin="round"/>
</svg>
