<svg width="1442" height="700" viewBox="0 0 1442 700" fill="none" xmlns="http://www.w3.org/2000/svg">
<path d="M1440 630L1121.38 630C1099.28 630 1081.38 612.091 1081.38 590L1081.38 528.83C1081.38 506.738 1099.28 488.83 1121.38 488.83L1320.22 488.83C1340.79 488.83 1357.47 505.509 1357.47 526.083C1357.47 546.657 1340.79 563.336 1320.22 563.336L1277.93 563.336C1255.84 563.336 1237.93 545.428 1237.93 523.336L1237.93 210.637C1237.93 188.545 1220.02 170.637 1197.93 170.637L104.52 170.637C82.4301 170.637 64.5201 152.728 64.5201 130.637L64.5201 107C64.5201 84.9089 82.4301 66.9999 104.52 66.9999L336.16 66.9999C358.25 66.9999 376.158 84.9089 376.158 107L376.158 240.235C376.158 262.326 358.25 280.235 336.16 280.235L2.00003 280.235" stroke="#6069D9" stroke-width="2" stroke-miterlimit="10" stroke-linecap="round"/>
<path d="M1075.6 580L1088.4 580C1089.28 580 1090 579.284 1090 578.4L1090 565.6C1090 564.716 1089.28 564 1088.4 564L1075.6 564C1074.72 564 1074 564.716 1074 565.6L1074 578.4C1074 579.284 1074.72 580 1075.6 580Z" fill="#F791A5"/>
<path d="M44 289L60 289L60 273L44 273L44 289Z" fill="#7ACCBF"/>
<path d="M1373 629.5C1373 633.642 1376.36 637 1380.5 637C1384.64 637 1388 633.642 1388 629.5C1388 625.358 1384.64 622 1380.5 622C1376.36 622 1373 625.358 1373 629.5Z" fill="#F791A5"/>
<path d="M1126 171C1126 175.418 1129.58 179 1134 179C1138.42 179 1142 175.418 1142 171C1142 166.582 1138.42 163 1134 163C1129.58 163 1126 166.582 1126 171Z" fill="#3843D0"/>
<path d="M216 75L232 75C236.418 75 240 71.4183 240 67C240 62.5817 236.418 59 232 59L216 59C211.582 59 208 62.5817 208 67C208 71.4183 211.582 75 216 75Z" fill="#3843D0"/>
<path d="M111 289L127 289C131.418 289 135 285.418 135 281C135 276.582 131.418 273 127 273L111 273C106.582 273 103 276.582 103 281C103 285.418 106.582 289 111 289Z" fill="#3843D0"/>
</svg>
