<svg width="600" height="481" viewBox="0 0 600 481" fill="none" xmlns="http://www.w3.org/2000/svg">
<rect x="108.567" y="48.2235" width="357.517" height="379.537" rx="50" fill="#FAF4EB"/>
<path d="M190.394 348.629C193.525 348.629 196.063 346.089 196.063 342.957C196.063 339.824 193.525 337.285 190.394 337.285C187.263 337.285 184.725 339.824 184.725 342.957C184.725 346.089 187.263 348.629 190.394 348.629Z" fill="white"/>
<path d="M190.394 364.264C193.525 364.264 196.063 361.724 196.063 358.592C196.063 355.459 193.525 352.92 190.394 352.92C187.263 352.92 184.725 355.459 184.725 358.592C184.725 361.724 187.263 364.264 190.394 364.264Z" fill="white"/>
<rect x="166.851" y="293.879" width="211.214" height="153.846" rx="12" fill="white"/>
<path d="M238.538 328.286H177.638V436.664H238.538V328.286Z" fill="#0044CC"/>
<path d="M176.73 328.286H367.991V432.846C367.991 433.829 367.6 434.772 366.905 435.467C366.21 436.162 365.268 436.553 364.285 436.553H180.436C179.453 436.553 178.511 436.162 177.816 435.467C177.121 434.772 176.73 433.829 176.73 432.846V328.286Z" stroke="#040237" stroke-width="2" stroke-miterlimit="10" stroke-linecap="round"/>
<path d="M176.73 328.286V309.824C176.729 309.135 176.864 308.453 177.127 307.816C177.39 307.179 177.776 306.6 178.263 306.112C178.751 305.625 179.329 305.239 179.966 304.976C180.603 304.712 181.285 304.578 181.974 304.579H362.72C363.408 304.578 364.091 304.712 364.727 304.976C365.364 305.239 365.943 305.625 366.43 306.112C366.917 306.6 367.303 307.179 367.566 307.816C367.829 308.453 367.964 309.135 367.963 309.824V328.286H176.73Z" fill="#040237" stroke="#040237" stroke-width="2" stroke-linecap="round" stroke-linejoin="round"/>
<path d="M284.422 398.851H351.964" stroke="#040237" stroke-width="2" stroke-linecap="round" stroke-linejoin="round"/>
<path d="M203.364 342.957H230.238" stroke="white" stroke-width="2" stroke-miterlimit="10" stroke-linecap="round"/>
<path d="M261.753 367.591C268.015 367.591 273.092 362.512 273.092 356.247C273.092 349.982 268.015 344.903 261.753 344.903C255.491 344.903 250.414 349.982 250.414 356.247C250.414 362.512 255.491 367.591 261.753 367.591Z" fill="#040237"/>
<path d="M203.364 358.592H230.238" stroke="white" stroke-width="2" stroke-miterlimit="10" stroke-linecap="round"/>
<path d="M284.422 378.786H351.964" stroke="#040237" stroke-width="2" stroke-linecap="round" stroke-linejoin="round"/>
<path d="M284.422 388.823H351.964" stroke="#040237" stroke-width="2" stroke-linecap="round" stroke-linejoin="round"/>
<path d="M284.422 408.888H351.964" stroke="#040237" stroke-width="2" stroke-linecap="round" stroke-linejoin="round"/>
<path d="M284.422 418.462H329.342" stroke="#040237" stroke-width="2" stroke-linecap="round" stroke-linejoin="round"/>
<path d="M346.128 350.056H290.258C287.035 350.056 284.422 352.668 284.422 355.89C284.422 359.112 287.035 361.724 290.258 361.724H346.128C349.351 361.724 351.964 359.112 351.964 355.89C351.964 352.668 349.351 350.056 346.128 350.056Z" stroke="#040237" stroke-width="2" stroke-linecap="round" stroke-linejoin="round"/>
<path d="M270.286 448.036V477.128" stroke="#040237" stroke-width="2" stroke-linecap="round" stroke-linejoin="round"/>
<path d="M216.083 479.333H322.283" stroke="#040237" stroke-width="2" stroke-linecap="round" stroke-linejoin="round"/>
<path d="M368.185 293.124H176.545C170.447 293.124 165.503 298.07 165.503 304.171V436.988C165.503 443.09 170.447 448.036 176.545 448.036H368.185C374.284 448.036 379.228 443.09 379.228 436.988V304.171C379.228 298.07 374.284 293.124 368.185 293.124Z" stroke="#040237" stroke-width="2" stroke-linecap="round" stroke-linejoin="round"/>
<path d="M550 309.873L500.885 331.809V287.937L550 309.873Z" stroke="#040237" stroke-width="2" stroke-linecap="round" stroke-linejoin="round"/>
<path d="M550 309.873H491.238" stroke="#040237" stroke-width="2" stroke-linecap="round" stroke-linejoin="round"/>
<path d="M157.517 375.821H129.14C118.33 375.821 107.962 371.524 100.318 363.877C92.6738 356.23 88.3794 345.857 88.3794 335.042V194.662C88.3794 183.847 92.6738 173.475 100.318 165.828C107.962 158.18 118.33 153.884 129.14 153.884H304.789C329.922 153.884 350.978 174.468 350.497 199.611C350.257 211.423 345.369 222.664 336.894 230.891C328.419 239.119 317.042 243.669 305.234 243.555C293.425 243.44 282.139 238.669 273.825 230.278C265.512 221.888 260.843 210.554 260.833 198.74L260.721 52.3416C260.715 46.9826 261.765 41.6749 263.811 36.7221C265.857 31.7693 268.858 27.2684 272.644 23.4768C276.429 19.6853 280.925 16.6774 285.873 14.6252C290.821 12.573 296.125 11.5167 301.482 11.5167H397.922C408.732 11.5167 419.1 15.813 426.744 23.4605C434.388 31.1079 438.682 41.4801 438.682 52.2952V331.252C438.682 343.559 428.946 353.958 416.653 354.06C413.702 354.085 410.776 353.521 408.045 352.403C405.314 351.285 402.832 349.633 400.746 347.546C398.659 345.458 397.009 342.976 395.891 340.244C394.773 337.512 394.21 334.584 394.235 331.632C394.337 319.333 404.74 309.593 417.033 309.593H481.296" stroke="#040237" stroke-width="2" stroke-miterlimit="10" stroke-linecap="round"/>
<path d="M260.694 85.1175C265.537 85.1175 269.464 81.1891 269.464 76.3432C269.464 71.4972 265.537 67.5688 260.694 67.5688C255.85 67.5688 251.923 71.4972 251.923 76.3432C251.923 81.1891 255.85 85.1175 260.694 85.1175Z" fill="#3843D0"/>
<path d="M437.93 233.744C442.774 233.744 446.7 229.816 446.7 224.97C446.7 220.124 442.774 216.196 437.93 216.196C433.086 216.196 429.159 220.124 429.159 224.97C429.159 229.816 433.086 233.744 437.93 233.744Z" fill="#6AC7B7"/>
<path d="M268.191 40.3529H253.844C252.962 40.3529 252.247 41.0682 252.247 41.9506V56.3038C252.247 57.1862 252.962 57.9016 253.844 57.9016H268.191C269.073 57.9016 269.788 57.1862 269.788 56.3038V41.9506C269.788 41.0682 269.073 40.3529 268.191 40.3529Z" fill="#6AC7B7"/>
<path d="M95.6642 197.764H81.3173C80.4352 197.764 79.7202 198.48 79.7202 199.362V213.715C79.7202 214.598 80.4352 215.313 81.3173 215.313H95.6642C96.5462 215.313 97.2612 214.598 97.2612 213.715V199.362C97.2612 198.48 96.5462 197.764 95.6642 197.764Z" fill="#3843D0"/>
<path d="M437.895 258.165L429.558 243.976C429.483 243.848 429.443 243.703 429.442 243.555C429.441 243.407 429.479 243.261 429.552 243.133C429.626 243.004 429.731 242.897 429.859 242.822C429.987 242.747 430.132 242.707 430.28 242.706H446.955C447.103 242.707 447.248 242.747 447.376 242.822C447.504 242.897 447.609 243.004 447.683 243.133C447.756 243.261 447.794 243.407 447.793 243.555C447.792 243.703 447.752 243.848 447.678 243.976L439.34 258.165C439.265 258.29 439.159 258.393 439.033 258.465C438.906 258.536 438.763 258.574 438.618 258.574C438.472 258.574 438.329 258.536 438.202 258.465C438.076 258.393 437.97 258.29 437.895 258.165V258.165Z" fill="#3843D0"/>
<path d="M88.4616 315.957C67.2198 315.957 50 298.729 50 277.478C50 256.227 67.2198 239 88.4616 239C109.703 239 126.923 256.227 126.923 277.478C126.923 298.729 109.703 315.957 88.4616 315.957Z" fill="#6AC7B7"/>
<path d="M82.1482 299.651C72.8659 299.651 65.3411 291.995 65.3411 282.551C65.3411 273.108 72.8659 265.452 82.1482 265.452C91.4305 265.452 98.9553 273.108 98.9553 282.551C98.9553 291.995 91.4305 299.651 82.1482 299.651Z" fill="white"/>
<path fill-rule="evenodd" clip-rule="evenodd" d="M95.2433 252.045C104.42 251.294 115.557 260.12 110.908 267.398C107.887 272.132 104.102 275.048 99.128 275.672C93.8155 276.336 80.9396 270.074 76.8955 266.813C77.0549 271.94 70.9191 280.951 65.5535 283.295C65.2746 276.601 66.2176 266.82 72.639 261.381C78.9458 255.874 86.8884 252.594 95.2433 252.045Z" fill="#FEC14D"/>
<path fill-rule="evenodd" clip-rule="evenodd" d="M95.2433 252.045C104.42 251.294 115.557 260.12 110.908 267.398C107.887 272.132 104.102 275.048 99.128 275.672C93.8155 276.336 80.9396 270.074 76.8955 266.813C77.0549 271.94 70.9191 280.951 65.5535 283.295C65.2746 276.601 66.2176 266.82 72.639 261.381C78.9458 255.874 86.8884 252.594 95.2433 252.045Z" fill="#FF7029"/>
<path d="M67.2137 276.07C65.5948 279.772 65.2142 283.897 66.1284 287.832C67.0426 291.768 69.2028 295.303 72.2877 297.911C75.3725 300.52 79.2172 302.063 83.2496 302.311M94.6681 299.288C98.0494 297.077 100.627 293.833 102.016 290.04C103.406 286.246 103.533 282.105 102.38 278.233C101.227 274.361 98.855 270.965 95.6164 268.549C92.3778 266.134 88.446 264.829 84.406 264.828" stroke="#040237" stroke-width="1.85934" stroke-linecap="round" stroke-linejoin="round"/>
<path d="M91.0464 278.315L93.3772 290.128L86.8429 289.975" stroke="#040237" stroke-width="1.85934" stroke-linecap="round" stroke-linejoin="round"/>
<path d="M100.383 286.635C96.2499 286.635 92.8992 283.285 92.8992 279.152C92.8992 275.018 96.2499 271.668 100.383 271.668C104.516 271.668 107.867 275.018 107.867 279.152C107.867 283.285 104.516 286.635 100.383 286.635Z" stroke="#040237" stroke-width="1.85934" stroke-linecap="round" stroke-linejoin="round"/>
<path d="M83.3622 299.393H88.243C89.7247 299.393 90.9258 300.594 90.9258 302.076C90.9258 303.558 89.7247 304.759 88.243 304.759H83.3622C81.8806 304.759 80.6795 303.558 80.6795 302.076C80.6795 300.594 81.8806 299.393 83.3622 299.393Z" fill="#040237"/>
<path d="M82.261 286.635C78.1278 286.635 74.7772 283.285 74.7772 279.152C74.7772 275.018 78.1278 271.668 82.261 271.668C86.3942 271.668 89.7449 275.018 89.7449 279.152C89.7449 283.285 86.3942 286.635 82.261 286.635Z" stroke="#040237" stroke-width="1.85934" stroke-linecap="round" stroke-linejoin="round"/>
<path d="M440.462 149.957C461.703 149.957 478.923 132.729 478.923 111.478C478.923 90.2274 461.703 73 440.462 73C419.22 73 402 90.2274 402 111.478C402 132.729 419.22 149.957 440.462 149.957Z" fill="#6AC7B7"/>
<g clip-path="url(#clip0)">
<g clip-path="url(#clip1)">
<path d="M444.489 130.397C453.771 130.397 461.296 122.741 461.296 113.298C461.296 103.854 453.771 96.1983 444.489 96.1983C435.207 96.1983 427.682 103.854 427.682 113.298C427.682 122.741 435.207 130.397 444.489 130.397Z" fill="white"/>
<path d="M431.148 97.0084C425.989 98.5955 422.23 100.189 419.501 101.936C414.773 104.957 422.277 106.624 427.37 107.162C438.048 108.291 456.382 108.091 460.645 107.447C460.958 101.471 460.413 94.9233 453.241 90.5406C447.763 87.2004 436.341 89.2523 431.148 97.0084Z" fill="#3843D0"/>
<path d="M461.283 114.3C461.283 118.011 460.183 121.638 458.121 124.723C456.06 127.807 453.13 130.212 449.702 131.632C446.274 133.052 442.503 133.423 438.864 132.699C435.225 131.975 431.882 130.189 429.258 127.565C426.635 124.942 424.848 121.599 424.124 117.96C423.401 114.321 423.772 110.549 425.192 107.121C426.612 103.694 429.016 100.764 432.101 98.7024C435.186 96.6411 438.813 95.5409 442.523 95.5409" stroke="#040237" stroke-width="1.85934" stroke-linecap="round" stroke-linejoin="round"/>
<path d="M435.883 109.028L433.552 120.841L440.086 120.689" stroke="#040237" stroke-width="1.85934" stroke-linecap="round" stroke-linejoin="round"/>
</g>
</g>
<path d="M146.154 153.494C146.154 147.033 151.389 141.796 157.847 141.796H203.244C209.702 141.796 214.937 147.033 214.937 153.494V153.494C214.937 159.955 209.702 165.192 203.244 165.192H157.847C151.389 165.192 146.154 159.955 146.154 153.494V153.494Z" fill="#6AC7B7"/>
<path d="M156.471 151.43C156.471 150.67 157.087 150.053 157.847 150.053H203.244C204.003 150.053 204.619 150.67 204.619 151.43V151.43C204.619 152.19 204.003 152.806 203.244 152.806H157.847C157.087 152.806 156.471 152.19 156.471 151.43V151.43Z" fill="white"/>
<path d="M156.471 156.935C156.471 156.175 157.087 155.559 157.847 155.559H177.106C177.866 155.559 178.482 156.175 178.482 156.935V156.935C178.482 157.695 177.866 158.311 177.106 158.311H157.847C157.087 158.311 156.471 157.695 156.471 156.935V156.935Z" fill="white"/>
<path d="M328.846 11.322C328.846 5.6213 333.465 1 339.164 1H363.238C368.936 1 373.555 5.6213 373.555 11.322V11.322C373.555 17.0226 368.936 21.6439 363.238 21.6439H339.164C333.465 21.6439 328.846 17.0226 328.846 11.322V11.322Z" fill="#6AC7B7"/>
<path d="M338.82 11.3219C338.82 10.5619 339.436 9.94568 340.195 9.94568H344.322C345.082 9.94568 345.698 10.5619 345.698 11.3219C345.698 12.082 345.082 12.6982 344.322 12.6982H340.195C339.436 12.6982 338.82 12.082 338.82 11.3219Z" fill="white"/>
<path d="M347.417 11.3219C347.417 10.5619 348.033 9.94568 348.793 9.94568H362.206C362.966 9.94568 363.581 10.5619 363.581 11.3219C363.581 12.082 362.966 12.6982 362.206 12.6982H348.793C348.033 12.6982 347.417 12.082 347.417 11.3219Z" fill="white"/>
<defs>
<clipPath id="clip0">
<rect width="44.2125" height="44.9894" fill="white" transform="translate(418 89)"/>
</clipPath>
<clipPath id="clip1">
<rect width="44.2125" height="44.9894" fill="white" transform="translate(418 89)"/>
</clipPath>
</defs>
</svg>
