<svg width="36" height="36" viewBox="0 0 36 36" fill="none" xmlns="http://www.w3.org/2000/svg">
<path d="M31.855 10.615L32.705 11.065C34.115 11.815 34.675 13.545 33.975 14.975L33.135 16.705C32.735 17.525 32.735 18.485 33.135 19.305L33.975 21.035C34.675 22.465 34.115 24.205 32.705 24.945L31.005 25.845C30.195 26.275 29.635 27.045 29.475 27.945L29.145 29.835C28.865 31.405 27.395 32.475 25.815 32.255L23.915 31.985C23.015 31.855 22.095 32.155 21.445 32.785L20.065 34.125C18.915 35.235 17.095 35.235 15.945 34.125L14.565 32.785C13.905 32.155 12.995 31.855 12.095 31.985L10.195 32.255C8.61499 32.475 7.14499 31.405 6.86499 29.835L6.52499 27.955C6.36499 27.055 5.80499 26.285 4.99499 25.855L3.29499 24.955C1.88499 24.205 1.32499 22.475 2.02499 21.045L2.86499 19.315C3.26499 18.495 3.26499 17.535 2.86499 16.715L2.02499 14.975C1.32499 13.545 1.88499 11.805 3.29499 11.065L4.99499 10.165C5.80499 9.73498 6.36499 8.96498 6.52499 8.06498L6.85499 6.17498C7.13499 4.59498 8.60499 3.52498 10.185 3.74498L12.085 4.01498C12.985 4.14498 13.905 3.84498 14.555 3.21498L15.935 1.87498C17.085 0.76498 18.905 0.76498 20.055 1.87498L21.435 3.21498C22.095 3.84498 23.005 4.14498 23.905 4.01498L25.805 3.74498C27.385 3.52498 28.855 4.59498 29.135 6.16498L29.405 7.67498" stroke="#040237" stroke-width="2" stroke-miterlimit="10" stroke-linecap="round"/>
<path d="M25.2851 13.395L15.2551 22.945L10.7251 18.405" stroke="#040237" stroke-width="2" stroke-miterlimit="10" stroke-linecap="round"/>
<path d="M15.9451 1.87498C17.0951 0.76498 18.9151 0.76498 20.0651 1.87498L21.4451 3.21498C22.1051 3.84498 23.0151 4.14498 23.9151 4.01498L25.8151 3.74498C27.3951 3.52498 28.8651 4.59498 29.1451 6.16498L29.4151 7.67498" stroke="#F5768F" stroke-width="2" stroke-miterlimit="10" stroke-linecap="round"/>
</svg>
