<?xml version="1.0" encoding="UTF-8"?>
<svg width="157px" height="16px" viewBox="0 0 157 16" version="1.1" xmlns="http://www.w3.org/2000/svg" xmlns:xlink="http://www.w3.org/1999/xlink">
    <title>gocardless</title>
    <g id="ðŸ-Logos" stroke="none" stroke-width="1" fill="none" fill-rule="evenodd">
        <g id="gocardless" fill="#0051B6" fill-rule="nonzero">
            <path d="M8.324,15.966 C3.402,15.966 -1.42108547e-14,12.598 -1.42108547e-14,8.033 L-1.42108547e-14,7.983 C-1.42108547e-14,3.603 3.504,0 8.29,0 C11.14,0 12.85,0.758 14.507,2.122 L12.33,4.698 C11.105,3.704 10.017,3.131 8.186,3.131 C5.646,3.131 3.643,5.321 3.643,7.931 L3.643,7.983 C3.643,10.813 5.63,12.883 8.445,12.883 C9.705,12.883 10.845,12.581 11.727,11.958 L11.727,9.751 L8.22,9.751 L8.22,6.821 L15.095,6.821 L15.095,13.524 C13.471,14.856 11.225,15.967 8.325,15.967 M25.803,15.966 C20.915,15.966 17.409,12.412 17.409,8.034 L17.409,7.983 C17.409,3.603 20.949,0 25.837,0 C30.724,0 34.231,3.554 34.231,7.932 L34.231,7.983 C34.231,12.363 30.691,15.966 25.801,15.966 L25.803,15.966 Z M30.587,7.983 C30.587,5.339 28.601,3.133 25.803,3.133 C23.005,3.133 21.053,5.288 21.053,7.933 L21.053,7.983 C21.053,10.627 23.04,12.833 25.855,12.833 C28.67,12.833 30.605,10.678 30.605,8.033 L30.605,7.983 L30.587,7.983 Z M44.267,15.966 C39.707,15.966 36.339,12.463 36.339,8 C36.339,3.587 39.689,0 44.335,0 C47.202,0 48.929,0.994 50.501,2.442 L49.274,3.722 C47.944,2.492 46.442,1.599 44.3,1.599 C40.795,1.599 38.17,4.361 38.17,7.949 C38.17,11.536 40.812,14.349 44.3,14.349 C46.477,14.349 47.894,13.539 49.413,12.125 L50.588,13.255 C48.948,14.887 47.134,15.965 44.268,15.965 M68.136,15.697 L66.22,15.697 L64.354,11.621 L55.734,11.621 L53.852,15.697 L52.022,15.697 L59.242,0.151 L60.916,0.151 L68.136,15.697 Z M60.07,2.189 L56.46,10.055 L63.663,10.055 L60.07,2.189 Z M81.608,15.697 L77.014,9.701 L72.49,9.701 L72.49,15.697 L70.71,15.697 L70.71,0.269 L77.515,0.269 C81.003,0.269 83.232,2.105 83.232,4.884 C83.232,7.462 81.418,8.961 78.932,9.399 L83.784,15.699 L81.608,15.699 L81.608,15.697 Z M77.376,1.869 L72.49,1.869 L72.49,8.135 L77.342,8.135 C79.708,8.135 81.418,6.939 81.418,4.935 C81.418,3.015 79.933,1.869 77.376,1.869 Z M92.178,15.697 L86.686,15.697 L86.686,0.269 L92.178,0.269 C97.153,0.269 100.59,3.604 100.59,7.966 C100.59,12.328 97.153,15.696 92.178,15.696 M92.178,1.869 L88.465,1.869 L88.465,14.079 L92.178,14.079 C96.185,14.079 98.742,11.436 98.742,7.999 C98.742,4.564 96.185,1.869 92.178,1.869 M103.958,0.269 L105.738,0.269 L105.738,14.097 L114.648,14.097 L114.648,15.697 L103.958,15.697 L103.958,0.269 Z M128.725,1.853 L119.07,1.853 L119.07,7.123 L127.706,7.123 L127.706,8.707 L119.07,8.707 L119.07,14.114 L128.846,14.114 L128.846,15.698 L117.29,15.698 L117.29,0.269 L128.725,0.269 L128.725,1.853 L128.725,1.853 Z M137.707,7.141 C141.23,7.899 142.854,9.145 142.854,11.521 C142.854,14.181 140.591,15.899 137.447,15.899 C134.943,15.899 132.887,15.089 130.987,13.423 L132.093,12.143 C133.751,13.591 135.323,14.333 137.517,14.333 C139.641,14.333 141.04,13.255 141.04,11.688 C141.04,10.24 140.246,9.415 136.93,8.741 C133.285,7.966 131.61,6.821 131.61,4.261 C131.61,1.785 133.803,0.034 136.808,0.034 C139.123,0.034 140.764,0.674 142.37,1.938 L141.334,3.283 C139.866,2.123 138.397,1.617 136.774,1.617 C134.719,1.617 133.406,2.711 133.406,4.127 C133.423,5.607 134.236,6.417 137.706,7.141 M151.748,7.141 C155.272,7.899 156.895,9.145 156.895,11.521 C156.895,14.181 154.633,15.899 151.489,15.899 C148.984,15.899 146.929,15.089 145.029,13.423 L146.134,12.143 C147.792,13.591 149.364,14.333 151.557,14.333 C153.682,14.333 155.081,13.255 155.081,11.688 C155.081,10.24 154.286,9.415 150.971,8.741 C147.326,7.966 145.651,6.821 145.651,4.261 C145.651,1.785 147.844,0.034 150.849,0.034 C153.164,0.034 154.805,0.674 156.411,1.938 L155.376,3.283 C153.906,2.123 152.439,1.617 150.816,1.617 C148.76,1.617 147.448,2.711 147.448,4.127 C147.448,5.607 148.26,6.417 151.748,7.141" id="Shape"></path>
        </g>
    </g>
</svg>