<svg xmlns="http://www.w3.org/2000/svg" width="620" height="188" viewBox="0 0 620 188" fill="none"><path d="M57.4315 151.926C57.3887 152.354 57.3673 152.782 57.3459 153.189C57.3246 153.595 57.3459 154.002 57.3459 154.387C57.3459 154.772 57.3887 155.158 57.4529 155.522C57.5171 155.885 57.5599 156.249 57.6455 156.592C57.731 156.934 57.8166 157.277 57.9236 157.576C58.0305 157.876 58.1589 158.197 58.2873 158.497C58.4156 158.796 58.5868 159.075 58.7365 159.353C58.8863 159.631 59.0788 159.888 59.2714 160.123C59.4639 160.359 59.6778 160.594 59.9132 160.808C60.1485 161.022 60.3838 161.215 60.6405 161.408C60.8973 161.6 61.1754 161.771 61.4535 161.921C61.7316 162.071 62.0311 162.221 62.3306 162.349C62.6301 162.478 62.951 162.585 63.2933 162.692C63.6356 162.799 63.9779 162.863 64.3416 162.927C64.7053 162.991 65.0904 163.034 65.4755 163.077C65.8606 163.12 66.267 163.12 66.6949 163.12C67.1228 163.12 67.5079 163.12 67.8929 163.077C68.278 163.034 68.6631 162.991 69.0482 162.927C69.4333 162.863 69.797 162.777 70.1393 162.692C70.4816 162.606 70.8453 162.478 71.1662 162.349C71.5085 162.221 71.8294 162.071 72.1289 161.921C72.4284 161.771 72.7493 161.6 73.0274 161.408C73.3055 161.215 73.5836 161.022 73.8617 160.808C74.1399 160.594 74.3752 160.359 74.6319 160.123C74.8672 159.888 75.1026 159.631 75.3379 159.353C75.5732 159.075 75.7658 158.796 75.9583 158.497C76.1508 158.197 76.3434 157.897 76.5145 157.576C76.6857 157.255 76.8354 156.934 76.9852 156.592C77.1349 156.249 77.2633 155.885 77.3703 155.522C77.4772 155.158 77.5842 154.772 77.6912 154.387C77.7982 154.002 77.8623 153.595 77.9265 153.189C77.9907 152.782 78.0549 152.354 78.0977 151.926L81.9913 111.002H107.599L103.941 154.644C103.855 155.714 103.706 156.784 103.535 157.833C103.363 158.882 103.107 159.931 102.829 160.937C102.55 161.943 102.208 162.949 101.844 163.933C101.481 164.918 101.053 165.881 100.582 166.801C100.112 167.743 99.5981 168.642 99.0205 169.519C98.4429 170.397 97.8439 171.253 97.1807 172.088C96.5175 172.923 95.8115 173.714 95.0627 174.485C94.3139 175.256 93.5224 176.005 92.688 176.711C91.8537 177.417 90.9552 178.081 90.0138 178.723C89.0725 179.365 88.1098 179.964 87.0829 180.521C86.056 181.077 84.9864 181.591 83.8739 182.083C82.7614 182.575 81.6062 183.004 80.4082 183.389C79.2101 183.774 77.9693 184.138 76.6857 184.438C75.4021 184.737 74.0757 184.994 72.6851 185.208C71.2945 185.422 69.9039 185.572 68.4278 185.679C66.9516 185.786 65.4755 185.829 63.9138 185.829C62.352 185.829 60.8973 185.765 59.4639 185.679C58.0305 185.593 56.6614 185.422 55.3563 185.208C54.0513 184.994 52.7677 184.737 51.5697 184.438C50.3717 184.138 49.2164 183.795 48.1039 183.389C46.9915 183.004 45.9432 182.554 44.9591 182.083C43.975 181.612 43.0337 181.077 42.1352 180.521C41.2366 179.964 40.4237 179.365 39.6321 178.723C38.8406 178.081 38.1132 177.417 37.45 176.711C36.7654 176.005 36.145 175.256 35.5673 174.485C34.9897 173.714 34.4763 172.923 34.0056 172.088C33.535 171.253 33.1071 170.397 32.7434 169.519C32.3797 168.642 32.0588 167.722 31.7807 166.801C31.5026 165.859 31.2886 164.918 31.1175 163.933C30.9463 162.949 30.8394 161.964 30.7538 160.937C30.6682 159.909 30.6682 158.882 30.6896 157.833C30.711 156.784 30.7966 155.714 30.9036 154.644L35.9096 111.002" stroke="white" stroke-width="3" stroke-linecap="round" stroke-linejoin="round"></path><path d="M8.33301 73.0757H36.6366L61.6671 110.981H35.9948L8.33301 73.0757Z" fill="#FF7029" stroke="#FF7029" stroke-width="3" stroke-linecap="round" stroke-linejoin="round"></path><path d="M54.3506 117.595L59.0358 73.0757L82.0124 110.981L78.1188 151.926L54.3506 117.595Z" fill="#FEC14C"></path><path d="M82.8467 120.548L87.2537 73.0757L107.62 110.981L103.962 154.623" stroke="#ADF7FB" stroke-width="3" stroke-linecap="round" stroke-linejoin="round"></path><path d="M35.1822 173.886C34.6902 173.158 34.2195 172.43 33.813 171.66C33.4066 170.889 33.0215 170.097 32.7006 169.284C32.3797 168.471 32.0802 167.636 31.8448 166.78C31.5667 165.838 31.3528 164.896 31.1816 163.912C31.0105 162.927 30.9035 161.943 30.8179 160.915C30.7538 159.888 30.7324 158.861 30.7538 157.812C30.7752 156.763 30.8607 155.693 30.9677 154.623L35.9738 110.981L8.33335 73.0757L2.30038 120.548C2.15062 121.726 2.06505 122.881 2.02226 124.037C1.97947 125.193 2.00087 126.306 2.06505 127.419C2.12923 128.532 2.25759 129.624 2.42874 130.694C2.59989 131.764 2.83521 132.813 3.11333 133.819C3.37005 134.739 3.69096 135.659 4.03325 136.537C4.39694 137.414 4.78202 138.292 5.23129 139.127C5.68055 139.961 6.1726 140.775 6.72884 141.567C7.26367 142.359 7.86269 143.108 8.5045 143.835C16.9977 153.488 28.3363 166.33 36.8295 175.983C36.2519 175.32 35.6957 174.614 35.2036 173.907L35.1822 173.886Z" fill="#F5768F" stroke="#F5768F" stroke-width="3" stroke-linecap="round" stroke-linejoin="round"></path><path d="M143.862 110.981L163.501 147.281H163.972L165.02 110.981H189.494L185.879 183.646H158.794L139.369 145.483H138.877L137.593 183.646H112.435" stroke="#3843D0" stroke-width="3" stroke-linecap="round" stroke-linejoin="round"></path><path d="M150.473 73.0757H177.45L175.268 110.981H165.02L150.473 73.0757Z" fill="#FF7029" stroke="#FF7029" stroke-width="3" stroke-linecap="round" stroke-linejoin="round"></path><path d="M98.9561 73.0757H127.174L143.861 110.981H118.253L98.9561 73.0757Z" fill="#FF7029" stroke="#FF7029" stroke-width="3" stroke-linecap="round" stroke-linejoin="round"></path><path d="M91.9609 152.204L98.9566 73.0757L118.254 110.981L114.959 152.204H91.9609Z" fill="#F5768F" stroke="#F5768F" stroke-width="3" stroke-linecap="round" stroke-linejoin="round"></path><path d="M149.124 112.544L150.472 73.0757L165.019 110.981L163.971 147.281L149.124 112.544Z" fill="#F5768F" stroke="#F5768F" stroke-width="3" stroke-linecap="round" stroke-linejoin="round"></path><path d="M173.085 152.204L185.878 183.646H158.794L143.177 152.204H173.085Z" stroke="white" stroke-width="3" stroke-linecap="round" stroke-linejoin="round"></path><path d="M177.449 73.0757L189.494 110.981L185.878 183.646L173.085 152.204L177.449 73.0757Z" stroke="white" stroke-width="3" stroke-linecap="round" stroke-linejoin="round"></path><path d="M119.751 152.204L137.593 183.646H112.435L91.9609 152.204H119.751Z" stroke="white" stroke-width="3" stroke-linecap="round" stroke-linejoin="round"></path><path d="M220.344 110.981L218.868 152.204H201.945L203.742 110.981H220.344Z" fill="#FEC14C"></path><path d="M189.322 152.204L193.152 73.0757L203.742 110.981L200.575 183.646L189.322 152.204Z" fill="#FFADBB" stroke="#F5768F" stroke-opacity="0.3" stroke-width="3" stroke-linecap="round" stroke-linejoin="round"></path><path d="M221.733 73.0757L229.691 110.981L227.317 183.646L218.866 152.204L221.733 73.0757Z" stroke="white" stroke-width="3" stroke-linecap="round" stroke-linejoin="round"></path><path d="M218.867 152.204L227.317 183.646H200.575L189.322 152.204H218.867Z" stroke="white" stroke-width="3" stroke-linecap="round" stroke-linejoin="round"></path><path d="M547.279 73.0757H605.234L577.808 110.981H525.201L547.279 73.0757Z" fill="#FF7029" stroke="#FF7029" stroke-width="3" stroke-linecap="round" stroke-linejoin="round"></path><path d="M605.234 73.0757L607.951 94.6289L575.305 137.479L573.037 117.638L605.234 73.0757Z" fill="#F5768F" stroke="#F5768F" stroke-width="3" stroke-linecap="round" stroke-linejoin="round"></path><path d="M576.331 94.6289L577.08 101.435L551.986 137.072L551.365 130.822L576.331 94.6289Z" fill="#FEC14C"></path><path d="M606.817 101.435L609.384 122.068L568.993 172.002L566.875 153.06L606.817 101.435Z" fill="#F5768F" stroke="#F5768F" stroke-width="3" stroke-linecap="round" stroke-linejoin="round"></path><path d="M579.39 122.068L580.246 129.538L562.81 152.204H559.944H556.777L579.39 122.068Z" fill="#FEC14C"></path><path d="M614.347 129.538L617.214 152.204L587.883 183.646L585.509 162.885L614.347 129.538Z" fill="#FF7029" fill-opacity="0.4" stroke="#FFA984" stroke-width="3" stroke-linecap="round" stroke-linejoin="round"></path><path d="M617.215 152.204L587.884 183.646H531.833L555.302 152.204H617.215Z" stroke="white" stroke-width="3" stroke-linecap="round" stroke-linejoin="round"></path><path d="M555.302 152.204L531.833 183.646L525.201 110.981L547.279 73.0757L555.302 152.204Z" stroke="#3843D0" stroke-width="3" stroke-linecap="round" stroke-linejoin="round"></path><path d="M540.326 80.9737C539.705 80.5456 539.085 80.1175 538.443 79.7109C537.801 79.3042 537.16 78.9189 536.496 78.5337C535.833 78.1484 535.17 77.7846 534.507 77.4421C533.822 77.0782 533.159 76.7572 532.453 76.4147C531.768 76.0937 531.062 75.7726 530.356 75.473C529.65 75.1733 528.944 74.8951 528.238 74.6169C527.532 74.3386 526.805 74.0818 526.099 73.8463C525.393 73.6109 524.666 73.3755 523.938 73.1614C523.211 72.9474 522.484 72.7548 521.756 72.5621C521.029 72.3695 520.301 72.1983 519.574 72.0484C518.847 71.8986 518.119 71.7488 517.392 71.6204C516.665 71.492 515.937 71.3849 515.231 71.2779C514.504 71.1923 513.798 71.1067 513.07 71.0425C512.364 70.9783 511.637 70.9355 510.952 70.8927C510.268 70.8499 509.541 70.8499 508.856 70.8499C507.829 70.8499 506.781 70.8713 505.754 70.9355C504.727 70.9997 503.679 71.0853 502.63 71.1923C501.582 71.2993 500.555 71.4491 499.528 71.6418C498.501 71.8344 497.496 72.027 496.49 72.2839C495.485 72.5193 494.501 72.7976 493.538 73.1186C492.575 73.4397 491.613 73.7821 490.693 74.146C489.773 74.5312 488.874 74.9379 487.997 75.3874C487.12 75.8369 486.286 76.3291 485.473 76.8642C484.66 77.3779 483.89 77.9558 483.141 78.5551C482.414 79.1544 481.708 79.7965 481.066 80.4814C480.424 81.1663 479.825 81.894 479.269 82.6431C478.712 83.4137 478.22 84.227 477.771 85.0617C477.707 85.1901 477.643 85.2972 477.579 85.4256C477.514 85.554 477.45 85.6824 477.386 85.8108C477.322 85.9393 477.258 86.0677 477.215 86.1961C477.151 86.3245 477.108 86.4529 477.044 86.5814C472.337 97.6255 466.069 112.372 461.362 123.417C461.405 123.288 461.469 123.181 461.512 123.053C461.555 122.924 461.619 122.817 461.683 122.71C461.747 122.603 461.79 122.475 461.854 122.368C461.919 122.261 461.961 122.132 462.025 122.025C462.432 121.234 462.903 120.506 463.395 119.799C463.908 119.093 464.443 118.43 465.042 117.809C465.641 117.188 466.261 116.589 466.946 116.032C467.609 115.476 468.315 114.962 469.064 114.47C469.791 113.978 470.562 113.528 471.353 113.122C472.145 112.715 472.958 112.33 473.813 111.966C474.648 111.623 475.525 111.302 476.402 111.024C477.279 110.746 478.178 110.489 479.098 110.254C480.017 110.018 480.937 109.825 481.857 109.676C482.799 109.504 483.719 109.376 484.681 109.269C485.623 109.162 486.564 109.076 487.505 109.034C488.447 108.991 489.388 108.948 490.329 108.948C490.95 108.948 491.591 108.948 492.233 108.991C492.875 109.034 493.517 109.055 494.159 109.119C494.8 109.183 495.464 109.248 496.105 109.333C496.747 109.419 497.41 109.526 498.074 109.633C498.737 109.74 499.379 109.868 500.042 110.018C500.705 110.168 501.368 110.318 502.01 110.489C502.673 110.66 503.315 110.831 503.978 111.045C504.641 111.26 505.283 111.452 505.925 111.666C506.567 111.88 507.23 112.137 507.872 112.372C508.514 112.629 509.155 112.886 509.797 113.164C510.439 113.443 511.059 113.721 511.68 114.021C512.3 114.32 512.921 114.641 513.52 114.962C514.119 115.283 514.739 115.626 515.317 115.968C515.916 116.311 516.493 116.675 517.071 117.06C517.649 117.424 518.205 117.809 518.761 118.216C519.317 118.622 519.852 119.029 520.387 119.436L542.08 82.2579C541.481 81.8084 540.882 81.3589 540.283 80.9309L540.326 80.9737Z" fill="#FFADBB" stroke="#FFADBB" stroke-width="3" stroke-linecap="round" stroke-linejoin="round"></path><path d="M466.347 98.2032C466.262 96.9618 466.112 95.7632 465.919 94.6503C465.705 93.5159 465.449 92.4457 465.128 91.4183C464.807 90.391 464.422 89.4278 463.994 88.5075C463.566 87.5871 463.074 86.731 462.561 85.8963C462.026 85.0829 461.469 84.3124 460.849 83.5847C460.229 82.857 459.587 82.1721 458.881 81.5514C458.175 80.9093 457.447 80.3314 456.677 79.7749C455.907 79.2184 455.094 78.7047 454.26 78.2338C453.425 77.763 452.57 77.3349 451.671 76.9282C450.773 76.5216 449.874 76.1577 448.933 75.8366C447.992 75.5156 447.05 75.2159 446.066 74.9591C445.082 74.7023 444.098 74.4668 443.092 74.2742C442.087 74.0602 441.081 73.8889 440.055 73.7391C439.028 73.5893 438.001 73.4823 436.952 73.3752C435.904 73.2896 434.856 73.2254 433.808 73.1826C432.759 73.1398 431.711 73.1184 430.663 73.1184H394.422L386.442 111.024H419.346C420.287 111.024 421.25 111.024 422.191 111.088C423.132 111.131 424.095 111.195 425.036 111.281C425.978 111.366 426.919 111.473 427.86 111.602C428.802 111.73 429.721 111.901 430.62 112.094C431.54 112.287 432.438 112.501 433.316 112.736C434.193 112.972 435.07 113.25 435.904 113.549C436.76 113.849 437.573 114.192 438.386 114.555C439.199 114.919 439.969 115.326 440.718 115.754C441.467 116.182 442.194 116.674 442.9 117.167C443.606 117.68 444.269 118.215 444.889 118.815C445.51 119.393 446.109 120.035 446.665 120.698C447.221 121.362 447.735 122.068 448.205 122.839C448.676 123.588 449.104 124.401 449.489 125.236C449.874 126.07 450.216 126.969 450.495 127.911C450.773 128.853 451.029 129.837 451.201 130.886C451.372 131.935 451.5 133.027 451.564 134.161C451.607 134.717 451.607 135.253 451.607 135.788C451.607 136.323 451.586 136.858 451.521 137.371C451.479 137.885 451.415 138.399 451.329 138.913C451.243 139.426 451.136 139.918 451.029 140.411C450.965 140.646 450.922 140.882 450.858 141.096C450.794 141.31 450.73 141.545 450.644 141.781C450.58 142.016 450.495 142.23 450.409 142.444C450.323 142.658 450.238 142.894 450.152 143.108C454.559 132.577 460.421 118.536 464.807 108.006C464.914 107.771 464.999 107.535 465.085 107.278C465.171 107.043 465.256 106.786 465.342 106.551C465.427 106.315 465.491 106.058 465.577 105.801C465.641 105.545 465.705 105.309 465.77 105.052C465.898 104.517 466.005 103.982 466.09 103.426C466.176 102.869 466.24 102.313 466.283 101.756C466.326 101.2 466.347 100.622 466.347 100.044C466.347 99.466 466.347 98.8667 466.283 98.2888L466.347 98.2032Z" fill="#FF7029" stroke="#FF7029" stroke-width="3" stroke-linecap="round" stroke-linejoin="round"></path><path d="M422.534 93.2163L423.154 105.844L412.393 141.117L411.88 129.517L422.534 93.2163Z" fill="#FFADBB" stroke="#FFADBB" stroke-width="3" stroke-linecap="round" stroke-linejoin="round"></path><path d="M425.079 123.331L414.082 157.17H413.248L424.159 123.331H425.079Z" stroke="#ADF7FB" stroke-width="3" stroke-linecap="round" stroke-linejoin="round"></path><path d="M518.419 173.928C518.59 173.693 518.739 173.436 518.889 173.201C519.039 172.965 519.189 172.708 519.338 172.452C519.488 172.195 519.617 171.938 519.745 171.681C519.873 171.424 520.002 171.167 520.13 170.889C520.494 170.054 520.836 169.198 521.093 168.299C521.349 167.4 521.585 166.459 521.735 165.495C521.884 164.532 521.991 163.526 522.013 162.499C522.034 161.472 522.013 160.401 521.927 159.288C521.841 158.347 521.713 157.426 521.521 156.57C521.328 155.714 521.093 154.879 520.793 154.087C520.494 153.296 520.173 152.546 519.809 151.84C519.445 151.134 519.018 150.449 518.568 149.785C518.119 149.143 517.627 148.523 517.092 147.923C516.557 147.324 516.001 146.767 515.423 146.232C514.846 145.697 514.225 145.184 513.584 144.713C512.942 144.242 512.279 143.771 511.615 143.343C510.931 142.915 510.246 142.508 509.519 142.123C508.791 141.738 508.064 141.374 507.337 141.031C506.609 140.689 505.839 140.346 505.09 140.047C504.342 139.747 503.571 139.426 502.801 139.148C502.031 138.87 501.261 138.591 500.491 138.335C499.721 138.078 498.95 137.821 498.202 137.585C497.453 137.35 496.704 137.115 495.955 136.9C495.207 136.686 494.479 136.472 493.773 136.258C493.431 136.151 493.11 136.066 492.789 135.959C492.468 135.852 492.169 135.766 491.869 135.68C491.57 135.595 491.292 135.509 491.035 135.424C490.778 135.338 490.5 135.252 490.265 135.167L508.984 99.3589C509.262 99.4445 509.54 99.5301 509.84 99.6371C510.139 99.7441 510.439 99.8298 510.781 99.9154C511.123 100.001 511.444 100.108 511.787 100.215C512.129 100.322 512.493 100.429 512.878 100.536C513.669 100.772 514.461 100.986 515.295 101.242C516.129 101.499 516.942 101.735 517.777 101.992C518.611 102.248 519.467 102.527 520.301 102.805C521.136 103.083 521.991 103.383 522.847 103.704C523.703 104.025 524.558 104.346 525.393 104.688C526.227 105.031 527.062 105.395 527.896 105.759C528.73 106.122 529.522 106.529 530.313 106.957C531.105 107.385 531.875 107.813 532.624 108.284C533.373 108.755 534.1 109.247 534.806 109.761C535.512 110.275 536.197 110.831 536.838 111.409C537.48 111.987 538.101 112.608 538.7 113.25C539.299 113.892 539.833 114.577 540.347 115.283C540.86 115.989 541.31 116.738 541.737 117.509C542.165 118.28 542.529 119.114 542.85 119.97C543.171 120.827 543.449 121.725 543.663 122.667C543.877 123.609 544.048 124.594 544.155 125.642C544.262 126.841 544.305 128.018 544.283 129.152C544.262 130.287 544.155 131.378 544.005 132.427C543.855 133.476 543.62 134.503 543.321 135.488C543.021 136.472 542.679 137.414 542.272 138.313C542.144 138.613 541.994 138.891 541.866 139.169C541.737 139.448 541.566 139.726 541.417 140.004C541.267 140.282 541.096 140.56 540.925 140.817C540.753 141.074 540.582 141.352 540.411 141.609C533.822 151.305 525.029 164.233 518.44 173.95L518.419 173.928Z" fill="#FF7029" stroke="#FF7029" stroke-width="3" stroke-linecap="round" stroke-linejoin="round"></path><path d="M514.803 129.987L495.335 163.291C495.335 163.291 495.442 163.077 495.485 162.97C495.528 162.863 495.57 162.735 495.592 162.606C495.613 162.478 495.635 162.349 495.656 162.221C495.677 162.092 495.656 161.943 495.656 161.793C495.656 161.622 495.613 161.45 495.592 161.301C495.57 161.151 495.506 160.98 495.442 160.83C495.378 160.68 495.314 160.53 495.207 160.402C495.1 160.273 495.014 160.123 494.886 159.995C494.757 159.867 494.629 159.738 494.479 159.61C494.33 159.481 494.158 159.353 493.966 159.224C493.773 159.096 493.559 158.968 493.345 158.839C493.132 158.711 492.875 158.582 492.597 158.454C492.34 158.325 492.04 158.197 491.72 158.069C491.399 157.94 491.078 157.812 490.714 157.662C490.35 157.512 489.965 157.384 489.559 157.234C489.152 157.084 488.703 156.934 488.254 156.784C487.805 156.635 487.313 156.463 486.778 156.314C486.243 156.164 485.708 155.971 485.13 155.8C484.553 155.629 483.954 155.436 483.312 155.243C482.67 155.051 482.007 154.837 481.301 154.644C480.616 154.43 479.953 154.216 479.29 153.981C478.627 153.745 477.964 153.531 477.3 153.274C476.637 153.017 475.995 152.782 475.375 152.504C474.755 152.226 474.113 151.969 473.492 151.669C472.872 151.369 472.273 151.07 471.695 150.77C471.118 150.47 470.519 150.128 469.962 149.786C469.406 149.443 468.85 149.079 468.336 148.694C467.823 148.309 467.31 147.923 466.818 147.517C466.325 147.11 465.855 146.661 465.406 146.211C464.956 145.762 464.528 145.291 464.122 144.799C463.715 144.306 463.33 143.793 462.988 143.257C462.646 142.722 462.303 142.166 462.004 141.588C461.704 141.01 461.426 140.411 461.191 139.769C460.956 139.127 460.742 138.485 460.549 137.821C460.357 137.157 460.207 136.451 460.1 135.702C459.993 134.953 459.886 134.225 459.843 133.433C459.779 132.47 459.779 131.55 459.822 130.651C459.865 129.752 459.95 128.896 460.079 128.061C460.207 127.226 460.399 126.434 460.613 125.664C460.827 124.893 461.105 124.166 461.405 123.459L477.086 86.624C476.765 87.3945 476.466 88.1865 476.231 89.0212C475.995 89.8559 475.803 90.7335 475.653 91.6324C475.503 92.5314 475.418 93.4731 475.375 94.4363C475.332 95.3994 475.353 96.4054 475.418 97.4542C475.482 98.3103 475.589 99.1236 475.717 99.937C475.846 100.75 476.017 101.499 476.231 102.227C476.445 102.955 476.68 103.683 476.958 104.346C477.236 105.01 477.536 105.694 477.878 106.315C478.22 106.957 478.584 107.557 478.969 108.134C479.354 108.712 479.782 109.269 480.231 109.804C480.68 110.339 481.151 110.853 481.665 111.345C482.178 111.837 482.691 112.308 483.226 112.758C483.761 113.207 484.339 113.635 484.916 114.042C485.494 114.448 486.114 114.855 486.735 115.219C487.355 115.583 487.997 115.947 488.639 116.311C489.281 116.674 489.965 116.995 490.65 117.295C491.334 117.616 492.019 117.916 492.725 118.215C493.431 118.515 494.137 118.793 494.864 119.05C495.592 119.307 496.319 119.564 497.047 119.821C497.774 120.078 498.523 120.313 499.271 120.527C500.042 120.762 500.79 120.977 501.496 121.191C502.202 121.405 502.866 121.597 503.507 121.811C504.149 122.025 504.748 122.197 505.326 122.368C505.903 122.539 506.438 122.732 506.952 122.881C507.465 123.053 507.957 123.202 508.407 123.374C508.856 123.545 509.284 123.673 509.69 123.823C510.097 123.973 510.46 124.123 510.803 124.251C511.145 124.38 511.466 124.529 511.765 124.679C512.065 124.829 512.343 124.958 512.6 125.086C512.856 125.214 513.092 125.364 513.284 125.493C513.477 125.621 513.691 125.771 513.862 125.899C514.033 126.028 514.183 126.178 514.311 126.327C514.439 126.477 514.568 126.627 514.653 126.777C514.739 126.927 514.846 127.076 514.91 127.248C514.974 127.419 515.038 127.569 515.081 127.74C515.124 127.911 515.145 128.082 515.167 128.275C515.167 128.446 515.167 128.596 515.167 128.746C515.167 128.896 515.145 129.046 515.103 129.174C515.06 129.302 515.038 129.452 514.996 129.559C514.953 129.666 514.889 129.795 514.825 129.923L514.803 129.987Z" stroke="#FFB99F" stroke-width="3" stroke-linecap="round" stroke-linejoin="round"></path><path d="M495.336 163.291V163.334H495.314V163.377C495.229 163.484 495.143 163.591 495.057 163.698C494.972 163.805 494.865 163.891 494.758 163.976C494.651 164.062 494.544 164.147 494.416 164.233C494.287 164.319 494.18 164.383 494.031 164.447C493.881 164.511 493.752 164.575 493.624 164.64C493.496 164.704 493.325 164.747 493.175 164.811C493.025 164.875 492.854 164.896 492.704 164.939C492.554 164.982 492.383 165.004 492.212 165.046C492.041 165.068 491.87 165.111 491.677 165.132C491.485 165.153 491.314 165.175 491.142 165.175C490.971 165.175 490.779 165.196 490.586 165.196C490.394 165.196 490.223 165.196 490.03 165.196C489.624 165.196 489.238 165.196 488.832 165.153C488.425 165.111 488.019 165.089 487.613 165.046C487.206 165.004 486.8 164.939 486.393 164.854C485.987 164.768 485.58 164.704 485.174 164.597C484.767 164.511 484.382 164.404 483.976 164.297C483.569 164.19 483.184 164.062 482.778 163.933C482.371 163.805 481.986 163.655 481.601 163.505C481.216 163.355 480.831 163.206 480.446 163.034C480.061 162.863 479.697 162.692 479.333 162.521C478.97 162.349 478.606 162.157 478.242 161.964C477.878 161.772 477.536 161.579 477.194 161.365C476.852 161.151 476.531 160.958 476.188 160.744C475.867 160.53 475.547 160.316 475.226 160.102C474.905 159.888 474.627 159.653 474.327 159.439C474.028 159.225 473.771 158.989 473.493 158.754C473.215 158.518 472.979 158.283 472.723 158.069L489.816 124.294C490.094 124.551 490.372 124.808 490.672 125.043C490.971 125.279 491.271 125.536 491.592 125.792C491.913 126.049 492.234 126.285 492.576 126.52C492.918 126.756 493.26 126.991 493.624 127.226C493.988 127.462 494.352 127.676 494.737 127.911C495.122 128.147 495.507 128.339 495.892 128.553C496.277 128.768 496.683 128.96 497.09 129.153C497.496 129.345 497.903 129.538 498.331 129.731C498.759 129.902 499.165 130.095 499.593 130.244C500.021 130.394 500.449 130.565 500.898 130.715C501.347 130.865 501.775 130.993 502.203 131.122C502.631 131.25 503.08 131.357 503.529 131.464C503.979 131.571 504.428 131.657 504.877 131.743C505.326 131.828 505.776 131.892 506.225 131.957C506.674 132.021 507.123 132.064 507.551 132.085C507.979 132.106 508.428 132.128 508.878 132.128C509.092 132.128 509.284 132.128 509.498 132.128C509.712 132.128 509.905 132.128 510.097 132.085C510.29 132.042 510.504 132.042 510.696 132.021C510.889 131.999 511.081 131.978 511.274 131.935C511.466 131.914 511.637 131.871 511.83 131.828C512.023 131.785 512.194 131.743 512.365 131.678C512.536 131.614 512.707 131.571 512.857 131.507C513.007 131.443 513.156 131.379 513.306 131.293C513.456 131.207 513.584 131.143 513.713 131.058C513.841 130.972 513.969 130.886 514.076 130.779C514.183 130.672 514.29 130.587 514.397 130.48C514.504 130.373 514.59 130.244 514.654 130.137V130.073H514.697V130.009C508.878 140.004 501.09 153.317 495.25 163.313L495.336 163.291Z" fill="#FEC14C"></path><path d="M540.369 141.609L518.398 173.95C518.056 174.442 517.692 174.935 517.307 175.405C516.922 175.876 516.515 176.326 516.109 176.775C515.702 177.225 515.253 177.631 514.804 178.038C514.354 178.445 513.884 178.83 513.392 179.215C512.664 179.772 511.916 180.285 511.124 180.778C510.333 181.27 509.52 181.719 508.685 182.126C507.851 182.533 506.974 182.918 506.097 183.26C505.219 183.603 504.3 183.924 503.38 184.181C502.438 184.459 501.497 184.694 500.534 184.908C499.572 185.123 498.609 185.294 497.625 185.422C496.641 185.551 495.657 185.658 494.672 185.722C493.688 185.786 492.683 185.829 491.677 185.829C490.886 185.829 490.094 185.829 489.303 185.786C488.511 185.743 487.72 185.7 486.928 185.636C486.136 185.572 485.345 185.486 484.575 185.379C483.805 185.272 483.013 185.165 482.243 185.016C481.473 184.887 480.681 184.737 479.911 184.566C479.141 184.395 478.371 184.224 477.622 184.031C476.873 183.838 476.103 183.624 475.376 183.41C474.648 183.196 473.899 182.961 473.172 182.704C472.445 182.447 471.717 182.19 471.011 181.912C470.305 181.634 469.599 181.356 468.893 181.056C468.187 180.756 467.524 180.457 466.839 180.114C466.155 179.772 465.513 179.451 464.871 179.108C464.229 178.766 463.588 178.402 462.967 178.038C462.347 177.674 461.748 177.31 461.149 176.925C460.55 176.54 459.994 176.155 459.416 175.748C458.838 175.341 458.303 174.935 457.79 174.506L473.429 142.23C474.006 142.68 474.627 143.129 475.247 143.578C475.868 144.028 476.509 144.435 477.151 144.863C477.793 145.291 478.478 145.697 479.162 146.083C479.847 146.468 480.553 146.875 481.259 147.238C481.965 147.624 482.692 147.988 483.441 148.33C484.19 148.673 484.938 149.015 485.709 149.357C486.479 149.7 487.249 150 488.04 150.299C488.832 150.599 489.624 150.877 490.437 151.155C491.249 151.434 492.062 151.69 492.875 151.926C493.688 152.161 494.523 152.397 495.378 152.611C496.234 152.825 497.069 153.017 497.924 153.189C498.78 153.36 499.636 153.531 500.491 153.681C501.347 153.831 502.203 153.959 503.08 154.066C503.957 154.173 504.813 154.28 505.69 154.344C506.567 154.409 507.444 154.473 508.3 154.516C509.156 154.558 510.054 154.58 510.91 154.58C512.001 154.58 513.114 154.537 514.205 154.473C515.296 154.409 516.387 154.28 517.478 154.13C518.569 153.981 519.639 153.788 520.687 153.574C521.735 153.36 522.784 153.082 523.81 152.782C524.837 152.482 525.843 152.14 526.806 151.776C527.768 151.412 528.731 150.984 529.672 150.535C530.614 150.085 531.491 149.593 532.368 149.058C533.245 148.523 534.058 147.966 534.85 147.367C535.384 146.96 535.898 146.532 536.411 146.083C536.925 145.633 537.395 145.184 537.845 144.691C538.294 144.199 538.743 143.707 539.171 143.193C539.599 142.68 539.984 142.144 540.348 141.609H540.369Z" stroke="white" stroke-width="3" stroke-linecap="round" stroke-linejoin="round"></path><path d="M476.873 152.204L452.741 119.542L441.082 148.865L443.179 152.204" stroke="white" stroke-width="3" stroke-linecap="round" stroke-linejoin="round"></path><path d="M443.177 152.204L430.363 183.646L414.082 157.17L425.078 123.331L443.177 152.204Z" stroke="white" stroke-width="3" stroke-linecap="round" stroke-linejoin="round"></path><path d="M437.145 103.297C436.974 103.49 436.781 103.661 436.567 103.832C436.353 104.004 436.139 104.153 435.926 104.282C435.69 104.432 435.455 104.56 435.22 104.667C434.984 104.774 434.727 104.881 434.471 104.988C434.214 105.074 433.936 105.159 433.679 105.245C433.401 105.331 433.144 105.395 432.866 105.438C432.588 105.502 432.31 105.545 432.032 105.587C431.754 105.63 431.476 105.673 431.198 105.694C430.919 105.716 430.641 105.737 430.363 105.759C430.085 105.759 429.828 105.78 429.55 105.801C429.294 105.801 429.037 105.801 428.78 105.801H423.175L412.414 141.074H417.506C417.741 141.074 417.955 141.074 418.212 141.074C418.447 141.074 418.704 141.074 418.939 141.031C419.196 141.031 419.431 140.989 419.688 140.967C419.945 140.946 420.201 140.903 420.458 140.86C420.715 140.817 420.971 140.775 421.228 140.71C421.485 140.646 421.72 140.603 421.977 140.518C422.212 140.454 422.469 140.368 422.704 140.282C422.94 140.197 423.175 140.09 423.389 139.983C423.624 139.876 423.838 139.747 424.031 139.619C424.245 139.49 424.437 139.341 424.63 139.191C424.822 139.041 424.993 138.87 425.143 138.698C425.293 138.527 425.443 138.335 425.571 138.142L437.658 102.612C437.509 102.826 437.359 103.04 437.188 103.233L437.145 103.297Z" fill="#FEC14C"></path><path d="M424.159 123.331L425.549 152.204L414.403 183.646L413.248 157.17L424.159 123.331Z" fill="#FFADBB" stroke="#FFADBB" stroke-width="3" stroke-linecap="round" stroke-linejoin="round"></path><path d="M414.404 183.646L425.55 152.204H397.311L388.839 183.646H414.404Z" stroke="white" stroke-width="3" stroke-linecap="round" stroke-linejoin="round"></path><path d="M397.31 152.204L388.838 183.646L386.442 110.981L394.444 73.0757L397.31 152.204Z" stroke="#3843D0" stroke-width="3" stroke-linecap="round" stroke-linejoin="round"></path><path d="M325.406 73.0757H386.164L378.954 110.981H323.78L325.406 73.0757Z" fill="#F5768F" stroke="#F5768F" stroke-width="3" stroke-linecap="round" stroke-linejoin="round"></path><path d="M352.64 101.435H382.356L375.425 137.072H348.469L352.64 101.435Z" fill="#FF7029" stroke="#FF7029" stroke-width="3" stroke-linecap="round" stroke-linejoin="round"></path><path d="M353.154 129.538H390.143L383.982 152.204H350.458L353.154 129.538Z" fill="#FFADBB" stroke="#FFADBB" stroke-width="3" stroke-linecap="round" stroke-linejoin="round"></path><path d="M390.893 152.204L383.041 183.646H324.273L325.985 152.204H390.893Z" stroke="white" stroke-width="3" stroke-linecap="round" stroke-linejoin="round"></path><path d="M325.984 152.204L324.272 183.646L323.78 110.981L325.406 73.0757L325.984 152.204Z" stroke="#FFADBB" stroke-width="3" stroke-linecap="round" stroke-linejoin="round"></path><path d="M287.454 73.0757H319.416L318.368 110.981H289.337L287.454 73.0757Z" stroke="#3843D0" stroke-width="3" stroke-linecap="round" stroke-linejoin="round"></path><path d="M227.724 73.0757H259.686L264.135 110.981H235.126L227.724 73.0757Z" fill="#FF7029" stroke="#FF7029" stroke-width="3" stroke-linecap="round" stroke-linejoin="round"></path><path d="M273.356 121.405L287.455 73.0757L289.337 110.981L277.528 152.204H276.309L273.356 121.405Z" fill="#F5768F" stroke="#F5768F" stroke-width="3" stroke-linecap="round" stroke-linejoin="round"></path><path d="M288.332 152.204L290.193 183.646H260.798L255.856 152.204H288.332Z" stroke="white" stroke-width="3" stroke-linecap="round" stroke-linejoin="round"></path><path d="M255.856 152.204L260.798 183.646L235.126 110.981L227.724 73.0757L255.856 152.204Z" stroke="white" stroke-width="3" stroke-linecap="round" stroke-linejoin="round"></path><path d="M319.416 73.0757L318.368 110.981L290.192 183.646L288.331 152.204L319.416 73.0757Z" fill="#FFADBB" stroke="#FFADBB" stroke-width="3" stroke-linecap="round" stroke-linejoin="round"></path><path d="M504.107 93.2163L492.726 116.696" stroke="#3843D0" stroke-width="3" stroke-linecap="round" stroke-linejoin="round"></path><g style="mix-blend-mode:screen" opacity="0.75"><path d="M54.3508 117.595C54.308 118.066 54.2438 118.515 54.1583 118.965C54.0727 119.414 53.9871 119.842 53.8801 120.27C53.7732 120.698 53.6448 121.105 53.5165 121.512C53.3881 121.918 53.2383 122.304 53.0672 122.667C52.896 123.053 52.7249 123.395 52.5324 123.759C52.3398 124.101 52.1259 124.444 51.9119 124.765C51.698 125.086 51.4627 125.386 51.206 125.685C50.9492 125.985 50.6925 126.263 50.4358 126.52C50.1577 126.777 49.8796 127.034 49.58 127.269C49.2805 127.505 48.981 127.719 48.6601 127.933C48.3392 128.125 47.9969 128.318 47.6546 128.489C47.3123 128.66 46.9486 128.81 46.585 128.96C46.2213 129.11 45.8362 129.217 45.4511 129.324C45.066 129.431 44.6595 129.517 44.2531 129.581C43.8466 129.645 43.4187 129.709 42.9695 129.752C42.5202 129.795 42.0923 129.816 41.6431 129.816C41.1938 129.816 40.7445 129.816 40.3167 129.752C39.8888 129.709 39.4609 129.666 39.0758 129.581C38.6907 129.495 38.2843 129.409 37.9206 129.324C37.5569 129.217 37.1932 129.088 36.8509 128.96C36.5086 128.81 36.1877 128.66 35.8882 128.489C35.5887 128.318 35.2892 128.125 35.0111 127.933C34.733 127.74 34.4762 127.505 34.2195 127.269C33.9628 127.034 33.7488 126.798 33.5349 126.52C33.321 126.263 33.1284 125.964 32.9359 125.685C32.7434 125.386 32.5936 125.086 32.4438 124.765C32.2941 124.444 32.1657 124.101 32.0374 123.759C31.909 123.417 31.8234 123.053 31.7379 122.667C31.6523 122.282 31.5881 121.897 31.5453 121.512C31.5025 121.105 31.4597 120.698 31.4383 120.27C31.4383 119.842 31.4383 119.414 31.4383 118.965C31.4383 118.515 31.5025 118.066 31.5453 117.595L36.637 73.0757H8.33335L2.30038 120.548C2.15062 121.726 2.06505 122.881 2.02226 124.037C1.97947 125.193 2.00087 126.306 2.06505 127.419C2.12923 128.532 2.25759 129.624 2.42874 130.694C2.59989 131.764 2.83521 132.813 3.11333 133.819C3.39145 134.825 3.73374 135.831 4.14022 136.794C4.5467 137.757 4.99596 138.699 5.5094 139.598C6.02285 140.496 6.57908 141.374 7.19949 142.209C7.8199 143.043 8.5045 143.857 9.25327 144.627C10.002 145.398 10.7936 146.126 11.6493 146.81C12.5051 147.495 13.425 148.159 14.3877 148.758C15.3504 149.379 16.3987 149.935 17.4898 150.449C18.5808 150.963 19.7361 151.455 20.9555 151.883C22.175 152.311 23.4372 152.696 24.7636 153.017C26.09 153.339 27.4805 153.617 28.9353 153.852C30.3901 154.088 31.909 154.259 33.4707 154.366C35.0539 154.473 36.6798 154.537 38.3698 154.537C40.0599 154.537 41.7286 154.473 43.3545 154.366C44.959 154.259 46.5422 154.088 48.0611 153.852C49.5801 153.617 51.0562 153.339 52.4682 153.017C53.9015 152.696 55.2707 152.311 56.5971 151.883C57.9235 151.455 59.2071 150.984 60.448 150.449C61.6888 149.935 62.8654 149.357 63.9993 148.758C65.1331 148.159 66.2242 147.495 67.2511 146.81C68.278 146.126 69.2835 145.398 70.2034 144.627C71.1447 143.857 72.0218 143.043 72.8562 142.209C73.6905 141.374 74.4821 140.496 75.2095 139.598C75.9369 138.699 76.6215 137.757 77.2633 136.794C77.9051 135.831 78.4827 134.846 78.9961 133.819C79.531 132.791 80.0016 131.764 80.4295 130.694C80.8574 129.624 81.2211 128.532 81.542 127.419C81.8629 126.306 82.1196 125.172 82.3335 124.037C82.5475 122.903 82.7186 121.726 82.8256 120.548L87.254 73.0757H59.036L54.3508 117.595V117.595Z" fill="#FFAEBC"></path><path d="M149.123 112.544H148.589L127.174 73.0757H98.9556L91.96 152.204H119.75L121.526 113.806H122.061L143.176 152.204H173.084L177.448 73.0757H150.471L149.123 112.544Z" fill="#FFAEBC"></path><path d="M189.322 152.204H218.867L221.733 73.0757H193.152L189.322 152.204Z" fill="#FFAEBC"></path><path d="M614.347 129.538H580.246L579.39 122.068H609.384L606.816 101.435H577.079L576.331 94.6289H607.95L605.233 73.0757H547.278L555.301 152.204H617.214L614.347 129.538Z" fill="#FFAEBC"></path><path d="M454.431 118.729C454.987 118.451 455.522 118.151 456.035 117.83C456.549 117.531 457.041 117.209 457.533 116.867C458.003 116.525 458.474 116.182 458.902 115.818C459.351 115.454 459.758 115.069 460.164 114.684C460.571 114.299 460.956 113.892 461.319 113.485C461.683 113.079 462.025 112.651 462.368 112.222C462.689 111.794 463.009 111.345 463.288 110.895C463.587 110.446 463.844 109.975 464.1 109.504C464.357 109.033 464.593 108.541 464.785 108.049C464.999 107.557 465.192 107.043 465.363 106.529C465.534 106.015 465.684 105.502 465.812 104.967C465.94 104.432 466.047 103.897 466.133 103.34C466.218 102.784 466.283 102.227 466.325 101.671C466.368 101.114 466.39 100.536 466.39 99.9583C466.39 99.3804 466.39 98.7811 466.325 98.2032C466.24 96.9618 466.09 95.7632 465.898 94.6503C465.684 93.5159 465.427 92.4457 465.106 91.4183C464.785 90.391 464.4 89.4278 463.972 88.5075C463.544 87.5871 463.052 86.731 462.539 85.8963C462.004 85.0829 461.448 84.3124 460.827 83.5847C460.207 82.857 459.565 82.1721 458.859 81.5514C458.153 80.9093 457.426 80.3314 456.656 79.7749C455.885 79.2184 455.072 78.7047 454.238 78.2338C453.404 77.763 452.548 77.3349 451.649 76.9282C450.751 76.5216 449.852 76.1577 448.911 75.8366C447.97 75.5156 447.028 75.2159 446.044 74.9591C445.06 74.7023 444.076 74.4668 443.071 74.2742C442.065 74.0602 441.06 73.8889 440.033 73.7391C439.006 73.5893 437.979 73.4823 436.931 73.3752C435.882 73.2896 434.834 73.2254 433.786 73.1826C432.738 73.1398 431.689 73.1184 430.641 73.1184H394.4L397.267 152.247H425.507L424.116 123.374H425.036L443.135 152.247H476.808L452.676 119.585C453.254 119.328 453.832 119.05 454.366 118.772L454.431 118.729ZM438.428 100.279C438.407 100.6 438.343 100.9 438.278 101.178C438.214 101.457 438.107 101.735 438 101.97C437.893 102.227 437.765 102.463 437.615 102.677C437.466 102.891 437.316 103.105 437.145 103.297C436.973 103.49 436.781 103.661 436.567 103.832C436.353 104.004 436.139 104.153 435.925 104.282C435.69 104.432 435.455 104.56 435.219 104.667C434.984 104.774 434.727 104.881 434.47 104.988C434.214 105.074 433.936 105.159 433.679 105.245C433.401 105.331 433.144 105.395 432.866 105.438C432.588 105.502 432.31 105.545 432.032 105.587C431.753 105.63 431.475 105.673 431.197 105.694C430.919 105.716 430.641 105.737 430.363 105.759C430.085 105.759 429.828 105.78 429.55 105.801C429.293 105.801 429.037 105.801 428.78 105.801H423.175L422.576 93.1734H429.422C429.636 93.1734 429.871 93.1734 430.106 93.1734C430.342 93.1734 430.577 93.1734 430.834 93.1948C431.069 93.1948 431.326 93.2162 431.582 93.259C431.839 93.3018 432.074 93.3018 432.331 93.3446C432.566 93.3875 432.823 93.4303 433.058 93.4731C433.294 93.5159 433.551 93.5801 433.786 93.6443C434.021 93.7085 434.257 93.7727 434.492 93.8583C434.727 93.9439 434.963 94.0296 435.176 94.1366C435.39 94.2436 435.626 94.3506 435.818 94.479C436.032 94.6074 436.225 94.7359 436.417 94.8857C436.61 95.0355 436.781 95.2067 436.952 95.378C437.123 95.5492 437.273 95.7418 437.423 95.9559C437.573 96.1699 437.701 96.3839 437.829 96.6194C437.958 96.8548 438.065 97.1116 438.15 97.3685C438.236 97.6467 438.321 97.925 438.364 98.2246C438.428 98.5243 438.45 98.8453 438.471 99.2092C438.492 99.5516 438.471 99.8941 438.471 100.215L438.428 100.279Z" fill="#FFAEBC"></path><path d="M543.642 122.646C543.428 121.704 543.15 120.805 542.829 119.949C542.508 119.093 542.123 118.28 541.716 117.488C541.288 116.717 540.839 115.968 540.326 115.262C539.812 114.556 539.277 113.871 538.678 113.229C538.101 112.587 537.48 111.966 536.817 111.388C536.175 110.81 535.491 110.254 534.785 109.74C534.079 109.226 533.351 108.713 532.603 108.263C531.854 107.792 531.084 107.343 530.292 106.936C529.501 106.508 528.688 106.123 527.875 105.737C527.062 105.352 526.227 105.01 525.372 104.667C524.537 104.325 523.681 104.004 522.826 103.683C521.97 103.362 521.136 103.083 520.28 102.784C519.424 102.506 518.59 102.227 517.755 101.97C516.921 101.714 516.087 101.457 515.274 101.221C514.461 100.986 513.648 100.75 512.856 100.515C512.471 100.408 512.108 100.301 511.765 100.194C511.423 100.087 511.081 100.001 510.76 99.8943C510.439 99.8087 510.118 99.7017 509.818 99.6161C509.519 99.5304 509.241 99.4448 508.963 99.3378C508.685 99.2522 508.428 99.1452 508.193 99.0596C507.936 98.974 507.701 98.8883 507.487 98.8027C507.273 98.7171 507.037 98.6315 506.845 98.5459C506.652 98.4603 506.46 98.3747 506.267 98.289C506.096 98.2034 505.925 98.1178 505.775 98.0108C505.625 97.9252 505.476 97.8182 505.347 97.7326C505.219 97.6469 505.091 97.5399 504.984 97.4329C504.877 97.3259 504.77 97.2189 504.684 97.1119C504.598 97.0048 504.513 96.8978 504.427 96.7908C504.363 96.6838 504.299 96.5554 504.256 96.4269C504.213 96.2985 504.171 96.1701 504.128 96.0417C504.106 95.9133 504.085 95.7634 504.064 95.6136C504.064 95.4638 504.064 95.314 504.064 95.1641C504.064 95.0143 504.085 94.8859 504.128 94.7575C504.149 94.6291 504.192 94.5006 504.256 94.3722C504.299 94.2438 504.363 94.1368 504.449 94.0298C504.513 93.9227 504.598 93.8157 504.684 93.7087C504.77 93.6017 504.877 93.5161 504.984 93.4305C505.091 93.3449 505.219 93.2592 505.347 93.1736C505.476 93.088 505.604 93.0238 505.754 92.9382C505.903 92.874 506.053 92.8098 506.224 92.7456C506.396 92.6813 506.567 92.6385 506.738 92.5743C506.909 92.5101 507.102 92.4673 507.294 92.4245C507.487 92.3817 507.701 92.3389 507.893 92.3175C508.107 92.2961 508.321 92.2533 508.535 92.2319C508.749 92.2105 508.984 92.1891 509.219 92.1677C509.455 92.1677 509.712 92.1463 509.947 92.1463C510.182 92.1463 510.46 92.1463 510.717 92.1463C510.995 92.1463 511.273 92.1463 511.573 92.1677C511.872 92.1677 512.172 92.2105 512.471 92.2533C512.771 92.2961 513.092 92.3389 513.413 92.3817C513.734 92.4245 514.054 92.4887 514.375 92.5743C514.696 92.6385 515.039 92.7242 515.359 92.8098C515.702 92.8954 516.023 93.0024 516.365 93.1094C516.707 93.2164 517.05 93.3235 517.392 93.4519C517.734 93.5803 518.076 93.7087 518.419 93.8585C518.761 94.0084 519.103 94.1582 519.446 94.308C519.788 94.4578 520.13 94.6291 520.472 94.8003C520.815 94.9715 521.136 95.1641 521.478 95.3568C521.799 95.5494 522.141 95.742 522.462 95.9561C522.783 96.1701 523.104 96.3841 523.403 96.5982C523.724 96.8122 524.024 97.0476 524.323 97.3045C524.623 97.5399 524.922 97.7968 525.2 98.0536C525.479 98.3104 525.757 98.5673 526.035 98.8455L542.208 82.3007C541.609 81.8512 541.01 81.4017 540.411 80.9737C539.791 80.5456 539.17 80.1175 538.529 79.7109C537.887 79.3042 537.245 78.9189 536.582 78.5337C535.919 78.1484 535.255 77.7846 534.592 77.4421C533.908 77.0782 533.244 76.7572 532.538 76.4147C531.854 76.0937 531.148 75.7726 530.442 75.473C529.736 75.1733 529.03 74.8951 528.324 74.6169C527.618 74.3386 526.891 74.0818 526.185 73.8463C525.479 73.6109 524.751 73.3755 524.024 73.1614C523.296 72.9474 522.569 72.7548 521.842 72.5621C521.114 72.3695 520.387 72.1983 519.66 72.0484C518.932 71.8986 518.205 71.7488 517.477 71.6204C516.75 71.492 516.023 71.3849 515.317 71.2779C514.589 71.1923 513.883 71.1067 513.156 71.0425C512.45 70.9783 511.723 70.9355 511.038 70.8927C510.353 70.8499 509.626 70.8499 508.941 70.8499C507.914 70.8499 506.866 70.8713 505.839 70.9355C504.812 70.9997 503.764 71.0853 502.716 71.1923C501.668 71.2993 500.641 71.4491 499.614 71.6418C498.587 71.8344 497.581 72.027 496.576 72.2839C495.57 72.5193 494.586 72.7976 493.624 73.1186C492.661 73.4397 491.698 73.7821 490.778 74.146C489.858 74.5312 488.96 74.9379 488.083 75.3874C487.206 75.8369 486.371 76.3291 485.558 76.8642C484.745 77.3779 483.975 77.9558 483.226 78.5551C482.499 79.1544 481.793 79.7965 481.151 80.4814C480.509 81.1663 479.91 81.894 479.354 82.6431C478.798 83.4137 478.306 84.227 477.857 85.0617C477.407 85.9179 477.022 86.7954 476.68 87.7372C476.338 88.6789 476.081 89.6635 475.867 90.6908C475.653 91.7182 475.525 92.7884 475.46 93.9227C475.396 95.0357 475.396 96.2129 475.46 97.4329C475.525 98.289 475.632 99.1024 475.76 99.9157C475.888 100.708 476.06 101.478 476.273 102.206C476.487 102.934 476.723 103.661 477.001 104.346C477.279 105.031 477.578 105.695 477.921 106.315C478.263 106.957 478.627 107.557 479.012 108.135C479.397 108.713 479.825 109.269 480.274 109.804C480.723 110.339 481.194 110.853 481.707 111.345C482.221 111.837 482.734 112.308 483.269 112.758C483.804 113.207 484.382 113.635 484.959 114.042C485.537 114.449 486.157 114.855 486.778 115.219C487.398 115.604 488.04 115.947 488.682 116.311C489.345 116.653 490.008 116.974 490.693 117.295C491.377 117.616 492.062 117.916 492.768 118.216C493.474 118.515 494.18 118.772 494.907 119.05C495.635 119.307 496.362 119.564 497.089 119.821C497.817 120.056 498.566 120.313 499.314 120.527C500.084 120.763 500.833 120.977 501.539 121.191C502.245 121.405 502.908 121.597 503.55 121.811C504.192 122.004 504.791 122.197 505.369 122.368C505.946 122.539 506.481 122.732 506.995 122.882C507.508 123.053 508 123.203 508.449 123.374C508.899 123.545 509.326 123.674 509.733 123.823C510.139 123.973 510.503 124.123 510.845 124.251C511.188 124.401 511.509 124.53 511.808 124.679C512.108 124.829 512.386 124.958 512.642 125.086C512.899 125.215 513.134 125.364 513.327 125.493C513.541 125.621 513.733 125.771 513.905 125.899C514.076 126.049 514.226 126.178 514.354 126.328C514.482 126.477 514.611 126.627 514.696 126.777C514.803 126.927 514.889 127.077 514.953 127.248C515.017 127.419 515.081 127.569 515.124 127.74C515.167 127.911 515.188 128.083 515.21 128.275C515.21 128.446 515.21 128.618 515.21 128.789C515.21 128.96 515.167 129.11 515.145 129.26C515.103 129.41 515.06 129.538 515.017 129.688C514.974 129.838 514.889 129.945 514.825 130.073C514.739 130.202 514.653 130.309 514.568 130.416C514.461 130.523 514.375 130.63 514.247 130.715C514.14 130.822 514.012 130.908 513.883 130.993C513.755 131.079 513.605 131.165 513.477 131.229C513.327 131.293 513.177 131.379 513.028 131.443C512.878 131.507 512.707 131.571 512.535 131.614C512.364 131.657 512.193 131.721 512.001 131.764C511.829 131.807 511.637 131.85 511.444 131.871C511.252 131.892 511.059 131.935 510.867 131.957C510.674 131.978 510.482 131.999 510.268 132.021C510.054 132.042 509.861 132.042 509.669 132.064C509.455 132.064 509.262 132.064 509.048 132.064C508.599 132.064 508.171 132.064 507.722 132.021C507.273 131.978 506.823 131.957 506.396 131.892C505.946 131.828 505.497 131.764 505.048 131.678C504.598 131.593 504.149 131.507 503.7 131.4C503.251 131.293 502.823 131.186 502.374 131.058C501.924 130.929 501.496 130.801 501.069 130.651C500.641 130.501 500.191 130.351 499.764 130.18C499.336 130.009 498.908 129.838 498.501 129.666C498.073 129.495 497.667 129.303 497.26 129.089C496.854 128.896 496.448 128.682 496.062 128.468C495.677 128.254 495.292 128.04 494.907 127.826C494.522 127.612 494.158 127.376 493.795 127.141C493.431 126.905 493.089 126.67 492.746 126.435C492.404 126.199 492.083 125.942 491.762 125.707C491.441 125.471 491.142 125.215 490.842 124.958C490.543 124.701 490.265 124.465 489.987 124.209L473.514 142.145C474.091 142.594 474.712 143.044 475.332 143.493C475.953 143.921 476.594 144.349 477.236 144.777C477.899 145.205 478.563 145.612 479.247 145.997C479.932 146.404 480.638 146.789 481.344 147.153C482.05 147.538 482.777 147.902 483.526 148.245C484.275 148.587 485.023 148.93 485.794 149.272C486.564 149.593 487.334 149.914 488.125 150.214C488.917 150.513 489.709 150.792 490.522 151.07C491.334 151.348 492.147 151.605 492.96 151.84C493.795 152.076 494.608 152.311 495.463 152.525C496.298 152.739 497.154 152.932 498.009 153.103C498.865 153.274 499.721 153.446 500.576 153.595C501.432 153.745 502.288 153.874 503.165 153.981C504.042 154.088 504.898 154.195 505.775 154.259C506.652 154.345 507.529 154.387 508.385 154.43C509.262 154.473 510.139 154.494 510.995 154.494C512.086 154.494 513.199 154.452 514.29 154.387C515.381 154.323 516.472 154.195 517.563 154.045C518.654 153.895 519.724 153.703 520.772 153.488C521.842 153.274 522.869 152.996 523.895 152.697C524.922 152.397 525.928 152.054 526.891 151.691C527.875 151.305 528.816 150.899 529.757 150.449C530.677 150 531.576 149.507 532.453 148.972C533.309 148.437 534.143 147.881 534.934 147.281C535.726 146.682 536.475 146.04 537.181 145.355C537.887 144.67 538.55 143.964 539.17 143.193C539.791 142.444 540.368 141.652 540.882 140.818C541.395 139.983 541.866 139.127 542.272 138.206C542.679 137.307 543.021 136.366 543.321 135.381C543.599 134.397 543.834 133.391 544.005 132.32C544.176 131.272 544.262 130.18 544.283 129.046C544.305 127.911 544.283 126.756 544.155 125.536C544.048 124.508 543.898 123.502 543.663 122.561L543.642 122.646Z" fill="#FFAEBC"></path><path d="M353.155 129.538L353.026 122.068H382.999L382.357 101.435H352.641L352.491 94.6289H386.871L386.165 73.0757H325.407L325.985 152.204H390.893L390.144 129.538H353.155Z" fill="#FFAEBC"></path><path d="M273.356 121.405H272.928L259.686 73.0757H227.724L255.856 152.204H288.331L319.416 73.0757H287.454L273.356 121.405Z" fill="#FFAEBC"></path></g><path d="M54.3508 117.595C54.308 118.066 54.2438 118.515 54.1583 118.965C54.0727 119.414 53.9871 119.842 53.8801 120.27C53.7732 120.698 53.6448 121.105 53.5165 121.512C53.3881 121.918 53.2383 122.304 53.0672 122.667C52.896 123.053 52.7249 123.395 52.5324 123.759C52.3398 124.101 52.1259 124.444 51.9119 124.765C51.698 125.086 51.4627 125.386 51.206 125.685C50.9492 125.985 50.6925 126.263 50.4358 126.52C50.1577 126.777 49.8796 127.034 49.58 127.269C49.2805 127.505 48.981 127.719 48.6601 127.933C48.3392 128.125 47.9969 128.318 47.6546 128.489C47.3123 128.66 46.9486 128.81 46.585 128.96C46.2213 129.11 45.8362 129.217 45.4511 129.324C45.066 129.431 44.6595 129.517 44.2531 129.581C43.8466 129.645 43.4187 129.709 42.9695 129.752C42.5202 129.795 42.0923 129.816 41.6431 129.816C41.1938 129.816 40.7445 129.816 40.3167 129.752C39.8888 129.709 39.4609 129.666 39.0758 129.581C38.6907 129.495 38.2843 129.409 37.9206 129.324C37.5569 129.217 37.1932 129.088 36.8509 128.96C36.5086 128.81 36.1877 128.66 35.8882 128.489C35.5887 128.318 35.2892 128.125 35.0111 127.933C34.733 127.74 34.4762 127.505 34.2195 127.269C33.9628 127.034 33.7488 126.798 33.5349 126.52C33.321 126.263 33.1284 125.964 32.9359 125.685C32.7434 125.386 32.5936 125.086 32.4438 124.765C32.2941 124.444 32.1657 124.101 32.0374 123.759C31.909 123.417 31.8234 123.053 31.7379 122.667C31.6523 122.282 31.5881 121.897 31.5453 121.512C31.5025 121.105 31.4597 120.698 31.4383 120.27C31.4383 119.842 31.4383 119.414 31.4383 118.965C31.4383 118.515 31.5025 118.066 31.5453 117.595L36.637 73.0757H8.33335L2.30038 120.548C2.15062 121.726 2.06505 122.881 2.02226 124.037C1.97947 125.193 2.00087 126.306 2.06505 127.419C2.12923 128.532 2.25759 129.624 2.42874 130.694C2.59989 131.764 2.83521 132.813 3.11333 133.819C3.39145 134.825 3.73374 135.831 4.14022 136.794C4.5467 137.757 4.99596 138.699 5.5094 139.598C6.02285 140.496 6.57908 141.374 7.19949 142.209C7.8199 143.043 8.5045 143.857 9.25327 144.627C10.002 145.398 10.7936 146.126 11.6493 146.81C12.5051 147.495 13.425 148.159 14.3877 148.758C15.3504 149.379 16.3987 149.935 17.4898 150.449C18.5808 150.963 19.7361 151.455 20.9555 151.883C22.175 152.311 23.4372 152.696 24.7636 153.017C26.09 153.339 27.4805 153.617 28.9353 153.852C30.3901 154.088 31.909 154.259 33.4707 154.366C35.0539 154.473 36.6798 154.537 38.3698 154.537C40.0599 154.537 41.7286 154.473 43.3545 154.366C44.959 154.259 46.5422 154.088 48.0611 153.852C49.5801 153.617 51.0562 153.339 52.4682 153.017C53.9015 152.696 55.2707 152.311 56.5971 151.883C57.9235 151.455 59.2071 150.984 60.448 150.449C61.6888 149.935 62.8654 149.357 63.9993 148.758C65.1331 148.159 66.2242 147.495 67.2511 146.81C68.278 146.126 69.2835 145.398 70.2034 144.627C71.1447 143.857 72.0218 143.043 72.8562 142.209C73.6905 141.374 74.4821 140.496 75.2095 139.598C75.9369 138.699 76.6215 137.757 77.2633 136.794C77.9051 135.831 78.4827 134.846 78.9961 133.819C79.531 132.791 80.0016 131.764 80.4295 130.694C80.8574 129.624 81.2211 128.532 81.542 127.419C81.8629 126.306 82.1196 125.172 82.3335 124.037C82.5475 122.903 82.7186 121.726 82.8256 120.548L87.254 73.0757H59.036L54.3508 117.595V117.595Z" stroke="white" stroke-width="4" stroke-linecap="round" stroke-linejoin="round"></path><path d="M149.123 112.544H148.589L127.174 73.0757H98.9556L91.96 152.204H119.75L121.526 113.806H122.061L143.176 152.204H173.084L177.448 73.0757H150.471L149.123 112.544Z" stroke="white" stroke-width="4" stroke-linecap="round" stroke-linejoin="round"></path><path d="M189.322 152.204H218.867L221.733 73.0757H193.152L189.322 152.204Z" stroke="white" stroke-width="4" stroke-linecap="round" stroke-linejoin="round"></path><path d="M614.347 129.538H580.246L579.39 122.068H609.384L606.816 101.435H577.079L576.331 94.6289H607.95L605.233 73.0757H547.278L555.301 152.204H617.214L614.347 129.538Z" stroke="white" stroke-width="4" stroke-linecap="round" stroke-linejoin="round"></path><path d="M454.431 118.729C454.987 118.451 455.522 118.151 456.035 117.83C456.549 117.531 457.041 117.209 457.533 116.867C458.003 116.525 458.474 116.182 458.902 115.818C459.351 115.454 459.758 115.069 460.164 114.684C460.571 114.299 460.956 113.892 461.319 113.485C461.683 113.079 462.025 112.651 462.368 112.222C462.689 111.794 463.009 111.345 463.288 110.895C463.587 110.446 463.844 109.975 464.1 109.504C464.357 109.033 464.593 108.541 464.785 108.049C464.999 107.557 465.192 107.043 465.363 106.529C465.534 106.015 465.684 105.502 465.812 104.967C465.94 104.432 466.047 103.897 466.133 103.34C466.218 102.784 466.283 102.227 466.325 101.671C466.368 101.114 466.39 100.536 466.39 99.9583C466.39 99.3804 466.39 98.7811 466.325 98.2032C466.24 96.9618 466.09 95.7632 465.898 94.6503C465.684 93.5159 465.427 92.4457 465.106 91.4183C464.785 90.391 464.4 89.4278 463.972 88.5075C463.544 87.5871 463.052 86.731 462.539 85.8963C462.004 85.0829 461.448 84.3124 460.827 83.5847C460.207 82.857 459.565 82.1721 458.859 81.5514C458.153 80.9093 457.426 80.3314 456.656 79.7749C455.885 79.2184 455.072 78.7047 454.238 78.2338C453.404 77.763 452.548 77.3349 451.649 76.9282C450.751 76.5216 449.852 76.1577 448.911 75.8366C447.97 75.5156 447.028 75.2159 446.044 74.9591C445.06 74.7023 444.076 74.4668 443.071 74.2742C442.065 74.0602 441.06 73.8889 440.033 73.7391C439.006 73.5893 437.979 73.4823 436.931 73.3752C435.882 73.2896 434.834 73.2254 433.786 73.1826C432.738 73.1398 431.689 73.1184 430.641 73.1184H394.4L397.267 152.247H425.507L424.116 123.374H425.036L443.135 152.247H476.808L452.676 119.585C453.254 119.328 453.832 119.05 454.366 118.772L454.431 118.729ZM438.428 100.279C438.407 100.6 438.343 100.9 438.278 101.178C438.214 101.457 438.107 101.735 438 101.97C437.893 102.227 437.765 102.463 437.615 102.677C437.466 102.891 437.316 103.105 437.145 103.297C436.973 103.49 436.781 103.661 436.567 103.832C436.353 104.004 436.139 104.153 435.925 104.282C435.69 104.432 435.455 104.56 435.219 104.667C434.984 104.774 434.727 104.881 434.47 104.988C434.214 105.074 433.936 105.159 433.679 105.245C433.401 105.331 433.144 105.395 432.866 105.438C432.588 105.502 432.31 105.545 432.032 105.587C431.753 105.63 431.475 105.673 431.197 105.694C430.919 105.716 430.641 105.737 430.363 105.759C430.085 105.759 429.828 105.78 429.55 105.801C429.293 105.801 429.037 105.801 428.78 105.801H423.175L422.576 93.1734H429.422C429.636 93.1734 429.871 93.1734 430.106 93.1734C430.342 93.1734 430.577 93.1734 430.834 93.1948C431.069 93.1948 431.326 93.2162 431.582 93.259C431.839 93.3018 432.074 93.3018 432.331 93.3446C432.566 93.3875 432.823 93.4303 433.058 93.4731C433.294 93.5159 433.551 93.5801 433.786 93.6443C434.021 93.7085 434.257 93.7727 434.492 93.8583C434.727 93.9439 434.963 94.0296 435.176 94.1366C435.39 94.2436 435.626 94.3506 435.818 94.479C436.032 94.6074 436.225 94.7359 436.417 94.8857C436.61 95.0355 436.781 95.2067 436.952 95.378C437.123 95.5492 437.273 95.7418 437.423 95.9559C437.573 96.1699 437.701 96.3839 437.829 96.6194C437.958 96.8548 438.065 97.1116 438.15 97.3685C438.236 97.6467 438.321 97.925 438.364 98.2246C438.428 98.5243 438.45 98.8453 438.471 99.2092C438.492 99.5516 438.471 99.8941 438.471 100.215L438.428 100.279Z" stroke="white" stroke-width="4" stroke-linecap="round" stroke-linejoin="round"></path><path d="M543.642 122.646C543.428 121.704 543.15 120.805 542.829 119.949C542.508 119.093 542.123 118.28 541.716 117.488C541.288 116.717 540.839 115.968 540.326 115.262C539.812 114.556 539.277 113.871 538.678 113.229C538.101 112.587 537.48 111.966 536.817 111.388C536.175 110.81 535.491 110.254 534.785 109.74C534.079 109.226 533.351 108.713 532.603 108.263C531.854 107.792 531.084 107.343 530.292 106.936C529.501 106.508 528.688 106.123 527.875 105.737C527.062 105.352 526.227 105.01 525.372 104.667C524.537 104.325 523.681 104.004 522.826 103.683C521.97 103.362 521.136 103.083 520.28 102.784C519.424 102.506 518.59 102.227 517.755 101.97C516.921 101.714 516.087 101.457 515.274 101.221C514.461 100.986 513.648 100.75 512.856 100.515C512.471 100.408 512.108 100.301 511.765 100.194C511.423 100.087 511.081 100.001 510.76 99.8943C510.439 99.8087 510.118 99.7017 509.818 99.6161C509.519 99.5304 509.241 99.4448 508.963 99.3378C508.685 99.2522 508.428 99.1452 508.193 99.0596C507.936 98.974 507.701 98.8883 507.487 98.8027C507.273 98.7171 507.037 98.6315 506.845 98.5459C506.652 98.4603 506.46 98.3747 506.267 98.289C506.096 98.2034 505.925 98.1178 505.775 98.0108C505.625 97.9252 505.476 97.8182 505.347 97.7326C505.219 97.6469 505.091 97.5399 504.984 97.4329C504.877 97.3259 504.77 97.2189 504.684 97.1119C504.598 97.0048 504.513 96.8978 504.427 96.7908C504.363 96.6838 504.299 96.5554 504.256 96.4269C504.213 96.2985 504.171 96.1701 504.128 96.0417C504.106 95.9133 504.085 95.7634 504.064 95.6136C504.064 95.4638 504.064 95.314 504.064 95.1641C504.064 95.0143 504.085 94.8859 504.128 94.7575C504.149 94.6291 504.192 94.5006 504.256 94.3722C504.299 94.2438 504.363 94.1368 504.449 94.0298C504.513 93.9227 504.598 93.8157 504.684 93.7087C504.77 93.6017 504.877 93.5161 504.984 93.4305C505.091 93.3449 505.219 93.2592 505.347 93.1736C505.476 93.088 505.604 93.0238 505.754 92.9382C505.903 92.874 506.053 92.8098 506.224 92.7456C506.396 92.6813 506.567 92.6385 506.738 92.5743C506.909 92.5101 507.102 92.4673 507.294 92.4245C507.487 92.3817 507.701 92.3389 507.893 92.3175C508.107 92.2961 508.321 92.2533 508.535 92.2319C508.749 92.2105 508.984 92.1891 509.219 92.1677C509.455 92.1677 509.712 92.1463 509.947 92.1463C510.182 92.1463 510.46 92.1463 510.717 92.1463C510.995 92.1463 511.273 92.1463 511.573 92.1677C511.872 92.1677 512.172 92.2105 512.471 92.2533C512.771 92.2961 513.092 92.3389 513.413 92.3817C513.734 92.4245 514.054 92.4887 514.375 92.5743C514.696 92.6385 515.039 92.7242 515.359 92.8098C515.702 92.8954 516.023 93.0024 516.365 93.1094C516.707 93.2164 517.05 93.3235 517.392 93.4519C517.734 93.5803 518.076 93.7087 518.419 93.8585C518.761 94.0084 519.103 94.1582 519.446 94.308C519.788 94.4578 520.13 94.6291 520.472 94.8003C520.815 94.9715 521.136 95.1641 521.478 95.3568C521.799 95.5494 522.141 95.742 522.462 95.9561C522.783 96.1701 523.104 96.3841 523.403 96.5982C523.724 96.8122 524.024 97.0476 524.323 97.3045C524.623 97.5399 524.922 97.7968 525.2 98.0536C525.479 98.3104 525.757 98.5673 526.035 98.8455L542.208 82.3007C541.609 81.8512 541.01 81.4017 540.411 80.9737C539.791 80.5456 539.17 80.1175 538.529 79.7109C537.887 79.3042 537.245 78.9189 536.582 78.5337C535.919 78.1484 535.255 77.7846 534.592 77.4421C533.908 77.0782 533.244 76.7572 532.538 76.4147C531.854 76.0937 531.148 75.7726 530.442 75.473C529.736 75.1733 529.03 74.8951 528.324 74.6169C527.618 74.3386 526.891 74.0818 526.185 73.8463C525.479 73.6109 524.751 73.3755 524.024 73.1614C523.296 72.9474 522.569 72.7548 521.842 72.5621C521.114 72.3695 520.387 72.1983 519.66 72.0484C518.932 71.8986 518.205 71.7488 517.477 71.6204C516.75 71.492 516.023 71.3849 515.317 71.2779C514.589 71.1923 513.883 71.1067 513.156 71.0425C512.45 70.9783 511.723 70.9355 511.038 70.8927C510.353 70.8499 509.626 70.8499 508.941 70.8499C507.914 70.8499 506.866 70.8713 505.839 70.9355C504.812 70.9997 503.764 71.0853 502.716 71.1923C501.668 71.2993 500.641 71.4491 499.614 71.6418C498.587 71.8344 497.581 72.027 496.576 72.2839C495.57 72.5193 494.586 72.7976 493.624 73.1186C492.661 73.4397 491.698 73.7821 490.778 74.146C489.858 74.5312 488.96 74.9379 488.083 75.3874C487.206 75.8369 486.371 76.3291 485.558 76.8642C484.745 77.3779 483.975 77.9558 483.226 78.5551C482.499 79.1544 481.793 79.7965 481.151 80.4814C480.509 81.1663 479.91 81.894 479.354 82.6431C478.798 83.4137 478.306 84.227 477.857 85.0617C477.407 85.9179 477.022 86.7954 476.68 87.7372C476.338 88.6789 476.081 89.6635 475.867 90.6908C475.653 91.7182 475.525 92.7884 475.46 93.9227C475.396 95.0357 475.396 96.2129 475.46 97.4329C475.525 98.289 475.632 99.1024 475.76 99.9157C475.888 100.708 476.06 101.478 476.273 102.206C476.487 102.934 476.723 103.661 477.001 104.346C477.279 105.031 477.578 105.695 477.921 106.315C478.263 106.957 478.627 107.557 479.012 108.135C479.397 108.713 479.825 109.269 480.274 109.804C480.723 110.339 481.194 110.853 481.707 111.345C482.221 111.837 482.734 112.308 483.269 112.758C483.804 113.207 484.382 113.635 484.959 114.042C485.537 114.449 486.157 114.855 486.778 115.219C487.398 115.604 488.04 115.947 488.682 116.311C489.345 116.653 490.008 116.974 490.693 117.295C491.377 117.616 492.062 117.916 492.768 118.216C493.474 118.515 494.18 118.772 494.907 119.05C495.635 119.307 496.362 119.564 497.089 119.821C497.817 120.056 498.566 120.313 499.314 120.527C500.084 120.763 500.833 120.977 501.539 121.191C502.245 121.405 502.908 121.597 503.55 121.811C504.192 122.004 504.791 122.197 505.369 122.368C505.946 122.539 506.481 122.732 506.995 122.882C507.508 123.053 508 123.203 508.449 123.374C508.899 123.545 509.326 123.674 509.733 123.823C510.139 123.973 510.503 124.123 510.845 124.251C511.188 124.401 511.509 124.53 511.808 124.679C512.108 124.829 512.386 124.958 512.642 125.086C512.899 125.215 513.134 125.364 513.327 125.493C513.541 125.621 513.733 125.771 513.905 125.899C514.076 126.049 514.226 126.178 514.354 126.328C514.482 126.477 514.611 126.627 514.696 126.777C514.803 126.927 514.889 127.077 514.953 127.248C515.017 127.419 515.081 127.569 515.124 127.74C515.167 127.911 515.188 128.083 515.21 128.275C515.21 128.446 515.21 128.618 515.21 128.789C515.21 128.96 515.167 129.11 515.145 129.26C515.103 129.41 515.06 129.538 515.017 129.688C514.974 129.838 514.889 129.945 514.825 130.073C514.739 130.202 514.653 130.309 514.568 130.416C514.461 130.523 514.375 130.63 514.247 130.715C514.14 130.822 514.012 130.908 513.883 130.993C513.755 131.079 513.605 131.165 513.477 131.229C513.327 131.293 513.177 131.379 513.028 131.443C512.878 131.507 512.707 131.571 512.535 131.614C512.364 131.657 512.193 131.721 512.001 131.764C511.829 131.807 511.637 131.85 511.444 131.871C511.252 131.892 511.059 131.935 510.867 131.957C510.674 131.978 510.482 131.999 510.268 132.021C510.054 132.042 509.861 132.042 509.669 132.064C509.455 132.064 509.262 132.064 509.048 132.064C508.599 132.064 508.171 132.064 507.722 132.021C507.273 131.978 506.823 131.957 506.396 131.892C505.946 131.828 505.497 131.764 505.048 131.678C504.598 131.593 504.149 131.507 503.7 131.4C503.251 131.293 502.823 131.186 502.374 131.058C501.924 130.929 501.496 130.801 501.069 130.651C500.641 130.501 500.191 130.351 499.764 130.18C499.336 130.009 498.908 129.838 498.501 129.666C498.073 129.495 497.667 129.303 497.26 129.089C496.854 128.896 496.448 128.682 496.062 128.468C495.677 128.254 495.292 128.04 494.907 127.826C494.522 127.612 494.158 127.376 493.795 127.141C493.431 126.905 493.089 126.67 492.746 126.435C492.404 126.199 492.083 125.942 491.762 125.707C491.441 125.471 491.142 125.215 490.842 124.958C490.543 124.701 490.265 124.465 489.987 124.209L473.514 142.145C474.091 142.594 474.712 143.044 475.332 143.493C475.953 143.921 476.594 144.349 477.236 144.777C477.899 145.205 478.563 145.612 479.247 145.997C479.932 146.404 480.638 146.789 481.344 147.153C482.05 147.538 482.777 147.902 483.526 148.245C484.275 148.587 485.023 148.93 485.794 149.272C486.564 149.593 487.334 149.914 488.125 150.214C488.917 150.513 489.709 150.792 490.522 151.07C491.334 151.348 492.147 151.605 492.96 151.84C493.795 152.076 494.608 152.311 495.463 152.525C496.298 152.739 497.154 152.932 498.009 153.103C498.865 153.274 499.721 153.446 500.576 153.595C501.432 153.745 502.288 153.874 503.165 153.981C504.042 154.088 504.898 154.195 505.775 154.259C506.652 154.345 507.529 154.387 508.385 154.43C509.262 154.473 510.139 154.494 510.995 154.494C512.086 154.494 513.199 154.452 514.29 154.387C515.381 154.323 516.472 154.195 517.563 154.045C518.654 153.895 519.724 153.703 520.772 153.488C521.842 153.274 522.869 152.996 523.895 152.697C524.922 152.397 525.928 152.054 526.891 151.691C527.875 151.305 528.816 150.899 529.757 150.449C530.677 150 531.576 149.507 532.453 148.972C533.309 148.437 534.143 147.881 534.934 147.281C535.726 146.682 536.475 146.04 537.181 145.355C537.887 144.67 538.55 143.964 539.17 143.193C539.791 142.444 540.368 141.652 540.882 140.818C541.395 139.983 541.866 139.127 542.272 138.206C542.679 137.307 543.021 136.366 543.321 135.381C543.599 134.397 543.834 133.391 544.005 132.32C544.176 131.272 544.262 130.18 544.283 129.046C544.305 127.911 544.283 126.756 544.155 125.536C544.048 124.508 543.898 123.502 543.663 122.561L543.642 122.646Z" stroke="white" stroke-width="4" stroke-linecap="round" stroke-linejoin="round"></path><path d="M353.155 129.538L353.026 122.068H382.999L382.357 101.435H352.641L352.491 94.6289H386.871L386.165 73.0757H325.407L325.985 152.204H390.893L390.144 129.538H353.155Z" stroke="white" stroke-width="4" stroke-linecap="round" stroke-linejoin="round"></path><path d="M273.356 121.405H272.928L259.686 73.0757H227.724L255.856 152.204H288.331L319.416 73.0757H287.454L273.356 121.405Z" stroke="white" stroke-width="4" stroke-linecap="round" stroke-linejoin="round"></path><path d="M223.582 38V30.252H209.334V1.18405H200.39V38H223.582Z" fill="white"></path><path d="M235.093 38.624C238.161 38.624 241.125 37.376 242.425 35.244H242.581V38H250.381V33.892V24.948C250.381 15.536 247.157 11.272 238.473 11.272C234.261 11.272 229.945 12.78 226.929 15.64L231.245 20.268C232.805 18.812 235.197 17.616 237.641 17.616C240.293 17.616 242.321 18.812 242.321 21.36V21.776H242.165C234.677 21.776 225.681 23.076 225.681 30.512C225.681 36.596 230.985 38.624 235.093 38.624ZM237.225 32.904C235.509 32.904 233.533 32.228 233.533 30.252C233.533 27.184 237.745 26.716 241.489 26.716H242.581V27.6C242.581 30.824 240.657 32.904 237.225 32.904Z" fill="white"></path><path d="M265.326 38V23.804C265.326 20.84 266.886 18.24 269.902 18.24C272.97 18.24 273.75 20.84 273.75 23.7V38H282.33V21.828C282.33 16.628 279.834 11.22 272.866 11.22C269.278 11.22 266.314 13.248 265.118 15.536H265.014V11.948H256.746V17.928V38H265.326Z" fill="white"></path><path d="M301.009 50.48C310.213 50.48 316.245 45.696 316.245 35.556V11.948H308.185V15.276H308.081C306.261 12.52 303.037 11.22 299.813 11.22C292.013 11.22 287.489 17.616 287.489 24.844C287.489 32.072 292.013 38.26 299.865 38.26C303.297 38.26 306.105 36.908 307.717 34.828H307.873V36.388C307.873 40.704 305.533 43.616 300.541 43.616C297.629 43.616 294.457 42.524 291.961 40.34L287.697 46.424C291.181 49.024 296.485 50.48 301.009 50.48ZM301.841 31.5C297.993 31.5 295.757 28.276 295.757 24.792C295.757 21.152 297.993 18.188 301.841 18.188C305.689 18.188 308.133 21.204 308.133 24.792C308.133 28.38 305.741 31.5 301.841 31.5Z" fill="white"></path><path d="M341.787 38.988C353.331 38.988 361.859 31.084 361.859 19.436C361.859 7.63204 353.331 0.196045 341.787 0.196045C330.295 0.196045 321.767 7.63204 321.767 19.436C321.767 31.084 330.295 38.988 341.787 38.988ZM341.787 30.876C335.599 30.876 331.283 26.092 331.283 19.436C331.283 12.988 335.547 8.20405 341.787 8.20405C348.027 8.20405 352.343 12.988 352.343 19.436C352.343 26.092 347.975 30.876 341.787 30.876Z" fill="white"></path><path d="M375.774 50.48V35.14H375.878C377.49 37.376 380.558 38.7281 383.73 38.7281C391.53 38.7281 396.054 32.124 396.054 24.844C396.054 17.564 391.322 11.22 383.782 11.22C379.986 11.22 377.074 13.04 375.514 15.12H375.358V11.948H367.246V50.48H375.774ZM381.702 31.656C377.854 31.656 375.462 28.328 375.462 24.896C375.462 21.62 377.854 18.188 381.702 18.188C385.758 18.188 387.786 21.464 387.786 24.844C387.786 28.276 385.758 31.656 381.702 31.656Z" fill="white"></path><path d="M409.95 38.832C415.254 38.832 421.026 36.544 421.026 29.992C421.026 24.948 416.71 22.972 412.758 22.088C409.43 21.36 408.026 20.944 408.026 19.488C408.026 17.98 409.638 17.408 411.25 17.408C413.33 17.408 415.306 18.448 416.658 19.748L421.338 14.912C418.79 12.52 414.786 11.272 410.938 11.272C405.998 11.272 400.174 13.768 400.174 19.956C400.174 24.844 404.126 26.664 407.714 27.496C411.25 28.328 412.862 28.848 412.862 30.46C412.862 32.124 411.198 32.696 409.794 32.696C407.298 32.696 404.958 31.448 403.45 29.784L398.666 34.828C401.37 37.428 405.738 38.832 409.95 38.832Z" fill="white"></path></svg>