<svg xmlns="http://www.w3.org/2000/svg" width="144" height="45" viewBox="0 0 144 45" fill="none"><g clip-path="url(#clip0_191_24413)"><path fill-rule="evenodd" clip-rule="evenodd" d="M140.1 10.2219V14.68C136.174 12.0626 130.042 13.2149 128.051 18.1091C128.037 18.1253 128.023 18.1387 128.01 18.1549C126.036 23.0541 128.488 29.9058 135.389 29.918H135.407C140.665 29.9079 143.424 26.0142 143.529 21.9536C143.561 21.9536 143.529 10.2219 143.529 10.2219C143.529 9.2476 142.761 8.45703 141.813 8.45703C140.865 8.45703 140.1 9.2476 140.1 10.2219ZM130.818 21.6114C130.822 18.0416 133.746 16.475 136.311 16.916C136.317 16.9169 136.323 16.9169 136.329 16.916C136.457 16.9394 136.585 16.9685 136.713 17.0008L136.779 17.0187C136.89 17.0489 137.001 17.0846 137.11 17.1226C137.165 17.1427 137.221 17.1644 137.274 17.1862C137.34 17.2131 137.409 17.2421 137.474 17.27C140.88 18.8634 140.88 24.3556 137.474 25.9495C137.409 25.9786 137.34 26.0053 137.274 26.0327C137.218 26.0545 137.165 26.0763 137.11 26.0958C137 26.1349 136.891 26.17 136.779 26.2002L136.713 26.218C136.585 26.2505 136.457 26.2801 136.329 26.3018C136.323 26.3022 136.317 26.3022 136.311 26.3018C136.03 26.3499 135.745 26.3742 135.459 26.3743C133.14 26.3783 130.822 24.7899 130.818 21.6103V21.6114Z" fill="#1B1A29"></path><path fill-rule="evenodd" clip-rule="evenodd" d="M62.4937 20.3137V28.254C62.4937 29.173 63.2879 29.9173 64.2683 29.9173C65.2486 29.9173 66.0462 29.173 66.0462 28.254V20.3137C66.0462 16.4055 72.2973 16.4055 72.2973 20.3137V28.254C72.2973 29.173 73.0927 29.9173 74.0718 29.9173C75.0511 29.9173 75.8464 29.173 75.8464 28.254V20.3137C75.8464 16.1436 72.5085 14.0605 69.1711 14.0605C65.8338 14.0605 62.4937 16.1436 62.4937 20.3137Z" fill="#1B1A29"></path><path fill-rule="evenodd" clip-rule="evenodd" d="M105.43 16.7704V28.1545C105.43 29.1287 106.288 29.9176 107.347 29.9176C108.406 29.9176 109.263 29.1287 109.263 28.1545V16.7704C109.263 15.7967 108.405 15.0078 107.347 15.0078C106.289 15.0078 105.43 15.7967 105.43 16.7704Z" fill="#1B1A29"></path><path fill-rule="evenodd" clip-rule="evenodd" d="M105.43 11.2791C105.43 12.3148 106.289 13.1544 107.347 13.1544C108.405 13.1544 109.263 12.317 109.263 11.2791C109.263 10.2412 108.405 9.4043 107.347 9.4043C106.289 9.4043 105.43 10.2457 105.43 11.2791Z" fill="#1B1A29"></path><path fill-rule="evenodd" clip-rule="evenodd" d="M90.6588 15.9031C86.9163 12.4092 78.7317 13.8787 78.7317 20.3139V28.2541C78.7317 29.1725 79.5505 29.9174 80.5609 29.9174C81.5714 29.9174 82.389 29.1725 82.389 28.2541V20.3132C82.389 16.4051 88.8325 16.4051 88.8325 20.3132V28.2541C88.8325 29.1725 89.6512 29.9174 90.6605 29.9174C91.6698 29.9174 92.4902 29.1725 92.4902 28.2541V20.3132C92.4902 16.4051 98.9332 16.4051 98.9332 20.3132V28.2541C98.9332 29.1725 99.7519 29.9174 100.762 29.9174C101.773 29.9174 102.591 29.1725 102.591 28.2541V20.3132C102.591 16.1437 99.1522 14.0601 95.7139 14.0601C93.8446 14.0585 91.9769 14.6732 90.6588 15.9031Z" fill="#1B1A29"></path><path fill-rule="evenodd" clip-rule="evenodd" d="M112.105 20.3137V28.254C112.105 29.1729 112.9 29.9173 113.88 29.9173C114.86 29.9173 115.654 29.1729 115.654 28.254V20.3137C115.654 16.4055 121.906 16.4055 121.906 20.3137V28.254C121.906 29.1729 122.7 29.9173 123.68 29.9173C124.661 29.9173 125.458 29.1729 125.458 28.254V20.3137C125.458 16.1436 122.12 14.0605 118.783 14.0605C115.445 14.0605 112.105 16.1436 112.105 20.3137Z" fill="#1B1A29"></path><path fill-rule="evenodd" clip-rule="evenodd" d="M56.102 15.7212V23.6616C56.102 27.5697 49.8502 27.5697 49.8502 23.6616V15.7212C49.8502 14.8023 49.0554 14.0586 48.0757 14.0586C47.0959 14.0586 46.3005 14.8023 46.3005 15.7212V23.6616C46.3005 32.0021 59.6511 32.0021 59.6511 23.6616V15.7212C59.6511 14.8023 58.8563 14.0586 57.8771 14.0586C56.8978 14.0586 56.102 14.8023 56.102 15.7212Z" fill="#1B1A29"></path><path fill-rule="evenodd" clip-rule="evenodd" d="M34.3665 3.29492H26.6908C25.7258 3.29502 24.7942 3.64915 24.0719 4.29041C23.3498 4.93168 22.8869 5.81568 22.7711 6.77544V23.1709C22.7711 23.6883 22.5659 24.1844 22.2007 24.5502C21.8355 24.916 21.3402 25.1216 20.8237 25.1216C20.5679 25.1217 20.3145 25.0714 20.0782 24.9734C19.8417 24.8754 19.6269 24.7318 19.446 24.5507C19.2651 24.3695 19.1215 24.1543 19.0236 23.9177C18.9256 23.6809 18.8753 23.4272 18.8753 23.1709V6.77656C18.7595 5.81655 18.2967 4.93227 17.5744 4.29078C16.852 3.6493 15.9202 3.29503 14.9549 3.29492H7.27916C6.23168 3.29507 5.22716 3.71201 4.48653 4.45403C3.7459 5.19604 3.32983 6.20238 3.32983 7.25168V24.1914C3.32983 33.8698 11.1616 41.7152 20.8231 41.7152C30.4846 41.7152 38.3165 33.8698 38.3165 24.1914V7.2528C38.3166 6.73309 38.2146 6.21845 38.0161 5.73827C37.8177 5.25808 37.5267 4.82176 37.16 4.45422C36.7932 4.08669 36.3577 3.79513 35.8784 3.59622C35.3991 3.3973 34.8853 3.29492 34.3665 3.29492Z" fill="#FF5252"></path><path fill-rule="evenodd" clip-rule="evenodd" d="M22.7705 17.1396V23.1694C22.7705 23.6867 22.5654 24.1829 22.2001 24.5488C21.835 24.9145 21.3396 25.1202 20.8231 25.1202C20.5674 25.1202 20.3141 25.0698 20.0777 24.9718C19.8415 24.8737 19.6266 24.73 19.4458 24.549C19.2649 24.3678 19.1215 24.1528 19.0235 23.916C18.9256 23.6793 18.8753 23.4256 18.8753 23.1694V19.4286C13.6891 22.687 8.93068 26.5831 4.71094 31.026C7.37002 37.3075 13.5827 41.7137 20.8231 41.7137C30.4841 41.7137 38.3164 33.8683 38.3164 24.1899V10.873C32.9101 12.3528 27.6932 14.4557 22.7705 17.1396Z" fill="#57E69E"></path><path fill-rule="evenodd" clip-rule="evenodd" d="M11.2725 38.873C14.1116 40.7316 17.4309 41.7189 20.8225 41.7137C30.4835 41.7137 38.3159 33.8683 38.3159 24.1899V21.5781C27.9647 24.9132 18.6491 30.8706 11.2725 38.873Z" fill="#3AD196"></path><path fill-rule="evenodd" clip-rule="evenodd" d="M18.0298 41.4901C18.9534 41.6387 19.8872 41.7134 20.8226 41.7134C28.8974 41.7134 35.6936 36.2319 37.7101 28.7812C30.3319 31.5861 23.6262 35.9164 18.0298 41.4901Z" fill="#1DB58B"></path><path fill-rule="evenodd" clip-rule="evenodd" d="M34.3665 3.29492H26.6908C25.7258 3.29502 24.7941 3.64915 24.0719 4.29041C23.3497 4.93168 22.8869 5.81568 22.771 6.77544V22.1441C27.8654 23.3765 33.0774 24.0564 38.317 24.1719V7.25503C38.3174 6.73509 38.2155 6.22017 38.0172 5.73969C37.8189 5.2592 37.528 4.8226 37.161 4.45482C36.7942 4.08703 36.3585 3.79529 35.8791 3.59627C35.3995 3.39724 34.8855 3.29485 34.3665 3.29492Z" fill="#FED325"></path><path fill-rule="evenodd" clip-rule="evenodd" d="M14.9549 3.29492H7.27916C6.23169 3.29507 5.22716 3.71201 4.48654 4.45403C3.7459 5.19604 3.32983 6.20238 3.32983 7.25168V14.3104C8.22961 17.1691 13.447 19.4423 18.8753 21.0838V6.77656C18.7595 5.81655 18.2967 4.93227 17.5744 4.29078C16.852 3.6493 15.9202 3.29503 14.9549 3.29492Z" fill="#FED325"></path><path fill-rule="evenodd" clip-rule="evenodd" d="M34.3665 3.29492H26.6908C25.7258 3.29502 24.7941 3.64915 24.0719 4.29041C23.3497 4.93168 22.8869 5.81568 22.771 6.77544V15.1948C27.8337 16.6324 33.0565 17.4277 38.317 17.5621V7.25279C38.3171 6.73304 38.2151 6.21836 38.0166 5.73813C37.8181 5.25792 37.5271 4.82157 37.1603 4.45403C36.7934 4.08648 36.3579 3.79494 35.8785 3.59606C35.3992 3.39717 34.8854 3.29485 34.3665 3.29492Z" fill="#FBC005"></path><path fill-rule="evenodd" clip-rule="evenodd" d="M14.9538 3.29492H7.27811C6.45889 3.2951 5.66 3.55045 4.99206 4.02559C4.32412 4.50073 3.82019 5.17216 3.55005 5.9469C8.26619 9.30902 13.424 12.0012 18.877 13.9469V6.77655C18.7611 5.81607 18.298 4.93141 17.5751 4.28986C16.8522 3.64831 15.9196 3.29435 14.9538 3.29492Z" fill="#FBC005"></path><path d="M34.3667 3.29492H26.6909C26.1444 3.29439 25.6039 3.40784 25.1035 3.62806C24.6032 3.84827 24.1541 4.17043 23.7849 4.57402C29.7698 12.0361 33.0252 21.3252 33.01 30.8974C33.0107 33.0073 32.8541 35.1145 32.5419 37.2012C34.3617 35.5602 35.8164 33.5538 36.8113 31.3126C37.8062 29.0713 38.3191 26.6454 38.3165 24.1926V7.2528C38.3167 6.7331 38.2146 6.21846 38.0162 5.73827C37.8177 5.25808 37.5268 4.82176 37.16 4.45423C36.7932 4.08669 36.3577 3.79513 35.8784 3.59622C35.3992 3.3973 34.8854 3.29492 34.3667 3.29492Z" fill="#13BEDB"></path><path d="M33.0101 30.8974C33.0106 33.0073 32.8542 35.1145 32.5419 37.2012L32.6567 37.0962C32.7124 37.0454 32.7682 36.9941 32.8239 36.9427C32.8796 36.8914 32.9214 36.8507 32.9694 36.8037C33.0173 36.7568 33.0702 36.706 33.1204 36.6563C33.1706 36.6066 33.2195 36.5575 33.2686 36.5073C33.3177 36.457 33.3678 36.4068 33.4169 36.3553C33.466 36.304 33.5083 36.2605 33.5534 36.2124C33.5986 36.1644 33.6577 36.1008 33.7095 36.0449L33.811 35.9333C33.8733 35.8641 33.9346 35.7943 33.996 35.7239L34.0952 35.6123C34.1558 35.5416 34.216 35.4702 34.2758 35.3984L34.3711 35.2828C34.4309 35.2085 34.4899 35.1349 34.5483 35.0623C34.5784 35.0244 34.6079 34.9858 34.6375 34.9479C34.6965 34.8719 34.7551 34.796 34.8124 34.7189C34.8404 34.6827 34.8683 34.6452 34.8949 34.6073C34.9473 34.5364 34.9997 34.4649 35.051 34.3929C35.0817 34.3505 35.1113 34.3075 35.1414 34.2651C35.19 34.1962 35.2379 34.127 35.2852 34.0573C35.3153 34.0128 35.3459 33.9681 35.376 33.9229C35.4239 33.8514 35.4713 33.7788 35.5181 33.7062C35.5432 33.6677 35.5682 33.6292 35.5928 33.5901C35.6448 33.5085 35.6957 33.4269 35.7454 33.3449L35.809 33.2417C35.862 33.1535 35.9144 33.0641 35.9662 32.9748L36.0269 32.8699C36.0782 32.78 36.1289 32.6889 36.1785 32.5979L36.2342 32.4936C36.2837 32.4009 36.3327 32.3078 36.3814 32.2144L36.4321 32.1144C36.4812 32.0184 36.5291 31.9217 36.5759 31.8242C36.591 31.7939 36.6055 31.7633 36.6199 31.7325C36.6679 31.6315 36.7153 31.5305 36.7615 31.4283C36.7733 31.4027 36.7849 31.3764 36.7961 31.3507C36.8407 31.2524 36.8836 31.153 36.9259 31.0537L36.9594 30.9749C37.0021 30.8726 37.0439 30.7701 37.0848 30.6673C37.0943 30.6439 37.1032 30.6215 37.112 30.5981C37.1548 30.4886 37.1966 30.3787 37.2375 30.2681C37.2469 30.2419 37.257 30.2162 37.2664 30.1899C37.3061 30.0783 37.3451 29.9706 37.3824 29.86C37.3919 29.8326 37.4013 29.8042 37.4102 29.7785C37.4476 29.6668 37.4833 29.5552 37.5184 29.4434L37.5435 29.362C37.578 29.2503 37.6121 29.1386 37.6443 29.0219L37.6661 28.9461C37.6984 28.8295 37.73 28.7126 37.7608 28.5954L37.7775 28.5295C37.8083 28.4078 37.8383 28.2861 37.8668 28.1633C37.8701 28.1477 37.8734 28.132 37.8774 28.1158C37.9063 27.9893 37.9339 27.862 37.9604 27.734C37.9604 27.7267 37.9632 27.7194 37.9648 27.7121C37.991 27.5826 38.0156 27.4532 38.0389 27.3214C38.0389 27.308 38.0445 27.2939 38.0468 27.28C38.0695 27.152 38.0906 27.0237 38.1103 26.8954C38.1136 26.8764 38.1164 26.8573 38.1192 26.8395C38.1382 26.7133 38.1567 26.5866 38.1749 26.4593L38.1833 26.3962C38.1989 26.2701 38.2134 26.1433 38.2268 26.016L38.2335 25.9507C38.2465 25.8227 38.2578 25.6946 38.2675 25.5666C38.2675 25.5459 38.2703 25.5252 38.272 25.5045C38.2812 25.3747 38.2895 25.2444 38.297 25.1138C38.297 25.0964 38.297 25.0787 38.297 25.0613C38.3037 24.9262 38.3087 24.7911 38.3126 24.6548C38.3126 24.6437 38.3126 24.6325 38.3126 24.6219C38.3159 24.479 38.3182 24.336 38.3182 24.1926V21.2168C36.2951 21.867 34.3064 22.6198 32.3596 23.4724C32.7937 25.9234 33.0113 28.408 33.0101 30.8974Z" fill="#13BEDB"></path><path d="M33.0103 30.896C33.011 33.0056 32.8548 35.1123 32.5427 37.1987L32.5984 37.149L32.6303 37.12C32.793 36.9711 32.9531 36.8185 33.1107 36.6622L33.1307 36.6427C33.2935 36.4807 33.4534 36.3165 33.6094 36.1485C35.5545 34.0648 36.9614 31.5363 37.7077 28.7832C36.1047 29.3915 34.5386 30.07 33.0092 30.8188L33.0103 30.896Z" fill="#1CA4CB"></path><path d="M34.3659 3.29492H31.7463C34.6724 7.62002 36.8901 12.3854 38.3157 17.4113V7.2528C38.3158 6.73309 38.2138 6.21845 38.0154 5.73827C37.8169 5.25808 37.5261 4.82176 37.1592 4.45422C36.7924 4.08669 36.3569 3.79513 35.8777 3.59622C35.3983 3.3973 34.8847 3.29492 34.3659 3.29492Z" fill="#1CA4CB"></path><path d="M32.4157 23.7997C34.3608 24.0007 36.3278 24.1244 38.3168 24.1704V17.5606C35.7419 17.4941 33.1733 17.2703 30.6255 16.8906C31.4178 19.1384 32.0167 21.4499 32.4157 23.7997Z" fill="#57D1E6"></path><path d="M34.3662 3.29324C35.4137 3.29324 36.4184 3.71011 37.1592 4.45215C37.8999 5.19419 38.316 6.2006 38.316 7.25V24.1898C38.316 33.8681 30.4837 41.7136 20.8227 41.7136C11.1617 41.7136 3.32941 33.8681 3.32941 24.1898V7.25112C3.32926 6.73146 3.4313 6.21687 3.6297 5.73672C3.82811 5.25657 4.11898 4.82027 4.48572 4.45274C4.85245 4.0852 5.28786 3.79365 5.76709 3.59469C6.24633 3.39574 6.75999 3.29331 7.27874 3.29324H14.9545C15.9196 3.29332 16.8513 3.64743 17.5736 4.28868C18.2959 4.92994 18.7588 5.81395 18.8748 6.77376V23.1692C18.8835 23.6809 19.0924 24.1687 19.4567 24.5275C19.8211 24.8863 20.3115 25.0875 20.8225 25.0875C21.3333 25.0875 21.8238 24.8863 22.1881 24.5275C22.5524 24.1687 22.7614 23.6809 22.7701 23.1692V6.77488C22.8857 5.81482 23.3485 4.93048 24.0708 4.28896C24.7932 3.64745 25.7251 3.29323 26.6905 3.29324H34.3662ZM34.3662 -0.0566399H26.6905C25.5486 -0.0564438 24.4229 0.212268 23.4037 0.727869C22.3846 1.24347 21.5006 1.99156 20.8227 2.91191C20.1448 1.99154 19.2606 1.24345 18.2414 0.727862C17.2221 0.212266 16.0963 -0.0564429 14.9545 -0.0566399H7.27874C6.32071 -0.0570069 5.37201 0.131775 4.48686 0.498915C3.60171 0.866055 2.79748 1.40435 2.12013 2.08304C1.44277 2.76172 0.905601 3.56748 0.539302 4.45425C0.173004 5.34103 -0.015233 6.29143 -0.0146471 7.25112V24.1898C-0.00901136 29.0036 1.65687 33.6678 4.70103 37.3926C7.7452 41.1175 11.9806 43.6743 16.6905 44.6303C21.4003 45.5862 26.2952 44.8827 30.5467 42.6387C34.7982 40.3946 38.1451 36.748 40.021 32.3161C41.1075 29.7453 41.665 26.9814 41.6601 24.1898V7.25112C41.6607 6.29137 41.4724 5.34093 41.1061 4.45412C40.7398 3.56731 40.2026 2.76153 39.5251 2.08283C38.8477 1.40415 38.0434 0.865861 37.1582 0.498754C36.273 0.131648 35.3242 -0.0570803 34.3662 -0.0566399Z" fill="white"></path></g><defs><clipPath id="clip0_191_24413"><rect width="143.571" height="45" fill="white"></rect></clipPath></defs></svg>