<svg xmlns="http://www.w3.org/2000/svg" width="130" height="130" viewBox="0 0 130 130" fill="none"><path d="M34.2017 43.9918V37.324C34.2017 31.8011 38.6788 27.324 44.2017 27.324H79.7611C85.2839 27.324 89.7611 31.8011 89.7611 37.324V41.7041" stroke="#040237" stroke-linecap="round" stroke-linejoin="round"></path><circle cx="33.974" cy="74.6532" r="29.7577" fill="#3843D0" stroke="white"></circle><rect x="70.0308" y="56.2808" width="41.3018" height="9.58931" rx="4.79466" fill="white" stroke="#FFC466"></rect><rect x="70.5308" y="71.5054" width="8.78535" height="8.78535" rx="4.39267" fill="#3843D0" stroke="white"></rect><rect x="70.0308" y="43.0527" width="41.3018" height="9.58931" rx="4.79466" fill="white" stroke="#FF8D54"></rect><rect x="84.9819" y="71.0054" width="41.3018" height="9.58931" rx="4.79466" fill="#F5768F"></rect><rect x="72.2686" y="25.0889" width="5.30928" height="5.30928" rx="2.65464" fill="#FEC14D"></rect><path d="M13.4375 96.6839L17.7885 86.254C19.0066 83.3341 19.6338 80.2017 19.6338 77.0379V66.8965C19.6338 59.2773 25.8103 53.1008 33.4295 53.1008H34.9763C41.7411 53.1008 47.2251 58.5848 47.2251 65.3496V69.2857C47.2251 70.014 47.5144 70.7126 48.0295 71.2276L49.9713 73.1695C50.9848 74.1829 50.267 75.9157 48.8338 75.9157V75.9157C47.9453 75.9157 47.2251 76.636 47.2251 77.5244V82.2532C47.2251 85.7533 44.3877 88.5907 40.8876 88.5907H38.1998C37.5271 88.5907 36.9226 89.0016 36.6751 89.6272V89.6272C35.6522 92.2124 36.0092 95.1398 37.6233 97.4034L41.9224 103.433" stroke="white"></path><circle cx="31.2316" cy="71.9728" r="3.9621" fill="#FEC14D"></circle><path d="M31.3516 67.8364V50.3386M33.7529 76.0232V76.0232C38.2087 80.7636 44.4253 83.4521 50.9311 83.4521H52.656" stroke="white"></path><path d="M72.6646 75.8979H77.1814" stroke="white" stroke-linecap="round" stroke-linejoin="round"></path><path d="M74.9233 78.1565L74.9233 73.6396" stroke="white" stroke-linecap="round" stroke-linejoin="round"></path></svg>