<svg xmlns="http://www.w3.org/2000/svg" width="130" height="130" viewBox="0 0 130 130" fill="none"><rect x="31.1279" y="36.6829" width="41.3018" height="9.58931" rx="4.79466" fill="#3843D0"></rect><path d="M41.3623 48.4204V52.8346C41.3623 61.3028 48.2272 68.1677 56.6954 68.1677V68.1677" stroke="#3843D0" stroke-linecap="round" stroke-linejoin="round"></path><path d="M58.5848 54.7419L55.3282 81.1299H102.888L103.675 74.7337L104.463 68.3374L106.037 55.5449C106.094 55.0816 106.052 54.6116 105.913 54.1659C105.775 53.7202 105.543 53.309 105.234 52.9595C104.925 52.6099 104.545 52.3301 104.119 52.1385C103.694 51.9469 103.232 51.8478 102.765 51.8479H61.8563C61.0517 51.8478 60.2749 52.142 59.6722 52.6751C59.0696 53.2082 58.6828 53.9433 58.5848 54.7419Z" fill="#FFBDC8" stroke="white" stroke-linejoin="round"></path><path d="M37.0719 86.4313C37.0719 87.3053 37.4941 88.1435 38.2457 88.7616C38.9972 89.3796 40.0165 89.7268 41.0793 89.7268H98.174C99.139 89.7268 100.072 89.4404 100.8 88.9203C101.529 88.4002 102.005 87.6813 102.141 86.8957L102.746 83.3875H37.0719V86.4313Z" fill="#FFBDC8"></path><path d="M60.2635 77.4972L63.0272 55.6465H101.508L98.7442 77.4972H60.2635Z" fill="#3843D0" stroke="white"></path><path d="M96.8874 50.279V37.2793C96.8874 31.7564 92.4102 27.2793 86.8874 27.2793H33.9385C28.4156 27.2793 23.9385 31.7564 23.9385 37.2793V96.5008C23.9385 102.024 28.4156 106.501 33.9385 106.501H49.7159C55.2387 106.501 59.7159 102.024 59.7159 96.5008V91.8646" stroke="black" stroke-linecap="round" stroke-linejoin="round"></path><rect x="56.9458" y="23.4993" width="7.55994" height="7.55994" rx="3.77997" fill="#FEC14D"></rect><path d="M62.9683 73.7433L71.7847 68.7653C72.0789 68.5992 72.4371 68.5929 72.7369 68.7485L76.7035 70.8064C76.9976 70.959 77.3481 70.956 77.6395 70.7985L89.6009 64.3339C90.0039 64.1161 90.5034 64.2 90.8131 64.5374L92.1854 66.0327C92.6147 66.5004 93.3655 66.4549 93.7352 65.9387L99.2102 58.2939" stroke="white" stroke-linecap="round" stroke-linejoin="round"></path></svg>