<svg xmlns="http://www.w3.org/2000/svg" width="130" height="130" viewBox="0 0 130 130" fill="none"><path d="M42.0398 69.3223V69.3223C37.0113 69.3223 32.935 73.3986 32.935 78.4271L32.935 95.1599C32.935 100.683 37.4121 105.16 42.935 105.16L91.292 105.16C96.8148 105.16 101.292 100.683 101.292 95.1601L101.292 94.4158" stroke="black" stroke-linecap="round" stroke-linejoin="round"></path><path d="M42.0398 74.7854V74.7854C37.0113 74.7854 32.935 70.709 32.935 65.6806L32.935 41.5387C32.935 30.493 41.8893 21.5387 52.935 21.5387L88.8241 21.5387C95.7099 21.5387 101.292 27.1206 101.292 34.0064V34.0064" stroke="#3843D0" stroke-linecap="round" stroke-linejoin="round"></path><rect x="75.2192" y="101.654" width="15.2642" height="6.8072" rx="3.4036" fill="#FEC14D"></rect><path d="M23.9072 79.4211C28.3318 59.86 45.7022 45.2668 66.4503 45.2668C87.1984 45.2668 104.569 59.86 108.993 79.4211C110.123 84.4178 105.87 88.732 100.584 88.732H32.3169C27.0304 88.732 22.777 84.4178 23.9072 79.4211Z" fill="#3843D0" stroke="white"></path><rect x="19.4165" y="50.0759" width="41.3018" height="9.58931" rx="4.79466" fill="white" stroke="#FFC466"></rect><rect x="69.2817" y="26.8757" width="41.3018" height="9.58931" rx="4.79466" fill="white" stroke="#FF8D54"></rect><path d="M35.6064 32.1572H67.1136" stroke="#3843D0" stroke-linecap="round" stroke-linejoin="round"></path><path d="M105.274 79.2771L99.9644 80.6044" stroke="white" stroke-linecap="round"></path><path d="M95.9606 63.689L91.8854 66.5418" stroke="white" stroke-linecap="round"></path><path d="M81.4896 53.3991L79.8726 57.4426" stroke="white" stroke-linecap="round"></path><path d="M66.7817 55.3852V50.0759" stroke="white" stroke-linecap="round"></path><path d="M28.2894 79.2771L32.9351 80.6044" stroke="white" stroke-linecap="round"></path><path d="M37.6463 63.0046L41.5054 66.5965" stroke="white" stroke-linecap="round"></path><path d="M88.8322 58.7562L65.3729 76.1434C62.9295 77.9543 62.6832 81.5203 64.8543 83.65C66.9745 85.7297 70.4364 85.4859 72.2441 83.1295L90.018 59.9619C90.6206 59.1764 89.6275 58.1668 88.8322 58.7562Z" stroke="white" stroke-linecap="round"></path><rect x="30.2974" y="29.6899" width="5.30928" height="5.30928" rx="2.65464" fill="#FEC14D"></rect></svg>