<svg xmlns="http://www.w3.org/2000/svg" width="130" height="130" viewBox="0 0 130 130" fill="none"><path d="M85.1663 23.109C95.8638 27.7747 104.613 36.0051 109.922 46.3981C115.231 56.7911 116.773 68.7035 114.284 80.1056C111.795 91.5077 105.429 101.694 96.2717 108.929C87.1143 116.164 75.7315 120 64.0629 119.783C52.3943 119.566 41.1619 115.31 32.2794 107.74C23.397 100.17 17.4141 89.7545 15.3503 78.2678C13.2865 66.7811 15.2693 54.9342 20.961 44.7456C26.6527 34.557 35.7011 26.6571 46.5644 22.392" stroke="black" stroke-linecap="round" stroke-linejoin="round"></path><rect x="60.4536" y="114.971" width="9.09156" height="9.09156" rx="4.54578" fill="#FEC14D"></rect><path d="M58.5338 13.368C58.5338 16.5834 61.688 21.5388 64.1564 25.3092C64.9827 26.5713 66.9186 26.5551 67.7388 25.289C70.1161 21.6197 73.396 16.5299 73.396 13.368C73.396 9.2639 70.069 5.93689 65.9649 5.93689C61.8608 5.93689 58.5338 9.2639 58.5338 13.368Z" fill="#3843D0"></path><path d="M65.0398 101.348C83.5609 101.348 98.5753 86.5572 98.5753 68.3122C98.5753 50.0672 83.5609 35.2767 65.0398 35.2767C46.5187 35.2767 31.5044 50.0672 31.5044 68.3122C31.5044 86.5572 46.5187 101.348 65.0398 101.348Z" fill="#FFAEBC" stroke="white"></path><path fill-rule="evenodd" clip-rule="evenodd" d="M97.6446 62.7278C96.5123 62.7975 95.4055 62.3373 94.4629 61.7124C93.8967 61.333 93.3306 60.8756 92.6909 60.6524C92.0511 60.4292 91.2245 60.4515 90.749 60.9481C89.9451 61.7849 90.749 63.2941 91.8813 63.6232C92.4304 63.7822 93.0136 63.7627 93.5655 63.9357C94.1175 64.1086 94.6356 64.58 94.5704 65.1379C94.495 65.4868 94.2939 65.797 94.0043 66.0111C92.9513 66.9176 91.3434 67.4198 90.146 66.7028C88.4646 65.6986 88.425 62.8868 86.5652 62.2564C86.0557 62.0834 85.3678 62.1978 85.1668 62.6915C85.0933 62.9172 85.0845 63.1586 85.1413 63.3889C85.6509 66.3876 88.6231 68.7838 91.7086 68.689C91.9921 68.6605 92.2783 68.6736 92.5578 68.728C93.3221 68.9345 93.6618 69.8829 93.4778 70.6444C93.2938 71.406 92.7475 72.0169 92.2351 72.6138C90.0364 75.1846 88.2145 78.0466 86.8228 81.1163C86.0387 82.8485 85.2942 84.7622 83.6637 85.772C83.2596 86.0479 82.7797 86.1958 82.288 86.196C81.1868 86.1513 80.4339 85.1053 79.9413 84.1317C78.8413 81.9771 78.1433 79.6452 77.8806 77.2472C77.657 75.1662 77.5975 72.7254 75.8651 71.512C74.6139 70.6361 72.9382 70.7616 71.4294 70.4743C68.5987 69.9387 66.051 67.4058 66.3341 64.5717C66.5662 62.2675 68.576 60.4237 70.8151 59.7179C73.0542 59.0122 75.483 59.2325 77.8013 59.6175C80.1197 60.0024 82.4409 60.5464 84.7903 60.4543C85.4782 60.4264 86.3444 60.1754 86.401 59.5003C86.4859 58.4626 84.5101 57.9326 84.8922 56.9647C85.198 56.192 86.5171 56.5686 87.1087 55.9772C87.4937 55.5922 87.3918 54.9088 87.0153 54.5127C86.6079 54.1438 86.0886 53.9174 85.5376 53.8683C84.9285 53.7552 84.3013 53.78 83.7034 53.9408C82.0049 54.4541 81.1019 56.3844 79.4233 56.934C77.9712 57.411 76.3378 56.7136 74.8659 57.1237C73.493 57.503 72.2305 58.7974 70.9029 58.3315C70.6012 58.2248 70.3384 58.0324 70.1476 57.7787C69.9568 57.5249 69.8466 57.2211 69.8309 56.9057C69.8151 56.5902 69.8945 56.2772 70.0591 56.0062C70.2237 55.7352 70.4661 55.5184 70.7557 55.383C71.5738 54.9981 72.5787 55.33 73.4307 55.0287C73.4845 55.0168 73.5348 54.9931 73.578 54.9593C73.6211 54.9254 73.6559 54.8824 73.6798 54.8335C73.7223 54.7024 73.6204 54.574 73.5439 54.4597C73.0967 53.779 73.4703 52.8167 74.1101 52.3229C74.7498 51.8292 75.6103 51.6785 76.4171 51.5195C78.2078 51.1638 79.9717 50.6875 81.6964 50.0941C82.2823 49.8932 82.9957 49.4302 82.7834 48.8555C82.6588 48.5124 82.2427 48.359 81.8719 48.3479C80.8896 48.3144 80.0234 48.9281 79.1402 49.3549C78.2571 49.7817 77.0597 49.9797 76.3888 49.2712C75.7717 48.6212 75.9755 47.511 76.5813 46.8499C77.1871 46.1888 78.0731 45.8708 78.9223 45.5723C79.8102 45.213 80.7467 44.9837 81.702 44.8916C82.656 44.8442 83.6835 45.1092 84.3233 45.8038C84.6884 46.1944 84.9857 46.7439 85.5207 46.8276C85.7694 46.8439 86.019 46.8098 86.2538 46.7271C87.5386 46.4071 88.8705 46.3127 90.1885 46.4482C87.079 42.9798 83.2652 40.1935 78.9939 38.2694C74.7226 36.3453 70.089 35.3264 65.3928 35.2785C60.6966 35.2306 56.0426 36.1549 51.7318 37.9916C47.4211 39.8282 43.5496 42.5363 40.368 45.9405C41.8032 46.0884 43.2298 46.5263 44.6763 46.4733C45.786 46.4342 46.89 46.1079 47.9854 46.2641C48.444 46.3282 49.0045 46.6993 48.8063 47.1009C48.7315 47.2341 48.6141 47.339 48.4723 47.3994C48.0704 47.6114 47.609 47.7146 47.2353 47.9713C46.8616 48.2279 46.5899 48.73 46.8022 49.1261C47.0145 49.5222 47.541 49.5864 47.9826 49.5418C49.0215 49.4358 49.9641 48.9448 50.9322 48.5431C51.9003 48.1414 52.959 47.8234 53.9696 48.0773C54.9801 48.3311 55.852 49.3632 55.5633 50.3535C55.3651 51.0369 54.6914 51.4972 53.995 51.6897C53.2987 51.8822 52.5627 51.8599 51.8409 51.9184C51.5578 51.9407 51.1785 52.0328 51.1105 52.3201C51.0979 52.3856 51.0986 52.4528 51.1127 52.518C51.1268 52.5831 51.154 52.6449 51.1926 52.6995C51.6116 53.3495 52.8118 53.196 53.1203 53.9018C53.3751 54.4876 52.7693 55.0845 52.1862 55.3607C51.2634 55.7959 50.2387 55.9688 49.2593 56.2645C48.2798 56.5602 47.2778 57.0149 46.7116 57.8434C45.9926 58.8587 45.9502 60.3316 44.9453 61.0708C44.2234 61.6036 43.2214 61.5701 42.341 61.3749C41.4606 61.1796 40.5973 60.8393 39.6915 60.8421C38.7856 60.8449 37.7949 61.3107 37.5684 62.1699C37.4014 62.8115 37.7043 63.4921 38.1515 63.9831C38.632 64.4451 39.1561 64.8608 39.7169 65.2244C41.1606 66.3039 43.5101 69.0237 43.1308 69.6737C42.7515 70.3236 40.4473 68.7476 39.1083 68.2789C38.5679 68.1233 38.0467 67.9091 37.5543 67.6401C36.572 67.032 35.9323 66.0222 35.1793 65.1547C34.214 64.0389 33.0195 63.1127 32.1278 61.9579C31.1838 66.7151 31.3133 71.6188 32.5071 76.3212C33.701 81.0236 35.93 85.4096 39.0361 89.1683C42.1422 92.927 46.0494 95.9663 50.4806 98.0708C54.9118 100.175 59.7585 101.293 64.6771 101.346C69.5958 101.398 74.4659 100.384 78.9423 98.3741C83.4186 96.3646 87.3916 93.4093 90.5795 89.7177C93.7673 86.0261 96.0921 81.6886 97.3889 77.0127C98.6857 72.3368 98.9228 67.4371 98.0834 62.6608C97.9395 62.6963 97.7926 62.7187 97.6446 62.7278ZM72.4824 49.3856C72.6568 49.326 72.8421 49.3034 73.026 49.3192C73.2099 49.3351 73.3883 49.3891 73.5496 49.4776C73.7154 49.5432 73.8679 49.6377 73.9997 49.7566C74.1679 49.9311 74.281 50.1502 74.3252 50.387C74.4306 50.8067 74.3845 51.2495 74.195 51.6395C74.0983 51.8319 73.9578 51.9998 73.7845 52.1299C73.6112 52.2601 73.4097 52.349 73.1957 52.3899C73.0176 52.4264 72.832 52.3966 72.6749 52.3062C72.5977 52.259 72.5383 52.1881 72.5061 52.1044C72.4739 52.0207 72.4705 51.9289 72.4966 51.8431C72.5532 51.6925 72.7145 51.606 72.8051 51.4693C72.8617 51.3537 72.8861 51.2253 72.8756 51.0973C72.8652 50.9694 72.8203 50.8465 72.7457 50.7413C72.5945 50.5324 72.4583 50.3133 72.338 50.0857C72.2418 49.843 71.9361 49.5083 72.4824 49.3856ZM70.7076 51.3382C70.7363 51.1537 70.8167 50.9808 70.9397 50.8389C71.0027 50.7693 71.0887 50.7238 71.1824 50.7105C71.2762 50.6973 71.3716 50.717 71.452 50.7664C71.5491 50.9128 71.6155 51.0769 71.6474 51.2489C71.6612 51.4781 71.6175 51.7071 71.52 51.9156C71.4668 52.0178 71.3794 52.0986 71.2725 52.1444C71.1657 52.1902 71.0461 52.1981 70.934 52.1667C70.6425 52.0467 70.6368 51.6423 70.7076 51.3382ZM52.6193 43.3546C52.6817 43.184 52.7927 43.0348 52.9392 42.925C53.2474 42.6668 53.6162 42.4885 54.012 42.4062L53.8988 42.2026C53.5308 42.0185 53.5534 41.4466 53.845 41.1593C54.1661 40.9039 54.5647 40.7615 54.9773 40.7548C55.807 40.6414 56.6497 40.6584 57.474 40.805C57.8788 40.8915 58.3515 41.123 58.3515 41.5331C58.3351 41.6729 58.2788 41.8054 58.1891 41.915C58.0994 42.0246 57.98 42.1069 57.8448 42.1523C57.5815 42.2611 57.2787 42.2862 57.0182 42.3727C56.4832 42.5401 56.0558 42.9306 55.5774 43.2263C54.821 43.6932 53.9385 43.9228 53.0468 43.8846C52.9494 43.8871 52.8526 43.868 52.7637 43.8288C52.6922 43.7747 52.6399 43.6997 52.614 43.6147C52.5881 43.5296 52.5899 43.4386 52.6193 43.3546V43.3546ZM55.5661 46.9029C55.3778 47.0245 55.1535 47.0805 54.9292 47.0619C54.5527 47.0619 54.1337 47.034 53.8761 46.7606C53.7679 46.616 53.6731 46.4619 53.5931 46.3004C53.31 45.8485 52.4608 46.5124 51.7531 45.7676C51.0454 45.0228 51.1587 44.5848 51.4474 44.4927C52.4297 44.1747 52.9675 44.4425 53.712 44.6127C54.4608 44.7589 55.1261 45.1783 55.5746 45.7871C55.801 46.1274 55.8888 46.6435 55.5661 46.9029ZM60.7236 79.4621C59.5914 81.6937 57.5561 83.3534 55.7048 85.0718C53.8535 86.7901 52.0475 88.7958 51.6144 91.2645C51.4163 92.4054 51.4814 93.6914 50.7114 94.5645C50.5964 94.7156 50.4255 94.8158 50.2359 94.8434C49.9018 94.8658 49.6697 94.531 49.531 94.2381C48.2487 91.6216 47.8326 88.6591 47.7845 85.7664C47.7969 85.0765 47.7496 84.3869 47.6429 83.7049C47.5335 83.2201 47.3888 82.7437 47.2098 82.2795C46.8867 81.5512 46.47 80.8668 45.97 80.2431C44.9339 78.8958 44.0281 77.4062 43.6573 75.7576C43.2865 74.109 43.5073 72.2707 44.5405 70.9206C45.1683 70.135 46.0276 69.5604 47.0004 69.2757C47.9731 68.991 49.0114 69.0101 49.9726 69.3306C51.1049 69.735 52.0362 70.5384 52.9533 71.3055C54.5102 72.6055 56.2058 73.8886 58.2128 74.2541C58.7959 74.3629 59.4102 74.3935 59.9424 74.6502C60.3445 74.8708 60.6835 75.188 60.928 75.5723C61.1725 75.9566 61.3144 76.3955 61.3407 76.8483C61.3825 77.7589 61.169 78.6632 60.7236 79.4621ZM62.9882 47.9824C62.524 48.1275 62.0371 48.2391 61.5729 48.4232C61.0006 48.6752 60.4685 49.0078 59.9933 49.4107C59.5319 49.737 58.861 49.2014 58.8412 48.6408C58.8214 48.0801 59.2092 47.5919 59.5574 47.1484C59.9056 46.7048 60.2594 46.186 60.1773 45.6281C60.0952 45.0702 59.5376 44.6211 58.9771 44.3867C58.7463 44.3253 58.5412 44.1935 58.3911 44.0102C58.2156 43.7312 58.3657 43.3546 58.5723 43.0952C59.2234 42.2583 60.3273 41.9376 61.3605 41.7004C62.2437 41.4912 63.1297 41.3071 64.0186 41.1425C65.6915 40.8301 67.4975 40.5846 69.0289 41.3267C69.3209 41.4445 69.5689 41.6481 69.7395 41.9097C69.8507 42.1269 69.8987 42.3702 69.8782 42.6126C69.8272 43.8791 68.7912 44.8833 67.7466 45.6253C66.2913 46.6499 64.6831 47.4451 62.9797 47.9824H62.9882Z" fill="#F5768F" stroke="white"></path><ellipse cx="65.0398" cy="68.3122" rx="33.5354" ry="33.0355" stroke="white"></ellipse><path d="M65.0398 101.348C83.5609 101.348 98.5753 86.5572 98.5753 68.3122C98.5753 50.0672 83.5609 35.2767 65.0398 35.2767C46.5187 35.2767 31.5044 50.0672 31.5044 68.3122C31.5044 86.5572 46.5187 101.348 65.0398 101.348Z" stroke="white"></path></svg>