<svg width="155" height="31" viewBox="0 0 155 31" fill="none" xmlns="http://www.w3.org/2000/svg">
<path fill-rule="evenodd" clip-rule="evenodd" d="M31.097 13.3085C28.2797 13.1661 25.827 15.2955 25.4537 18.21H36.3791C36.2149 15.3382 33.8539 13.1465 31.097 13.3085ZM37.0307 24.4112L39.7616 27.4841C38.7041 28.6096 37.4275 29.4921 36.0155 30.0735C34.6036 30.655 33.0882 30.9223 31.5689 30.858C24.892 30.858 20.5882 26.2396 20.5882 20.0011C20.5602 18.5736 20.8094 17.1548 21.3211 15.8279C21.8328 14.5009 22.5967 13.2927 23.568 12.2741C24.5316 11.2626 25.6847 10.4633 26.9572 9.9247C28.2297 9.38606 29.5952 9.1193 30.9709 9.14061C37.5907 9.14061 41.3535 14.4017 41.0286 21.6782H25.4554C25.9117 24.7815 28.6254 26.9643 31.6225 26.6367H31.6052H31.6035C33.6259 26.6567 35.575 25.8575 37.0307 24.4112ZM77.6315 13.5542C74.1487 13.6237 71.3694 16.6023 71.4005 20.2308C71.4334 23.861 74.2645 26.7862 77.7473 26.7862C78.599 26.7883 79.4422 26.6123 80.2259 26.2689C81.0097 25.9256 81.7176 25.422 82.3069 24.7886C82.9007 24.1503 83.3648 23.3963 83.672 22.5709C83.9792 21.7454 84.1233 20.8651 84.0958 19.9815C83.9973 16.353 81.1126 13.4866 77.6315 13.5542ZM67.7747 15.8612C68.2554 14.5461 68.9876 13.3438 69.9279 12.3258C70.8611 11.3153 71.9848 10.5118 73.2301 9.96436C74.4754 9.41698 75.8161 9.13727 77.17 9.14239C78.4369 9.12679 79.6916 9.39902 80.8447 9.9397C81.9979 10.4804 83.0212 11.2762 83.8418 12.2706V0H88.1473V30.445H83.8608V27.5607C83.0571 28.597 82.0357 29.4321 80.8736 30.0032C79.7114 30.5743 78.4386 30.8666 77.151 30.858C75.8037 30.8449 74.4726 30.5526 73.2373 29.9983C72.002 29.4441 70.8877 28.6393 69.9608 27.6319C69.027 26.6172 68.2975 25.422 67.8146 24.1153C67.3316 22.8086 67.1047 21.4164 67.1469 20.0189L67.1296 19.9815C67.0746 18.5774 67.294 17.1763 67.7747 15.8612ZM115.099 26.0135L118.898 23.9411C119.4 24.8863 120.145 25.6711 121.051 26.2096C121.957 26.7482 122.989 27.0197 124.035 26.9945C126.441 26.9945 127.652 25.7126 127.652 24.242C127.652 22.7714 125.428 22.1874 122.896 21.5465C119.477 20.7916 115.949 19.661 115.949 15.3257C115.949 12.0266 118.97 8.99105 123.71 9.02844C125.282 8.92827 126.854 9.24896 128.27 9.95934C129.687 10.6697 130.902 11.7456 131.795 13.0824L128.178 15.137C127.687 14.3769 127.015 13.7594 126.227 13.3435C125.438 12.9276 124.559 12.7274 123.673 12.762C121.375 12.762 120.218 13.9299 120.218 15.2688C120.218 16.6076 122.028 17.1542 124.958 17.8504C128.25 18.6052 131.992 19.7376 131.992 24.0729C131.992 26.9571 129.588 30.8206 123.872 30.785C122.113 30.9103 120.355 30.5221 118.8 29.6649C117.245 28.8077 115.956 27.5162 115.081 25.9387" fill="#02363D"/>
<path fill-rule="evenodd" clip-rule="evenodd" d="M103.159 12.9081C100.177 12.7624 97.5783 14.9404 97.1849 17.9214H108.752C108.576 14.9841 106.076 12.7424 103.159 12.9081ZM109.442 24.2639L112.333 27.407C111.213 28.5581 109.862 29.4607 108.367 30.0554C106.872 30.6501 105.268 30.9235 103.659 30.8578C96.592 30.8578 92.0337 26.1341 92.0337 19.7533C92.0032 18.2815 92.2709 16.8187 92.8207 15.4522C93.3706 14.0856 94.1914 12.8432 95.2342 11.7991C96.2691 10.7632 97.5061 9.94915 98.8691 9.40703C100.232 8.86492 101.692 8.60626 103.159 8.64698C110.168 8.64698 114.152 14.0262 113.808 21.4687H97.1666C97.6497 24.6427 100.524 26.8752 103.696 26.5402C105.837 26.5607 107.9 25.7432 109.442 24.2639Z" fill="#02363D"/>
<path d="M0.295351 12.9028H12.3124L0 26.5068V30.8673H18.1641V26.6073H5.70396L17.9979 13.0033V8.64282H0.295351V12.9028Z" fill="#02363D"/>
<path d="M136.836 30.8673H140.968V25.583L144.256 21.8582L150.305 30.8673H155L147.193 19.2527L154.807 10.574H149.76L140.968 20.6289V1.23462H136.836V30.8673Z" fill="#02363D"/>
<path d="M55.0902 8.64282C50.1482 8.64282 46.0157 12.2053 46.0157 18.1309V30.8487H50.2527V18.739C50.1802 17.9844 50.258 17.2214 50.4805 16.5034C50.7031 15.7853 51.0651 15.1294 51.5414 14.5815C52.5028 13.4789 53.8555 12.91 55.2302 13.0308C58.3725 13.0308 59.9428 15.1765 59.9428 18.739V30.8673H64.1798V18.1495C64.1798 12.2425 60.0491 8.65955 55.1071 8.65955" fill="#02363D"/>
</svg>
