<svg id="Layer_1" data-name="Layer 1" xmlns="http://www.w3.org/2000/svg" viewBox="0 0 320.57 331.5"><defs><style>.cls-1,.cls-4{fill:none;stroke:#040038;}.cls-1,.cls-5{stroke-miterlimit:10;}.cls-2{fill:#040038;}.cls-3{fill:#ffa731;}.cls-4{stroke-linecap:round;stroke-linejoin:round;stroke-width:1.16px;}.cls-5{fill:#fff;stroke:#fff;stroke-width:2.27px;}.cls-6{fill:#2627a0;}</style></defs><path class="cls-1" d="M82.06,258.49H66.67A15.54,15.54,0,0,0,51.13,274V321"/><path class="cls-1" d="M296.92,153.38V243a15.54,15.54,0,0,1-15.54,15.54h-192"/><path class="cls-1" d="M39.79,16.81V90.19a15.54,15.54,0,0,0,15.54,15.54H281.38a15.54,15.54,0,0,1,15.54,15.54V143"/><path class="cls-2" d="M55.19,295.75a4.06,4.06,0,1,0-4.06,4.06,4.06,4.06,0,0,0,4.06-4.06"/><path class="cls-2" d="M86.12,106.14a4.06,4.06,0,1,1-4.06-4.06,4.06,4.06,0,0,1,4.06,4.06"/><rect class="cls-3" x="29.93" y="44.44" width="46.91" height="45.8" rx="7.16" transform="translate(106.77 134.68) rotate(-180)"/><polyline class="cls-4" points="68.99 70.27 69.7 80.33 39.24 80.33 40.1 68.17 42.17 65.15 37.07 60.75 42.02 48.02 48.05 49.89"/><polyline class="cls-4" points="50.85 50.76 66.83 55.71 63.7 69.12 68.72 66.47 68.83 68.03"/><path class="cls-4" d="M47.26,52.53l2.25-7.28a6.64,6.64,0,0,1,8.32-4.38h0a6.65,6.65,0,0,1,4.39,8.31L60,56.47"/><circle class="cls-4" cx="46.65" cy="54.39" r="1.51"/><circle class="cls-4" cx="59.38" cy="58.33" r="1.51"/><polyline class="cls-4" points="62.04 63.15 60.62 69.94 63.08 72.92"/><circle class="cls-3" cx="185.34" cy="161.92" r="86.86"/><path class="cls-1" d="M125.19,234.46a86.44,86.44,0,1,1,7.75,4.56"/><path class="cls-1" d="M136.44,197.17a55.83,55.83,0,0,1,78.95,0"/><circle class="cls-1" cx="205.46" cy="134.85" r="5.18"/><circle class="cls-1" cx="150.07" cy="134.85" r="5.18"/><path class="cls-5" d="M214.3,166.81a8.84,8.84,0,0,1-17.67,0c0-4.88,8.08-20.36,8.83-20.36S214.3,161.93,214.3,166.81Z"/><path class="cls-6" d="M122.58,266.76l2.38,7.31a.5.5,0,0,0,.48.35h7.69a.51.51,0,0,1,.3.92l-6.22,4.52a.49.49,0,0,0-.19.56l2.38,7.32a.5.5,0,0,1-.78.56l-6.22-4.52a.49.49,0,0,0-.59,0l-6.23,4.52a.5.5,0,0,1-.77-.56l2.37-7.32a.48.48,0,0,0-.18-.56l-6.22-4.52a.51.51,0,0,1,.29-.92h7.7a.51.51,0,0,0,.48-.35l2.37-7.31A.5.5,0,0,1,122.58,266.76Z"/><path class="cls-6" d="M149.49,266.76l2.38,7.31a.5.5,0,0,0,.48.35H160a.51.51,0,0,1,.29.92l-6.22,4.52a.5.5,0,0,0-.18.56l2.38,7.32a.51.51,0,0,1-.78.56l-6.22-4.52a.51.51,0,0,0-.6,0l-6.22,4.52a.51.51,0,0,1-.78-.56l2.38-7.32a.5.5,0,0,0-.18-.56l-6.23-4.52a.51.51,0,0,1,.3-.92h7.69a.5.5,0,0,0,.48-.35l2.38-7.31A.5.5,0,0,1,149.49,266.76Z"/><path class="cls-1" d="M176.4,266.76l2.37,7.31a.51.51,0,0,0,.48.35H187a.51.51,0,0,1,.29.92L181,279.86a.48.48,0,0,0-.18.56l2.37,7.32a.5.5,0,0,1-.77.56l-6.23-4.52a.49.49,0,0,0-.59,0l-6.22,4.52a.5.5,0,0,1-.78-.56l2.38-7.32a.49.49,0,0,0-.19-.56l-6.22-4.52a.51.51,0,0,1,.3-.92h7.69a.5.5,0,0,0,.48-.35l2.38-7.31A.5.5,0,0,1,176.4,266.76Z"/><path class="cls-1" d="M203.3,266.76l2.38,7.31a.5.5,0,0,0,.48.35h7.69a.51.51,0,0,1,.3.92l-6.22,4.52a.5.5,0,0,0-.19.56l2.38,7.32a.5.5,0,0,1-.78.56l-6.22-4.52a.49.49,0,0,0-.59,0l-6.22,4.52a.5.5,0,0,1-.78-.56l2.37-7.32a.48.48,0,0,0-.18-.56l-6.22-4.52a.51.51,0,0,1,.3-.92h7.69a.5.5,0,0,0,.48-.35l2.37-7.31A.5.5,0,0,1,203.3,266.76Z"/><path class="cls-1" d="M230.21,266.76l2.38,7.31a.5.5,0,0,0,.48.35h7.69a.51.51,0,0,1,.3.92l-6.23,4.52a.5.5,0,0,0-.18.56l2.38,7.32a.5.5,0,0,1-.78.56L230,283.78a.51.51,0,0,0-.6,0l-6.22,4.52a.5.5,0,0,1-.77-.56l2.37-7.32a.48.48,0,0,0-.18-.56l-6.22-4.52a.51.51,0,0,1,.29-.92h7.69a.5.5,0,0,0,.48-.35l2.38-7.31A.5.5,0,0,1,230.21,266.76Z"/><rect class="cls-2" x="292.84" y="169.31" width="8.15" height="8.15" rx="0.77" transform="translate(-39.23 101.08) rotate(-18.14)"/></svg>