<svg id="Layer_1" data-name="Layer 1" xmlns="http://www.w3.org/2000/svg" viewBox="0 0 133 133"><defs><style>.cls-1{fill:#bdbff1;}.cls-14,.cls-16,.cls-17,.cls-2,.cls-6,.cls-8{fill:none;}.cls-2{stroke:#fff;stroke-miterlimit:10;}.cls-11,.cls-13,.cls-14,.cls-2,.cls-6,.cls-8{stroke-width:1.27px;}.cls-3{fill:#363cd3;}.cls-4{fill:#f7758e;}.cls-5{fill:#fff;}.cls-16,.cls-6{stroke:#040038;}.cls-11,.cls-13,.cls-14,.cls-16,.cls-17,.cls-6,.cls-8{stroke-linecap:round;stroke-linejoin:round;}.cls-7{fill:#bdc0ef;}.cls-11,.cls-17,.cls-8{stroke:#040237;}.cls-9{fill:#f8a4b4;}.cls-10{fill:#fea640;fill-rule:evenodd;}.cls-11,.cls-12{fill:#3843d0;}.cls-13{fill:#15186a;stroke:#15186a;}.cls-14{stroke:#bdc0ef;}.cls-15{fill:#cdece7;}.cls-16,.cls-17{stroke-width:1.09px;}</style></defs><rect class="cls-1" x="33.64" y="34.27" width="68.25" height="66.63" rx="9.56" transform="translate(135.54 135.16) rotate(-180)"/><path class="cls-2" d="M90.51,104.49v-10a2.23,2.23,0,0,0-2.23-2.23H70a2.23,2.23,0,0,1-2.23-2.23V83.79"/><path class="cls-2" d="M99.46,41.81H77.3A2.23,2.23,0,0,0,75.07,44v.78a2.23,2.23,0,0,0,2.23,2.23H90.84a2.23,2.23,0,0,1,2.23,2.23V66.52a2.23,2.23,0,0,1-2.23,2.23H84.63"/><path class="cls-2" d="M64.13,68.75H42.82a2.23,2.23,0,0,1-2.23-2.23V36.8"/><path class="cls-2" d="M38,87.39V79.46a2.23,2.23,0,0,1,2.23-2.23H65.19"/><circle class="cls-3" cx="67.77" cy="67.58" r="16.58"/><path class="cls-4" d="M84.35,67.58a16.58,16.58,0,0,1-33.16,0"/><circle class="cls-5" cx="67.77" cy="67.58" r="10.14"/><path class="cls-6" d="M61.38,63.43v4.85a3.33,3.33,0,0,0,3.2,3.45h0a3.33,3.33,0,0,0,3.19-3.45v-1.4A3.33,3.33,0,0,1,71,63.43h0a3.33,3.33,0,0,1,3.2,3.45v4.85"/><circle class="cls-4" cx="81.13" cy="67.58" r="3.22"/><circle class="cls-3" cx="54.41" cy="67.58" r="3.22"/><rect class="cls-7" x="105.96" y="21.19" width="17.73" height="8.96" rx="4.48"/><line class="cls-8" x1="109.92" y1="24.56" x2="118.86" y2="24.56"/><line class="cls-8" x1="109.92" y1="26.78" x2="113.43" y2="26.78"/><rect class="cls-9" x="100.74" y="32.68" width="17.73" height="8.96" rx="4.48"/><line class="cls-8" x1="105.26" y1="36.25" x2="114.51" y2="36.25"/><line class="cls-8" x1="105.26" y1="38.47" x2="110.03" y2="38.47"/><rect class="cls-8" x="99.46" y="16.9" width="22.06" height="31.3" rx="2.52"/><line class="cls-8" x1="99.46" y1="42.05" x2="121.52" y2="42.05"/><path class="cls-10" d="M42,98.05a1,1,0,0,0,.43.56c.33.15.7,0,1,.06a.49.49,0,0,1,.38.33.58.58,0,0,1,0,.43c-.15.36.18.67.44.85s.62.41.64.78-.39.83-.18,1.19.5.21.77.27a1,1,0,0,1,.7.63,1.17,1.17,0,0,1-.09,1,4,4,0,0,1-.42.5.8.8,0,0,0-.22.62c.05.34.4.52.58.81a1.13,1.13,0,0,1,0,1.1,1.87,1.87,0,0,1-.84.69,4.22,4.22,0,0,1-1.2.34,8.53,8.53,0,0,1-1.34.06,1.61,1.61,0,0,0-.31,0,3.57,3.57,0,0,1-.73,0H37.89c-2.15,0-4.31,0-6.46,0l-.94,6a13.8,13.8,0,0,1-2.64-.09c-.5-.09-.35-1-.31-1.33s.1-.7.12-1a1.74,1.74,0,0,0-.09-.85,1.08,1.08,0,0,0-1-.58h0a2.17,2.17,0,0,1-.94-.19.74.74,0,0,1-.35-.87c.08-.19.26-.32.33-.51a.79.79,0,0,0-.43-.92c-.31-.17-.68-.2-1-.38a.8.8,0,0,1-.42-.93c.18-.38.73-.41.9-.8s-.15-.8-.47-1-.72-.46-.79-.87a1.3,1.3,0,0,1,.63-1.11,1.74,1.74,0,0,0,.81-1,4,4,0,0,0-.11-.91A1,1,0,0,1,25,100c.25-.23.61-.25.86-.49a.84.84,0,0,0,.2-.29.65.65,0,0,0,.08-.27,1.37,1.37,0,0,1,0-.35.63.63,0,0,1,.39-.51c.25-.1.55,0,.78-.17a1.2,1.2,0,0,0,.37-.75c.07-.29.19-.6.45-.68.44-.14.82.56,1.27.48s.49-.47.56-.83.16-.77.46-.93a.75.75,0,0,1,.75.15,5,5,0,0,0,.65.49.59.59,0,0,0,.74-.09c.19-.24.12-.63.29-.89a.66.66,0,0,1,.83-.18,5.63,5.63,0,0,1,.76.55.89.89,0,0,0,.86.2c.47-.2.63-1,1.14-1,.35,0,.61.36.76.7s.35.75.7.82,1-.57,1.47-.28c.24.15.29.51.38.8a.78.78,0,0,0,.35.44.33.33,0,0,0,.24,0,1.19,1.19,0,0,1,1,0C41.73,97.11,41.8,97.63,42,98.05Z"/><path class="cls-8" d="M29.46,108.22a7.77,7.77,0,1,0,7.12-4.66"/><polyline class="cls-8" points="39.54 109.58 40.58 114.83 37.67 114.77"/><path class="cls-8" d="M50.5,92.16v29.22A1.54,1.54,0,0,1,49,122.92H34"/><path class="cls-8" d="M31.09,122.92H26.85a1.54,1.54,0,0,1-1.54-1.54V92.16"/><path class="cls-11" d="M25.31,93.43v-4a1.54,1.54,0,0,1,1.54-1.54H49a1.54,1.54,0,0,1,1.54,1.54v4"/><rect class="cls-12" x="10.25" y="15.35" width="14.39" height="21.45"/><path class="cls-6" d="M10,15.35H50.12a0,0,0,0,1,0,0V35.48a1.29,1.29,0,0,1-1.29,1.29H11.33A1.29,1.29,0,0,1,10,35.48V15.35A0,0,0,0,1,10,15.35Z"/><path class="cls-13" d="M10,15.35V11a1.24,1.24,0,0,1,1.24-1.24H48.89A1.24,1.24,0,0,1,50.12,11v4.36Z"/><line class="cls-6" x1="34.84" y1="30.74" x2="42.83" y2="30.74"/><line class="cls-14" x1="16.33" y1="18.81" x2="22.68" y2="18.81"/><circle class="cls-12" cx="29.49" cy="21.95" r="2.68"/><circle class="cls-7" cx="13.27" cy="18.81" r="1.34"/><line class="cls-14" x1="16.33" y1="22.51" x2="22.68" y2="22.51"/><circle class="cls-7" cx="13.27" cy="22.51" r="1.34"/><line class="cls-6" x1="34.84" y1="26" x2="45.7" y2="26"/><line class="cls-6" x1="34.84" y1="28.37" x2="45.7" y2="28.37"/><rect class="cls-12" x="34.2" y="20.49" width="12.13" height="2.76" rx="1.38"/><rect class="cls-15" x="84.14" y="104.47" width="17.87" height="7.87" rx="1.34"/><rect class="cls-15" x="84.14" y="114.09" width="17.87" height="7.87" rx="1.34"/><path class="cls-8" d="M82.44,100.35h31.92a1.54,1.54,0,0,1,1.54,1.54v4.81"/><path class="cls-8" d="M115.9,109.63v14.69c0,.85-.69.9-1.54.9H82.44"/><path class="cls-11" d="M82.44,125.22H76.89c-.85,0-1.54,0-1.54-.9V101.89a1.54,1.54,0,0,1,1.54-1.54h5.55"/><circle class="cls-5" cx="78.95" cy="112.02" r="1.36"/><circle class="cls-5" cx="78.95" cy="108.14" r="1.36"/><circle class="cls-5" cx="78.95" cy="104.26" r="1.36"/><line class="cls-6" x1="106.72" y1="105.89" x2="112.11" y2="105.89"/><line class="cls-16" x1="83.91" y1="106.86" x2="94.83" y2="106.86"/><line class="cls-16" x1="83.91" y1="116.47" x2="91.64" y2="116.47"/><line class="cls-6" x1="106.72" y1="108.02" x2="112.11" y2="108.02"/><line class="cls-6" x1="106.72" y1="110.15" x2="109.66" y2="110.15"/><line class="cls-17" x1="104.16" y1="100.37" x2="104.16" y2="124.87"/><circle class="cls-5" cx="40.59" cy="49.37" r="2.58"/><circle class="cls-5" cx="93.07" cy="59.2" r="2.58"/><circle class="cls-5" cx="79.87" cy="92.28" r="2.58"/><circle class="cls-5" cx="46.34" cy="77.23" r="2.58"/></svg>