<svg id="Layer_1" data-name="Layer 1" xmlns="http://www.w3.org/2000/svg" viewBox="0 0 320.57 308.89"><defs><style>.cls-1,.cls-5{fill:none;}.cls-1{stroke:#040038;stroke-miterlimit:10;}.cls-2{fill:#bdbff1;}.cls-3{fill:#f7758e;}.cls-4{fill:#ffa731;}.cls-5{stroke:#040237;stroke-linecap:round;stroke-linejoin:round;stroke-width:1.85px;}.cls-6{fill:#040038;}</style></defs><path class="cls-1" d="M58,26.83H35.76A17.2,17.2,0,0,0,18.56,44v58.33a17.21,17.21,0,0,0,17.2,17.2h254.6"/><line class="cls-1" x1="290.36" y1="26.83" x2="73.59" y2="26.83"/><rect class="cls-2" x="20.82" y="204.41" width="89.24" height="89.24" rx="8.78"/><rect class="cls-3" x="109.65" y="165.57" width="96.2" height="96.2" rx="9.14"/><rect class="cls-4" x="109.65" y="48.24" width="96.2" height="96.2" rx="9.14"/><path class="cls-2" d="M89.86,216l43.69,27.5-16.88,23.23c-.77,1.07-3.94,5.57-5.16,5.06L74.44,256.24,30.29,243.7a5.16,5.16,0,0,1-3.71-6.1l6.49-26.76a5.15,5.15,0,0,1,6.59-3.8l39.42,12.32,6.85-3.56A3.94,3.94,0,0,1,89.86,216Z"/><path class="cls-3" d="M70.19,260.66l7.24-9.28L83,253.86l7.09-6,20.08,12.76-7.37,16.05C101.31,280,99,281.72,94.66,279L70.82,264.19A2.42,2.42,0,0,1,70.19,260.66Z"/><path class="cls-5" d="M112.7,223.68l23.43,15a6.2,6.2,0,0,1,1.57,9L120,270.8a5.65,5.65,0,0,1-6.75,1.74l-3-1.33"/><path class="cls-5" d="M54.25,214l26.54,10.13,12.55-6.94a9.41,9.41,0,0,1,9.62.31"/><line class="cls-5" x1="69.39" y1="254.49" x2="60.16" y2="252.1"/><path class="cls-5" d="M152,210.57l-21.22,7.81-19.27-6.54-14.23,10-1.86,18.64,4.87.8c3,.49,4.72-1.42,6.26-4.58l6.12-13"/><path class="cls-5" d="M70.55,258.85,77.11,251l6.39,2.87,6.25-6.54,21.46,13.15-6,11.45a6.58,6.58,0,0,1-9.29,2.55Z"/><line class="cls-5" x1="83.5" y1="253.89" x2="76.24" y2="262.31"/><line class="cls-5" x1="95.77" y1="251.24" x2="84.53" y2="267.26"/><line class="cls-5" x1="104.08" y1="256.24" x2="93.5" y2="273.07"/><line class="cls-5" x1="134.61" y1="251.39" x2="122.2" y2="244.7"/><line class="cls-5" x1="129.17" y1="258.93" x2="116.94" y2="252.59"/><line class="cls-5" x1="123.61" y1="265.62" x2="114.15" y2="261.02"/><path class="cls-1" d="M261.07,213.67h17a12.27,12.27,0,0,1,12.27,12.27v23.21a12.26,12.26,0,0,1-12.27,12.26H264.93"/><line class="cls-1" x1="198.6" y1="213.67" x2="249.64" y2="213.67"/><path class="cls-1" d="M32.21,154.24V143.51a15.09,15.09,0,0,1,15.09-15.1H80.73"/><line class="cls-1" x1="32.21" y1="206.79" x2="32.21" y2="172.24"/><path class="cls-6" d="M112.74,26.83a4.06,4.06,0,1,0-4.06,4.06,4.06,4.06,0,0,0,4.06-4.06"/><path class="cls-6" d="M294.42,239.29a4.06,4.06,0,1,0-4.06,4.07,4.06,4.06,0,0,0,4.06-4.07"/><rect class="cls-6" x="226.35" y="209.59" width="8.15" height="8.15" rx="0.77" transform="translate(-55.08 82.38) rotate(-18.14)"/><rect class="cls-6" x="239.39" y="115.48" width="8.15" height="8.15" rx="0.77" transform="translate(13.85 -24.82) rotate(6.01)"/><line class="cls-5" x1="183.98" y1="70.12" x2="131.52" y2="122.57"/><line class="cls-5" x1="131.52" y1="70.12" x2="183.98" y2="122.57"/></svg>