<svg id="Layer_1" data-name="Layer 1" xmlns="http://www.w3.org/2000/svg" viewBox="0 0 133 133"><defs><style>.cls-1{fill:#bdbff1;}.cls-2{fill:#363cd3;}.cls-3{fill:#fff;}.cls-4{fill:#f2768f;fill-rule:evenodd;}.cls-11,.cls-5,.cls-7{fill:none;stroke-linecap:round;stroke-linejoin:round;}.cls-11,.cls-5{stroke:#040038;}.cls-5{stroke-width:1.16px;}.cls-6{fill:#040237;}.cls-7{stroke:#363cd3;stroke-width:1.22px;}.cls-8{fill:#fec14d;}.cls-9{fill:#66c8b7;}.cls-10{fill:#f7758e;}.cls-11{stroke-width:0.73px;}</style></defs><rect class="cls-1" x="25.03" y="30.17" width="86.15" height="84.11" rx="9.18" transform="translate(136.21 144.44) rotate(-180)"/><path class="cls-2" d="M112.1,115.93c-1.76-5.16-4.47-14.36-7-17.39-7.6-9.21-23.44-11.43-23.1-24.7l-10.44.49c-1.54,15.44-16,17.39-23,25.63-3.9,4.57-7.21,14.79-9.39,23C69.42,129.64,98.3,124.21,112.1,115.93Z"/><path class="cls-3" d="M88.34,63.27a14.44,14.44,0,0,1-6.06,1.33,14.67,14.67,0,1,1,3.54-28.89c4.2,1.06,7.34,12.36,6.71,20.17C92.21,59.83,90,62.49,88.34,63.27Z"/><path class="cls-4" d="M68.78,24.29a21.82,21.82,0,0,0-5.26,4.19,13.25,13.25,0,0,0-3.58,8.66,9.74,9.74,0,0,0,1.26,4.74,10.51,10.51,0,0,0,1.5,2c1.42,1.53,3.82,1.65,4.86,1.78,4.11.51,14.08-4.33,17.2-6.85.72,2,1.25,3.47,1.46,4,1.27,3.06,2.64,5.93,5.54,7.69a1.91,1.91,0,0,0,2.51-.09,4.73,4.73,0,0,0,1-2.35c1.13-5,2-10.53.82-15.64a53.6,53.6,0,0,0-2.53-6.26A8,8,0,0,0,97,18.37a10.78,10.78,0,0,0-4.72-7.26,16.55,16.55,0,0,0-8.41-2.64,13.35,13.35,0,0,0-7,1.22,7.46,7.46,0,0,0-4.11,5.55,5.53,5.53,0,0,0,.8,3.46c.63,1,1,1.65,1.54,2.49-1,.43-3.09,1.43-3.78,1.77C70.42,23.37,69.59,23.81,68.78,24.29Z"/><path class="cls-5" d="M70.9,63.75A14.42,14.42,0,0,1,79,37.37"/><path class="cls-5" d="M91.67,47.55A14.43,14.43,0,0,1,78.45,67.74"/><polyline class="cls-5" points="73.86 47.74 72.06 56.82 77.08 56.7"/><circle class="cls-5" cx="66.68" cy="48.38" r="5.75"/><circle class="cls-5" cx="80.61" cy="48.38" r="5.75"/><rect class="cls-6" x="73.28" y="65.31" width="8.78" height="4.6" rx="2.3"/><path class="cls-7" d="M51.37,83.19H25.14A9.19,9.19,0,0,1,16,74V20.78a9.18,9.18,0,0,1,9.18-9.18h81.78a9.18,9.18,0,0,1,9.18,9.18v54a9.18,9.18,0,0,1-9.18,9.18H96.6"/><circle class="cls-8" cx="15.99" cy="53.56" r="4.09"/><rect class="cls-9" x="35.68" y="8.03" width="6.84" height="6.84" rx="0.6"/><path class="cls-10" d="M36.12,11.89l-6.87,4a.34.34,0,0,1-.52-.3V7.56a.35.35,0,0,1,.52-.3l6.87,4A.34.34,0,0,1,36.12,11.89Z"/><ellipse class="cls-8" cx="98.4" cy="109.2" rx="6.81" ry="6.98"/><path class="cls-11" d="M102.28,111.26c-1.55,3-6.29,3-7.76,0"/><polyline class="cls-11" points="98.26 107.97 97.61 111.25 99.43 111.21"/><ellipse class="cls-10" cx="85.26" cy="100.96" rx="6.81" ry="6.98"/><path class="cls-10" d="M84.6,105.54l-3.69-4a2.39,2.39,0,0,1-.16-3h0a2.4,2.4,0,0,1,3.4-.45l1.11.89,1.12-.89a2.4,2.4,0,0,1,3.4.45h0a2.39,2.39,0,0,1-.16,3l-3.69,4A.9.9,0,0,1,84.6,105.54Z"/><ellipse class="cls-3" cx="85.26" cy="100.96" rx="6.81" ry="6.98"/><path class="cls-10" d="M84.6,105.54l-3.69-4a2.39,2.39,0,0,1-.16-3h0a2.4,2.4,0,0,1,3.4-.45l1.11.89,1.12-.89a2.4,2.4,0,0,1,3.4.45h0a2.39,2.39,0,0,1-.16,3l-3.69,4A.9.9,0,0,1,84.6,105.54Z"/><circle class="cls-9" cx="85.23" cy="114.51" r="3.79"/></svg>