<svg id="Layer_1" data-name="Layer 1" xmlns="http://www.w3.org/2000/svg" viewBox="0 0 1135.96 279.33"><defs><style>.cls-1{fill:none;stroke:#040038;stroke-linecap:round;stroke-miterlimit:10;stroke-width:1.5px;}.cls-2{fill:#ffaebc;}.cls-3{fill:#fec14d;}</style></defs><path class="cls-1" d="M920,8.82V78.38a37.25,37.25,0,0,1-37.25,37.25H705.64a37.26,37.26,0,0,0-37.25,37.26v98.59"/><path class="cls-1" d="M607.86,251.48V111.29A37.26,37.26,0,0,1,645.11,74h0a37.26,37.26,0,0,0,37.26-37.25v-28"/><path class="cls-1" d="M468.22,8.82V94a37.25,37.25,0,0,0,37.25,37.25H510a37.26,37.26,0,0,1,37.25,37.26v83"/><path class="cls-1" d="M244.47-12V132.7a40.13,40.13,0,0,0,40.13,40.13H409.76A40.13,40.13,0,0,1,449.89,213v38.52"/><circle class="cls-2" cx="829" cy="115.73" r="6.59"/><circle class="cls-2" cx="347.18" cy="172.58" r="6.59"/><circle class="cls-3" cx="645.11" cy="74.01" r="6.59"/><path class="cls-3" d="M514.92,132.16l-10.1,5.93a.59.59,0,0,1-.9-.51V125.72a.6.6,0,0,1,.9-.52l10.1,5.93A.59.59,0,0,1,514.92,132.16Z"/><path class="cls-3" d="M244,58.05,238,48a.6.6,0,0,1,.52-.9H250.4a.6.6,0,0,1,.52.9L245,58.05A.61.61,0,0,1,244,58.05Z"/></svg>