<svg id="Layer_1" data-name="Layer 1" xmlns="http://www.w3.org/2000/svg" viewBox="0 0 1135.96 152.96"><defs><style>.cls-1{fill:none;stroke:#040038;stroke-linecap:round;stroke-miterlimit:10;stroke-width:1.5px;}.cls-2{fill:#3843d0;}</style></defs><path class="cls-1" d="M1117.9,51.59H959.81A39.81,39.81,0,0,0,920,91.4v52.77"/><path class="cls-1" d="M878.08,49.93v13a39.8,39.8,0,0,1-39.81,39.8H722.17a39.81,39.81,0,0,0-39.8,39.81h0"/><path class="cls-1" d="M12.55,49.93H204.66a39.8,39.8,0,0,1,39.81,39.8V125.5"/><path class="cls-1" d="M300.85,15.91v13a39.81,39.81,0,0,0,39.81,39.81h87.75a39.81,39.81,0,0,1,39.81,39.81h0v34.72"/><circle class="cls-2" cx="1011.2" cy="51.59" r="6.59"/><circle class="cls-2" cx="80.46" cy="49.93" r="6.59"/><rect class="cls-2" x="871.49" y="43.34" width="13.18" height="13.18" rx="1.2"/><rect class="cls-2" x="377.94" y="62.6" width="13.18" height="13.18" rx="1.2"/></svg>