<svg id="Layer_1" data-name="Layer 1" xmlns="http://www.w3.org/2000/svg" viewBox="0 0 739.31 228.79"><defs><style>.cls-1,.cls-2,.cls-3,.cls-6,.cls-9{fill:none;}.cls-1,.cls-2,.cls-3{stroke:#1e36d8;stroke-miterlimit:10;}.cls-2{opacity:0.46;}.cls-3{stroke-width:1.08px;opacity:0.11;}.cls-4{fill:#fff;}.cls-5,.cls-8{fill:#fd7029;}.cls-12,.cls-5{fill-rule:evenodd;}.cls-6,.cls-9{stroke:#040038;stroke-linecap:round;stroke-linejoin:round;}.cls-6{stroke-width:1.63px;}.cls-7{fill:#040038;}.cls-9{stroke-width:1.14px;}.cls-10{fill:#4ea095;}.cls-11{fill:#fec14d;}.cls-12{fill:#040237;}.cls-13{fill:#1e36d8;}.cls-14{fill:#f7758e;}.cls-15{fill:#fbc14d;}</style></defs><path class="cls-1" d="M431.36,22.87h2.21a23.34,23.34,0,0,1,23.34,23.34V184.27a23.34,23.34,0,0,1-23.34,23.34H345.52"/><line class="cls-1" x1="425.41" y1="22.87" x2="431.36" y2="22.87"/><path class="cls-1" d="M339.89,207.61H295.51a23.34,23.34,0,0,1-23.34-23.34V46.21a23.34,23.34,0,0,1,23.34-23.34h129.9"/><path class="cls-2" d="M308.93,15.44H434.69a29.64,29.64,0,0,1,29.65,29.65v140.3A29.64,29.64,0,0,1,434.69,215H378.08"/><path class="cls-2" d="M264.74,61.47V45.09a29.65,29.65,0,0,1,29.65-29.65h6.72"/><line class="cls-2" x1="264.74" y1="66.2" x2="264.74" y2="61.47"/><line class="cls-2" x1="264.74" y1="150.27" x2="264.74" y2="66.2"/><path class="cls-2" d="M364.54,215H294.39a29.65,29.65,0,0,1-29.65-29.65V158"/><line class="cls-2" x1="378.08" y1="215.04" x2="364.54" y2="215.04"/><path class="cls-3" d="M339.89,7.7h96.59a35.6,35.6,0,0,1,35.6,35.6v85.29"/><line class="cls-3" x1="333.32" y1="7.7" x2="339.89" y2="7.7"/><path class="cls-3" d="M257,122.74V43.3A35.59,35.59,0,0,1,292.6,7.7h40.72"/><path class="cls-3" d="M472.08,140.8v46.38a35.59,35.59,0,0,1-35.6,35.59H292.6A35.58,35.58,0,0,1,257,187.18v-54.4"/><circle class="cls-4" cx="366.97" cy="112.58" r="22.98"/><path class="cls-5" d="M344.54,91.58A56.53,56.53,0,0,0,334,118.17,90.64,90.64,0,0,0,335.15,147c.3,1.59.7,3.31,2,4.32,1.46,1.16,3.54,1,5.4.7l14.18-2c1.57-.22,3.28-.51,4.35-1.67a6.64,6.64,0,0,0,1.34-3.82,58.9,58.9,0,0,0-.06-14,16,16,0,0,1-10-6.44,23.81,23.81,0,0,1-4.19-11.32c-.83-7,1.21-14.89,7.07-18.8,1.8-1.2,3.86-2,5.57-3.28s3.09-3.42,2.64-5.53a5,5,0,0,0-3.07-3.36,6.83,6.83,0,0,0-4-.42,3.88,3.88,0,0,0-1.06.62c-.55.36-1.13.66-1.68,1a32.42,32.42,0,0,0-6.12,5.08A42.94,42.94,0,0,0,344.54,91.58Z"/><path class="cls-5" d="M389,106.38a5.64,5.64,0,0,0,3-1.14c1.38-1.23,1.39-3.37,1.09-5.2a26.4,26.4,0,0,0-25.8-22.16,17.07,17.07,0,0,0-9.45,2.38,11,11,0,0,0-3.65,3.88c-.68,1.22-1.55,3.29-1,4.7a17,17,0,0,0,2.75,4.2,34.67,34.67,0,0,0,3.47,3.8,36.85,36.85,0,0,0,18.1,9.28,33.76,33.76,0,0,0,10.23.43C388.11,106.51,388.53,106.45,389,106.38Z"/><path class="cls-6" d="M354.41,128.59A22.47,22.47,0,0,1,367,87.49"/><path class="cls-6" d="M387.56,104.1A22.47,22.47,0,0,1,367,135.57"/><polyline class="cls-6" points="359.02 103.64 356.22 117.79 364.05 117.61"/><rect class="cls-7" x="358.61" y="132.78" width="12.27" height="6.42" rx="2.53"/><rect class="cls-8" x="433.81" y="154.53" width="46.2" height="20.8" rx="10.4"/><line class="cls-9" x1="442.87" y1="161.97" x2="472.08" y2="161.97"/><line class="cls-9" x1="442.87" y1="167.69" x2="466.03" y2="167.69"/><rect class="cls-10" x="433.81" y="49.81" width="46.2" height="20.8" rx="10.4"/><line class="cls-9" x1="442.87" y1="57.25" x2="472.08" y2="57.25"/><line class="cls-9" x1="442.87" y1="62.97" x2="466.03" y2="62.97"/><rect class="cls-11" x="249.08" y="83.29" width="46.2" height="20.8" rx="10.4"/><line class="cls-9" x1="258.14" y1="90.73" x2="287.34" y2="90.73"/><line class="cls-9" x1="258.14" y1="96.45" x2="281.3" y2="96.45"/><path class="cls-12" d="M379.77,12.47h20.37a10.4,10.4,0,1,1,0,20.8H379.77a10.4,10.4,0,1,1,0-20.8Z"/><circle class="cls-8" cx="379.77" cy="22.87" r="10.4"/><path class="cls-7" d="M381.84,23.53h-3.76L380,18.86Zm-5.27,3.68,1-2.45h4.78l1,2.45H385l-4.32-10h-1.28l-4.37,10Z"/><path class="cls-4" d="M399.52,19.62v-.48h4.88V17.78h-4.88V17h-1.36v.81h-4.82v1.36h4.82v.48c0,3.51-1.68,5.59-5.28,6.55l.35,1.31c2.81-.75,4.68-2.2,5.61-4.31.92,2.11,2.8,3.56,5.61,4.31l.34-1.31C401.19,25.21,399.52,23.13,399.52,19.62Z"/><rect class="cls-10" x="452.5" y="83.08" width="8.82" height="8.82" rx="0.47"/><rect class="cls-8" x="267.76" y="115.42" width="8.82" height="8.82" rx="0.47"/><rect class="cls-11" x="317.01" y="203.2" width="8.82" height="8.82" rx="4.41"/><rect class="cls-13" x="452.5" y="128.37" width="8.82" height="8.82" rx="4.41"/><rect class="cls-13" x="300.11" y="203.2" width="8.82" height="8.82" rx="4.41"/><rect class="cls-14" x="344" y="18.46" width="8.82" height="8.82" rx="4.41"/><rect class="cls-15" x="323.74" y="18.46" width="8.82" height="8.82" rx="4.41"/><rect class="cls-15" x="416.59" y="212.02" width="8.82" height="8.82" rx="4.41"/></svg>