<svg id="Layer_1" data-name="Layer 1" xmlns="http://www.w3.org/2000/svg" viewBox="0 0 317.79 338.34"><defs><style>.cls-1,.cls-11,.cls-12,.cls-4{fill:none;}.cls-1,.cls-11,.cls-12{stroke:#040038;}.cls-1,.cls-4{stroke-miterlimit:10;}.cls-2{fill:#2627a0;}.cls-3{fill:#363cd3;}.cls-4{stroke:#363cd3;}.cls-5{fill:#f3768d;}.cls-6{fill:#66c8b7;}.cls-7{fill:#ff8b24;}.cls-8{fill:#7a80de;}.cls-9{fill:#040038;}.cls-10{fill:#f7758e;}.cls-11,.cls-12{stroke-linecap:round;stroke-linejoin:round;}.cls-11{stroke-width:1.8px;}.cls-12{stroke-width:1.16px;}</style></defs><path class="cls-1" d="M293.1,132.29v86.79a16.16,16.16,0,0,1-16.16,16.17h-17.1a16.16,16.16,0,0,0-16.17,16.16v16.9a16.17,16.17,0,0,0,16.17,16.17h17.1a16.15,16.15,0,0,1,16.16,16.16v14.05"/><line class="cls-1" x1="293.1" y1="80.31" x2="293.1" y2="112.19"/><path class="cls-1" d="M165.62,27.43H276.94A16.16,16.16,0,0,1,293.1,43.6V80.31"/><path class="cls-1" d="M38.13,152.08V43.6A16.17,16.17,0,0,1,54.3,27.43h97.51"/><circle class="cls-2" cx="142.15" cy="180.47" r="120.88"/><path class="cls-3" d="M44.18,135.46c3.29,6.91,15.15.25,17.84,0s5.13-9.77,8.79-9.77,24,7.09,25.66,11.49-4.15,22.72-1,29.32,17.1,8.06,21.5,11.23,9.53,21.75,15.64,22.24,8.8-.73,12,0,7.58,3.66,7.58,7.08-4.89,18.57-1.71,22.73,7,3.17,10.11,11.48-5.52,46.42,0,46.91,14.81-1,15-2.93-2.2-3.42,0-6.35,31.52-27.61,32-31.28-2.69-7.08,0-10,11.73-.74,12.22-6.11,3.66-14.42,0-19.06-18.57-13.93-25.41-13.93-30.79,2-37.14-.24S142.89,188,142.89,184s2.2-12.33,7.09-16.24,7.33,2.2,12-1.22,22.48-16.13,23.94-28.84-6.84-13.92-6.84-20-3.17-15.88,2-18.08,19.3,0,21.74,7.82,0,12.95,1,16.12,4.15,9.53,10.75,9.53,21.75,1,24.43-1-28.56-56.1-85.27-59.37c-5.61-.32-8.79,10.26-14.41,13s-27.12,2-31,2.2-3.67,8.31-6.84,8.31-21.26-2.69-27.13-.49S41.74,130.33,44.18,135.46Z"/><ellipse class="cls-4" cx="142.15" cy="180.47" rx="120.88" ry="73.59"/><ellipse class="cls-4" cx="142.15" cy="180.47" rx="72.37" ry="120.88"/><path class="cls-1" d="M205.17,61.34c18-9.81,32.42-12.47,40.34-6,19.57,16.11-8.23,82.23-62.1,147.69S70,308.53,50.42,292.42c-9-7.44-8-25.52,1.07-49.27"/><path class="cls-5" d="M84,286.41l2.56,5.67a1,1,0,0,1-.47,1.26l-5.68,2.56a.94.94,0,0,1-1.25-.47l-2.56-5.68A.93.93,0,0,1,77,288.5l5.67-2.57a1,1,0,0,1,1.26.48"/><path class="cls-6" d="M129.47,264.39l-5.27,4.88a4.06,4.06,0,1,1-5.52-6l5.27-4.88a4.06,4.06,0,1,1,5.52,6"/><path class="cls-7" d="M204.61,182.23l-4.41,5.68a4.06,4.06,0,1,1-6.41-5l4.4-5.68a4.06,4.06,0,0,1,6.42,5"/><path class="cls-8" d="M51.52,257.54h0a4.06,4.06,0,0,1-5.1,2.65L43,259.11a.47.47,0,0,1-.31-.59l2.16-6.85a.48.48,0,0,1,.59-.31l3.43,1.08a4.07,4.07,0,0,1,2.65,5.1"/><path class="cls-5" d="M247.71,54a4.06,4.06,0,1,1-4.06,4.06A4.07,4.07,0,0,1,247.71,54"/><path class="cls-9" d="M297.16,191.37a4.06,4.06,0,1,0-4.06,4.06,4.07,4.07,0,0,0,4.06-4.06"/><path class="cls-9" d="M297.16,302.38a4.06,4.06,0,1,0-4.06,4.06,4.06,4.06,0,0,0,4.06-4.06"/><path class="cls-5" d="M212.87,62a.25.25,0,0,0,.35.12A4.48,4.48,0,0,0,209.51,54a.26.26,0,0,0-.14.35Z"/><rect class="cls-10" x="16.94" y="241.84" width="72.93" height="71.19" rx="11.13" transform="translate(106.81 554.88) rotate(-180)"/><polyline class="cls-11" points="47.82 253.65 73.83 253.65 77.32 303.04 29.96 303.04 33.45 253.65 43.26 253.65"/><path class="cls-11" d="M43.3,257.94V246.09a10.34,10.34,0,0,1,10.34-10.34h0A10.34,10.34,0,0,1,64,246.09v11.85"/><circle class="cls-11" cx="43.26" cy="260.97" r="2.35"/><circle class="cls-11" cx="63.98" cy="260.97" r="2.35"/><rect class="cls-6" x="53.01" y="44.61" width="46.91" height="45.8" rx="7.16" transform="translate(152.94 135.03) rotate(-180)"/><polyline class="cls-12" points="72.88 52.21 89.61 52.21 91.85 83.98 61.39 83.98 63.63 52.21 69.94 52.21"/><path class="cls-12" d="M70,55V47.34a6.64,6.64,0,0,1,6.65-6.64h0a6.64,6.64,0,0,1,6.65,6.64V55"/><circle class="cls-12" cx="69.94" cy="56.92" r="1.51"/><circle class="cls-12" cx="83.27" cy="56.92" r="1.51"/></svg>