<svg id="Layer_1" data-name="Layer 1" xmlns="http://www.w3.org/2000/svg" xmlns:xlink="http://www.w3.org/1999/xlink" viewBox="0 0 667.08 427.65"><defs><style>.cls-1,.cls-35,.cls-7{fill:#fff;}.cls-1,.cls-11,.cls-14,.cls-17,.cls-45{stroke:#040237;}.cls-1,.cls-10,.cls-11,.cls-12,.cls-14,.cls-16,.cls-17,.cls-18,.cls-21,.cls-22,.cls-26,.cls-27,.cls-28,.cls-29,.cls-31,.cls-41,.cls-42,.cls-45,.cls-46,.cls-48{stroke-linecap:round;stroke-linejoin:round;}.cls-1,.cls-14{stroke-width:1.01px;}.cls-2{fill:#66c8b7;}.cls-3,.cls-9{fill:#fec14d;}.cls-10,.cls-11,.cls-12,.cls-14,.cls-16,.cls-17,.cls-18,.cls-21,.cls-22,.cls-26,.cls-27,.cls-28,.cls-29,.cls-31,.cls-33,.cls-4,.cls-41,.cls-42,.cls-45,.cls-46,.cls-48{fill:none;}.cls-5{fill:#040038;}.cls-6{fill:#ffeef1;}.cls-8{clip-path:url(#clip-path);}.cls-20,.cls-25,.cls-44,.cls-47,.cls-9{fill-rule:evenodd;}.cls-10,.cls-12,.cls-16,.cls-18,.cls-22,.cls-26,.cls-33,.cls-42,.cls-46,.cls-48{stroke:#040038;}.cls-10{stroke-width:1.25px;}.cls-11,.cls-12{stroke-width:1.28px;}.cls-13{fill:#ffd782;}.cls-15{clip-path:url(#clip-path-2);}.cls-17,.cls-18{stroke-width:1.02px;}.cls-19{fill:#4ea095;}.cls-20{fill:#363cd3;}.cls-21{stroke:#231f20;}.cls-21,.cls-22,.cls-27,.cls-28,.cls-29,.cls-31{stroke-width:1.16px;}.cls-23{clip-path:url(#clip-path-3);}.cls-24,.cls-25{fill:#7a82e0;}.cls-26{stroke-width:0.97px;}.cls-27{stroke:#f7758e;}.cls-28,.cls-41{stroke:#66c8b7;}.cls-29{stroke:#fbd782;}.cls-30,.cls-47{fill:#f7758e;}.cls-31,.cls-49{stroke:#fff;}.cls-32{fill:#faa3b3;}.cls-33,.cls-49{stroke-miterlimit:10;}.cls-34{fill:#231f20;}.cls-35{font-size:9.85px;font-family:AvenirNext-Medium, Avenir Next;font-weight:500;letter-spacing:0.08em;}.cls-36{letter-spacing:0.07em;}.cls-37{letter-spacing:0.06em;}.cls-38{letter-spacing:0.06em;}.cls-39{letter-spacing:0.05em;}.cls-40{letter-spacing:0.07em;}.cls-42{stroke-width:1.12px;}.cls-43{clip-path:url(#clip-path-4);}.cls-44{fill:#ff8b24;}.cls-45{stroke-width:1.06px;}.cls-46{stroke-width:0.78px;}.cls-48{stroke-width:1.03px;}.cls-49{fill:#ff7029;stroke-width:3px;}</style><clipPath id="clip-path"><rect class="cls-1" x="125.56" y="251.26" width="153.95" height="144.3" rx="19.12"/></clipPath><clipPath id="clip-path-2"><rect class="cls-2" x="497.69" y="20.45" width="122.46" height="190.88" rx="19.85" transform="translate(1117.84 231.78) rotate(-180)"/></clipPath><clipPath id="clip-path-3"><rect class="cls-3" x="406.76" y="245.51" width="127.18" height="119.21" rx="15.8" transform="translate(940.7 610.24) rotate(-180)"/></clipPath><clipPath id="clip-path-4"><path class="cls-4" d="M33.72,81.61A12.84,12.84,0,0,0,20.88,94.45V199.89a12.84,12.84,0,0,0,12.84,12.84h93.46A12.84,12.84,0,0,0,140,199.89V94.45a12.84,12.84,0,0,0-12.84-12.84"/></clipPath></defs><rect class="cls-5" x="339.61" y="276.57" width="8.15" height="8.15" rx="0.77" transform="translate(-70.31 120.98) rotate(-18.14)"/><rect class="cls-6" x="23.36" y="66.58" width="153.95" height="144.3" rx="19.12"/><rect class="cls-7" x="125.56" y="251.26" width="153.95" height="144.3" rx="19.12"/><g class="cls-8"><ellipse class="cls-7" cx="218.49" cy="292.38" rx="12.37" ry="12.68"/><path class="cls-9" d="M227.94,270.69c6.78-.56,15,6,11.58,11.36-2.23,3.5-5,5.66-8.71,6.12-3.92.49-13.45-4.14-16.44-6.56.11,3.8-4.43,10.46-8.4,12.2-.2-5,.51-12.19,5.24-16.22A28.31,28.31,0,0,1,227.94,270.69Z"/><path class="cls-7" d="M190.4,407.77a89.57,89.57,0,0,1-4-23,46.75,46.75,0,0,1,2.72-17.25c1.05-2.57,2.4-6.21,7.42-4.6,3.18,1,.87,21.43-2.1,34.2C193.13,402.83,191.23,409.17,190.4,407.77Z"/><path class="cls-7" d="M190.26,422a.46.46,0,0,1-.4.44,7.15,7.15,0,0,1-3-14c.2-.05.47,0,.52.19A78.86,78.86,0,0,1,190.26,422Z"/><path class="cls-10" d="M196.56,410.23a9.13,9.13,0,1,0-5,15.42s-.62-4.66-4-17.31"/><path class="cls-10" d="M189.24,361.7a37.43,37.43,0,0,0-2.93,5.79c-5.05,12.7-2.24,27.06,1.26,40.28"/><path class="cls-7" d="M279.2,391.46c-12.87-2.79-31.55-14.55-35.13-18.36-4-4.29,8.48-14.66,8.48-14.66l4,12.12C268.24,375.65,284.42,390.91,279.2,391.46Z"/><path class="cls-11" d="M279.2,391.46c-12.22-2.95-25.58-6.31-36.2-12.9-2.92-1.8-3.37-3.63-1.71-6.53a52.65,52.65,0,0,1,10.14-12.68"/><path class="cls-11" d="M284.31,391.68c-11.53-11.22-23.53-16-29.78-19"/><path class="cls-12" d="M279.2,391.46c-12.22-2.95-25.58-6.31-36.2-12.9-2.92-1.8-3.37-3.63-1.71-6.53a52.65,52.65,0,0,1,10.14-12.68"/><path class="cls-12" d="M284.31,391.68c-11.53-11.22-23.53-16-29.78-19"/><path class="cls-7" d="M284.8,391.47a.47.47,0,0,0-.57-.12,7,7,0,0,0,5.64,12.72.48.48,0,0,0,.3-.45C290,399.63,288.06,395.58,284.8,391.47Z"/><path class="cls-10" d="M293.36,395.56c-2.38-3.89-7.93-5.39-11.34-2.74-3.78,2.94-4,7-2.15,10.56,2.09,4.05,6.49,5.14,10.75,3.52,0,0-.33-8.89-6-15.13"/><path class="cls-13" d="M183,368.26s4.64-22.95,11.91-31.75c6.76-8.19,20.34-10.6,21.92-21.12a94.41,94.41,0,0,1,10.45.12c2.54,12.82,15.32,14.87,21.69,22.35,6.71,7.87,11.18,30.53,11.18,30.53l-12.71,2.4,2,24.81c-20.63,8.17-39.52,7.76-56.92,0L196.4,371Z"/><path class="cls-10" d="M207.2,288.46a13.88,13.88,0,1,0,12.72-8.31"/><path class="cls-10" d="M224.83,290.12l1,5a3,3,0,0,1-3,3.61l-1.06,0"/></g><rect class="cls-14" x="125.56" y="251.26" width="153.95" height="144.3" rx="19.12"/><rect class="cls-2" x="497.69" y="20.45" width="122.46" height="190.88" rx="19.85" transform="translate(1117.84 231.78) rotate(-180)"/><g class="cls-15"><ellipse class="cls-7" cx="540.43" cy="128.86" rx="9.9" ry="10.15"/><path class="cls-9" d="M548,111.49c5.43-.45,12,4.78,9.28,9.09-1.79,2.8-4,4.53-7,4.9-3.14.39-10.77-3.31-13.16-5.25.09,3-3.54,8.38-6.72,9.77-.16-4,.41-9.76,4.2-13A22.63,22.63,0,0,1,548,111.49Z"/><path class="cls-7" d="M517.94,221.22a72,72,0,0,1-3.18-18.44A37.35,37.35,0,0,1,516.94,189c.84-2.05,1.92-5,5.94-3.67,2.55.81.69,17.15-1.68,27.37C520.13,217.26,518.61,222.34,517.94,221.22Z"/><path class="cls-7" d="M517.83,232.62a.35.35,0,0,1-.32.35,5.72,5.72,0,0,1-2.4-11.17c.16-.05.38,0,.42.15A63.84,63.84,0,0,1,517.83,232.62Z"/><path class="cls-16" d="M522.88,223.19a7.3,7.3,0,1,0-4,12.34,134.8,134.8,0,0,0-3.18-13.85"/><path class="cls-16" d="M517,184.34a30.5,30.5,0,0,0-2.35,4.63c-4,10.17-1.79,21.66,1,32.25"/><path class="cls-7" d="M592.88,173.39c-5.32,9.09-18.92,20.39-22.7,22.16-4.27,2-9.06-10.09-9.06-10.09l10.23,0C578.12,177.8,593.75,169.28,592.88,173.39Z"/><path class="cls-17" d="M592.88,173.39c-5.29,8.56-11.17,17.89-18.81,24.34-2.1,1.77-3.6,1.66-5.4-.33a42.16,42.16,0,0,1-7.13-10.86"/><path class="cls-17" d="M594.31,169.55c-11.4,6-18,13.92-21.86,17.94"/><path class="cls-18" d="M592.88,173.39c-5.29,8.56-11.17,17.89-18.81,24.34-2.1,1.77-3.6,1.66-5.4-.33a42.16,42.16,0,0,1-7.13-10.86"/><path class="cls-18" d="M594.31,169.55c-11.4,6-18,13.92-21.86,17.94"/><path class="cls-7" d="M594.27,169.13a.38.38,0,0,0-.23.4,5.58,5.58,0,0,0,11.08-1.13.38.38,0,0,0-.27-.34C601.77,167.23,598.21,167.67,594.27,169.13Z"/><path class="cls-16" d="M599.51,163.63c-3.55.84-6.07,4.7-4.9,8,1.3,3.6,4.34,4.77,7.5,4.26,3.6-.59,5.52-3.67,5.35-7.31,0,0-6.85-1.95-13,.8"/><path class="cls-19" d="M512,189.59s3.71-18.37,9.53-25.42c5.41-6.55,16.28-8.48,17.55-16.9a73.67,73.67,0,0,1,8.36.1c2,10.26,12.26,11.9,17.36,17.89,5.37,6.3,9,24.44,9,24.44l-10.17,1.92,1.6,19.86c-16.5,6.54-31.62,6.21-45.56,0l3.12-19.72Z"/><path class="cls-20" d="M548,111.49c5.43-.45,12,4.78,9.28,9.09-1.79,2.8-4,4.53-7,4.9-3.14.39-10.77-3.31-13.16-5.25.09,3-3.54,8.38-6.72,9.77-.16-4,.41-9.76,4.2-13A22.63,22.63,0,0,1,548,111.49Z"/><path class="cls-16" d="M531.39,125.72a11.11,11.11,0,1,0,10.18-6.66"/><polyline class="cls-16" points="545.51 127.05 546.89 134.04 543.02 133.95"/><circle class="cls-16" cx="551.04" cy="127.54" r="4.43"/><circle class="cls-16" cx="540.3" cy="127.54" r="4.43"/></g><polyline class="cls-21" points="159.71 266.04 160.41 276.57 169.26 269.88 169.57 280.26 178.81 273.73 178.73 283.94 188.37 277.57 187.89 287.63"/><polyline class="cls-21" points="22.42 74.02 22.59 84.58 31.77 78.35 31.55 88.72 41.12 82.67 40.52 92.87 50.47 86.99 49.48 97.01"/><polyline class="cls-22" points="527.21 87.3 527.92 97.83 536.77 91.14 537.08 101.52 546.32 94.99 546.24 105.2 555.88 98.83"/><rect class="cls-3" x="406.76" y="245.51" width="127.18" height="119.21" rx="15.8" transform="translate(940.7 610.24) rotate(-180)"/><g class="cls-23"><path class="cls-24" d="M520.13,280.18a4.31,4.31,0,0,0-.39-.46c-.12-.12-.36-.26-.44-.42s0-.35.12-.51c.16-.35.37-.68.53-1,1.16-2.59,1.19-5.8-.72-7.92a6.18,6.18,0,0,0-.29-5.64,13.1,13.1,0,0,0-4.72-4.42,6.52,6.52,0,0,0-3-5.31c-2-1.34-4.49-1.6-6.85-1.64-.69-2.08-2.88-3.32-5-3.64a12.33,12.33,0,0,0-8,1.56c-2-1.7-5.08-1.39-7.2.05a7.61,7.61,0,0,0-1.6,1.45c-.5.62-.85,1.35-1.34,2-.88,1.13-2.26,1.71-3.41,2.54a7,7,0,0,0-2.7,7.52s-.09.19-.09.2a19.48,19.48,0,0,0-2.62,2.17,6.82,6.82,0,0,0-1.47,6.25,7,7,0,0,0,.58,1.45,2.33,2.33,0,0,1,.45,1.31,4.26,4.26,0,0,1-.52,1.36,7.13,7.13,0,0,0-.65,1.68,5.22,5.22,0,0,0,.34,3.19,6.15,6.15,0,0,0,2.1,2.37,1.31,1.31,0,0,1,.62,1c0,.57-.05,1.14,0,1.71a5.74,5.74,0,0,0,3.8,4.77c.94.33,2,.1,2.79.85s1.41,1.72,2.24,2.48a9.31,9.31,0,0,0,2.75,1.81,5.61,5.61,0,0,0,1.86.38c.61,0,1.2-.2,1.8-.18a4.76,4.76,0,0,1,1.68.66,11.88,11.88,0,0,0,1.92.69,13.19,13.19,0,0,0,7.57-.2,6.5,6.5,0,0,0,7.4-.89,10.67,10.67,0,0,0,1.31-1.68c.44-.59,1.15-.48,1.81-.66a5.89,5.89,0,0,0,3.53-2.72,15.48,15.48,0,0,0,.89-2.38,4.35,4.35,0,0,1,1.18-1.66,27.11,27.11,0,0,0,3.25-3,4.9,4.9,0,0,0,1-4.17A3.36,3.36,0,0,0,520.13,280.18Z"/><circle class="cls-7" cx="491.53" cy="273.41" r="11.55"/><path class="cls-25" d="M502.19,269.68a3.84,3.84,0,0,0,1.59-1,2.57,2.57,0,0,0,0-2.7,13.07,13.07,0,0,0-7-6.46,17.33,17.33,0,0,0-10.45-.73,11.38,11.38,0,0,0-5.11,2.48,6,6,0,0,0-1.62,2.41,2.93,2.93,0,0,0,0,2.44,8.54,8.54,0,0,0,2.08,1.66,18,18,0,0,0,2.44,1.37,22,22,0,0,0,5.5,1.71,24.59,24.59,0,0,0,5.95.28,23.38,23.38,0,0,0,5.9-1.22Z"/><path class="cls-26" d="M500.43,277.22a11.29,11.29,0,1,1-4-11.7"/><polyline class="cls-26" points="485.5 271.24 484.1 278.35 488.03 278.25"/><path class="cls-5" d="M491.52,260c-10.27-1.29-12.15,8.42-12.17,8.52a.41.41,0,0,0,.24.44.4.4,0,0,0,.48-.14s2.87-4,9.27-3.63a13.7,13.7,0,0,1,8.82,3.57,10.43,10.43,0,0,1,2.34,3.17.4.4,0,0,0,.37.25H501a.4.4,0,0,0,.32-.4C501.27,271.67,500.89,261.17,491.52,260Z"/><path class="cls-13" d="M521.91,333.06s-3.72-18.41-9.55-25.48c-5.42-6.57-16.32-8.5-17.59-16.94a71.74,71.74,0,0,0-8.38.1c-2,10.28-12.29,11.93-17.41,17.93C463.6,315,460,333,460,333l10.2,2.08-1.61,30.47c16.55,6.56,31.71,6.23,45.67,0l-3.13-30.33Z"/><circle class="cls-7" cx="485.19" cy="298.43" r="1.26"/><circle class="cls-7" cx="488.08" cy="299.68" r="1.26"/><circle class="cls-7" cx="491.19" cy="300.29" r="1.26"/><circle class="cls-7" cx="494.25" cy="300.01" r="1.26"/><circle class="cls-7" cx="496.73" cy="298.43" r="1.26"/></g><rect class="cls-27" x="217.99" y="98.23" width="86.72" height="86.72" rx="2.55"/><path class="cls-22" d="M94.72,256.38v28.34A4.69,4.69,0,0,1,90,289.41H52.51a4.69,4.69,0,0,1-4.7-4.69V247.19a4.69,4.69,0,0,1,4.7-4.69H90a4.69,4.69,0,0,1,4.69,4.69v5.58"/><rect class="cls-28" x="426.43" y="19.66" width="46.92" height="46.92" rx="4.7"/><polyline class="cls-27" points="434.13 38.88 436.5 41.53 439.38 38.88 441.75 41.53 444.64 38.88 447.01 41.53 449.89 38.88 452.26 41.53 455.14 38.88 457.51 41.53 460.39 38.88 462.76 41.53 465.65 38.88"/><polyline class="cls-27" points="55.51 277.99 57.88 280.64 60.76 277.99 63.13 280.64 66.01 277.99 68.38 280.64 71.27 277.99 73.63 280.64 76.52 277.99 78.88 280.64 81.77 277.99 84.14 280.64 87.03 277.99"/><polyline class="cls-27" points="434.13 43.9 436.5 46.55 439.38 43.9 441.75 46.55 444.64 43.9 447.01 46.55 449.89 43.9 452.26 46.55 455.14 43.9 457.51 46.55 460.39 43.9 462.76 46.55 465.65 43.9"/><polyline class="cls-27" points="434.13 54.57 436.5 57.23 439.38 54.57 441.75 57.23 444.64 54.57 447.01 57.23 449.89 54.57 452.26 57.23 455.14 54.57 457.51 57.23 460.39 54.57 462.76 57.23 465.65 54.57"/><line class="cls-22" x1="434.13" y1="33.93" x2="465.65" y2="33.93"/><line class="cls-22" x1="434.13" y1="28.99" x2="465.65" y2="28.99"/><line class="cls-22" x1="434.13" y1="50.22" x2="465.65" y2="50.22"/><line class="cls-22" x1="55.51" y1="271.38" x2="87.03" y2="271.38"/><line class="cls-22" x1="55.51" y1="264.78" x2="87.03" y2="264.78"/><line class="cls-22" x1="55.51" y1="258.18" x2="87.03" y2="258.18"/><line class="cls-22" x1="55.51" y1="250.62" x2="87.03" y2="250.62"/><path class="cls-29" d="M385.66,192.19v28.34a4.69,4.69,0,0,1-4.7,4.69H343.44a4.69,4.69,0,0,1-4.69-4.69V183a4.69,4.69,0,0,1,4.69-4.7H381a4.69,4.69,0,0,1,4.7,4.7v5.57"/><polyline class="cls-27" points="346.44 213.8 348.82 216.46 351.7 213.8 354.07 216.46 356.95 213.8 359.32 216.46 362.2 213.8 364.57 216.46 367.46 213.8 369.82 216.46 372.71 213.8 375.07 216.46 377.96 213.8"/><line class="cls-22" x1="346.44" y1="207.2" x2="377.96" y2="207.2"/><line class="cls-22" x1="346.44" y1="200.6" x2="377.96" y2="200.6"/><line class="cls-22" x1="346.44" y1="193.99" x2="377.96" y2="193.99"/><line class="cls-22" x1="346.44" y1="186.43" x2="377.96" y2="186.43"/><rect class="cls-30" x="152.99" y="109.37" width="47.08" height="21.09" rx="10.55"/><line class="cls-22" x1="162.18" y1="116.91" x2="192.02" y2="116.91"/><line class="cls-22" x1="162.18" y1="122.71" x2="185.9" y2="122.71"/><rect class="cls-30" x="152.99" y="136.62" width="47.08" height="21.09" rx="10.55"/><line class="cls-22" x1="162.18" y1="144.16" x2="177.1" y2="144.16"/><polyline class="cls-31" points="163.78 148.92 167.05 152.3 171.11 148.92 174.07 152.3 178.44 148.92 181.09 152.3 185.76 148.92 188.11 152.3"/><rect class="cls-3" x="74.82" y="301.82" width="64.08" height="21.09" rx="10.55"/><line class="cls-22" x1="84.01" y1="309.36" x2="130.86" y2="309.36"/><line class="cls-22" x1="84.01" y1="315.16" x2="124.74" y2="315.16"/><rect class="cls-3" x="91.82" y="329.07" width="47.08" height="21.09" rx="10.55"/><line class="cls-22" x1="101.02" y1="336.61" x2="115.94" y2="336.61"/><polyline class="cls-27" points="102.62 341.37 105.89 344.75 109.95 341.37 112.91 344.75 117.27 341.37 119.93 344.75 124.6 341.37 126.95 344.75"/><rect class="cls-32" x="580.39" y="38.97" width="64.08" height="21.09" rx="10.55"/><line class="cls-22" x1="589.58" y1="46.51" x2="636.43" y2="46.51"/><line class="cls-22" x1="589.58" y1="52.32" x2="630.3" y2="52.32"/><rect class="cls-19" x="597.39" y="66.23" width="47.08" height="21.09" rx="10.55"/><line class="cls-22" x1="606.58" y1="73.77" x2="621.51" y2="73.77"/><polyline class="cls-27" points="608.19 78.52 611.45 81.91 615.52 78.52 618.48 81.91 622.84 78.52 625.5 81.91 630.17 78.52 632.52 81.91"/><path class="cls-33" d="M154.47,80.94a100.08,100.08,0,0,1,57.18-6c28.8,5.49,34,11.26,40.08,17.51"/><path class="cls-33" d="M301.39,152.51a473,473,0,0,0,83.68-61.72,471.37,471.37,0,0,0,44.3-46.95"/><path class="cls-33" d="M495.3,121.61c-15.76,14.54-27.87,20.14-43.21,11.59-20.59-11.49-28.81-44.4-10.6-70"/><path class="cls-33" d="M492.88,160.84c-2.93.11-39.59,2.79-61.23,42.79-11.19,20.67-9.55,41.06-8.33,49.6"/><path class="cls-33" d="M349.1,222.18c1.66,9.28,6.27,41.62-12.5,75-22.07,39.23-60.14,50.85-67.77,53"/><path class="cls-34" d="M126,198.83h64a10.62,10.62,0,0,1,10.62,10.62v0A9.53,9.53,0,0,1,191,219H124.89a9.53,9.53,0,0,1-9.53-9.53v0A10.62,10.62,0,0,1,126,198.83Z"/><text class="cls-35" transform="translate(125.6 212.23)">MARKETING</text><rect class="cls-34" x="438.75" y="354.47" width="77.35" height="20.15" rx="10.07"/><text class="cls-35" transform="translate(452 367.87)">PRODU<tspan class="cls-36" x="38.71" y="0">C</tspan><tspan class="cls-37" x="46.41" y="0">T</tspan></text><rect class="cls-34" x="490.44" y="203.72" width="129.92" height="20.15" rx="10.07"/><text class="cls-35" transform="translate(500.68 217.13)">CU<tspan class="cls-38" x="15.56" y="0">S</tspan><tspan class="cls-39" x="21.79" y="0">T</tspan><tspan x="27.89" y="0">OMER SE</tspan><tspan class="cls-40" x="76.6" y="0">R</tspan><tspan x="83.32" y="0">VICE</tspan></text><rect class="cls-34" x="124.74" y="385.49" width="54.16" height="20.15" rx="10.07"/><text class="cls-35" transform="translate(134.97 398.89)">SALES</text><path class="cls-27" d="M279.77,132.75a11.54,11.54,0,0,0-.88-1.86l3-3a3.65,3.65,0,0,0,0-5.14l-1.72-1.71a3.62,3.62,0,0,0-5.13,0l-3,3a28.31,28.31,0,0,0-7.06-2.42V117.4a3.63,3.63,0,0,0-3.63-3.63h0a3.62,3.62,0,0,0-3.63,3.63v4.23a28.38,28.38,0,0,0-7.07,2.42l-3-3a3.62,3.62,0,0,0-5.13,0l-1.71,1.71a3.63,3.63,0,0,0,0,5.14l3,3a28.33,28.33,0,0,0-2.43,7.06h-4.23a3.63,3.63,0,0,0-3.62,3.63h0a3.62,3.62,0,0,0,3.62,3.63h4.23a28.4,28.4,0,0,0,2.43,7.07l-3,3a3.62,3.62,0,0,0,0,5.13l1.71,1.71a3.62,3.62,0,0,0,5.13,0l3-3a28.81,28.81,0,0,0,7.07,2.43v4.22a3.62,3.62,0,0,0,3.63,3.63h0a3.63,3.63,0,0,0,3.63-3.63v-4.22a28.74,28.74,0,0,0,7.06-2.43l3,3a3.63,3.63,0,0,0,5.14,0l1.71-1.71a3.64,3.64,0,0,0,0-5.13l-3-3a28.81,28.81,0,0,0,2.43-7.07h4.22a3.62,3.62,0,0,0,3.63-3.63h0a3.63,3.63,0,0,0-3.63-3.63h-4.23"/><circle class="cls-27" cx="261.35" cy="141.59" r="10.89"/><rect class="cls-41" x="564.97" y="246.05" width="49.2" height="49.2" rx="3.33"/><path class="cls-41" d="M600,265.64a6.56,6.56,0,0,0-.5-1.06l1.69-1.69a2,2,0,0,0,0-2.91l-1-1a2,2,0,0,0-2.91,0l-1.7,1.69a15.75,15.75,0,0,0-4-1.37v-2.4a2.06,2.06,0,0,0-2.06-2.06h0a2.06,2.06,0,0,0-2.06,2.06v2.4a15.82,15.82,0,0,0-4,1.37l-1.7-1.69a2,2,0,0,0-2.91,0l-1,1a2,2,0,0,0,0,2.91l1.69,1.7a15.69,15.69,0,0,0-1.37,4h-2.4a2.05,2.05,0,0,0-2.06,2h0a2.06,2.06,0,0,0,2.06,2.06h2.4a15.82,15.82,0,0,0,1.37,4l-1.69,1.7a2,2,0,0,0,0,2.91l1,1a2,2,0,0,0,2.91,0l1.7-1.7a15.46,15.46,0,0,0,4,1.38v2.4a2.06,2.06,0,0,0,2.06,2.06h0a2.06,2.06,0,0,0,2.06-2.06V282a15.75,15.75,0,0,0,4-1.37l1.7,1.69a2,2,0,0,0,2.91,0l1-1a2.06,2.06,0,0,0,0-2.91l-1.7-1.7a16.24,16.24,0,0,0,1.38-4h2.39a2.06,2.06,0,0,0,2.06-2.06h0a2.05,2.05,0,0,0-2.06-2h-2.39"/><circle class="cls-41" cx="589.58" cy="270.65" r="6.18"/><path class="cls-33" d="M528.9,342.13S555,341,575.57,323.41c20.18-17.23,21.82-31.07,21.82-31.07"/><rect class="cls-7" x="412.59" y="267.74" width="45.39" height="20.48" rx="10.24"/><line class="cls-42" x1="421.52" y1="280.74" x2="450.17" y2="280.74"/><line class="cls-42" x1="421.52" y1="274.57" x2="450.17" y2="274.57"/><g class="cls-43"><ellipse class="cls-7" cx="69.22" cy="118.41" rx="10.24" ry="11.54"/><path class="cls-44" d="M77.57,103.44a1.21,1.21,0,0,0,.58.76c.45.21.94,0,1.4.08a.68.68,0,0,1,.51.46.75.75,0,0,1,0,.57c-.21.5.24.91.6,1.15s.84.57.86,1.06-.52,1.13-.25,1.61.68.3,1.06.38a1.35,1.35,0,0,1,.94.85,1.57,1.57,0,0,1-.12,1.32,6.42,6.42,0,0,1-.58.69,1.09,1.09,0,0,0-.29.84c.07.46.54.71.78,1.1a1.48,1.48,0,0,1-.07,1.49,2.46,2.46,0,0,1-1.13.94,5.58,5.58,0,0,1-1.63.45,12.2,12.2,0,0,1-1.81.09,2,2,0,0,0-.43,0,5.47,5.47,0,0,1-1,0H63.28L62,125.46a18.82,18.82,0,0,1-3.58-.13c-.69-.12-.48-1.3-.42-1.8s.13-.94.16-1.42A2.4,2.4,0,0,0,58,121a1.5,1.5,0,0,0-1.39-.79h0a2.89,2.89,0,0,1-1.27-.26,1,1,0,0,1-.49-1.19c.11-.26.36-.42.46-.68a1.07,1.07,0,0,0-.59-1.25c-.42-.23-.91-.28-1.34-.52a1.07,1.07,0,0,1-.56-1.26c.23-.52,1-.55,1.21-1.08s-.2-1.09-.64-1.4-1-.62-1.06-1.19a1.72,1.72,0,0,1,.85-1.5,2.28,2.28,0,0,0,1.1-1.36,4.72,4.72,0,0,0-.16-1.23,1.39,1.39,0,0,1,.45-1.15c.34-.31.83-.34,1.17-.66A1.34,1.34,0,0,0,56,105a.79.79,0,0,0,.11-.36,2.68,2.68,0,0,1,0-.49,1,1,0,0,1,.53-.69c.34-.13.76,0,1.07-.23a1.63,1.63,0,0,0,.5-1c.09-.38.25-.81.6-.92.6-.18,1.11.76,1.73.65.45-.07.66-.64.75-1.12s.22-1,.63-1.25a1,1,0,0,1,1,.19,7.87,7.87,0,0,0,.88.67.8.8,0,0,0,1-.12c.26-.33.16-.86.39-1.22a.9.9,0,0,1,1.13-.23,6.09,6.09,0,0,1,1,.74,1.25,1.25,0,0,0,1.17.27c.64-.27.86-1.36,1.55-1.4.48,0,.82.49,1,1s.47,1,.95,1.11c.68.15,1.39-.77,2-.39.33.22.39.7.52,1.09a1,1,0,0,0,.47.6.4.4,0,0,0,.32,0,1.59,1.59,0,0,1,1.38,0C77.25,102.17,77.35,102.87,77.57,103.44Z"/><path class="cls-45" d="M60.82,117.47a10.54,10.54,0,1,0,9.66-6.32"/><polyline class="cls-45" points="74.49 119.31 75.9 126.44 71.96 126.35"/><path class="cls-7" d="M40.89,234.72a.39.39,0,0,1-.31.41c-3.12.8-6.83-.92-7.81-4a6.11,6.11,0,0,1,3.71-7.59c.16-.06.4,0,.46.13C38.15,227.16,40.07,229.8,40.89,234.72Z"/><path class="cls-46" d="M44.56,223.85a8,8,0,1,0-2.31,14.08,146.72,146.72,0,0,0-5.76-14.52"/><path class="cls-7" d="M35.6,178.38a30.66,30.66,0,0,0-4.44,18.86c.8,10.18,5.57,22.16,5.57,22.16s1.29,4,2.54-1.1c1.47-6,1.7-35.61,1.61-37.61C40.88,177.81,36.64,176.92,35.6,178.38Z"/><path class="cls-45" d="M36.3,174.56a36.08,36.08,0,0,0-6.51,13.5c-2.7,11.72,1.66,23.82,6.47,34.85"/><path class="cls-45" d="M38.73,187.89a229.6,229.6,0,0,1-1.07,32"/><path class="cls-7" d="M96.45,146.94a30.63,30.63,0,0,0,16.12-10.76c6.36-8,11.05-20,11.05-20s1.79-3.81-2.6-.93c-5.2,3.4-25.55,24.88-26.85,26.4C92.2,143.76,94.7,147.3,96.45,146.94Z"/><path class="cls-45" d="M93.33,149.26a36,36,0,0,0,14-5.43c10-6.72,15-18.55,19-29.88"/><path class="cls-45" d="M100.65,137.85a230.66,230.66,0,0,1,22.66-22.69"/><path class="cls-47" d="M63.52,136.79a95.49,95.49,0,0,1,10.91.12c-.46,2.42,4.23,9.89,10.23,7.67,5.07-1.89,7.09-4,14-9,1.9,5.29,7.38,15.86,6.67,16.05,0,0-14.72,11-16.52,12L94,218.92l-52.9-.52,3.71-34.5-14.1-5.68s4.9-14.44,25.34-29C60.06,146.31,63.55,143.32,63.52,136.79Z"/></g><path class="cls-7" d="M136.18,115a.37.37,0,0,0,.21.43,5.76,5.76,0,0,0,5.52-10.1.39.39,0,0,0-.45,0C139,107.55,137.24,110.83,136.18,115Z"/><path class="cls-48" d="M134.56,107.36c-1.36,3.52.45,7.93,3.91,8.83,3.83,1,6.61-.9,8-3.9,1.61-3.41.11-6.85-3.09-8.84,0,0-5.68,4.7-6.93,11.56"/><circle class="cls-49" cx="365.38" cy="105.2" r="12.07"/><path class="cls-7" d="M364.22,105l-2.7-3.51h2.25l1.62,2.32,1.67-2.32h2.15L366.53,105l3.06,4h-2.28l-1.95-2.73-2,2.73h-2.21Z"/><circle class="cls-49" cx="344.85" cy="280.88" r="12.07"/><path class="cls-7" d="M343.69,280.64l-2.7-3.51h2.24l1.63,2.33,1.66-2.33h2.16L346,280.64l3.06,4h-2.28l-1.95-2.73-2,2.73h-2.22Z"/><circle class="cls-49" cx="435.84" cy="197.02" r="12.07"/><path class="cls-7" d="M434.68,196.79l-2.7-3.51h2.25l1.62,2.32,1.67-2.32h2.15L437,196.79l3.06,4h-2.28L435.82,198l-2,2.73h-2.21Z"/><circle class="cls-49" cx="570.99" cy="327.23" r="12.07"/><path class="cls-7" d="M569.83,327l-2.7-3.51h2.25l1.62,2.32,1.67-2.32h2.15L572.14,327l3.06,4h-2.28L571,328.25,569,331h-2.21Z"/></svg>