<svg id="Layer_1" data-name="Layer 1" xmlns="http://www.w3.org/2000/svg" xmlns:xlink="http://www.w3.org/1999/xlink" viewBox="0 0 1622.58 762.82"><defs><style>.cls-1,.cls-12,.cls-13,.cls-14,.cls-19,.cls-2,.cls-20,.cls-25,.cls-26,.cls-29,.cls-31,.cls-36,.cls-37,.cls-39,.cls-4,.cls-40,.cls-46,.cls-67,.cls-68,.cls-69,.cls-71,.cls-73,.cls-8{fill:none;}.cls-1{clip-rule:evenodd;}.cls-3{fill:#66c8b7;}.cls-13,.cls-17,.cls-26,.cls-36,.cls-4,.cls-55,.cls-6,.cls-64,.cls-67,.cls-72,.cls-73,.cls-8{stroke:#040237;}.cls-12,.cls-13,.cls-14,.cls-19,.cls-20,.cls-25,.cls-26,.cls-29,.cls-31,.cls-36,.cls-37,.cls-39,.cls-4,.cls-40,.cls-46,.cls-6,.cls-67,.cls-68,.cls-69,.cls-70,.cls-71,.cls-72,.cls-73,.cls-8{stroke-linecap:round;}.cls-12,.cls-13,.cls-14,.cls-19,.cls-20,.cls-25,.cls-26,.cls-29,.cls-31,.cls-36,.cls-37,.cls-39,.cls-4,.cls-40,.cls-6,.cls-67,.cls-68,.cls-69,.cls-70,.cls-71,.cls-72,.cls-73,.cls-8{stroke-linejoin:round;}.cls-20,.cls-4{stroke-width:2.04px;}.cls-11,.cls-5{fill:#fec14d;}.cls-10,.cls-17,.cls-43,.cls-55,.cls-6,.cls-64,.cls-70,.cls-72{fill:#fff;}.cls-6,.cls-67{stroke-width:1.68px;}.cls-7{clip-path:url(#clip-path);}.cls-8{stroke-width:1.88px;}.cls-9{clip-path:url(#clip-path-2);}.cls-11,.cls-16,.cls-28,.cls-35,.cls-38,.cls-76{fill-rule:evenodd;}.cls-12,.cls-14,.cls-19,.cls-20,.cls-25,.cls-29,.cls-37,.cls-39,.cls-40,.cls-46,.cls-71{stroke:#040038;}.cls-12{stroke-width:2.02px;}.cls-13,.cls-14{stroke-width:2.07px;}.cls-15{fill:#4ea095;}.cls-16{fill:#363cd3;}.cls-17,.cls-46,.cls-55,.cls-64{stroke-miterlimit:10;}.cls-17{stroke-width:1.88px;}.cls-18{clip-path:url(#clip-path-3);}.cls-19,.cls-31{stroke-width:1.99px;}.cls-21{fill:#ffd782;}.cls-22{clip-path:url(#clip-path-4);}.cls-23{fill:#f67000;}.cls-24{clip-path:url(#clip-path-5);}.cls-25{stroke-width:1.53px;}.cls-26{stroke-width:2.08px;}.cls-27,.cls-28{fill:#7a82e0;}.cls-29{stroke-width:1.96px;}.cls-30{fill:#040038;}.cls-31,.cls-69{stroke:#fff;}.cls-32{opacity:0.15;}.cls-33{fill:#f5768f;}.cls-34{clip-path:url(#clip-path-6);}.cls-35{fill:#ff8b24;}.cls-36{stroke-width:2.14px;}.cls-37{stroke-width:1.57px;}.cls-38,.cls-41{fill:#f7758e;}.cls-39{stroke-width:2.27px;}.cls-40{stroke-width:2.09px;}.cls-42{fill:#3843d0;}.cls-43{font-size:57.3px;font-family:AvenirNext-DemiBold, Avenir Next;font-weight:300;}.cls-44{clip-path:url(#clip-path-7);}.cls-45{fill:#ffc22b;}.cls-46{stroke-width:2.39px;}.cls-47{fill:#fdd0d9;}.cls-48,.cls-59{font-size:20.96px;font-family:Montserrat-Bold, Montserrat;font-weight:700;}.cls-49{letter-spacing:-0.01em;}.cls-50{letter-spacing:-0.02em;}.cls-51{letter-spacing:0em;}.cls-52{letter-spacing:0.01em;}.cls-53{letter-spacing:0.02em;}.cls-54{letter-spacing:-0.01em;}.cls-55{stroke-width:1.96px;}.cls-56{letter-spacing:0em;}.cls-57{letter-spacing:-0.02em;}.cls-58{letter-spacing:0.01em;}.cls-59{letter-spacing:-0.01em;}.cls-60{letter-spacing:-0.01em;}.cls-61{letter-spacing:0.01em;}.cls-62{letter-spacing:0em;}.cls-63{fill:#1e36d8;}.cls-64{stroke-width:2.05px;}.cls-65{fill:#003ecc;}.cls-66{clip-path:url(#clip-path-8);}.cls-68{stroke:#66c8b7;}.cls-68,.cls-69{stroke-width:2.25px;}.cls-70{stroke:#fbd782;}.cls-70,.cls-71{stroke-width:2.34px;}.cls-72{stroke-width:2.02px;}.cls-73{stroke-width:2.27px;}.cls-74{clip-path:url(#clip-path-9);}.cls-75{fill:#20289d;isolation:isolate;}.cls-76{fill:#040237;}</style><clipPath id="clip-path"><path class="cls-1" d="M541-261.37v16.47H524.52v-16.47Zm-18.3,0v16.47H506.22v-16.47Zm18.3,18.3v16.48H524.52v-16.48Zm-18.3,0v16.48H506.22v-16.48Z"/></clipPath><clipPath id="clip-path-2"><rect class="cls-3" x="123.71" y="133.94" width="239.17" height="252.02" rx="33.4"/></clipPath><clipPath id="clip-path-3"><path class="cls-4" d="M475.54,135H455.18a32.93,32.93,0,0,0-32.94,32.93V350.61a32.93,32.93,0,0,0,32.94,32.93h179.5a32.93,32.93,0,0,0,32.94-32.93V167.92A32.93,32.93,0,0,0,634.68,135H483.79"/></clipPath><clipPath id="clip-path-4"><path class="cls-4" d="M1482.72,135h20.36A32.93,32.93,0,0,1,1536,167.92V350.61a32.93,32.93,0,0,1-32.94,32.93h-179.5a32.93,32.93,0,0,1-32.94-32.93V167.92A32.93,32.93,0,0,1,1323.58,135h150.89"/></clipPath><clipPath id="clip-path-5"><rect class="cls-5" x="1025.05" y="137.49" width="240.43" height="309.22" rx="38.98" transform="translate(2290.53 584.2) rotate(-180)"/></clipPath><clipPath id="clip-path-6"><path class="cls-2" d="M917,67.47a26,26,0,0,1,26,26V306.62a26,26,0,0,1-26,26h-189a26,26,0,0,1-26-26V93.43a26,26,0,0,1,26-26"/></clipPath><clipPath id="clip-path-7"><circle class="cls-2" cx="705.28" cy="504.64" r="125.41"/></clipPath><clipPath id="clip-path-8"><rect class="cls-6" x="764.43" y="502.01" width="267.43" height="127.34" rx="10.88" transform="translate(1796.3 1131.36) rotate(-180)"/></clipPath><clipPath id="clip-path-9"><rect class="cls-2" x="-1660.77" y="-578.74" width="1100" height="850"/></clipPath></defs><path class="cls-8" d="M502.38,689H143.68c-46.95,0-85-40-85-89.44V145c0-49.4,38.06-89.45,85-89.45H1517.24c47,0,85,40.05,85,89.45V599.56c0,49.4-38.06,89.44-85,89.44H1153.8"/><rect class="cls-3" x="123.71" y="133.94" width="239.17" height="252.02" rx="33.4"/><g class="cls-9"><ellipse class="cls-10" cx="202.09" cy="244.01" rx="20.02" ry="20.52"/><path class="cls-11" d="M217.38,208.9c11-.9,24.32,9.66,18.75,18.38-3.61,5.67-8.14,9.16-14.1,9.9-6.34.8-21.77-6.7-26.61-10.6.18,6.14-7.17,16.93-13.59,19.73-.32-8,.82-19.73,8.49-26.24A45.69,45.69,0,0,1,217.38,208.9Z"/><path class="cls-10" d="M156.63,430.75c-3.55-11.54-6.17-25.25-6.44-37.28-.3-13.15,2.73-23.83,4.41-27.92s3.88-10,12-7.43c5.15,1.65,1.4,34.69-3.39,55.34C161.05,422.75,158,433,156.63,430.75Z"/><path class="cls-10" d="M156.4,453.81a.73.73,0,0,1-.65.71,11.57,11.57,0,0,1-4.85-22.6c.32-.09.76,0,.84.31C153.81,439.83,155.33,444.82,156.4,453.81Z"/><path class="cls-12" d="M166.61,434.73a14.78,14.78,0,1,0-8.14,25s-1-7.54-6.43-28"/><path class="cls-12" d="M154.76,356.2a59,59,0,0,0-4.74,9.35c-8.19,20.57-3.64,43.8,2,65.2"/><path class="cls-10" d="M308.13,334c-10.76,18.4-38.24,41.23-45.9,44.82-8.62,4-18.3-20.41-18.3-20.41l20.67-.08C278.29,343,309.9,325.74,308.13,334Z"/><path class="cls-13" d="M308.13,334c-10.69,17.31-22.57,36.18-38,49.22-4.25,3.58-7.28,3.35-10.91-.66a85.29,85.29,0,0,1-14.42-22"/><path class="cls-13" d="M311,326.29c-23,12.1-36.49,28.15-44.2,36.26"/><path class="cls-14" d="M308.13,334c-10.69,17.31-22.57,36.18-38,49.22-4.25,3.58-7.28,3.35-10.91-.66a85.29,85.29,0,0,1-14.42-22"/><path class="cls-14" d="M311,326.29c-23,12.1-36.49,28.15-44.2,36.26"/><path class="cls-10" d="M311,325.43a.74.74,0,0,0-.47.81,11.27,11.27,0,0,0,22.4-2.27.76.76,0,0,0-.55-.69C326.1,321.6,318.91,322.48,311,325.43Z"/><path class="cls-12" d="M321.55,314.32c-7.18,1.7-12.28,9.49-9.91,16.07,2.62,7.28,8.77,9.65,15.16,8.61,7.28-1.19,11.17-7.41,10.82-14.77,0,0-13.85-4-26.29,1.61"/><path class="cls-15" d="M144.63,366.81s7.51-37.15,19.26-51.39c10.94-13.26,32.92-17.15,35.49-34.17a145.82,145.82,0,0,1,16.9.19c4.11,20.74,24.79,24.07,35.1,36.16,10.86,12.74,18.1,49.42,18.1,49.42l-20.57,3.89,3.25,40.14c-33.38,13.23-63.95,12.56-92.12,0l6.31-39.86Z"/><path class="cls-16" d="M217.38,208.9c11-.9,24.32,9.66,18.75,18.38-3.61,5.67-8.14,9.16-14.1,9.9-6.34.8-21.77-6.7-26.61-10.6.18,6.14-7.17,16.93-13.59,19.73-.32-8,.82-19.73,8.49-26.24A45.69,45.69,0,0,1,217.38,208.9Z"/><path class="cls-12" d="M183.82,237.66A22.46,22.46,0,1,0,204.4,224.2"/><polyline class="cls-12" points="212.35 240.35 215.15 254.49 207.33 254.31"/><circle class="cls-12" cx="223.53" cy="241.35" r="8.96"/><circle class="cls-12" cx="201.84" cy="241.35" r="8.96"/></g><rect class="cls-17" x="166.51" y="115.4" width="155.65" height="67.56" rx="9.03"/><g class="cls-18"><ellipse class="cls-10" cx="511.97" cy="243.55" rx="19.75" ry="20.24"/><path class="cls-11" d="M527.05,208.92c10.83-.89,24,9.53,18.49,18.13-3.56,5.59-8,9-13.9,9.77-6.26.78-21.48-6.61-26.25-10.47.18,6.06-7.07,16.7-13.4,19.47-.32-7.91.81-19.46,8.37-25.88A45.08,45.08,0,0,1,527.05,208.92Z"/><path class="cls-10" d="M467.13,427.72A142.71,142.71,0,0,1,460.78,391c-.3-13,2.7-23.5,4.35-27.54s3.82-9.89,11.84-7.33c5.08,1.63,1.38,34.21-3.35,54.58C471.49,419.84,468.45,430,467.13,427.72Z"/><path class="cls-10" d="M466.9,450.47a.72.72,0,0,1-.63.7,11.42,11.42,0,0,1-4.79-22.29c.32-.09.75,0,.83.31C464.35,436.68,465.85,441.6,466.9,450.47Z"/><path class="cls-19" d="M477,431.65a14.57,14.57,0,1,0-8,24.61s-1-7.43-6.34-27.62"/><path class="cls-19" d="M465.29,354.2a58.27,58.27,0,0,0-4.68,9.22c-8.07,20.29-3.58,43.2,2,64.3"/><path class="cls-10" d="M608.88,401.7c-20.54-4.46-50.37-23.23-56.08-29.31-6.42-6.84,13.53-23.41,13.53-23.41l6.4,19.36C591.38,376.46,617.2,400.82,608.88,401.7Z"/><path class="cls-4" d="M608.88,401.7c-19.51-4.72-40.83-10.08-57.79-20.59-4.66-2.88-5.38-5.8-2.73-10.43a84.2,84.2,0,0,1,16.19-20.24"/><path class="cls-4" d="M617,402c-18.41-17.9-37.57-25.59-47.54-30.33"/><path class="cls-20" d="M608.88,401.7c-19.51-4.72-40.83-10.08-57.79-20.59-4.66-2.88-5.38-5.8-2.73-10.43a84.2,84.2,0,0,1,16.19-20.24"/><path class="cls-20" d="M617,402c-18.41-17.9-37.57-25.59-47.54-30.33"/><path class="cls-10" d="M617.81,401.71a.73.73,0,0,0-.9-.19,11.12,11.12,0,0,0,9,20.31.75.75,0,0,0,.48-.72C626,414.74,623,408.27,617.81,401.71Z"/><path class="cls-19" d="M631.47,408.24c-3.79-6.21-12.66-8.61-18.1-4.37-6,4.69-6.36,11.18-3.42,16.85,3.34,6.46,10.36,8.2,17.16,5.62,0,0-.54-14.2-9.57-24.16"/><path class="cls-21" d="M455.29,364.67S462.7,328,474.3,314c10.79-13.08,32.46-16.92,35-33.71a146.34,146.34,0,0,1,16.67.19c4.06,20.46,24.46,23.74,34.63,35.67,10.71,12.57,17.84,48.74,17.84,48.74l-20.28,3.83,3.2,39.6c-32.92,13-63.07,12.39-90.85,0L476.72,369Z"/><path class="cls-19" d="M494,237.29A22.15,22.15,0,1,0,514.25,224"/><path class="cls-19" d="M522.09,239.94l1.59,8a4.83,4.83,0,0,1-4.85,5.77l-1.69,0"/></g><path class="cls-4" d="M475.54,135H455.18a32.93,32.93,0,0,0-32.94,32.93V350.61a32.93,32.93,0,0,0,32.94,32.93h179.5a32.93,32.93,0,0,0,32.94-32.93V167.92A32.93,32.93,0,0,0,634.68,135H483.79"/><g class="cls-22"><ellipse class="cls-10" cx="1446.29" cy="218.52" rx="19.75" ry="20.24"/><path class="cls-11" d="M1438.73,185.06c-10.83-.89-31.5,8.36-26,17,3.57,5.58,8,9,13.91,9.76,6.26.79,21.47-6.6,26.25-10.46-.19,6.06,7.06,16.7,13.39,19.47.33-7.91-.8-19.46-8.36-25.89C1453.15,190.86,1452.43,186.18,1438.73,185.06Z"/><path class="cls-10" d="M1491.13,402.69a142.71,142.71,0,0,0,6.35-36.76c.3-13-2.69-23.51-4.34-27.54s-3.83-9.9-11.84-7.33c-5.09,1.63-1.39,34.21,3.34,54.58C1486.77,394.8,1489.81,404.92,1491.13,402.69Z"/><path class="cls-10" d="M1491.36,425.43a.72.72,0,0,0,.63.71,11.42,11.42,0,0,0,4.79-22.3c-.31-.08-.75,0-.83.31C1493.91,411.64,1492.41,416.57,1491.36,425.43Z"/><path class="cls-19" d="M1481.29,406.62a14.57,14.57,0,1,1,8,24.61s1-7.43,6.34-27.62"/><path class="cls-19" d="M1493,329.16a57.54,57.54,0,0,1,4.68,9.23c8.07,20.28,3.59,43.2-2,64.3"/><path class="cls-10" d="M1339,332c17.11,12.21,51.06,21.65,59.4,21.79,9.39.15,8.22-25.76,8.22-25.76L1388,336.32C1369.49,328,1334.09,325.26,1339,332Z"/><path class="cls-4" d="M1339,332c16.61,11.26,34.92,23.43,54.1,28.92,5.27,1.51,7.9.08,9.55-5a84.25,84.25,0,0,0,4.1-25.59"/><path class="cls-4" d="M1333.29,326.21c25.63,1.58,44.21,10.59,54.43,14.77"/><path class="cls-20" d="M1339,332c16.61,11.26,34.92,23.43,54.1,28.92,5.27,1.51,7.9.08,9.55-5a84.25,84.25,0,0,0,4.1-25.59"/><path class="cls-20" d="M1333.29,326.21c25.63,1.58,44.21,10.59,54.43,14.77"/><path class="cls-10" d="M1333,325.41a.73.73,0,0,1,.74.54,11.12,11.12,0,0,1-21.07,7,.77.77,0,0,1,.21-.84C1317.84,328.08,1324.66,326,1333,325.41Z"/><path class="cls-19" d="M1319,319.69c7.14-1.37,14.88,3.58,15.41,10.46.58,7.61-4,12.22-10.17,13.86-7,1.88-13-2.15-15.7-8.91,0,0,10.87-9.16,24.31-9.17"/><path class="cls-23" d="M1503,339.63s-7.41-36.64-19-50.69c-10.79-13.07-32.47-16.91-35-33.7a146.36,146.36,0,0,0-16.67.19c-4,20.46-24.45,23.74-34.62,35.67-10.71,12.56-17.85,48.74-17.85,48.74l20.29,3.83-3.21,39.59c32.92,13.05,63.07,12.39,90.86,0L1481.55,344Z"/><path class="cls-19" d="M1464.31,212.26A22.15,22.15,0,1,1,1444,199"/><path class="cls-19" d="M1436.17,214.9l-2.33,11.83a1.73,1.73,0,0,0,1.74,2.07l5.55-.13"/></g><path class="cls-4" d="M1482.72,135h20.36A32.93,32.93,0,0,1,1536,167.92V350.61a32.93,32.93,0,0,1-32.94,32.93h-179.5a32.93,32.93,0,0,1-32.94-32.93V167.92A32.93,32.93,0,0,1,1323.58,135h150.89"/><rect class="cls-5" x="1025.05" y="137.49" width="240.43" height="309.22" rx="38.98" transform="translate(2290.53 584.2) rotate(-180)"/><g class="cls-24"><path class="cls-10" d="M1237.43,483.3a.79.79,0,0,0,.6.8c6.14,1.58,13.42-1.81,15.35-7.93a12,12,0,0,0-7.29-14.89c-.32-.12-.79-.07-.9.24C1242.81,468.46,1239,473.64,1237.43,483.3Z"/><path class="cls-25" d="M1230.23,462a15.76,15.76,0,1,1,4.54,27.62s2.27-7.78,11.31-28.49"/><path class="cls-10" d="M1245.75,373.8c2,2.85,10.29,17.06,8.72,37s-10.92,43.49-10.92,43.49-2.54,7.87-5-2.15c-2.89-11.84-3.34-69.91-3.16-73.84C1235.39,372.68,1243.71,371,1245.75,373.8Z"/><path class="cls-26" d="M1244.38,366.3a70.84,70.84,0,0,1,12.78,26.51c5.3,23-3.26,46.76-12.69,68.4"/><path class="cls-26" d="M1241.67,391.38a450.36,450.36,0,0,0,2.11,62.9"/><path class="cls-10" d="M1148.85,369.41c-2,2.86-10.29,17.06-8.72,37s10.92,43.48,10.92,43.48,2.54,7.88,5-2.15c2.89-11.84,3.34-69.91,3.16-73.83C1159.21,368.29,1150.89,366.56,1148.85,369.41Z"/><path class="cls-26" d="M1150.22,361.91a70.84,70.84,0,0,0-12.78,26.51c-5.3,23,3.26,46.76,12.69,68.41"/><path class="cls-27" d="M1254.17,279.47a7.86,7.86,0,0,0-.79-.94c-.25-.24-.73-.52-.88-.84s.08-.72.23-1c.34-.71.76-1.37,1.08-2.09,2.34-5.24,2.41-11.72-1.47-16,1.84-3.51,1.26-8-.58-11.39-2.11-3.91-5.87-6.57-9.53-8.94a13.17,13.17,0,0,0-6.16-10.73c-4-2.72-9.07-3.25-13.84-3.33-1.41-4.2-5.82-6.71-10.17-7.36a25.16,25.16,0,0,0-16.17,3.15c-4-3.42-10.26-2.8-14.54.11a14.81,14.81,0,0,0-3.24,2.93c-1,1.26-1.71,2.72-2.7,4-1.79,2.29-4.58,3.46-6.9,5.14a14.18,14.18,0,0,0-5.46,15.2c0,.06-.18.38-.19.39a41.3,41.3,0,0,0-5.29,4.4,13.81,13.81,0,0,0-3,12.63,14,14,0,0,0,1.18,2.93,4.78,4.78,0,0,1,.91,2.65,8.6,8.6,0,0,1-1,2.75,14.28,14.28,0,0,0-1.32,3.39,10.7,10.7,0,0,0,.69,6.46,12.41,12.41,0,0,0,4.24,4.8,2.66,2.66,0,0,1,1.27,2.07c.07,1.16-.12,2.31,0,3.46a11.52,11.52,0,0,0,7.67,9.65c1.91.67,4.12.2,5.64,1.73s2.86,3.47,4.53,5a18.19,18.19,0,0,0,5.57,3.64,10.74,10.74,0,0,0,3.75.78c1.23,0,2.43-.41,3.65-.37s2.31.86,3.38,1.34a28,28,0,0,0,3.88,1.4,26.7,26.7,0,0,0,15.31-.41,13.18,13.18,0,0,0,15-1.8,21.31,21.31,0,0,0,2.65-3.39c.9-1.2,2.32-1,3.65-1.34a12,12,0,0,0,7.15-5.51,30.14,30.14,0,0,0,1.78-4.81,9.07,9.07,0,0,1,2.4-3.35c2.17-2.06,4.75-3.63,6.57-6s2.91-5.54,2-8.44A6.3,6.3,0,0,0,1254.17,279.47Z"/><circle class="cls-10" cx="1196.36" cy="265.77" r="23.34"/><path class="cls-28" d="M1217.89,258.24a7.57,7.57,0,0,0,3.22-2c1.29-1.6.78-3.72,0-5.44a26.38,26.38,0,0,0-14.06-13.06,35.09,35.09,0,0,0-21.13-1.49,23,23,0,0,0-10.34,5,12.13,12.13,0,0,0-3.28,4.86c-.49,1.4-1,3.68-.07,4.93a16.92,16.92,0,0,0,4.19,3.36,37.73,37.73,0,0,0,4.94,2.77,44,44,0,0,0,11.13,3.45,48.67,48.67,0,0,0,12,.57,46.57,46.57,0,0,0,11.94-2.47C1216.93,258.61,1217.41,258.43,1217.89,258.24Z"/><path class="cls-29" d="M1214.34,273.48a22.82,22.82,0,1,1-8-23.66"/><polyline class="cls-29" points="1184.16 261.38 1181.32 275.76 1189.26 275.57"/><path class="cls-30" d="M1196.33,238.66c-20.78-2.6-24.57,17-24.61,17.23a.83.83,0,0,0,.49.89.81.81,0,0,0,1-.29c.06-.08,5.8-8.15,18.75-7.34,9,.57,14.67,4.24,17.82,7.22a20.57,20.57,0,0,1,4.73,6.42.81.81,0,0,0,.75.5h.16a.82.82,0,0,0,.65-.82C1216,262.25,1215.28,241,1196.33,238.66Z"/><path class="cls-21" d="M1257.78,386.39s-7.53-37.24-19.32-51.52c-11-13.29-33-17.19-35.57-34.26a146.6,146.6,0,0,0-16.94.2c-4.12,20.79-24.85,24.13-35.19,36.25-10.88,12.77-18.13,49.22-18.13,49.22l20.61,4.21-3.26,61.6c33.46,13.26,64.11,12.59,92.35,0L1236,390.77Z"/><circle class="cls-10" cx="1183.53" cy="316.35" r="2.54"/><circle class="cls-10" cx="1189.37" cy="318.9" r="2.54"/><circle class="cls-10" cx="1195.67" cy="320.11" r="2.54"/><circle class="cls-10" cx="1201.84" cy="319.55" r="2.54"/><circle class="cls-10" cx="1206.87" cy="316.35" r="2.54"/></g><polyline class="cls-31" points="571.7 263.41 572.91 281.56 588.15 270.03 588.68 287.9 604.61 276.65 604.46 294.25 621.06 283.28 620.24 300.6"/><g class="cls-32"><rect class="cls-33" x="744.65" y="117.32" width="229.65" height="215.26" rx="28.52" transform="translate(1718.96 449.9) rotate(-180)"/></g><g class="cls-34"><ellipse class="cls-10" cx="845.24" cy="141.87" rx="20.71" ry="23.34"/><path class="cls-35" d="M828.36,111.61a2.5,2.5,0,0,1-1.18,1.54c-.9.42-1.9-.05-2.83.16a1.37,1.37,0,0,0-1,.92,1.47,1.47,0,0,0,.1,1.16c.43,1-.49,1.84-1.21,2.33s-1.69,1.14-1.75,2.13c-.07,1.14,1.07,2.3.52,3.27-.42.72-1.38.59-2.14.76a2.73,2.73,0,0,0-1.9,1.71,3.12,3.12,0,0,0,.24,2.68,11.87,11.87,0,0,0,1.16,1.39,2.25,2.25,0,0,1,.6,1.69c-.14,1-1.11,1.44-1.59,2.24a3,3,0,0,0,.14,3,5.13,5.13,0,0,0,2.3,1.9,11.6,11.6,0,0,0,3.29.91,24.93,24.93,0,0,0,3.66.18,4.21,4.21,0,0,1,.87,0,10.17,10.17,0,0,0,2,.08l9.92,0h17.73l2.57,16.48a38,38,0,0,0,7.24-.27c1.39-.23,1-2.62.85-3.63s-.27-1.91-.33-2.88a5,5,0,0,1,.25-2.34,3,3,0,0,1,2.81-1.59h.07a5.89,5.89,0,0,0,2.57-.53,2.06,2.06,0,0,0,1-2.4c-.22-.52-.71-.85-.93-1.38a2.18,2.18,0,0,1,1.2-2.52c.86-.47,1.85-.57,2.71-1.05a2.17,2.17,0,0,0,1.14-2.55c-.47-1.06-2-1.12-2.46-2.19s.42-2.19,1.3-2.82,2-1.27,2.15-2.41-.78-2.3-1.72-3-2-1.5-2.22-2.74a9.68,9.68,0,0,1,.31-2.5,2.79,2.79,0,0,0-.91-2.33c-.68-.63-1.68-.68-2.36-1.34a2.58,2.58,0,0,1-.55-.81,1.52,1.52,0,0,1-.22-.72,4.58,4.58,0,0,0,0-1,1.84,1.84,0,0,0-1.07-1.4c-.69-.27-1.53,0-2.16-.46a3.27,3.27,0,0,1-1-2.06c-.18-.78-.51-1.64-1.22-1.86-1.22-.38-2.24,1.53-3.5,1.31-.9-.16-1.32-1.29-1.52-2.27s-.43-2.12-1.26-2.54a2.06,2.06,0,0,0-2.06.4,15.35,15.35,0,0,1-1.79,1.36,1.64,1.64,0,0,1-2-.25c-.53-.66-.33-1.74-.79-2.46a1.8,1.8,0,0,0-2.28-.47,11.9,11.9,0,0,0-2.08,1.5,2.52,2.52,0,0,1-2.36.54c-1.3-.55-1.75-2.74-3.14-2.83-1-.06-1.66,1-2.09,1.94s-1,2-1.91,2.25c-1.38.29-2.81-1.57-4-.79-.67.43-.79,1.4-1,2.2a2,2,0,0,1-1,1.21.84.84,0,0,1-.64,0,3.19,3.19,0,0,0-2.78,0C829,109,828.8,110.46,828.36,111.61Z"/><path class="cls-36" d="M862.21,140a21.31,21.31,0,1,1-19.53-12.77"/><polyline class="cls-36" points="834.58 143.69 831.73 158.11 839.7 157.92"/><path class="cls-10" d="M902.52,377a.78.78,0,0,0,.61.82c6.33,1.63,13.82-1.85,15.81-8.16a12.39,12.39,0,0,0-7.5-15.34c-.34-.12-.82-.07-.93.25C908.06,361.74,904.18,367.08,902.52,377Z"/><path class="cls-37" d="M895.1,355.06a16.23,16.23,0,1,1,4.67,28.45s2.34-8,11.65-29.34"/><path class="cls-10" d="M913.21,263.12c2.1,2.94,10.59,17.57,9,38.14s-11.24,44.79-11.24,44.79-2.62,8.11-5.14-2.21c-3-12.2-3.44-72-3.26-76C902.53,262,911.11,260.18,913.21,263.12Z"/><path class="cls-36" d="M911.8,255.39A73.2,73.2,0,0,1,925,282.69c5.45,23.7-3.36,48.17-13.07,70.46"/><path class="cls-36" d="M906.88,282.35a464.43,464.43,0,0,0,2.17,64.79"/><path class="cls-10" d="M790.18,199.57c-3.54-.72-19.74-5.62-32.59-21.76s-22.34-40.42-22.34-40.42-3.63-7.71,5.26-1.88c10.5,6.88,51.65,50.29,54.28,53.37C798.77,193.13,793.72,200.28,790.18,199.57Z"/><path class="cls-36" d="M796.48,204.25a73,73,0,0,1-28.25-11c-20.16-13.6-30.41-37.5-38.52-60.42"/><path class="cls-36" d="M781.68,181.19a463.76,463.76,0,0,0-45.8-45.88"/><path class="cls-38" d="M856.76,179c-7.4-.12-13.86-.48-22,.25.93,4.88-8.57,20-20.69,15.5-10.26-3.81-14.34-8-28.23-18.22C782,187.26,770.88,208.63,772.3,209c0,0,29.78,22.31,33.42,24.19L795.13,345.09l107-1.06-7.5-69.75,28.51-11.47s-9.92-29.2-51.23-58.73C863.75,198.27,856.7,192.23,856.76,179Z"/></g><rect class="cls-10" x="1039.35" y="187.31" width="91.76" height="41.41" rx="20.71"/><line class="cls-39" x1="1057.39" y1="213.59" x2="1115.33" y2="213.59"/><line class="cls-39" x1="1057.39" y1="201.1" x2="1115.33" y2="201.1"/><rect class="cls-5" x="588.86" y="203.87" width="110.38" height="36.33" rx="18.16"/><line class="cls-19" x1="604.69" y1="216.86" x2="685.39" y2="216.86"/><line class="cls-19" x1="604.69" y1="226.86" x2="674.84" y2="226.86"/><rect class="cls-5" x="618.15" y="250.82" width="81.09" height="36.33" rx="18.16"/><line class="cls-19" x1="633.98" y1="263.8" x2="659.69" y2="263.8"/><line class="cls-19" x1="633.98" y1="273.73" x2="686.59" y2="273.73"/><path class="cls-10" d="M709.85,135.07a.77.77,0,0,1-.41.87,11.66,11.66,0,0,1-11.17-20.43.8.8,0,0,1,.91.06C704.26,119.91,707.72,126.55,709.85,135.07Z"/><path class="cls-40" d="M713.13,119.54c2.75,7.11-.91,16-7.9,17.85-7.75,2-13.36-1.83-16.21-7.89-3.24-6.9-.22-13.86,6.26-17.87,0,0,11.47,9.5,14,23.36"/><rect class="cls-41" x="917.82" y="188.98" width="85.01" height="38.09" rx="19.04"/><line class="cls-40" x1="934.42" y1="202.59" x2="988.31" y2="202.59"/><line class="cls-40" x1="934.42" y1="213.07" x2="977.25" y2="213.07"/><rect class="cls-42" x="426.4" y="621.52" width="791.15" height="125.58" rx="62.79"/><text class="cls-43" transform="translate(658.77 704.3)">LangOps Platform</text><rect class="cls-10" x="598" y="703.84" width="3.54" height="16.03"/><path class="cls-10" d="M595,710.45A5.17,5.17,0,0,0,591.2,709a5.64,5.64,0,0,0-2.24.38,5.16,5.16,0,0,0-3,2.89,6.44,6.44,0,0,0-.47,2.32,5.68,5.68,0,0,0,1.68,4.1,6.19,6.19,0,0,0,1.86,1.12,6.28,6.28,0,0,0,2.24.38,6.21,6.21,0,0,0,2.79-.56,4.36,4.36,0,0,0,2-1.68l-2.42-1.49a8.68,8.68,0,0,1-.93.84,3.23,3.23,0,0,1-1.4.28,3.42,3.42,0,0,1-.93-.19,5.83,5.83,0,0,1-.75-.37,2.12,2.12,0,0,1-.56-.66,1.3,1.3,0,0,1-.28-.83h7.64v-.84a6.58,6.58,0,0,0-.37-2.42A4.33,4.33,0,0,0,595,710.45Zm-6.15,2.89a1.75,1.75,0,0,1,.18-.74,1.65,1.65,0,0,1,.47-.65,2,2,0,0,1,.74-.47,2.85,2.85,0,0,1,.94-.19,2.19,2.19,0,0,1,1.58.56,1.92,1.92,0,0,1,.56,1.4h-4.47Z"/><path class="cls-10" d="M571.07,712a5.28,5.28,0,0,0-.84-1.77,2.88,2.88,0,0,0-1.49-1,8.26,8.26,0,0,0-2.24-.37,8,8,0,0,0-2.51.47,5.43,5.43,0,0,0-2.14,1.3l1.77,1.86a4,4,0,0,1,1.21-.74,3.63,3.63,0,0,1,1.39-.28,2.24,2.24,0,0,1,1.4.37,1.31,1.31,0,0,1,.56,1.12v.19a20.26,20.26,0,0,0-2.33.09,14.63,14.63,0,0,0-2.23.47,4,4,0,0,0-1.59,1.11,3,3,0,0,0-.65,1.87,2.83,2.83,0,0,0,.37,1.58,3.34,3.34,0,0,0,.93,1,3,3,0,0,0,1.22.56,7.46,7.46,0,0,0,1.3.18,3.78,3.78,0,0,0,1.77-.37,2.64,2.64,0,0,0,1.21-1h.09v1.12h3.17v-5.31A14.09,14.09,0,0,0,571.07,712Zm-3,3.54a2.19,2.19,0,0,1-.56,1.58,2.15,2.15,0,0,1-1.58.56,1.2,1.2,0,0,1-.56-.09.68.68,0,0,1-.47-.19c-.09-.09-.28-.18-.37-.37a.8.8,0,0,1-.1-.47,1.08,1.08,0,0,1,.28-.74,2.13,2.13,0,0,1,.75-.47,3.44,3.44,0,0,1,1-.18c.38,0,.75-.1,1.12-.1h.47Z"/><path class="cls-10" d="M558.86,710.64a5.16,5.16,0,0,0-1.58-1.21,5,5,0,0,0-2-.47,4.33,4.33,0,0,0-2,.47,4.53,4.53,0,0,0-1.21.93h0v-6.61h-3.45v16h3.17v-1.4h0a3.26,3.26,0,0,0,1.49,1.22,5,5,0,0,0,2,.46,5.47,5.47,0,0,0,2.14-.46,5.07,5.07,0,0,0,1.59-1.22,5.48,5.48,0,0,0,1-1.77,7.73,7.73,0,0,0,.37-2.14,5.75,5.75,0,0,0-.37-2.14A10.23,10.23,0,0,0,558.86,710.64Zm-2.14,4.85a1.7,1.7,0,0,1-.47.83,2.48,2.48,0,0,1-.74.66,2.08,2.08,0,0,1-1.12.18,3.44,3.44,0,0,1-1-.18,5.38,5.38,0,0,1-.84-.66,3.66,3.66,0,0,1-.47-.83,3.51,3.51,0,0,1-.18-1,4.05,4.05,0,0,1,.18-1,1.77,1.77,0,0,1,.47-.84,1.9,1.9,0,0,1,.84-.65,1.8,1.8,0,0,1,1-.19,4.38,4.38,0,0,1,1.12.19,4.74,4.74,0,0,1,.74.55,3.55,3.55,0,0,1,.47.84,3.5,3.5,0,0,1,.19,1A3.6,3.6,0,0,1,556.72,715.49Z"/><path class="cls-10" d="M583.18,710.64a5.16,5.16,0,0,0-1.58-1.21,5.09,5.09,0,0,0-2.05-.47,4.33,4.33,0,0,0-2,.47,4.53,4.53,0,0,0-1.21.93h0v-6.61h-3.45v16h3.17v-1.4h0a3.21,3.21,0,0,0,1.49,1.22,5,5,0,0,0,2,.46,5.51,5.51,0,0,0,2.14-.46,5.19,5.19,0,0,0,1.59-1.22,5.48,5.48,0,0,0,1-1.77,7.73,7.73,0,0,0,.37-2.14,5.75,5.75,0,0,0-.37-2.14C583.93,711.76,583.56,711.11,583.18,710.64ZM581,715.49a1.78,1.78,0,0,1-.47.83,2.74,2.74,0,0,1-.74.66,2.1,2.1,0,0,1-1.12.18,3.45,3.45,0,0,1-1-.18,5.38,5.38,0,0,1-.84-.66,3.6,3.6,0,0,1-.46-.83,3.2,3.2,0,0,1-.19-1,3.67,3.67,0,0,1,.19-1,1.76,1.76,0,0,1,.46-.84,2,2,0,0,1,.84-.65,1.82,1.82,0,0,1,1-.19,4.46,4.46,0,0,1,1.12.19,5.93,5.93,0,0,1,.74.55,3.94,3.94,0,0,1,.47.84,3.51,3.51,0,0,1,.18,1A2.1,2.1,0,0,1,581,715.49Z"/><path class="cls-10" d="M531.56,713.81a4.17,4.17,0,0,1-.18,1.12,5.16,5.16,0,0,1-.47,1,1.87,1.87,0,0,1-.84.65,2.64,2.64,0,0,1-1.3.28,3,3,0,0,1-1.31-.28,1.92,1.92,0,0,1-.83-.65,3.29,3.29,0,0,1-.47-1,5,5,0,0,1-.19-1.12v-9h-3.63v9.32a6.4,6.4,0,0,0,.46,2.42,4.43,4.43,0,0,0,1.31,1.86,5,5,0,0,0,2,1.22,7.77,7.77,0,0,0,2.7.46,8.64,8.64,0,0,0,2.7-.46,6.23,6.23,0,0,0,2.05-1.22,5.08,5.08,0,0,0,1.31-1.86,6.94,6.94,0,0,0,.46-2.42v-9.32h-3.63v9Z"/><path class="cls-10" d="M545.73,710.45a6.33,6.33,0,0,0-1.59-1.11,6.41,6.41,0,0,0-2.33-.38h0a6.48,6.48,0,0,0-2.33.38,5,5,0,0,0-1.58,1.11,4.24,4.24,0,0,0-1,1.78,6.64,6.64,0,0,0-.28,2.42v5.12h3.55V714a1.68,1.68,0,1,1,3.35,0v5.77H547v-5.12a6.64,6.64,0,0,0-.28-2.42A4.33,4.33,0,0,0,545.73,710.45Z"/><path class="cls-10" d="M579.92,662.94v29.9h14.91v-29.9c0-11.74-8.85-21-20.22-21s-20.22,9.23-20.22,21v9.41c0,3.44-2.23,6-5.31,6s-5.22-2.61-5.22-6V642.44H529v29.91c0,11.74,8.86,21,20.22,21s20.22-9.22,20.22-21v-9.41c0-3.45,2.24-6,5.31-6S579.92,659.49,579.92,662.94Zm-30.75,26.92c-9.41,0-16.67-7.64-16.67-17.42V646h8v26.46a3.92,3.92,0,0,0,.09,1c.65,7.83,6.43,13.7,13.79,13.7a12,12,0,0,0,5.78-1.4A17,17,0,0,1,549.17,689.86Zm17.05-29.35a10.58,10.58,0,0,0-.27,2.43v9.41a16.25,16.25,0,0,1-.38,3.72c-1.49,5.41-5.87,9.13-11.27,9.13a11.18,11.18,0,0,1-8.76-4.19,8.4,8.4,0,0,0,3.73.84c4.94,0,8.76-4.19,8.76-9.5v-9.41c0-9.79,7.36-17.43,16.67-17.43a16.61,16.61,0,0,1,10.35,3.64,12.17,12.17,0,0,0-5.22-1.12C572.84,648,567.34,653.34,566.22,660.51Zm4.66-6.15a11.32,11.32,0,0,1,9-4.38c5,0,9,3.08,10.9,7.83a18.22,18.22,0,0,1,.75,5.13V689.3h-8V662.94c0-5.32-3.82-9.51-8.76-9.51A8.58,8.58,0,0,0,570.88,654.36Z"/><circle class="cls-10" cx="705.28" cy="508.12" r="131.63"/><path class="cls-10" d="M739.44,542.06h278.29a23.79,23.79,0,0,1,23.79,23.79v46.93a23.79,23.79,0,0,1-23.79,23.79H725.91a10.26,10.26,0,0,1-10.26-10.26V565.85A23.79,23.79,0,0,1,739.44,542.06Z"/><g class="cls-44"><path class="cls-23" d="M738.76,435.32c8.79,11.54,13.88,25.63,15.85,40s.92,29-1.73,43.29c-.44,2.39-1,5-3,6.49-2.21,1.75-5.34,1.45-8.13,1.06l-21.33-3c-2.36-.33-4.93-.76-6.54-2.52-1.4-1.51-1.78-3.69-2-5.74a88.59,88.59,0,0,1,.08-21,24.06,24.06,0,0,0,15-9.68,35.73,35.73,0,0,0,6.31-17c1.25-10.53-1.81-22.4-10.64-28.28-2.7-1.8-5.8-3-8.38-4.93s-4.64-5.14-4-8.31a7.42,7.42,0,0,1,4.62-5.06c1.71-.68-.92-4.56.81-3.81a54.68,54.68,0,0,1,10.77,6A61.68,61.68,0,0,1,738.76,435.32Z"/><path class="cls-23" d="M672,457.59a8.55,8.55,0,0,1-4.54-1.71c-2.08-1.85-2.08-5.08-1.64-7.82a39.69,39.69,0,0,1,38.81-33.34c4.95-.05,10,.89,14.2,3.58a16.63,16.63,0,0,1,5.5,5.84c1,1.84,2.33,4.95,1.57,7.07s-2.69,4.45-4.14,6.31a52.48,52.48,0,0,1-5.23,5.72,54.29,54.29,0,0,1-12.62,8.89,55.05,55.05,0,0,1-14.59,5.07,50.94,50.94,0,0,1-15.39.65C673.24,457.78,672.59,457.69,672,457.59Z"/><path class="cls-45" d="M699.14,508.36l24.31,1.14C727,545.44,760.7,550,777,569.14s44.2,149.55,44.2,149.55l-23.57,8.16L764.59,625.34l-147.1,22.85s10.21-60.9,27.9-82.34S700,539.25,699.14,508.36Z"/><path class="cls-46" d="M674.05,449.43a33.8,33.8,0,1,0,31-20.25"/><polyline class="cls-46" points="716.99 453.47 721.19 474.75 709.43 474.48"/><path class="cls-45" d="M770.39,616.52l7.82,93.24c-50.22,19.9-96.23,18.9-138.62,0l12.6-79.65Z"/></g><rect class="cls-47" x="1593.57" y="556.86" width="17.83" height="17.83" rx="0.96"/><rect class="cls-5" x="1593.57" y="278.23" width="17.83" height="17.83" rx="0.96"/><text class="cls-48" transform="translate(193.13 142.69)"><tspan class="cls-49">C</tspan><tspan x="15.07" y="0">us</tspan><tspan class="cls-50" x="40.59" y="0">t</tspan><tspan class="cls-51" x="49.35" y="0">o</tspan><tspan class="cls-52" x="63.08" y="0">m</tspan><tspan x="85.19" y="0">er </tspan><tspan x="16.57" y="25.15">Se</tspan><tspan class="cls-53" x="43.16" y="25.15">r</tspan><tspan x="52.51" y="25.15">vi</tspan><tspan class="cls-54" x="71.35" y="25.15">c</tspan><tspan x="83.59" y="25.15">e</tspan></text><rect class="cls-17" x="480.29" y="122.71" width="134.38" height="67.56" rx="17.51"/><text class="cls-48" transform="translate(519 162.32)">Sales</text><rect class="cls-55" x="807.59" y="292.1" width="146.23" height="67.56" rx="18.27"/><text class="cls-48" transform="translate(824.12 332.58)">Ma<tspan class="cls-56" x="32.94" y="0">r</tspan><tspan class="cls-57" x="41.89" y="0">k</tspan><tspan x="55.24" y="0">eti</tspan><tspan class="cls-58" x="83.89" y="0">n</tspan><tspan x="98.5" y="0">g</tspan></text><rect class="cls-55" x="1073.9" y="101.21" width="146.23" height="67.56" rx="18.27"/><text class="cls-59" transform="translate(1102.88 141.69)">P<tspan class="cls-60" x="15.13" y="0">r</tspan><tspan class="cls-51" x="23.98" y="0">odu</tspan><tspan class="cls-61" x="66.6" y="0">c</tspan><tspan class="cls-62" x="79.15" y="0">t</tspan></text><rect class="cls-41" x="1035.37" y="46.67" width="38.03" height="17.83" rx="8.92"/><rect class="cls-41" x="1437.5" y="46.67" width="38.03" height="17.83" rx="8.92"/><rect class="cls-63" x="166.51" y="46.67" width="38.03" height="17.83" rx="8.92"/><rect class="cls-64" x="1333.38" y="101.21" width="159.9" height="67.56" rx="19.1"/><text class="cls-48" transform="translate(1345.72 141.69)">In<tspan class="cls-50" x="21.35" y="0">t</tspan><tspan class="cls-51" x="30.12" y="0">e</tspan><tspan class="cls-56" x="43.34" y="0">r</tspan><tspan x="52.29" y="0">nal Ops</tspan></text><rect class="cls-63" x="49.79" y="569.5" width="17.83" height="17.83" rx="0.96"/><rect class="cls-5" x="973.59" y="46.67" width="17.83" height="17.83" rx="0.96"/><rect class="cls-65" x="293.99" y="680.09" width="17.83" height="17.83" rx="8.92"/><rect class="cls-65" x="1264.36" y="680.09" width="17.83" height="17.83" rx="8.92"/><rect class="cls-47" x="1370.96" y="680.09" width="17.83" height="17.83" rx="0.96"/><rect class="cls-45" x="235.42" y="680.09" width="17.83" height="17.83" rx="0.96"/><rect class="cls-5" x="1324.46" y="46.67" width="17.83" height="17.83" rx="0.96"/><rect class="cls-5" x="579.94" y="46.67" width="17.83" height="17.83" rx="0.96" transform="translate(644.44 -533.27) rotate(90)"/><rect class="cls-10" x="764.43" y="502.01" width="267.43" height="127.34" rx="10.88" transform="translate(1796.3 1131.36) rotate(-180)"/><g class="cls-66"><rect class="cls-27" x="739.15" y="479.96" width="320.55" height="41.24" transform="translate(1798.85 1001.16) rotate(-180)"/></g><rect class="cls-67" x="764.43" y="502.01" width="267.43" height="127.34" rx="10.88" transform="translate(1796.3 1131.36) rotate(-180)"/><polyline class="cls-68" points="773.49 586.09 810.61 586.09 827.91 541.68 845.78 586.09 860.42 586.09 874.35 557.49 887.1 586.09 948.78 586.09 957.71 572.59 965.66 572.37 979.06 543.05 990.79 584.74 1021.46 584.74"/><line class="cls-69" x1="853.81" y1="512.01" x2="779.5" y2="512.01"/><path class="cls-70" d="M436.93,82.27V93.71a9.5,9.5,0,0,1-9.5,9.5H351.57a9.5,9.5,0,0,1-9.5-9.5V17.85a9.5,9.5,0,0,1,9.5-9.5h75.86a9.5,9.5,0,0,1,9.5,9.5v59"/><line class="cls-71" x1="357.64" y1="69.12" x2="421.36" y2="69.12"/><line class="cls-71" x1="357.64" y1="82.72" x2="421.36" y2="82.72"/><line class="cls-71" x1="357.64" y1="55.78" x2="421.36" y2="55.78"/><line class="cls-71" x1="357.64" y1="42.43" x2="421.36" y2="42.43"/><line class="cls-71" x1="357.64" y1="27.15" x2="421.36" y2="27.15"/><rect class="cls-72" x="25.68" y="425.61" width="94.86" height="94.86" rx="9.5"/><rect class="cls-72" x="15.61" y="435.34" width="94.86" height="94.86" rx="9.5"/><rect class="cls-72" x="5.53" y="445.06" width="94.86" height="94.86" rx="9.5"/><path class="cls-73" d="M31.23,478.37v16.5c0,6.48,4.86,11.74,10.87,11.74h0c6,0,10.86-5.26,10.86-11.74v-4.76c0-6.48,4.87-11.74,10.87-11.74h0c6,0,10.87,5.26,10.87,11.74v16.5"/><g class="cls-74"><circle class="cls-75" cx="-747.27" cy="522.76" r="779.5"/><path class="cls-76" d="M-747.27,1299.26c-137.12,0-261.67-86.39-352.09-226.93a814,814,0,0,1-65.79-126.15c120.77,49.44,264.13,78.08,417.88,78.08s297.11-28.64,417.88-78.08a814,814,0,0,1-65.79,126.15C-485.6,1212.87-610.15,1299.26-747.27,1299.26Zm419.51-357c-120.95,50-264.93,79-419.51,79s-298.56-29-419.51-79c-50-120.95-79-264.93-79-419.51s29-298.56,79-419.51c121-50,264.93-79,419.51-79s298.56,29,419.51,79c50,121,79,264.92,79,419.51S-277.79,821.32-327.76,942.27Zm2.3,2.3c-89.26,215.2-244.83,357.69-421.81,357.69s-332.55-142.49-421.81-357.69c-215.2-89.26-357.69-244.83-357.69-421.81S-1384.28,190.21-1169.08,101c89.26-215.2,244.83-357.69,421.81-357.69S-414.72-114.25-325.46,101c215.2,89.26,357.69,244.83,357.69,421.81S-110.26,855.31-325.46,944.57Zm1.61-839.7A815.76,815.76,0,0,1-197.7,170.66c140.54,90.42,226.93,215,226.93,352.1S-57.16,784.43-197.7,874.85a814,814,0,0,1-126.15,65.79c49.44-120.77,78.08-264.13,78.08-417.88S-274.41,225.65-323.85,104.87Zm-5.54-5.54A813.91,813.91,0,0,0-395.18-26.81c-90.42-140.54-215-226.93-352.09-226.93s-261.67,86.39-352.09,226.93a813.91,813.91,0,0,0-65.79,126.14C-1044.38,49.89-901,21.26-747.27,21.26S-450.16,49.89-329.39,99.33Zm-841.3,5.54a815.76,815.76,0,0,0-126.15,65.79c-140.54,90.42-226.93,215-226.93,352.1s86.39,261.67,226.93,352.09a814,814,0,0,0,126.15,65.79c-49.44-120.77-78.08-264.13-78.08-417.88S-1220.13,225.65-1170.69,104.87Z"/></g></svg>