<svg id="Layer_1" data-name="Layer 1" xmlns="http://www.w3.org/2000/svg" viewBox="0 0 739.31 264.04"><defs><style>.cls-1,.cls-22,.cls-4,.cls-5,.cls-9{fill:none;}.cls-1{stroke:#bdbff1;stroke-width:1.25px;}.cls-1,.cls-22,.cls-9{stroke-linecap:round;}.cls-1,.cls-4,.cls-5{stroke-miterlimit:10;}.cls-2,.cls-21{fill:#2627a0;}.cls-3{fill:#363cd3;}.cls-4{stroke:#363cd3;}.cls-4,.cls-5,.cls-9{stroke-width:0.78px;}.cls-22,.cls-5,.cls-9{stroke:#040038;}.cls-10,.cls-6{fill:#9adacf;}.cls-7{fill:#fff;}.cls-8{fill:#f7758e;}.cls-10,.cls-12,.cls-16,.cls-18,.cls-21,.cls-8{fill-rule:evenodd;}.cls-22,.cls-9{stroke-linejoin:round;}.cls-11,.cls-12{fill:#f3768d;}.cls-13{fill:#66c8b7;}.cls-14{fill:#ff8b24;}.cls-15,.cls-18{fill:#ffd782;}.cls-16{fill:#fd7029;}.cls-17{fill:#040038;}.cls-19{fill:#7a80de;}.cls-20{fill:#ffebbf;}.cls-22{stroke-width:0.87px;}</style></defs><path class="cls-1" d="M505.86,84.13a6.09,6.09,0,0,0-.47-1l1.6-1.6a1.94,1.94,0,0,0,0-2.75l-.92-.91a1.93,1.93,0,0,0-2.74,0l-1.6,1.6a15.08,15.08,0,0,0-3.78-1.3V75.92A1.94,1.94,0,0,0,496,74h0a1.94,1.94,0,0,0-1.94,1.94v2.26a15.08,15.08,0,0,0-3.78,1.3l-1.6-1.6a1.93,1.93,0,0,0-2.74,0l-.92.91a1.94,1.94,0,0,0,0,2.75l1.6,1.6a15.08,15.08,0,0,0-1.3,3.78h-2.26a1.94,1.94,0,0,0-1.94,1.94h0a1.94,1.94,0,0,0,1.94,2h2.26a15.08,15.08,0,0,0,1.3,3.78l-1.6,1.6a1.93,1.93,0,0,0,0,2.74l.91.92a1.94,1.94,0,0,0,2.75,0l1.6-1.6a15.49,15.49,0,0,0,3.78,1.3v2.26a1.94,1.94,0,0,0,1.94,1.94h0a1.94,1.94,0,0,0,1.95-1.94V99.55a15.49,15.49,0,0,0,3.78-1.3l1.6,1.6a1.93,1.93,0,0,0,2.74,0l.92-.92a1.93,1.93,0,0,0,0-2.74l-1.6-1.6a15.08,15.08,0,0,0,1.3-3.78H509a1.94,1.94,0,0,0,1.94-2h0A1.94,1.94,0,0,0,509,86.92h-2.26"/><path class="cls-1" d="M490.18,88.86a5.82,5.82,0,1,1,1,3.26"/><circle class="cls-2" cx="373.95" cy="150.1" r="108.25"/><path class="cls-3" d="M286.22,109.8c2.94,6.18,13.56.21,16,0s4.59-8.76,7.88-8.76,21.44,6.35,23,10.29-3.72,20.35-.88,26.25,15.32,7.22,19.26,10.07,8.53,19.47,14,19.91,7.88-.66,10.72,0,6.79,3.28,6.79,6.35-4.38,16.63-1.53,20.35,6.3,2.84,9.06,10.28-4.95,41.57,0,42,13.25-.87,13.47-2.63-2-3.06,0-5.68,28.23-24.73,28.67-28-2.41-6.35,0-9,10.5-.66,10.94-5.47,3.28-12.91,0-17.07-16.63-12.47-22.76-12.47S393.21,168,387.52,166s-12.91-9.21-12.91-12.81,2-11,6.35-14.54,6.56,2,10.72-1.1,20.13-14.44,21.44-25.81S407,99.29,407,93.82s-2.85-14.22,1.75-16.19,17.28,0,19.47,7,0,11.6.88,14.44,3.72,8.54,9.62,8.54,19.48.87,21.88-.88S435,56.49,384.24,53.56c-5-.29-7.88,9.19-12.91,11.6s-24.29,1.75-27.79,2-3.28,7.44-6.12,7.44-19-2.41-24.29-.44S284,105.2,286.22,109.8Z"/><ellipse class="cls-4" cx="373.95" cy="150.1" rx="108.25" ry="65.9"/><ellipse class="cls-4" cx="373.95" cy="150.1" rx="64.81" ry="108.25"/><path class="cls-5" d="M479.29,196.11c8.79,16.09,11.17,29,5.33,36.13-14.42,17.53-73.64-7.37-132.26-55.61s-94.43-101.57-80-119.1c6.66-8.09,22.85-7.14,44.12,1"/><path class="cls-5" d="M465.34,92.33c8.79-16.1,11.17-29,5.33-36.13C456.25,38.67,397,63.57,338.41,111.81s-94.43,101.56-80,119.1c5.85,7.11,19.09,7.24,36.67,1.65"/><circle class="cls-6" cx="336.75" cy="29.2" r="25.9"/><circle class="cls-7" cx="337.74" cy="30.53" r="11.01"/><path class="cls-8" d="M343.41,17.31c5-1.67,6.67-1.42,5.08,3.27-1,3.05-2.74,5.2-5.42,6.22-2.86,1.1-10.9-.62-13.6-1.88.79,2.84-1.74,11.11-2.74,11.11s-5.48-7.24-1.64-14.88c1.56-3.09,6.61-5.67,10.34-6.69s2.95,2.07,3.41,2.06c.76,0,2.26-1.7,2.87-1.54C343.86,15.54,341.83,17.84,343.41,17.31Z"/><path class="cls-9" d="M327.57,27.51a9.89,9.89,0,0,0-.84,4,10,10,0,1,0,10-10"/><polyline class="cls-9" points="340.56 29.26 341.9 36.03 338.15 35.94"/><polygon class="cls-10" points="353.6 47.59 352.52 61.99 341.72 53.1 353.6 47.59"/><circle class="cls-11" cx="323.81" cy="232.95" r="25.9"/><polygon class="cls-12" points="329.77 208.73 342.35 201.65 340.94 215.56 329.77 208.73"/><path class="cls-11" d="M277.74,87.57l-5.08,2.29a.86.86,0,0,1-1.13-.43l-2.29-5.08a.85.85,0,0,1,.42-1.12l5.08-2.29a.84.84,0,0,1,1.13.42l2.29,5.08a.85.85,0,0,1-.42,1.13"/><path class="cls-13" d="M297.46,128.32l-4.37-4.72a3.64,3.64,0,1,1,5.34-4.94l4.37,4.72a3.64,3.64,0,0,1-5.34,4.94"/><path class="cls-13" d="M258.38,196l3.1-5.64a3.63,3.63,0,1,1,6.37,3.5l-3.09,5.64a3.64,3.64,0,0,1-6.38-3.5"/><path class="cls-14" d="M371,195.61,366,191.67a3.64,3.64,0,0,1,4.46-5.75l5.08,4a3.63,3.63,0,0,1-4.46,5.74"/><circle class="cls-15" cx="425.99" cy="127.16" r="25.9"/><circle class="cls-7" cx="427.76" cy="125.99" r="11.01"/><path class="cls-16" d="M417,115.93a27.05,27.05,0,0,0-5,12.74,43.33,43.33,0,0,0,.56,13.77,3.25,3.25,0,0,0,.94,2.07,3.38,3.38,0,0,0,2.59.34l6.79-.95a3.36,3.36,0,0,0,2.08-.79,3.19,3.19,0,0,0,.64-1.83,27.81,27.81,0,0,0,0-6.7,7.67,7.67,0,0,1-4.79-3.08,11.42,11.42,0,0,1-2-5.42c-.39-3.35.58-7.13,3.39-9,.86-.58,1.85-.94,2.67-1.57a2.83,2.83,0,0,0,1.26-2.65,2.37,2.37,0,0,0-1.47-1.61,3.3,3.3,0,0,0-1.91-.2,2.2,2.2,0,0,0-.51.3c-.26.17-.54.31-.8.48a14.9,14.9,0,0,0-2.93,2.44A17.27,17.27,0,0,0,417,115.93Z"/><path class="cls-16" d="M438.29,123a2.73,2.73,0,0,0,1.44-.54,2.7,2.7,0,0,0,.53-2.49,12.63,12.63,0,0,0-12.36-10.62,8.24,8.24,0,0,0-4.52,1.14,5.37,5.37,0,0,0-1.75,1.86,3.24,3.24,0,0,0-.5,2.25,8.13,8.13,0,0,0,1.32,2,15.93,15.93,0,0,0,1.66,1.82,17.59,17.59,0,0,0,4,2.83,17.38,17.38,0,0,0,4.64,1.61,15.82,15.82,0,0,0,4.9.21Z"/><path class="cls-9" d="M421.75,133.65a10.75,10.75,0,0,1,6-19.67"/><path class="cls-9" d="M437.62,121.93A10.75,10.75,0,0,1,427.76,137"/><polyline class="cls-9" points="423.95 121.71 422.61 128.49 426.36 128.4"/><rect class="cls-17" x="423.76" y="135.66" width="5.87" height="3.08" rx="1.21"/><polygon class="cls-18" points="401.96 133.67 393.19 145.16 408.23 145.16 401.96 133.67"/><path class="cls-19" d="M303.59,58.51h0A3.63,3.63,0,0,1,301.22,54l1-3.07a.43.43,0,0,1,.54-.27l6.13,1.93a.42.42,0,0,1,.27.53l-1,3.07a3.64,3.64,0,0,1-4.57,2.37"/><path class="cls-11" d="M485.84,234.21a3.64,3.64,0,1,1-3.64-3.63,3.64,3.64,0,0,1,3.64,3.63"/><path class="cls-14" d="M450.25,51.92a3.64,3.64,0,1,1-3.64-3.64,3.64,3.64,0,0,1,3.64,3.64"/><path class="cls-11" d="M478.7,203a.23.23,0,0,0-.1.32,4,4,0,0,0,7.29-3.33.23.23,0,0,0-.31-.12Z"/><ellipse class="cls-20" cx="323.75" cy="233.66" rx="11.36" ry="10.07" transform="translate(74.42 545.5) rotate(-87.17)"/><path class="cls-21" d="M315.32,218.88a7.88,7.88,0,0,1,4.2-1.7,18.11,18.11,0,0,1,10.12,1.92,15.59,15.59,0,0,1,4.44,3.29,9.14,9.14,0,0,1,1.61,2.77,13.51,13.51,0,0,1,.85,3,15.79,15.79,0,0,1-2.61,10.66,35.89,35.89,0,0,1-3.43,4.62c-.6.71-1.22,1.4-1.83,2.09l-.77.86c-.13.15-.26.29-.38.44l-.13.14-.08.1-.05.06a1,1,0,0,1-1.12.39,1,1,0,0,1-.67-1,20.55,20.55,0,0,0-5.81-18,18.91,18.91,0,0,0-4.43-3.26.84.84,0,0,1-.4-.55.91.91,0,0,1-1.06-.48C312.76,222.34,313.78,220.18,315.32,218.88Z"/><path class="cls-22" d="M331.47,228.72a10.29,10.29,0,1,1-9.12-6.62"/><path class="cls-22" d="M318.05,229.86l-1.41,5.67a1,1,0,0,0,.95,1.24l2.59.07"/></svg>