<svg id="Layer_1" data-name="Layer 1" xmlns="http://www.w3.org/2000/svg" viewBox="0 0 1440 800"><defs><style>.cls-1{fill:#3843d0;}.cls-2,.cls-9{fill:none;stroke-linecap:round;stroke-width:2.49px;}.cls-2{stroke:#fff;stroke-miterlimit:10;}.cls-3{fill:#66c8b7;}.cls-4{fill:#040038;}.cls-5{fill:#fec14d;}.cls-6{fill:#ffd782;}.cls-7{fill:#f7758e;}.cls-8{fill:#ffaebc;}.cls-9{stroke:#040038;stroke-linejoin:round;}</style></defs><rect class="cls-1" x="-54.93" y="-31.39" width="1549.85" height="851.45"/><path class="cls-2" d="M1187.27,342.25v321A37.24,37.24,0,0,1,1150,700.52H139.36a37.24,37.24,0,0,1-37.24-37.24V558.62a37.24,37.24,0,0,1,37.24-37.24h35.51a37.23,37.23,0,0,0,37.23-37.23v-95.9"/><path class="cls-2" d="M187.39,386.8H138.57a36.45,36.45,0,0,1-36.45-36.45V272.81"/><line class="cls-2" x1="-42.53" y1="283.05" x2="79.99" y2="283.05"/><path class="cls-3" d="M62.17,260.1h79.9a0,0,0,0,1,0,0v49.56a3.31,3.31,0,0,1-3.31,3.31H65.49a3.31,3.31,0,0,1-3.31-3.31V260.1A0,0,0,0,1,62.17,260.1Z"/><path class="cls-4" d="M62.17,260.1V249.31a3.06,3.06,0,0,1,3.07-3.06H139a3.06,3.06,0,0,1,3.06,3.06V260.1Z"/><line class="cls-2" x1="93.24" y1="301.31" x2="132.7" y2="301.31"/><circle class="cls-4" cx="79.99" cy="276.43" r="6.62"/><line class="cls-2" x1="93.24" y1="287.61" x2="132.7" y2="287.61"/><line class="cls-2" x1="93.24" y1="294.46" x2="132.7" y2="294.46"/><rect class="cls-2" x="93.24" y="272.81" width="39.47" height="6.82" rx="3.41"/><circle class="cls-5" cx="1187.27" cy="426.16" r="8.28"/><circle class="cls-3" cx="1187.27" cy="457.37" r="8.28"/><path class="cls-2" d="M1464.87,426.16H1328.18a51.37,51.37,0,0,0-51.37,51.36v325.8"/><rect class="cls-5" x="1269.8" y="561.94" width="16.56" height="16.56" rx="1.51"/><circle class="cls-3" cx="1382.92" cy="426.16" r="8.28"/><path class="cls-6" d="M1147.32,341.46h79.9a0,0,0,0,1,0,0V391a3.31,3.31,0,0,1-3.31,3.31h-73.27a3.31,3.31,0,0,1-3.31-3.31V341.46A0,0,0,0,1,1147.32,341.46Z"/><path class="cls-4" d="M1147.32,341.46V330.67a3.06,3.06,0,0,1,3.06-3.06h73.77a3.06,3.06,0,0,1,3.07,3.06v10.79Z"/><line class="cls-2" x1="1178.39" y1="382.67" x2="1217.85" y2="382.67"/><circle class="cls-4" cx="1165.14" cy="357.79" r="6.62"/><line class="cls-2" x1="1178.39" y1="368.97" x2="1217.85" y2="368.97"/><line class="cls-2" x1="1178.39" y1="375.82" x2="1217.85" y2="375.82"/><rect class="cls-2" x="1178.39" y="354.17" width="39.47" height="6.82" rx="3.41"/><circle class="cls-7" cx="152.72" cy="521.38" r="8.28"/><rect class="cls-3" x="93.84" y="606.46" width="16.56" height="16.56" rx="1.51"/><path class="cls-8" d="M1066.12,701.17l-12.68,7.44a.75.75,0,0,1-1.14-.65V693.07a.76.76,0,0,1,1.14-.65l12.68,7.45A.76.76,0,0,1,1066.12,701.17Z"/><circle class="cls-3" cx="212.1" cy="386.8" r="23.32"/><path class="cls-9" d="M203.12,381.43v6.82a4.69,4.69,0,0,0,4.49,4.86h0a4.69,4.69,0,0,0,4.49-4.86v-2a4.7,4.7,0,0,1,4.5-4.86h0a4.69,4.69,0,0,1,4.49,4.86v6.82"/></svg>