<svg id="Layer_1" data-name="Layer 1" xmlns="http://www.w3.org/2000/svg" viewBox="0 0 133 133"><defs><style>.cls-1{fill:#bdbff1;}.cls-11,.cls-2,.cls-5,.cls-6,.cls-7{fill:none;stroke-width:1.25px;}.cls-2{stroke:#bdbff1;}.cls-2,.cls-8,.cls-9{stroke-miterlimit:10;}.cls-3,.cls-8,.cls-9{fill:#fff;}.cls-4{fill:#f7758e;}.cls-5{stroke:#040038;}.cls-11,.cls-5,.cls-6,.cls-7{stroke-linecap:round;stroke-linejoin:round;}.cls-6{stroke:#f7758e;}.cls-7,.cls-8{stroke:#7a80be;}.cls-8,.cls-9{stroke-width:3.12px;}.cls-9{stroke:#2627a0;}.cls-10{fill:#363cd3;}.cls-11{stroke:#fff;}</style></defs><rect class="cls-1" x="15.7" y="31.35" width="103.55" height="69.39" rx="4.49" transform="translate(134.95 132.09) rotate(-180)"/><rect class="cls-2" x="10.08" y="26.26" width="114.78" height="79.57" rx="7.48" transform="translate(134.95 132.09) rotate(-180)"/><rect class="cls-3" x="21.26" y="37.04" width="40.13" height="27.52" rx="1.89"/><rect class="cls-4" x="19.54" y="52.38" width="13.79" height="5.97" rx="0.94" transform="translate(-28.92 81.79) rotate(-90)"/><rect class="cls-4" x="23.52" y="49" width="20.53" height="5.97" rx="1.15" transform="translate(-18.2 85.77) rotate(-90)"/><rect class="cls-4" x="36.68" y="54.82" width="8.9" height="5.97" rx="0.76" transform="translate(-16.67 98.93) rotate(-90)"/><line class="cls-5" x1="50.06" y1="40.29" x2="55.33" y2="40.29"/><line class="cls-5" x1="50.06" y1="42.37" x2="55.33" y2="42.37"/><line class="cls-5" x1="50.06" y1="44.46" x2="52.94" y2="44.46"/><line class="cls-5" x1="50.06" y1="49.59" x2="55.33" y2="49.59"/><line class="cls-5" x1="50.06" y1="51.67" x2="55.33" y2="51.67"/><line class="cls-5" x1="50.06" y1="53.76" x2="52.94" y2="53.76"/><rect class="cls-3" x="21.26" y="67.57" width="66.87" height="27.76" rx="2.21"/><rect class="cls-3" x="91.34" y="67.57" width="22.71" height="27.76" rx="2.21"/><path class="cls-6" d="M21.26,79.08c10.06,0,12.07,11.18,22.26,11.19,11.52,0,11.4-19.14,20.95-19.14,9,0,13.48,21.79,23.66,21.81"/><path class="cls-7" d="M21.26,91.37c10.54,0,12.07-9.92,22.26-9.92,10.61,0,12.75,11.49,21.4,11.49,10.4,0,13.29-23.5,22.7-23.5"/><path class="cls-8" d="M102.7,88.47a7,7,0,0,1,0-14"/><path class="cls-9" d="M102.7,88.47a7,7,0,0,0,0-14"/><line class="cls-5" x1="100.5" y1="80.41" x2="104.4" y2="80.41"/><line class="cls-5" x1="100.5" y1="82.49" x2="102.7" y2="82.49"/><rect class="cls-3" x="64.16" y="37.04" width="49.89" height="27.52" rx="1.89"/><path class="cls-10" d="M81.08,64.56h-15a1.89,1.89,0,0,1-1.89-1.89V38.93A1.89,1.89,0,0,1,66.05,37h15"/><line class="cls-5" x1="84.65" y1="43.27" x2="101.77" y2="43.27"/><line class="cls-5" x1="84.65" y1="45.36" x2="93.99" y2="45.36"/><line class="cls-5" x1="84.65" y1="50.28" x2="101.77" y2="50.28"/><line class="cls-5" x1="84.65" y1="52.37" x2="101.77" y2="52.37"/><line class="cls-5" x1="84.65" y1="57.29" x2="101.77" y2="57.29"/><line class="cls-5" x1="84.65" y1="59.38" x2="93.99" y2="59.38"/><line class="cls-11" x1="67.47" y1="43.68" x2="77.53" y2="43.68"/><line class="cls-11" x1="67.47" y1="47.44" x2="77.53" y2="47.44"/><line class="cls-11" x1="67.47" y1="51.21" x2="77.53" y2="51.21"/><line class="cls-6" x1="67.47" y1="51.21" x2="71.25" y2="51.21"/><line class="cls-6" x1="67.47" y1="47.44" x2="74.82" y2="47.44"/><line class="cls-6" x1="71.85" y1="43.68" x2="77.53" y2="43.68"/></svg>