<svg id="Layer_1" data-name="Layer 1" xmlns="http://www.w3.org/2000/svg" viewBox="0 0 133 133"><defs><style>.cls-1,.cls-3{fill:none;stroke-linecap:round;stroke-linejoin:round;stroke-width:1.47px;}.cls-1{stroke:#363cd3;}.cls-2{fill:#bdbff1;}.cls-3{stroke:#040038;}.cls-4{fill:#f7758e;}.cls-5{fill:#040038;}.cls-6{fill:#66c8b7;}</style></defs><path class="cls-1" d="M123.36,75.43v41.46a6.44,6.44,0,0,1-6.44,6.44H18.1A7.11,7.11,0,0,1,11,116.22V17.41A6.44,6.44,0,0,1,17.43,11H60.91a6.26,6.26,0,0,1,6.26,6.26V29.9"/><rect class="cls-2" x="20.74" y="21.47" width="92.88" height="90.67" rx="5.31" transform="translate(134.35 133.61) rotate(-180)"/><path class="cls-3" d="M103.22,37c0,40.15-24.75,69.34-72.58,69.34H16.87"/><circle class="cls-4" cx="123.36" cy="99.38" r="4.92"/><path class="cls-5" d="M119.64,82.05h7.44a.44.44,0,0,0,.4-.63l-3.72-8.1a.44.44,0,0,0-.8,0l-3.72,8.1A.44.44,0,0,0,119.64,82.05Z"/><path class="cls-5" d="M99.36,38.37h7.43a.44.44,0,0,0,.4-.62l-3.72-8.11a.44.44,0,0,0-.8,0L99,37.75A.44.44,0,0,0,99.36,38.37Z"/><rect class="cls-6" x="6.87" y="26.61" width="8.23" height="8.23" rx="0.72"/></svg>