<svg xmlns="http://www.w3.org/2000/svg" width="200" height="40" viewBox="0 0 200 40" fill="none"><path fill-rule="evenodd" clip-rule="evenodd" d="M151.762 11.9045C151.483 11.0461 151.083 10.4231 150.562 10.0342C150.042 9.64402 149.353 9.4502 148.5 9.4502C147.647 9.4502 146.959 9.64528 146.44 10.0342C145.918 10.4231 145.518 11.0461 145.239 11.9045C144.958 12.7629 144.771 13.8617 144.677 15.2021C144.575 16.8362 144.529 18.4734 144.538 20.1107C144.538 22.0414 144.584 23.6839 144.677 25.0382C144.771 26.3925 144.958 27.4925 145.239 28.3358C145.518 29.1816 145.918 29.7983 146.44 30.186C146.959 30.5762 147.647 30.77 148.5 30.77C149.353 30.77 150.042 30.5762 150.562 30.1872C151.083 29.7983 151.483 29.1803 151.762 28.3371C152.043 27.4913 152.228 26.3925 152.322 25.0382C152.415 23.6839 152.463 22.0414 152.463 20.1107C152.463 18.1787 152.415 16.5438 152.322 15.2021C152.229 13.8617 152.043 12.7629 151.762 11.9045" fill="#1D1D1B"></path><mask id="mask0_2512_258196" style="mask-type:alpha" maskUnits="userSpaceOnUse" x="114" y="0" width="87" height="40"><path d="M114.676 39.8908H200V0H114.676V39.8908Z" fill="white"></path></mask><g mask="url(#mask0_2512_258196)"><path fill-rule="evenodd" clip-rule="evenodd" d="M188.786 18.0851C185.158 18.0851 182.218 15.1311 182.218 11.4862C182.218 7.83995 185.158 4.88597 188.786 4.88597C192.412 4.88597 195.352 7.83995 195.352 11.4862C195.352 15.1311 192.412 18.0851 188.786 18.0851ZM178.519 25.7816C178.519 27.6053 178.265 29.1132 177.758 30.3063C177.251 31.5008 176.571 32.446 175.716 33.142C174.868 33.8368 173.867 34.3196 172.795 34.5504C171.678 34.7946 170.537 34.9161 169.393 34.9129C168.251 34.9156 167.112 34.8077 165.991 34.5907C164.927 34.3906 163.926 33.9426 163.068 33.283C162.215 32.626 161.534 31.6946 161.028 30.4876C160.521 29.2806 160.267 27.7123 160.267 25.7803V5.74938H166.031V25.7829C166.031 26.5066 166.077 27.1699 166.171 27.774C166.264 28.3769 166.438 28.9005 166.692 29.3422C166.944 29.7853 167.292 30.1339 167.732 30.3882C168.172 30.6437 168.726 30.7708 169.393 30.7708C170.086 30.7708 170.647 30.6437 171.074 30.3882C171.501 30.1339 171.841 29.784 172.094 29.3435C172.348 28.9005 172.522 28.3769 172.615 27.774C172.708 27.1699 172.755 26.5066 172.755 25.7829V5.74812H178.519V25.7829V25.7816ZM157.926 26.1428C157.726 27.9678 157.285 29.5361 156.604 30.8501C155.955 32.1324 154.928 33.1853 153.663 33.867C152.383 34.5643 150.661 34.9116 148.5 34.9116C146.339 34.9116 144.617 34.5643 143.337 33.867C142.071 33.1856 141.044 32.1327 140.394 30.8501C139.715 29.5361 139.274 27.9678 139.074 26.1428C138.864 24.1385 138.764 22.1242 138.773 20.109C138.773 17.9366 138.874 15.9329 139.075 14.0953C139.274 12.259 139.715 10.6832 140.394 9.36918C141.054 8.07794 142.077 7.0081 143.337 6.29185C144.617 5.5543 146.339 5.18426 148.5 5.18426C150.661 5.18426 152.383 5.5543 153.663 6.29185C154.923 7.00816 155.946 8.07798 156.605 9.36918C157.285 10.6832 157.726 12.259 157.927 14.0953C158.126 15.9329 158.225 17.9366 158.225 20.109C158.225 22.3091 158.126 24.3203 157.926 26.1428ZM131.736 34.4699H125.973V23.1674L118.569 5.74687H125.052L128.815 16.8492H128.894L132.897 5.74812H139.141L131.736 23.1649V34.4686V34.4699ZM114.676 39.892H200V0H114.676V39.8908V39.892Z" fill="#1D1D1B"></path></g><path fill-rule="evenodd" clip-rule="evenodd" d="M190.631 11.0559L189.215 9.6337L191.226 7.6111C190.498 7.14465 189.651 6.89697 188.786 6.89746C186.268 6.89746 184.219 8.95657 184.219 11.4864C184.219 14.0162 186.268 16.0753 188.786 16.0753C191.303 16.0753 193.351 14.0162 193.351 11.4864C193.351 10.5852 193.09 9.7432 192.641 9.03334L190.63 11.0559H190.631ZM60.7826 11.9043C60.5019 11.0459 60.103 10.4229 59.5819 10.0339C59.0608 9.64377 58.3736 9.44995 57.5203 9.44995C56.6657 9.44995 55.9797 9.64503 55.4586 10.0339C54.9388 10.4229 54.5386 11.0459 54.2579 11.9043C53.9785 12.7626 53.791 13.8614 53.6978 15.2018C53.5955 16.836 53.549 18.4732 53.5581 20.1105C53.5581 22.0412 53.6047 23.6837 53.6978 25.038C53.791 26.3923 53.9785 27.4923 54.2579 28.3356C54.5386 29.1814 54.9376 29.7981 55.4586 30.1857C55.9797 30.5759 56.6669 30.7697 57.5203 30.7697C58.3736 30.7697 59.0608 30.5759 59.5819 30.187C60.1017 29.7981 60.5019 29.1801 60.7826 28.3368C61.062 27.491 61.2483 26.3923 61.3427 25.038C61.4358 23.6837 61.4824 22.0412 61.4824 20.1105C61.4824 18.1785 61.4358 16.5435 61.3427 15.2018C61.2483 13.8614 61.062 12.7626 60.7826 11.9043ZM39.1406 22.4628C38.742 22.1226 38.2684 21.8819 37.7586 21.7605C37.1822 21.6214 36.5908 21.5538 35.9978 21.5591H33.5171V30.2084H35.7587C37.1457 30.2084 38.2671 29.9 39.1205 29.2833C39.9751 28.6666 40.4017 27.5263 40.4017 25.8636C40.4017 25.0329 40.2885 24.3407 40.0619 23.7919C39.8636 23.2833 39.5484 22.8284 39.1419 22.4641L39.1406 22.4628ZM38.6598 16.6707C39.3936 16.0942 39.7598 15.1226 39.7598 13.7544C39.7598 12.3863 39.4263 11.4209 38.7592 10.8583C38.0922 10.2945 37.0387 10.0125 35.5976 10.0125H33.5171V17.5353H35.1583C36.7593 17.5353 37.9273 17.2471 38.6611 16.6707H38.6598ZM14.5849 10.7375L11.8235 23.651H17.4269L14.6629 10.7363L14.5849 10.7375Z" fill="#1D1D1B"></path><mask id="mask1_2512_258196" style="mask-type:alpha" maskUnits="userSpaceOnUse" x="0" y="0" width="113" height="40"><path d="M112.696 39.8908H0V0H112.696V39.8908Z" fill="white"></path></mask><g mask="url(#mask1_2512_258196)"><path fill-rule="evenodd" clip-rule="evenodd" d="M107.411 10.4956H101.168V34.4699H95.4035V10.4956H89.1607V5.74813H107.411V10.4956V10.4956ZM87.595 25.7816C87.595 27.6054 87.3408 29.1132 86.8336 30.3064C86.3263 31.5008 85.6467 32.446 84.7933 33.142C83.9448 33.8369 82.943 34.3197 81.8708 34.5504C80.7533 34.7946 79.6126 34.9161 78.4688 34.9129C77.327 34.9157 76.1876 34.8078 75.0667 34.5907C74.0038 34.3902 73.003 33.9422 72.1454 33.283C71.2896 32.626 70.6099 31.6946 70.104 30.4876C69.5967 29.2806 69.3438 27.7123 69.3438 25.7803V5.74938H75.1082V25.7829C75.1082 26.5066 75.1536 27.1699 75.2467 27.774C75.3398 28.3781 75.5135 28.8992 75.7678 29.3422C76.0207 29.7853 76.3681 30.1339 76.8074 30.3882C77.2479 30.6437 77.8017 30.7708 78.4688 30.7708C79.1623 30.7708 79.7223 30.6437 80.1503 30.3882C80.577 30.1339 80.9168 29.784 81.1698 29.3435C81.424 28.8992 81.5977 28.3769 81.6908 27.774C81.784 27.1699 81.8305 26.5066 81.8305 25.7829V5.74813H87.595V25.7829V25.7816ZM66.9461 26.1428C66.746 27.9678 66.3054 29.5361 65.6245 30.8501C64.9753 32.1326 63.9488 33.1855 62.6831 33.867C61.4031 34.5643 59.6813 34.9116 57.5203 34.9116C55.3592 34.9116 53.6374 34.5643 52.3574 33.867C51.0914 33.1855 50.0645 32.1327 49.4147 30.8501C48.7351 29.5361 48.2946 27.9678 48.0944 26.1428C47.8852 24.1385 47.7852 22.1242 47.7949 20.109C47.7949 17.9366 47.8943 15.9329 48.0944 14.0953C48.2958 12.2577 48.7351 10.6832 49.416 9.36918C50.0748 8.07811 51.0974 7.0083 52.3574 6.29185C53.6374 5.5543 55.3592 5.18426 57.5203 5.18426C59.6813 5.18426 61.4031 5.5543 62.6831 6.29185C63.9437 7.00799 64.9667 8.07785 65.6258 9.36918C66.3054 10.6832 66.746 12.259 66.9473 14.0953C67.1462 15.9329 67.2469 17.9366 67.2469 20.109C67.2469 22.3091 67.1462 24.3203 66.9461 26.1428V26.1428ZM45.9649 29.2818C45.6827 30.2799 45.1682 31.1968 44.4633 31.9577C43.756 32.7216 42.8359 33.3308 41.7019 33.7877C40.5666 34.2433 39.1595 34.4711 37.4792 34.4711H27.7526V5.74813H37.3987C38.573 5.74813 39.6604 5.86895 40.661 6.11061C41.6616 6.35226 42.5213 6.75376 43.2425 7.31763C43.9624 7.88023 44.5225 8.63163 44.924 9.57056C45.3242 10.5095 45.5243 11.6611 45.5243 13.0293C45.5243 14.5849 45.1644 15.919 44.4432 17.0317C43.7233 18.1455 42.6421 18.902 41.201 19.3047V19.3853C42.8019 19.5993 44.0694 20.2839 45.0033 21.4368C45.9372 22.5897 46.4041 24.1316 46.4041 26.0623C46.4041 27.1887 46.2569 28.2624 45.9636 29.2806L45.9649 29.2818ZM19.7478 34.4711L18.4262 28.397H10.8241L9.50259 34.4711H3.49897L11.0633 5.74938H18.1883L25.7527 34.4711H19.749H19.7478ZM0 39.8908H112.696V0H0V39.8908Z" fill="#1D1D1B"></path></g></svg>