<svg xmlns="http://www.w3.org/2000/svg" width="116" height="45" viewBox="0 0 116 45" fill="none"><g clip-path="url(#clip0_2512_256020)"><path d="M114.999 38.7555C114.897 38.5733 114.726 38.4389 114.525 38.3815C114.324 38.324 114.108 38.3481 113.925 38.4485C113.093 38.9089 110.322 39.8297 109.447 40.1504C106.163 40.686 102.141 40.5679 100.161 35.7721C99.5655 34.3265 98.9747 33.0251 97.9541 31.6578C96.7985 30.1109 93.0218 28.2724 89.4922 31.5903C88.6471 32.3857 87.914 33.2922 87.313 34.2851C87.0736 34.6626 86.8526 35.0447 86.6424 35.4238C86.6286 35.3747 86.6163 35.3256 86.6025 35.2703C86.2955 34.1961 85.2934 30.2275 81.1468 29.5799C80.5744 29.5354 78.2679 29.273 75.0758 32.7765C74.0045 33.9685 73.0295 35.2437 72.1601 36.5901C72.1601 36.5901 72.1601 36.5901 72.1601 36.5901C72.0066 35.878 71.824 35.2335 71.6398 34.9496C68.9281 30.7769 64.8184 34.1071 63.0459 35.3516C59.0835 38.1523 57.2419 41.8938 54.8218 33.3827C54.5096 32.1768 54.2596 30.9557 54.0729 29.7242C56.4746 25.6328 61.3854 13.1824 58.5709 4.83704C58.3883 4.30912 57.4061 1.61431 55.0505 1.78926C54.7144 1.82149 52.0272 1.53911 50.5632 9.03732C49.1912 16.2869 49.489 25.6298 49.825 28.7251C49.8634 29.0458 49.9325 29.6812 50.0583 30.5114C47.7364 34.483 44.6871 38.9995 42.8302 39.2112C40.4162 39.4844 41.0899 37.2607 39.6167 32.3177C39.3619 31.6762 38.5424 28.6223 34.8839 28.7727C33.0945 28.8479 31.2008 29.3144 28.6057 32.1489C24.4039 36.7528 14.814 43.6586 7.95416 39.3156C7.20987 38.737 3.50373 35.7077 4.86955 26.6334C5.28631 24.1348 6.02606 21.7009 7.07021 19.393C8.07592 17.1404 9.34026 15.0124 10.8377 13.0519C17.8817 4.39813 23.9849 3.38374 25.1896 3.44052C28.2788 3.44052 29.0814 7.43824 29.0784 7.4014C29.1323 7.72004 29.3051 8.00636 29.5619 8.20262C29.8186 8.39888 30.1402 8.49047 30.4619 8.45893C30.7835 8.42739 31.0812 8.27506 31.2949 8.03266C31.5087 7.79027 31.6225 7.47584 31.6136 7.15279C31.5977 6.2897 31.4208 5.43717 31.0918 4.63907C30.6084 3.06607 29.2149 1.6051 28.4062 1.06645C24.5328 -1.62837 15.7931 0.544672 7.3311 10.3095C5.56771 12.5198 4.08472 14.9399 2.91597 17.5146C1.69151 20.1831 0.826613 23.0023 0.343927 25.8983C-1.9396 41.9889 7.85595 44.5487 9.52562 44.8602C18.1103 45.8623 24.433 41.1909 27.4225 38.3258C28.4967 43.697 33.8679 43.7599 36.2267 41.3352C36.8278 40.6966 37.3198 39.9635 37.683 39.1652C39.078 44.2418 43.553 42.5138 44.0794 42.2897C46.5732 41.3551 49.182 37.8823 51.0251 34.9711C52.196 38.9611 54.4566 43.2427 58.8026 42.7839C61.4222 42.7209 67.9843 35.746 68.5936 36.6545C69.1967 37.4065 69.3609 38.7892 69.321 40.8548C69.2811 42.9204 70.9185 43.0202 71.6613 42.8161C72.8061 42.4984 73.5289 40.2379 74.7306 38.2736C75.4655 37.0403 76.3292 35.8885 77.3072 34.8375C77.7799 34.3296 79.9161 32.1258 81.4123 32.8747C82.9086 33.6236 83.0697 35.1613 83.1726 36.0115C83.2754 36.8617 83.2892 37.7687 83.326 38.7601C83.283 42.1777 84.8883 42.6596 85.341 42.7854C89.0563 43.7891 89.285 36.8003 92.012 34.2129C92.2668 33.9505 94.647 31.4936 96.0021 35.5036C97.9649 42.7486 104.008 45.4587 112.143 41.4288C113.653 40.6814 113.95 40.3883 114.774 39.776C114.927 39.661 115.034 39.4945 115.075 39.307C115.115 39.1195 115.087 38.9237 114.995 38.7555H114.999ZM35.4072 37.2853C33.7835 40.6262 30.2094 40.4236 30.2585 36.7835C30.3107 33.0528 34.956 30.7094 36.2006 33.306C36.2993 33.5281 36.3794 33.7581 36.44 33.9935C36.2236 34.6795 36.1331 35.7844 35.4072 37.2853ZM55.4003 5.89286C56.0817 7.15893 57.5488 15.1007 53.5373 23.7667C53.5266 23.4905 53.5158 23.2127 53.5097 22.9365C53.4698 8.84089 55.2622 5.64886 55.4003 5.89286Z" fill="#4276CE"></path></g><defs><clipPath id="clip0_2512_256020"><rect width="115.097" height="45" fill="white"></rect></clipPath></defs></svg>