<svg width="144" height="45" viewBox="0 0 144 45" fill="none" xmlns="http://www.w3.org/2000/svg">
<g clip-path="url(#clip0_192_36729)">
<path d="M47.3992 9.82812H55.0506L60.8626 25.5064H60.9554L66.3414 9.82812H73.4725L64.4064 32.8738H56.897" fill="#FC9E15"/>
<path d="M19.6467 15.4931H12.6562V23.2022C12.6562 24.51 12.7716 26.182 14.0048 26.9358C15.2865 27.502 16.7161 27.6415 18.083 27.3338C18.6408 27.2941 19.1781 27.1068 19.6397 26.7909V32.6972C18.7518 32.9733 17.839 33.1617 16.9144 33.2597C11.9137 33.7645 4.905 32.9039 4.905 26.4563V15.4875H0V9.82595H4.91063V3.02673H12.6562V9.82735H19.6453V15.4945L19.6467 15.4931ZM39.4748 9.82595H46.4639V32.873H39.4748V9.82735V9.82595ZM39.1936 3.7636C39.1839 3.26339 39.2741 2.76628 39.4588 2.30133C39.6436 1.83638 39.9192 1.41294 40.2695 1.05577C40.6198 0.698602 41.0379 0.414875 41.4991 0.221186C41.9604 0.0274965 42.4557 -0.0722656 42.956 -0.0722656C43.4563 -0.0722656 43.9516 0.0274965 44.4129 0.221186C44.8742 0.414875 45.2922 0.698602 45.6425 1.05577C45.9929 1.41294 46.2685 1.83638 46.4532 2.30133C46.6379 2.76628 46.7281 3.26339 46.7184 3.7636C46.6994 4.74923 46.2945 5.68806 45.5907 6.37837C44.8869 7.06868 43.9404 7.45538 42.9546 7.45538C41.9688 7.45538 41.0223 7.06868 40.3185 6.37837C39.6148 5.68806 39.2098 4.74923 39.1908 3.7636" fill="#1391D2"/>
<path d="M126.737 21.3686C126.737 24.4834 128.55 27.1764 131.867 27.1764C135.184 27.1764 136.996 24.4834 136.996 21.3672C136.996 18.2509 135.186 15.5551 131.867 15.5551C128.548 15.5551 126.738 18.2509 126.737 21.3686ZM120.33 21.3686C120.215 18.914 120.884 16.4864 122.241 14.4378C123.598 12.3892 125.572 10.8262 127.878 9.97526C130.183 9.12436 132.699 9.02985 135.062 9.70544C137.424 10.381 139.51 11.7916 141.017 13.7326C142.411 15.7179 143.238 18.0455 143.408 20.4652C143.578 22.8849 143.086 25.3052 141.984 27.4661C140.725 29.7499 138.731 31.5408 136.326 32.5476C133.921 33.5543 131.246 33.7176 128.736 33.0109C126.226 32.3043 124.029 30.7692 122.502 28.6554C120.976 26.5415 120.209 23.9734 120.327 21.3686H120.33ZM112.838 9.80637V12.9001H112.731C112.503 12.5768 112.231 12.2867 111.923 12.0381C107.348 8.10059 99.5316 8.8909 96.5743 14.3992C95.1751 17.3853 94.7217 20.7276 95.2749 23.9786C95.6729 26.8993 96.7515 29.9903 99.3235 31.682C100.758 32.5999 102.388 33.1684 104.082 33.3419C105.776 33.5153 107.487 33.2887 109.077 32.6804C110.235 32.2264 111.245 31.4614 111.995 30.4698H112.078V32.7029C112.131 33.4365 112.036 34.1732 111.798 34.8692C111.56 35.5652 111.185 36.2063 110.694 36.7543C108.657 38.8539 104.763 38.7231 102.146 38.0115C100.683 37.6418 99.2967 37.0198 98.048 36.1736L94.6013 41.2361C96.2424 42.4733 98.1077 43.3807 100.094 43.9079C105.133 45.2425 112.108 45.2129 116.002 41.2065C118.197 38.9481 119.095 35.6378 119.095 31.2784V9.80356H112.84L112.838 9.80637ZM111.071 25.5943C110.584 26.1125 109.996 26.5253 109.343 26.8076C108.69 27.0898 107.986 27.2354 107.274 27.2354C106.563 27.2354 105.859 27.0898 105.206 26.8076C104.553 26.5253 103.965 26.1125 103.478 25.5943C102.568 24.3761 102.076 22.8962 102.076 21.3756C102.076 19.855 102.568 18.3751 103.478 17.1568C103.965 16.6387 104.553 16.2258 105.206 15.9436C105.859 15.6614 106.563 15.5158 107.274 15.5158C107.986 15.5158 108.69 15.6614 109.343 15.9436C109.996 16.2258 110.584 16.6387 111.071 17.1568C111.982 18.3749 112.474 19.8549 112.474 21.3756C112.474 22.8963 111.982 24.3763 111.071 25.5943C110.173 26.6673 111.973 24.5214 111.071 25.5943Z" fill="#E3403D"/>
<path d="M21.5353 9.82818H28.7142V13.6054H28.786C29.3852 12.3202 30.3138 11.2164 31.4775 10.4061C33.4033 9.35949 35.6471 9.0591 37.7803 9.5624V16.0311C36.3333 15.6402 33.2803 15.0257 31.1471 16.3279C29.7971 17.1519 28.7128 18.1391 28.7128 23.2593V32.8766H21.5339V9.82818H21.5353Z" fill="#1391D2"/>
<path d="M80.145 23.6878C78.7387 24.5597 77.7783 26.2598 79.072 27.5901C80.3376 28.8867 82.6186 28.7559 84.1795 28.2103C85.0467 27.9756 85.8156 27.4684 86.3726 26.7635C86.9296 26.0586 87.2454 25.1933 87.2733 24.2953V22.8637C87.2972 22.8637 81.9379 22.5712 80.145 23.6864V23.6878ZM87.2747 30.0412H87.1439C86.373 31.196 85.2823 32.101 84.0051 32.6456C78.9947 34.7044 71.7033 32.6189 71.7004 26.3287C71.7004 19.7826 78.8301 18.4453 84.0529 18.2962C85.1154 18.2668 86.1781 18.2509 87.2409 18.2484C87.2639 17.6786 87.1543 17.1113 86.9208 16.591C86.6873 16.0708 86.3362 15.6118 85.8951 15.2503C84.9772 14.5895 83.8903 14.2032 82.7611 14.1365C81.632 14.0697 80.5072 14.3253 79.5178 14.8734C78.5417 15.3732 77.6686 16.0525 76.9443 16.8759L73.1643 13.0059C74.4976 11.7713 76.0745 10.8295 77.7937 10.2412C80.9805 9.11225 84.4355 8.97983 87.6993 9.86156C89.1158 10.2792 90.387 11.0849 91.3692 12.1876C92.3514 13.2904 93.0053 14.646 93.2568 16.1011C93.5795 17.7734 93.7275 19.4747 93.6984 21.1776V32.8734H87.2761V30.0412H87.2747Z" fill="#FC9E15"/>
</g>
<defs>
<clipPath id="clip0_192_36729">
<rect width="143.438" height="45" fill="white"/>
</clipPath>
</defs>
</svg>
