<svg xmlns="http://www.w3.org/2000/svg" width="100" height="100" viewBox="0 0 100 100" fill="none"><path fill-rule="evenodd" clip-rule="evenodd" d="M56.4702 51.3427C55.3076 50.6299 55.5524 48.7761 56.7761 48.1739C62.6639 45.2767 66.7155 39.2177 66.7155 32.2124C66.7155 22.3934 58.7557 14.4336 48.9368 14.4336C39.1178 14.4336 31.158 22.3934 31.158 32.2124C31.158 39.2175 35.2094 45.2764 41.0969 48.1737C42.3206 48.7759 42.5654 50.6296 41.4027 51.3424L29.2522 58.7922C25.5236 61.0783 23.0966 64.9499 22.6243 69.2407C22.531 70.088 23.2309 70.7814 24.0834 70.7814H73.7891C74.6416 70.7814 75.3415 70.088 75.2482 69.2407C74.7759 64.9499 72.3489 61.0783 68.6203 58.7922L56.4702 51.3427Z" fill="#3843D0"></path><path d="M15.9247 75.6561C16.1557 74.945 17.1617 74.945 17.3927 75.6561L18.5886 79.3366C18.6919 79.6546 18.9883 79.8699 19.3226 79.8699L23.1925 79.8699C23.9402 79.8699 24.251 80.8266 23.6462 81.266L20.5154 83.5407C20.2449 83.7373 20.1317 84.0856 20.235 84.4036L21.4309 88.0841C21.6619 88.7952 20.8481 89.3865 20.2432 88.947L17.1124 86.6723C16.8419 86.4758 16.4756 86.4758 16.2051 86.6723L13.0743 88.947C12.4694 89.3865 11.6555 88.7952 11.8866 88.0841L13.0824 84.4036C13.1858 84.0856 13.0726 83.7373 12.8021 83.5407L9.67126 81.266C9.06639 80.8266 9.37725 79.8699 10.1249 79.8699L13.9948 79.8699C14.3292 79.8699 14.6255 79.6546 14.7288 79.3366L15.9247 75.6561Z" fill="#FEC14D"></path><path d="M32.5958 75.6561C32.8268 74.945 33.8328 74.945 34.0638 75.6561L35.2597 79.3366C35.363 79.6546 35.6593 79.8699 35.9937 79.8699L39.8636 79.8699C40.6113 79.8699 40.9221 80.8266 40.3173 81.266L37.1864 83.5407C36.9159 83.7373 36.8028 84.0856 36.9061 84.4036L38.1019 88.0841C38.333 88.7952 37.5191 89.3865 36.9143 88.947L33.7835 86.6723C33.5129 86.4758 33.1467 86.4758 32.8761 86.6723L29.7453 88.947C29.1405 89.3865 28.3266 88.7952 28.5577 88.0841L29.7535 84.4036C29.8568 84.0856 29.7437 83.7373 29.4732 83.5407L26.3423 81.266C25.7375 80.8266 26.0483 79.8699 26.796 79.8699L30.6659 79.8699C31.0003 79.8699 31.2966 79.6546 31.3999 79.3366L32.5958 75.6561Z" fill="#FEC14D"></path><path d="M49.2669 75.6561C49.4979 74.945 50.5039 74.945 50.7349 75.6561L51.9308 79.3366C52.0341 79.6546 52.3304 79.8699 52.6648 79.8699L56.5347 79.8699C57.2823 79.8699 57.5932 80.8266 56.9883 81.266L53.8575 83.5407C53.587 83.7373 53.4738 84.0856 53.5772 84.4036L54.773 88.0841C55.0041 88.7952 54.1902 89.3865 53.5854 88.947L50.4545 86.6723C50.184 86.4758 49.8177 86.4758 49.5472 86.6723L46.4164 88.947C45.8115 89.3865 44.9977 88.7952 45.2287 88.0841L46.4246 84.4036C46.5279 84.0856 46.4147 83.7373 46.1442 83.5407L43.0134 81.266C42.4086 80.8266 42.7194 79.8699 43.4671 79.8699L47.337 79.8699C47.6713 79.8699 47.9677 79.6546 48.071 79.3366L49.2669 75.6561Z" fill="#FEC14D"></path><path d="M65.9358 75.6561C66.1668 74.945 67.1728 74.945 67.4038 75.6561L68.5997 79.3366C68.703 79.6546 68.9994 79.8699 69.3337 79.8699L73.2036 79.8699C73.9513 79.8699 74.2622 80.8266 73.6573 81.266L70.5265 83.5407C70.256 83.7373 70.1428 84.0856 70.2461 84.4036L71.442 88.0841C71.673 88.7952 70.8592 89.3865 70.2543 88.947L67.1235 86.6723C66.853 86.4758 66.4867 86.4758 66.2162 86.6723L63.0854 88.947C62.4805 89.3865 61.6666 88.7952 61.8977 88.0841L63.0936 84.4036C63.1969 84.0856 63.0837 83.7373 62.8132 83.5407L59.6824 81.266C59.0775 80.8266 59.3884 79.8699 60.136 79.8699L64.0059 79.8699C64.3403 79.8699 64.6366 79.6546 64.7399 79.3366L65.9358 75.6561Z" fill="#FEC14D"></path><path d="M82.6058 75.6561C82.8368 74.945 83.8428 74.945 84.0738 75.6561L85.2697 79.3366C85.373 79.6546 85.6694 79.8699 86.0037 79.8699L89.8736 79.8699C90.6213 79.8699 90.9321 80.8266 90.3273 81.266L87.1965 83.5407C86.926 83.7373 86.8128 84.0856 86.9161 84.4036L88.1119 88.0841C88.343 88.7952 87.5291 89.3865 86.9243 88.947L83.7935 86.6723C83.523 86.4758 83.1567 86.4758 82.8862 86.6723L79.7553 88.947C79.1505 89.3865 78.3366 88.7952 78.5677 88.0841L79.7635 84.4036C79.8669 84.0856 79.7537 83.7373 79.4832 83.5407L76.3523 81.266C75.7475 80.8266 76.0583 79.8699 76.806 79.8699L80.6759 79.8699C81.0103 79.8699 81.3066 79.6546 81.4099 79.3366L82.6058 75.6561Z" fill="#FEC14D"></path><path d="M72.5492 32.691C72.5492 19.65 61.9773 9.07812 48.9363 9.07812C35.8952 9.07812 25.3234 19.65 25.3234 32.691" stroke="black" stroke-width="2.22708" stroke-linecap="round"></path><path d="M42.5927 33.3782L47.1434 38.103C47.4633 38.4352 48.0014 38.4144 48.2948 38.0585L57.4052 27.0059" stroke="white" stroke-width="2" stroke-linecap="round"></path></svg>