<svg xmlns="http://www.w3.org/2000/svg" width="100" height="100" viewBox="0 0 100 100" fill="none"><rect x="34.8118" y="14.4302" width="47.3798" height="29.6096" rx="4" fill="#FEC14D"></rect><path d="M22.3866 84.9843V76.865C22.3866 76.2502 22.9361 75.781 23.5432 75.8773L30.5511 76.9888C31.3579 77.1168 31.6792 78.1059 31.1015 78.6836L24.0937 85.6914C23.4637 86.3214 22.3866 85.8752 22.3866 84.9843Z" fill="#3843D0"></path><path d="M76.0491 49.2729V41.1535C76.0491 40.5388 75.4996 40.0696 74.8924 40.1659L67.8846 41.2774C67.0777 41.4054 66.7565 42.3945 67.3342 42.9722L74.342 49.98C74.9719 50.6099 76.0491 50.1638 76.0491 49.2729Z" fill="#FEC14D"></path><rect x="15.0883" y="50.8164" width="47.3798" height="29.6096" rx="4" fill="#3843D0"></rect><path d="M58.5008 32.749H42.3027" stroke="#3843D0" stroke-width="2" stroke-linecap="round"></path><path d="M38.6258 68.5107H22.4277" stroke="white" stroke-width="2" stroke-linecap="round"></path><path d="M55.1635 62.415H22.4277" stroke="white" stroke-width="2" stroke-linecap="round"></path><path d="M75.0385 26.1465H42.3027" stroke="#3843D0" stroke-width="2" stroke-linecap="round"></path><path d="M18.5616 48.2007V29.6494C18.5616 26.3357 21.2479 23.6494 24.5616 23.6494H32.1059" stroke="#040237" stroke-width="2" stroke-linecap="round"></path><circle cx="18.5797" cy="36.1578" r="4.48597" fill="#FEC14D"></circle><path d="M75.0287 61.0495C75.7478 60.1342 77.1342 60.1342 77.8533 61.0495V61.0495C78.3461 61.6767 79.1935 61.9038 79.9339 61.607V61.607C81.0143 61.1739 82.215 61.8671 82.3802 63.0193V63.0193C82.4933 63.8089 83.1137 64.4292 83.9033 64.5424V64.5424C85.0555 64.7076 85.7487 65.9082 85.3156 66.9886V66.9886C85.0188 67.729 85.2459 68.5764 85.8731 69.0693V69.0693C86.7883 69.7884 86.7883 71.1748 85.8731 71.8939V71.8939C85.2459 72.3867 85.0188 73.2341 85.3156 73.9745V73.9745C85.7487 75.0549 85.0555 76.2556 83.9033 76.4207V76.4207C83.1137 76.5339 82.4933 77.1543 82.3802 77.9438V77.9438C82.215 79.0961 81.0143 79.7893 79.9339 79.3562V79.3562C79.1935 79.0594 78.3461 79.2865 77.8533 79.9137V79.9137C77.1342 80.8289 75.7478 80.8289 75.0287 79.9137V79.9137C74.5359 79.2865 73.6884 79.0594 72.9481 79.3562V79.3562C71.8676 79.7893 70.667 79.0961 70.5018 77.9438V77.9438C70.3887 77.1543 69.7683 76.5339 68.9787 76.4207V76.4207C67.8265 76.2556 67.1333 75.0549 67.5664 73.9745V73.9745C67.8632 73.2341 67.6361 72.3867 67.0089 71.8939V71.8939C66.0936 71.1748 66.0936 69.7884 67.0089 69.0693V69.0693C67.6361 68.5764 67.8632 67.729 67.5664 66.9886V66.9886C67.1333 65.9082 67.8265 64.7076 68.9787 64.5424V64.5424C69.7683 64.4292 70.3887 63.8089 70.5018 63.0193V63.0193C70.667 61.8671 71.8676 61.1739 72.9481 61.607V61.607C73.6884 61.9038 74.5359 61.6767 75.0287 61.0495V61.0495Z" fill="#FEC14D"></path><path d="M72.4323 70.7586L74.4422 72.8454C74.8568 73.2759 75.5539 73.2489 75.9341 72.7877L80.4496 67.3096" stroke="#040237" stroke-width="2" stroke-linecap="round"></path></svg>