<svg xmlns="http://www.w3.org/2000/svg" width="200" height="31" viewBox="0 0 200 31" fill="none"><path d="M42.3582 15.3092C48.0515 12.8041 51.7686 9.04367 51.9714 4.87057C51.9714 4.87057 50.4683 3.71263 45.6158 1.9275C41.3534 0.359548 38.1031 0 38.1031 0L38.1175 9.29779C38.1175 10.6864 37.5597 12.1048 36.5072 13.3601C33.2857 12.5824 29.7263 12.1462 25.992 12.1444H25.9893C22.2532 12.1462 18.6902 12.5833 15.4642 13.3628C14.4117 12.1075 13.853 10.6882 13.853 9.29779L13.8665 0C13.8665 0 10.6179 0.358647 6.35382 1.9275C1.50037 3.71263 0 4.87057 0 4.87057C0.200951 9.04458 3.91989 12.8077 9.61949 15.3119C3.92439 17.817 0.207258 21.5783 0.00630784 25.7496C0.00630784 25.7496 1.50848 26.9084 6.36103 28.6936C10.6233 30.2615 13.8737 30.6202 13.8737 30.6202L13.8593 21.3233C13.8593 19.9337 14.4162 18.5145 15.4705 17.2601C18.692 18.0396 22.2505 18.4748 25.9848 18.4748H25.9857C29.7236 18.4748 33.2884 18.0378 36.5117 17.2565C37.5651 18.5118 38.1229 19.9337 38.1229 21.3233L38.1103 30.6202C38.1103 30.6202 41.3598 30.2615 45.623 28.6936C50.4764 26.9093 51.9777 25.7496 51.9777 25.7496C51.7749 21.5756 48.056 17.8134 42.3582 15.3092ZM25.9866 17.4016H25.9821L25.8758 17.3989C22.5056 17.3989 19.7571 16.5735 17.7404 15.3119C19.7562 14.0476 22.5065 13.2213 25.8839 13.2213L25.9875 13.2204H25.992L26.0983 13.2213C29.4712 13.2213 32.2188 14.0467 34.2346 15.3083C32.2188 16.5717 29.4685 17.3989 26.092 17.3989" fill="black"></path><path d="M66.7552 19.3401C63.5781 19.3401 63.522 16.917 63.522 15.9824V11.5726C63.522 11.3061 63.4992 10.9502 64.0655 10.9502H65.7084C66.2415 10.9502 66.2082 11.3307 66.2082 11.5726V15.9824C66.2082 16.2963 66.266 17.1396 67.4215 17.1396H70.1761C71.3105 17.1396 71.3754 16.2963 71.3754 15.9824V11.5726C71.3754 11.3307 71.3438 10.9502 71.8751 10.9502H73.5285C74.1299 10.9502 74.0773 11.3307 74.0773 11.5726V15.9824C74.0773 16.917 74.0212 19.3401 70.8301 19.3401" fill="black"></path><path d="M81.9751 18.8065C80.853 17.2969 79.2521 15.3927 77.6197 13.3833V18.7504C77.6197 18.9854 77.6776 19.3396 77.12 19.3396H75.5893C75.0352 19.3396 75.1001 18.9854 75.1001 18.7504V11.5756C75.1001 11.3319 75.0756 10.9531 75.5911 10.9531H78.5771C79.4222 10.9531 80.6233 12.6539 81.4123 13.7761C82.0207 14.6317 83.1446 15.9187 83.8986 16.8848V11.5756C83.8986 11.3319 83.8635 10.9531 84.4211 10.9531H86.0868C86.6216 10.9531 86.5865 11.3319 86.5865 11.5756V19.3431H83.5216C82.8641 19.3431 82.5748 19.3851 81.9769 18.8083" fill="black"></path><path d="M94.6041 17.1343C95.9472 17.1343 95.849 15.8438 95.849 15.2547C95.849 13.2769 95.2932 13.1997 94.4042 13.1997H90.1838V17.1343H94.6041ZM87.5906 19.3436V10.9659H94.9969C95.4492 10.9659 98.4808 10.9133 98.4808 14.0975C98.4808 17.3553 98.835 19.3436 95.0617 19.3436H91.071L90.2049 17.5885V19.3418" fill="black"></path><path d="M101.381 11.0176H108.202C108.781 11.0176 108.702 11.3946 108.702 12.0959C108.702 12.7482 108.789 13.1164 108.2 13.1164H102.812C102.668 13.1164 102.181 13.0375 102.181 13.5495C102.181 14.0597 102.081 14.2613 102.624 14.2613H107.39C107.39 14.2613 108.079 15.5729 108.156 15.7938C108.269 15.9937 108.256 16.183 107.835 16.183H102.901L102.135 14.6944V16.8949C102.135 17.4051 102.591 17.3052 102.724 17.3052H108.323C108.88 17.3052 108.833 17.691 108.833 18.3257C108.833 19.006 108.88 19.3812 108.323 19.3812H101.236C100.647 19.3812 99.4929 19.2024 99.4929 17.3613V12.7376C99.4929 12.2607 99.7489 11.0193 101.381 11.0193" fill="black"></path><path d="M116.484 13.1749H113.164C112.611 13.1749 112.631 13.3642 112.631 13.5326V15.0317H116.051C117.708 15.0317 117.708 14.6179 117.708 14.1848C117.708 13.3187 117.643 13.1749 116.484 13.1749ZM110.542 10.9639H118.008C119.008 10.9639 120.461 10.9533 120.461 13.6518C120.461 15.4192 120.086 15.5069 119.286 16.0504C120.631 16.2854 120.452 18.0055 120.452 18.8962C120.452 19.3521 120.288 19.3415 120.151 19.3415H117.964C117.507 19.3415 117.619 18.6174 117.619 18.2404C117.619 17.2059 117.04 17.2533 116.818 17.2533H113.597C113.288 16.7185 112.687 15.5174 112.687 15.5174V18.9961C112.687 19.2977 112.385 19.3415 112.275 19.3415H110.078C110.197 19.3415 109.851 19.3626 109.851 19.061V11.6863C109.851 11.1638 110.22 10.9639 110.542 10.9639Z" fill="black"></path><path d="M132.426 13.3393L131.048 15.8501L131.171 15.9728H133.738L133.871 15.8501C133.78 15.659 132.672 13.5497 132.56 13.3252L132.426 13.3393ZM133.314 11.0195C133.857 11.0195 134.388 11.2633 134.969 12.3854C135.36 13.1832 138.07 18.0804 138.633 19.1044V19.3832H135.812L135 17.9156H131.569C131.569 17.9156 130.992 16.5935 130.827 16.2288C130.617 16.5725 129.481 18.7274 129.091 19.3832H126.26V19.2043C126.838 18.1172 130.782 11.0195 130.782 11.0195" fill="black"></path><path d="M146.038 13.1749H142.715C142.161 13.1749 142.184 13.3642 142.184 13.5326V15.0317H145.603C147.262 15.0317 147.262 14.6179 147.262 14.1848C147.262 13.3187 147.195 13.1749 146.038 13.1749ZM140.094 10.9639H147.56C148.559 10.9639 150.015 10.9533 150.015 13.6518C150.015 15.4192 149.641 15.5069 148.838 16.0504C150.181 16.2854 150.002 18.0055 150.002 18.8962C150.002 19.3521 149.838 19.3415 149.704 19.3415H147.516C147.06 19.3415 147.171 18.6174 147.171 18.2404C147.171 17.2059 146.594 17.2533 146.371 17.2533H143.147C142.836 16.7185 142.235 15.5174 142.235 15.5174V18.9961C142.235 19.2977 141.937 19.3415 141.826 19.3415H139.626C139.749 19.3415 139.405 19.3626 139.405 19.061V11.6863C139.405 11.1638 139.773 10.9639 140.094 10.9639Z" fill="black"></path><path d="M156.537 19.3381C155.501 17.3959 154.452 15.4601 153.392 13.5309V18.7489C153.392 18.9821 153.423 19.3381 152.895 19.3381H151.38C150.814 19.3381 150.858 18.9821 150.858 18.7489V11.5706C150.858 11.3286 150.826 10.9604 151.38 10.9604H153.993C154.38 10.9604 154.933 10.871 155.559 12.1176C156.027 13.1135 157.016 15.186 157.693 16.2819C158.39 15.1843 159.404 13.1136 159.87 12.1159C160.48 10.871 161.024 10.9604 161.457 10.9604H164.056C164.59 10.9604 164.534 11.3286 164.534 11.5706V18.7489C164.534 18.9821 164.61 19.3381 164.056 19.3381H162.535C161.98 19.3381 162.023 18.9821 162.023 18.7489V13.5309C160.971 15.4157 159.435 18.2948 158.855 19.3381" fill="black"></path><path d="M172.865 17.2066C174.122 17.2066 174.077 15.9091 174.077 15.0412C174.077 14.2626 174.254 13.0423 172.621 13.0423H169.853C168.233 13.0423 168.422 14.2626 168.422 15.0412C168.422 15.9091 168.345 17.2066 169.6 17.2066H172.865ZM167.889 19.3632C165.411 19.3632 165.522 16.7051 165.522 14.9868C165.522 13.4087 165.345 10.9435 168.445 10.9189H173.945C177.054 10.9189 176.852 13.4175 176.852 14.9868C176.852 16.7051 176.977 19.3615 174.464 19.3615" fill="black"></path><path d="M180.994 19.3401C177.815 19.3401 177.76 16.917 177.76 15.9824V11.5726C177.76 11.3061 177.739 10.9502 178.306 10.9502H179.95C180.482 10.9502 180.45 11.3307 180.45 11.5726V15.9824C180.45 16.2963 180.506 17.1396 181.66 17.1396H184.416C185.549 17.1396 185.616 16.2963 185.616 15.9824V11.5726C185.616 11.3307 185.58 10.9502 186.114 10.9502H187.769C188.368 10.9502 188.316 11.3307 188.316 11.5726V15.9824C188.316 16.917 188.26 19.3401 185.07 19.3401" fill="black"></path><path d="M196.02 13.1749H192.699C192.145 13.1749 192.166 13.3642 192.166 13.5326V15.0317H195.587C197.244 15.0317 197.244 14.6179 197.244 14.1848C197.244 13.3187 197.179 13.1749 196.02 13.1749ZM190.076 10.9639H197.545C198.545 10.9639 200 10.9533 200 13.6518C200 15.4192 199.621 15.5069 198.822 16.0504C200.166 16.2854 199.989 18.0055 199.989 18.8962C199.989 19.3521 199.823 19.3415 199.688 19.3415H197.5C197.044 19.3415 197.154 18.6174 197.154 18.2404C197.154 17.2059 196.577 17.2533 196.356 17.2533H193.132C192.823 16.7185 192.222 15.5174 192.222 15.5174V18.9961C192.222 19.2977 191.92 19.3415 191.812 19.3415H189.615C189.734 19.3415 189.39 19.3626 189.39 19.061V11.6863C189.39 11.1638 189.758 10.9639 190.076 10.9639Z" fill="black"></path></svg>