<svg xmlns="http://www.w3.org/2000/svg" width="449" height="294" viewBox="0 0 449 294" fill="none"><circle cx="301.075" cy="146.932" r="145.931" stroke="#3843D0" stroke-width="2" stroke-dasharray="8.37 8.37"></circle><circle cx="261.075" cy="146.932" r="145.931" fill="#FECD70"></circle><circle cx="211.075" cy="146.932" r="145.931" fill="#FF8D54"></circle><path d="M148.866 292.864C230.681 292.864 297.006 227.528 297.006 146.932C297.006 66.3359 230.681 1 148.866 1C67.05 1 0.725342 66.3359 0.725342 146.932C0.725342 227.528 67.05 292.864 148.866 292.864Z" fill="#6AC7B7"></path><path fill-rule="evenodd" clip-rule="evenodd" d="M292.895 122.263C287.893 122.571 283.004 120.538 278.84 117.778C276.339 116.102 273.838 114.081 271.012 113.095C268.186 112.109 264.535 112.208 262.434 114.401C258.883 118.098 262.434 124.765 267.436 126.219C269.862 126.921 272.438 126.835 274.876 127.599C277.314 128.363 279.603 130.445 279.315 132.91C278.982 134.451 278.093 135.821 276.814 136.767C272.162 140.771 265.06 142.989 259.771 139.823C252.343 135.387 252.168 122.965 243.952 120.181C241.702 119.417 238.663 119.922 237.775 122.103C237.45 123.1 237.411 124.166 237.663 125.183C239.913 138.43 253.043 149.015 266.673 148.596C267.925 148.47 269.19 148.528 270.424 148.769C273.801 149.681 275.301 153.87 274.488 157.234C273.676 160.598 271.262 163.297 268.999 165.934C259.286 177.29 251.238 189.933 245.09 203.493C241.627 211.145 238.338 219.598 231.135 224.059C229.35 225.278 227.23 225.931 225.058 225.932C220.194 225.735 216.868 221.114 214.692 216.813C209.833 207.296 206.749 196.994 205.589 186.402C204.601 177.209 204.338 166.427 196.686 161.067C191.159 157.197 183.756 157.752 177.091 156.483C164.587 154.117 153.333 142.928 154.583 130.408C155.608 120.23 164.487 112.085 174.378 108.967C184.269 105.85 194.997 106.823 205.239 108.524C215.48 110.224 225.733 112.627 236.112 112.22C239.151 112.097 242.977 110.988 243.227 108.006C243.602 103.422 234.874 101.081 236.562 96.8048C237.913 93.3915 243.74 95.0551 246.353 92.4427C248.054 90.7422 247.604 87.7232 245.941 85.9734C244.141 84.3441 241.847 83.3438 239.413 83.1269C236.723 82.6273 233.952 82.7369 231.31 83.4473C223.808 85.7146 219.819 94.2418 212.404 96.6693C205.989 98.7764 198.774 95.6958 192.272 97.5072C186.207 99.1831 180.63 104.901 174.765 102.843C173.433 102.371 172.272 101.522 171.429 100.401C170.586 99.2797 170.099 97.9377 170.03 96.5443C169.96 95.1508 170.311 93.7682 171.038 92.5711C171.765 91.374 172.836 90.416 174.115 89.818C177.729 88.1175 182.168 89.5839 185.932 88.253C186.169 88.2004 186.392 88.0955 186.582 87.9461C186.773 87.7967 186.927 87.6068 187.032 87.3905C187.22 86.8113 186.77 86.2445 186.432 85.7393C184.456 82.7326 186.107 78.4813 188.933 76.3003C191.759 74.1192 195.56 73.4538 199.124 72.7514C207.034 71.1798 214.826 69.0759 222.445 66.4546C225.033 65.5674 228.184 63.5219 227.246 60.9834C226.696 59.4678 224.858 58.79 223.22 58.7407C218.881 58.5929 215.055 61.3038 211.153 63.1891C207.252 65.0745 201.962 65.9494 198.999 62.8195C196.273 59.9483 197.173 55.044 199.849 52.1236C202.525 49.2031 206.439 47.7984 210.19 46.4799C214.113 44.8928 218.25 43.8798 222.47 43.4732C226.684 43.2637 231.223 44.4343 234.049 47.5026C235.662 49.2278 236.975 51.6553 239.338 52.025C240.437 52.0973 241.54 51.9463 242.577 51.5814C248.252 50.1675 254.136 49.7504 259.958 50.3491C246.222 35.0279 229.375 22.7194 210.507 14.2198C191.639 5.7203 171.17 1.21921 150.425 1.00781C129.68 0.796409 109.121 4.87942 90.0785 12.9926C71.036 21.1058 53.9342 33.0685 39.8797 48.1065C46.2194 48.7595 52.5217 50.6942 58.9114 50.46C63.8132 50.2875 68.6899 48.8458 73.5292 49.5358C75.5549 49.8193 78.0308 51.4581 77.1554 53.2326C76.8248 53.8206 76.306 54.2842 75.6799 54.5511C73.9043 55.4876 71.8661 55.9435 70.2155 57.0772C68.5649 58.2109 67.3645 60.4289 68.3023 62.1787C69.2401 63.9285 71.566 64.2119 73.5166 64.0147C78.1058 63.5465 82.2698 61.3777 86.5463 59.6033C90.8228 57.8289 95.4995 56.4241 99.9636 57.5454C104.428 58.6668 108.279 63.2261 107.004 67.6006C106.128 70.6196 103.152 72.6528 100.076 73.5031C97 74.3533 93.7489 74.2547 90.5602 74.5135C89.3098 74.6121 87.6342 75.0187 87.3341 76.2879C87.278 76.577 87.2812 76.8742 87.3435 77.162C87.4058 77.4498 87.5259 77.7224 87.6967 77.9638C89.5474 80.8349 94.8493 80.1572 96.2122 83.2748C97.3376 85.8625 94.6617 88.4995 92.0858 89.7194C88.0093 91.6417 83.4827 92.4057 79.1562 93.7119C74.8296 95.0181 70.403 97.0267 67.9021 100.686C64.726 105.172 64.5385 111.678 60.0994 114.944C56.9107 117.297 52.4841 117.149 48.5953 116.287C44.7064 115.424 40.8925 113.921 36.8911 113.933C32.8897 113.945 28.5131 116.003 27.5127 119.799C26.775 122.633 28.113 125.639 30.0887 127.808C32.2108 129.849 34.5264 131.685 37.0036 133.292C43.3809 138.06 53.7596 150.075 52.084 152.946C50.4084 155.817 40.2298 148.855 34.3152 146.785C31.928 146.097 29.6256 145.151 27.4502 143.963C23.1112 141.277 20.2852 136.816 16.959 132.984C12.695 128.055 7.41808 123.964 3.47918 118.862C-0.691061 139.877 -0.118981 161.538 5.15485 182.311C10.4287 203.084 20.2751 222.458 33.9961 239.062C47.7171 255.666 64.9767 269.092 84.5512 278.388C104.126 287.684 125.536 292.623 147.264 292.855C168.991 293.087 190.505 288.605 210.279 279.728C230.053 270.851 247.603 257.796 261.685 241.489C275.767 225.182 286.037 206.021 291.765 185.366C297.494 164.71 298.541 143.066 294.833 121.967C294.198 122.124 293.549 122.223 292.895 122.263ZM181.743 63.3247C182.513 63.0615 183.332 62.9616 184.144 63.0317C184.956 63.1018 185.745 63.3402 186.457 63.7313C187.189 64.021 187.863 64.4384 188.445 64.9636C189.188 65.7348 189.688 66.7024 189.883 67.7485C190.349 69.6026 190.145 71.5586 189.308 73.2812C188.881 74.1313 188.26 74.8727 187.495 75.4477C186.729 76.0226 185.839 76.4156 184.894 76.596C184.107 76.7573 183.287 76.6256 182.593 76.2263C182.252 76.0181 181.99 75.7049 181.847 75.3351C181.705 74.9654 181.69 74.5597 181.805 74.1808C182.055 73.5154 182.768 73.1334 183.168 72.5296C183.418 72.0188 183.526 71.4517 183.48 70.8864C183.434 70.3211 183.235 69.7782 182.906 69.3134C182.238 68.3907 181.636 67.4231 181.105 66.4176C180.68 65.3456 179.329 63.8669 181.743 63.3247ZM173.902 71.9504C174.03 71.1356 174.385 70.3718 174.928 69.7447C175.206 69.4371 175.586 69.2363 176 69.1777C176.414 69.1191 176.836 69.2064 177.191 69.4243C177.62 70.0712 177.913 70.796 178.054 71.5561C178.115 72.5685 177.922 73.5801 177.491 74.5012C177.256 74.9524 176.87 75.3095 176.398 75.5117C175.926 75.7139 175.398 75.7487 174.903 75.6102C173.615 75.0803 173.59 73.2936 173.902 71.9504ZM93.9989 36.6835C94.2744 35.9299 94.7651 35.2709 95.412 34.7859C96.7736 33.6452 98.4025 32.8575 100.151 32.4939L99.651 31.5943C98.0254 30.781 98.1254 28.2549 99.4134 26.9857C100.832 25.8574 102.592 25.2285 104.415 25.199C108.08 24.6981 111.803 24.773 115.444 25.4208C117.232 25.8028 119.32 26.8255 119.32 28.6369C119.248 29.2548 118.999 29.8397 118.603 30.3239C118.207 30.8081 117.68 31.1717 117.082 31.3725C115.919 31.8531 114.581 31.964 113.431 32.346C111.068 33.0854 109.179 34.8105 107.066 36.1167C103.725 38.1792 99.8263 39.1933 95.8871 39.0248C95.4569 39.0355 95.0297 38.9513 94.6367 38.7783C94.3211 38.539 94.0897 38.208 93.9753 37.8322C93.8609 37.4563 93.8692 37.0545 93.9989 36.6835V36.6835ZM107.016 52.3577C106.184 52.895 105.194 53.1423 104.203 53.0601C102.539 53.0601 100.689 52.9368 99.5509 51.7292C99.0725 51.0902 98.654 50.4097 98.3005 49.696C97.05 47.6998 93.2987 50.6325 90.1726 47.3424C87.0465 44.0523 87.5466 42.1177 88.8221 41.7111C93.1611 40.3063 95.537 41.4893 98.8257 42.2409C102.134 42.8866 105.072 44.7394 107.054 47.4287C108.054 48.9321 108.442 51.2117 107.016 52.3577ZM129.799 196.186C124.797 206.044 115.807 213.375 107.629 220.966C99.4509 228.557 91.4731 237.417 89.5599 248.322C88.6846 253.362 88.9722 259.042 85.571 262.899C85.0628 263.567 84.3078 264.01 83.4702 264.132C81.9947 264.23 80.9693 262.752 80.3566 261.458C74.6921 249.899 72.8539 236.813 72.6413 224.034C72.6964 220.987 72.4872 217.94 72.0161 214.928C71.533 212.786 70.8936 210.682 70.1029 208.631C68.6756 205.414 66.8349 202.391 64.626 199.636C60.0493 193.684 56.0479 187.104 54.4098 179.821C52.7718 172.539 53.7471 164.418 58.3112 158.454C61.0847 154.984 64.8807 152.446 69.1776 151.188C73.4745 149.93 78.0612 150.015 82.3073 151.43C87.3091 153.217 91.423 156.766 95.4745 160.155C102.352 165.897 109.842 171.565 118.708 173.18C121.284 173.66 123.997 173.796 126.348 174.929C128.124 175.904 129.622 177.305 130.702 179.003C131.782 180.7 132.409 182.639 132.525 184.639C132.71 188.662 131.767 192.657 129.799 196.186ZM139.803 57.1265C137.752 57.7673 135.601 58.2602 133.551 59.0734C131.023 60.1866 128.672 61.656 126.573 63.4356C124.535 64.8773 121.571 62.5114 121.484 60.0346C121.396 57.5578 123.109 55.4013 124.647 53.4421C126.185 51.4828 127.748 49.1908 127.386 46.7263C127.023 44.2618 124.56 42.2779 122.084 41.2428C121.065 40.9715 120.159 40.3891 119.496 39.5793C118.72 38.347 119.383 36.6835 120.296 35.5375C123.172 31.8408 128.049 30.4237 132.613 29.3763C136.514 28.4521 140.428 27.6388 144.354 26.9118C151.745 25.5317 159.722 24.4473 166.487 27.7251C167.777 28.2458 168.873 29.1449 169.626 30.3005C170.117 31.2599 170.329 32.3347 170.239 33.4057C170.014 39.0001 165.437 43.4362 160.823 46.714C154.394 51.2399 147.29 54.7528 139.765 57.1265H139.803Z" fill="#3843D0"></path><path d="M130.985 164.12C130.985 174.46 112.29 199.343 112.29 199.343C112.29 199.343 93.6213 174.46 93.6213 164.12C93.7999 159.284 95.8463 154.707 99.3303 151.349C102.814 147.991 107.464 146.115 112.303 146.115C117.142 146.115 121.792 147.991 125.276 151.349C128.76 154.707 130.806 159.284 130.985 164.12V164.12Z" fill="white"></path><path d="M83.8254 56.0229C83.8254 66.3634 65.131 91.2466 65.131 91.2466C65.131 91.2466 46.4622 66.3634 46.4622 56.0229C46.6407 51.1876 48.6871 46.61 52.1711 43.2523C55.6551 39.8946 60.3052 38.0186 65.1438 38.0186C69.9824 38.0186 74.6325 39.8946 78.1165 43.2523C81.6004 46.61 83.6469 51.1876 83.8254 56.0229V56.0229Z" fill="white"></path><path d="M206.075 60.0229C206.075 70.3634 187.381 95.2466 187.381 95.2466C187.381 95.2466 168.712 70.3634 168.712 60.0229C168.89 55.1876 170.937 50.61 174.421 47.2523C177.905 43.8946 182.555 42.0186 187.393 42.0186C192.232 42.0186 196.882 43.8946 200.366 47.2523C203.85 50.61 205.896 55.1876 206.075 60.0229V60.0229Z" fill="white"></path><path d="M247.438 164.12C247.438 174.46 228.744 199.343 228.744 199.343C228.744 199.343 210.075 174.46 210.075 164.12C210.254 159.284 212.3 154.707 215.784 151.349C219.268 147.991 223.918 146.115 228.757 146.115C233.595 146.115 238.245 147.991 241.729 151.349C245.213 154.707 247.26 159.284 247.438 164.12V164.12Z" fill="white"></path></svg>