<svg xmlns="http://www.w3.org/2000/svg" width="346" height="340" viewBox="0 0 346 340" fill="none"><path d="M11.8138 73.7049V45.4661C11.8138 24.8496 28.5267 8.13672 49.1431 8.13672H296.019C316.636 8.13672 333.349 24.8496 333.349 45.466V292.342C333.349 312.959 316.636 329.672 296.019 329.672H49.1431C28.5266 329.672 11.8138 312.959 11.8138 292.342V264.4" stroke="#3843D0" stroke-width="2" stroke-linecap="round" stroke-linejoin="round"></path><rect x="211.253" y="318.391" width="60.6898" height="21.609" rx="10.8045" fill="#FF8D54"></rect><rect x="59.7962" width="15.5547" height="15.5547" rx="7.77736" fill="#FEC14D"></rect><rect x="150.751" y="77.3589" width="194.982" height="194.982" rx="97.4909" fill="#3843D0"></rect><path d="M211.253 141.574L211.253 181.096C211.253 191.73 219.873 200.351 230.507 200.351V200.351C241.141 200.351 249.762 191.73 249.762 181.096L249.762 160.279C249.762 149.949 258.137 141.574 268.467 141.574V141.574C278.798 141.574 287.173 149.949 287.173 160.279L287.173 200.351" stroke="white" stroke-width="3" stroke-linecap="round"></path><rect x="195.505" y="77.3591" width="194.982" height="194.982" rx="97.4909" transform="rotate(90 195.505 77.3591)" fill="#FEC14D"></rect><rect x="194.505" y="69.6152" width="192.982" height="192.982" rx="96.4909" transform="rotate(90 194.505 69.6152)" stroke="#040237" stroke-width="2"></rect><rect x="177.744" y="86.3777" width="159.458" height="159.458" rx="79.7288" transform="rotate(90 177.744 86.3777)" stroke="#FAF4EB" stroke-width="2"></rect><path d="M127.672 125.499L88.1504 125.499C77.5164 125.499 68.8958 134.119 68.8958 144.753V144.753C68.8958 155.387 77.5164 164.008 88.1504 164.008L108.967 164.008C119.298 164.008 127.672 172.382 127.672 182.713V182.713C127.672 193.044 119.298 201.418 108.967 201.418L68.8958 201.418" stroke="white" stroke-width="3" stroke-linecap="round"></path><path d="M98.2842 108.906V219.537" stroke="white" stroke-width="3" stroke-linecap="round" stroke-linejoin="round"></path></svg>